%TF.GenerationSoftware,KiCad,Pcbnew,8.0.4*%
%TF.CreationDate,2024-09-29T16:10:45+07:00*%
%TF.ProjectId,Schematic_editted,53636865-6d61-4746-9963-5f6564697474,rev?*%
%TF.SameCoordinates,Original*%
%TF.FileFunction,Legend,Bot*%
%TF.FilePolarity,Positive*%
%FSLAX46Y46*%
G04 Gerber Fmt 4.6, Leading zero omitted, Abs format (unit mm)*
G04 Created by KiCad (PCBNEW 8.0.4) date 2024-09-29 16:10:45*
%MOMM*%
%LPD*%
G01*
G04 APERTURE LIST*
%ADD10C,0.100000*%
%ADD11C,0.150000*%
%ADD12C,0.120000*%
G04 APERTURE END LIST*
D10*
X104772782Y-70468609D02*
X104629925Y-70516228D01*
X104629925Y-70516228D02*
X104582306Y-70563847D01*
X104582306Y-70563847D02*
X104534687Y-70659085D01*
X104534687Y-70659085D02*
X104534687Y-70801942D01*
X104534687Y-70801942D02*
X104582306Y-70897180D01*
X104582306Y-70897180D02*
X104629925Y-70944800D01*
X104629925Y-70944800D02*
X104725163Y-70992419D01*
X104725163Y-70992419D02*
X105106115Y-70992419D01*
X105106115Y-70992419D02*
X105106115Y-69992419D01*
X105106115Y-69992419D02*
X104772782Y-69992419D01*
X104772782Y-69992419D02*
X104677544Y-70040038D01*
X104677544Y-70040038D02*
X104629925Y-70087657D01*
X104629925Y-70087657D02*
X104582306Y-70182895D01*
X104582306Y-70182895D02*
X104582306Y-70278133D01*
X104582306Y-70278133D02*
X104629925Y-70373371D01*
X104629925Y-70373371D02*
X104677544Y-70420990D01*
X104677544Y-70420990D02*
X104772782Y-70468609D01*
X104772782Y-70468609D02*
X105106115Y-70468609D01*
X103677544Y-70325752D02*
X103677544Y-70992419D01*
X104106115Y-70325752D02*
X104106115Y-70849561D01*
X104106115Y-70849561D02*
X104058496Y-70944800D01*
X104058496Y-70944800D02*
X103963258Y-70992419D01*
X103963258Y-70992419D02*
X103820401Y-70992419D01*
X103820401Y-70992419D02*
X103725163Y-70944800D01*
X103725163Y-70944800D02*
X103677544Y-70897180D01*
X103201353Y-70992419D02*
X103201353Y-70325752D01*
X103201353Y-69992419D02*
X103248972Y-70040038D01*
X103248972Y-70040038D02*
X103201353Y-70087657D01*
X103201353Y-70087657D02*
X103153734Y-70040038D01*
X103153734Y-70040038D02*
X103201353Y-69992419D01*
X103201353Y-69992419D02*
X103201353Y-70087657D01*
X101963258Y-70992419D02*
X101963258Y-69992419D01*
X101391830Y-70992419D02*
X101820401Y-70420990D01*
X101391830Y-69992419D02*
X101963258Y-70563847D01*
X100963258Y-70992419D02*
X100963258Y-69992419D01*
X100534687Y-70992419D02*
X100534687Y-70468609D01*
X100534687Y-70468609D02*
X100582306Y-70373371D01*
X100582306Y-70373371D02*
X100677544Y-70325752D01*
X100677544Y-70325752D02*
X100820401Y-70325752D01*
X100820401Y-70325752D02*
X100915639Y-70373371D01*
X100915639Y-70373371D02*
X100963258Y-70420990D01*
X99629925Y-70992419D02*
X99629925Y-70468609D01*
X99629925Y-70468609D02*
X99677544Y-70373371D01*
X99677544Y-70373371D02*
X99772782Y-70325752D01*
X99772782Y-70325752D02*
X99963258Y-70325752D01*
X99963258Y-70325752D02*
X100058496Y-70373371D01*
X99629925Y-70944800D02*
X99725163Y-70992419D01*
X99725163Y-70992419D02*
X99963258Y-70992419D01*
X99963258Y-70992419D02*
X100058496Y-70944800D01*
X100058496Y-70944800D02*
X100106115Y-70849561D01*
X100106115Y-70849561D02*
X100106115Y-70754323D01*
X100106115Y-70754323D02*
X100058496Y-70659085D01*
X100058496Y-70659085D02*
X99963258Y-70611466D01*
X99963258Y-70611466D02*
X99725163Y-70611466D01*
X99725163Y-70611466D02*
X99629925Y-70563847D01*
X99153734Y-70325752D02*
X99153734Y-70992419D01*
X99153734Y-70420990D02*
X99106115Y-70373371D01*
X99106115Y-70373371D02*
X99010877Y-70325752D01*
X99010877Y-70325752D02*
X98868020Y-70325752D01*
X98868020Y-70325752D02*
X98772782Y-70373371D01*
X98772782Y-70373371D02*
X98725163Y-70468609D01*
X98725163Y-70468609D02*
X98725163Y-70992419D01*
X98248972Y-70992419D02*
X98248972Y-69992419D01*
X97820401Y-70992419D02*
X97820401Y-70468609D01*
X97820401Y-70468609D02*
X97868020Y-70373371D01*
X97868020Y-70373371D02*
X97963258Y-70325752D01*
X97963258Y-70325752D02*
X98106115Y-70325752D01*
X98106115Y-70325752D02*
X98201353Y-70373371D01*
X98201353Y-70373371D02*
X98248972Y-70420990D01*
X96582305Y-70992419D02*
X96582305Y-69992419D01*
X96582305Y-70468609D02*
X96010877Y-70468609D01*
X96010877Y-70992419D02*
X96010877Y-69992419D01*
X95391829Y-70992419D02*
X95487067Y-70944800D01*
X95487067Y-70944800D02*
X95534686Y-70897180D01*
X95534686Y-70897180D02*
X95582305Y-70801942D01*
X95582305Y-70801942D02*
X95582305Y-70516228D01*
X95582305Y-70516228D02*
X95534686Y-70420990D01*
X95534686Y-70420990D02*
X95487067Y-70373371D01*
X95487067Y-70373371D02*
X95391829Y-70325752D01*
X95391829Y-70325752D02*
X95248972Y-70325752D01*
X95248972Y-70325752D02*
X95153734Y-70373371D01*
X95153734Y-70373371D02*
X95106115Y-70420990D01*
X95106115Y-70420990D02*
X95058496Y-70516228D01*
X95058496Y-70516228D02*
X95058496Y-70801942D01*
X95058496Y-70801942D02*
X95106115Y-70897180D01*
X95106115Y-70897180D02*
X95153734Y-70944800D01*
X95153734Y-70944800D02*
X95248972Y-70992419D01*
X95248972Y-70992419D02*
X95391829Y-70992419D01*
X94201353Y-70992419D02*
X94201353Y-70468609D01*
X94201353Y-70468609D02*
X94248972Y-70373371D01*
X94248972Y-70373371D02*
X94344210Y-70325752D01*
X94344210Y-70325752D02*
X94534686Y-70325752D01*
X94534686Y-70325752D02*
X94629924Y-70373371D01*
X94201353Y-70944800D02*
X94296591Y-70992419D01*
X94296591Y-70992419D02*
X94534686Y-70992419D01*
X94534686Y-70992419D02*
X94629924Y-70944800D01*
X94629924Y-70944800D02*
X94677543Y-70849561D01*
X94677543Y-70849561D02*
X94677543Y-70754323D01*
X94677543Y-70754323D02*
X94629924Y-70659085D01*
X94629924Y-70659085D02*
X94534686Y-70611466D01*
X94534686Y-70611466D02*
X94296591Y-70611466D01*
X94296591Y-70611466D02*
X94201353Y-70563847D01*
X93725162Y-70325752D02*
X93725162Y-70992419D01*
X93725162Y-70420990D02*
X93677543Y-70373371D01*
X93677543Y-70373371D02*
X93582305Y-70325752D01*
X93582305Y-70325752D02*
X93439448Y-70325752D01*
X93439448Y-70325752D02*
X93344210Y-70373371D01*
X93344210Y-70373371D02*
X93296591Y-70468609D01*
X93296591Y-70468609D02*
X93296591Y-70992419D01*
X92391829Y-70325752D02*
X92391829Y-71135276D01*
X92391829Y-71135276D02*
X92439448Y-71230514D01*
X92439448Y-71230514D02*
X92487067Y-71278133D01*
X92487067Y-71278133D02*
X92582305Y-71325752D01*
X92582305Y-71325752D02*
X92725162Y-71325752D01*
X92725162Y-71325752D02*
X92820400Y-71278133D01*
X92391829Y-70944800D02*
X92487067Y-70992419D01*
X92487067Y-70992419D02*
X92677543Y-70992419D01*
X92677543Y-70992419D02*
X92772781Y-70944800D01*
X92772781Y-70944800D02*
X92820400Y-70897180D01*
X92820400Y-70897180D02*
X92868019Y-70801942D01*
X92868019Y-70801942D02*
X92868019Y-70516228D01*
X92868019Y-70516228D02*
X92820400Y-70420990D01*
X92820400Y-70420990D02*
X92772781Y-70373371D01*
X92772781Y-70373371D02*
X92677543Y-70325752D01*
X92677543Y-70325752D02*
X92487067Y-70325752D01*
X92487067Y-70325752D02*
X92391829Y-70373371D01*
D11*
X163176952Y-97392819D02*
X163748380Y-97392819D01*
X163462666Y-97392819D02*
X163462666Y-96392819D01*
X163462666Y-96392819D02*
X163557904Y-96535676D01*
X163557904Y-96535676D02*
X163653142Y-96630914D01*
X163653142Y-96630914D02*
X163748380Y-96678533D01*
X162557904Y-96392819D02*
X162462666Y-96392819D01*
X162462666Y-96392819D02*
X162367428Y-96440438D01*
X162367428Y-96440438D02*
X162319809Y-96488057D01*
X162319809Y-96488057D02*
X162272190Y-96583295D01*
X162272190Y-96583295D02*
X162224571Y-96773771D01*
X162224571Y-96773771D02*
X162224571Y-97011866D01*
X162224571Y-97011866D02*
X162272190Y-97202342D01*
X162272190Y-97202342D02*
X162319809Y-97297580D01*
X162319809Y-97297580D02*
X162367428Y-97345200D01*
X162367428Y-97345200D02*
X162462666Y-97392819D01*
X162462666Y-97392819D02*
X162557904Y-97392819D01*
X162557904Y-97392819D02*
X162653142Y-97345200D01*
X162653142Y-97345200D02*
X162700761Y-97297580D01*
X162700761Y-97297580D02*
X162748380Y-97202342D01*
X162748380Y-97202342D02*
X162795999Y-97011866D01*
X162795999Y-97011866D02*
X162795999Y-96773771D01*
X162795999Y-96773771D02*
X162748380Y-96583295D01*
X162748380Y-96583295D02*
X162700761Y-96488057D01*
X162700761Y-96488057D02*
X162653142Y-96440438D01*
X162653142Y-96440438D02*
X162557904Y-96392819D01*
X161319809Y-96392819D02*
X161795999Y-96392819D01*
X161795999Y-96392819D02*
X161843618Y-96869009D01*
X161843618Y-96869009D02*
X161795999Y-96821390D01*
X161795999Y-96821390D02*
X161700761Y-96773771D01*
X161700761Y-96773771D02*
X161462666Y-96773771D01*
X161462666Y-96773771D02*
X161367428Y-96821390D01*
X161367428Y-96821390D02*
X161319809Y-96869009D01*
X161319809Y-96869009D02*
X161272190Y-96964247D01*
X161272190Y-96964247D02*
X161272190Y-97202342D01*
X161272190Y-97202342D02*
X161319809Y-97297580D01*
X161319809Y-97297580D02*
X161367428Y-97345200D01*
X161367428Y-97345200D02*
X161462666Y-97392819D01*
X161462666Y-97392819D02*
X161700761Y-97392819D01*
X161700761Y-97392819D02*
X161795999Y-97345200D01*
X161795999Y-97345200D02*
X161843618Y-97297580D01*
X160795999Y-97345200D02*
X160795999Y-97392819D01*
X160795999Y-97392819D02*
X160843618Y-97488057D01*
X160843618Y-97488057D02*
X160891237Y-97535676D01*
X159843619Y-97392819D02*
X160415047Y-97392819D01*
X160129333Y-97392819D02*
X160129333Y-96392819D01*
X160129333Y-96392819D02*
X160224571Y-96535676D01*
X160224571Y-96535676D02*
X160319809Y-96630914D01*
X160319809Y-96630914D02*
X160415047Y-96678533D01*
X162930952Y-91992819D02*
X163264285Y-91516628D01*
X163502380Y-91992819D02*
X163502380Y-90992819D01*
X163502380Y-90992819D02*
X163121428Y-90992819D01*
X163121428Y-90992819D02*
X163026190Y-91040438D01*
X163026190Y-91040438D02*
X162978571Y-91088057D01*
X162978571Y-91088057D02*
X162930952Y-91183295D01*
X162930952Y-91183295D02*
X162930952Y-91326152D01*
X162930952Y-91326152D02*
X162978571Y-91421390D01*
X162978571Y-91421390D02*
X163026190Y-91469009D01*
X163026190Y-91469009D02*
X163121428Y-91516628D01*
X163121428Y-91516628D02*
X163502380Y-91516628D01*
X162597618Y-90992819D02*
X161978571Y-90992819D01*
X161978571Y-90992819D02*
X162311904Y-91373771D01*
X162311904Y-91373771D02*
X162169047Y-91373771D01*
X162169047Y-91373771D02*
X162073809Y-91421390D01*
X162073809Y-91421390D02*
X162026190Y-91469009D01*
X162026190Y-91469009D02*
X161978571Y-91564247D01*
X161978571Y-91564247D02*
X161978571Y-91802342D01*
X161978571Y-91802342D02*
X162026190Y-91897580D01*
X162026190Y-91897580D02*
X162073809Y-91945200D01*
X162073809Y-91945200D02*
X162169047Y-91992819D01*
X162169047Y-91992819D02*
X162454761Y-91992819D01*
X162454761Y-91992819D02*
X162549999Y-91945200D01*
X162549999Y-91945200D02*
X162597618Y-91897580D01*
X161502380Y-91945200D02*
X161502380Y-91992819D01*
X161502380Y-91992819D02*
X161549999Y-92088057D01*
X161549999Y-92088057D02*
X161597618Y-92135676D01*
X161121428Y-91088057D02*
X161073809Y-91040438D01*
X161073809Y-91040438D02*
X160978571Y-90992819D01*
X160978571Y-90992819D02*
X160740476Y-90992819D01*
X160740476Y-90992819D02*
X160645238Y-91040438D01*
X160645238Y-91040438D02*
X160597619Y-91088057D01*
X160597619Y-91088057D02*
X160550000Y-91183295D01*
X160550000Y-91183295D02*
X160550000Y-91278533D01*
X160550000Y-91278533D02*
X160597619Y-91421390D01*
X160597619Y-91421390D02*
X161169047Y-91992819D01*
X161169047Y-91992819D02*
X160550000Y-91992819D01*
X175902857Y-118629580D02*
X175950476Y-118677200D01*
X175950476Y-118677200D02*
X176093333Y-118724819D01*
X176093333Y-118724819D02*
X176188571Y-118724819D01*
X176188571Y-118724819D02*
X176331428Y-118677200D01*
X176331428Y-118677200D02*
X176426666Y-118581961D01*
X176426666Y-118581961D02*
X176474285Y-118486723D01*
X176474285Y-118486723D02*
X176521904Y-118296247D01*
X176521904Y-118296247D02*
X176521904Y-118153390D01*
X176521904Y-118153390D02*
X176474285Y-117962914D01*
X176474285Y-117962914D02*
X176426666Y-117867676D01*
X176426666Y-117867676D02*
X176331428Y-117772438D01*
X176331428Y-117772438D02*
X176188571Y-117724819D01*
X176188571Y-117724819D02*
X176093333Y-117724819D01*
X176093333Y-117724819D02*
X175950476Y-117772438D01*
X175950476Y-117772438D02*
X175902857Y-117820057D01*
X175569523Y-117724819D02*
X174950476Y-117724819D01*
X174950476Y-117724819D02*
X175283809Y-118105771D01*
X175283809Y-118105771D02*
X175140952Y-118105771D01*
X175140952Y-118105771D02*
X175045714Y-118153390D01*
X175045714Y-118153390D02*
X174998095Y-118201009D01*
X174998095Y-118201009D02*
X174950476Y-118296247D01*
X174950476Y-118296247D02*
X174950476Y-118534342D01*
X174950476Y-118534342D02*
X174998095Y-118629580D01*
X174998095Y-118629580D02*
X175045714Y-118677200D01*
X175045714Y-118677200D02*
X175140952Y-118724819D01*
X175140952Y-118724819D02*
X175426666Y-118724819D01*
X175426666Y-118724819D02*
X175521904Y-118677200D01*
X175521904Y-118677200D02*
X175569523Y-118629580D01*
X174045714Y-117724819D02*
X174521904Y-117724819D01*
X174521904Y-117724819D02*
X174569523Y-118201009D01*
X174569523Y-118201009D02*
X174521904Y-118153390D01*
X174521904Y-118153390D02*
X174426666Y-118105771D01*
X174426666Y-118105771D02*
X174188571Y-118105771D01*
X174188571Y-118105771D02*
X174093333Y-118153390D01*
X174093333Y-118153390D02*
X174045714Y-118201009D01*
X174045714Y-118201009D02*
X173998095Y-118296247D01*
X173998095Y-118296247D02*
X173998095Y-118534342D01*
X173998095Y-118534342D02*
X174045714Y-118629580D01*
X174045714Y-118629580D02*
X174093333Y-118677200D01*
X174093333Y-118677200D02*
X174188571Y-118724819D01*
X174188571Y-118724819D02*
X174426666Y-118724819D01*
X174426666Y-118724819D02*
X174521904Y-118677200D01*
X174521904Y-118677200D02*
X174569523Y-118629580D01*
X176397857Y-116089580D02*
X176445476Y-116137200D01*
X176445476Y-116137200D02*
X176588333Y-116184819D01*
X176588333Y-116184819D02*
X176683571Y-116184819D01*
X176683571Y-116184819D02*
X176826428Y-116137200D01*
X176826428Y-116137200D02*
X176921666Y-116041961D01*
X176921666Y-116041961D02*
X176969285Y-115946723D01*
X176969285Y-115946723D02*
X177016904Y-115756247D01*
X177016904Y-115756247D02*
X177016904Y-115613390D01*
X177016904Y-115613390D02*
X176969285Y-115422914D01*
X176969285Y-115422914D02*
X176921666Y-115327676D01*
X176921666Y-115327676D02*
X176826428Y-115232438D01*
X176826428Y-115232438D02*
X176683571Y-115184819D01*
X176683571Y-115184819D02*
X176588333Y-115184819D01*
X176588333Y-115184819D02*
X176445476Y-115232438D01*
X176445476Y-115232438D02*
X176397857Y-115280057D01*
X176064523Y-115184819D02*
X175445476Y-115184819D01*
X175445476Y-115184819D02*
X175778809Y-115565771D01*
X175778809Y-115565771D02*
X175635952Y-115565771D01*
X175635952Y-115565771D02*
X175540714Y-115613390D01*
X175540714Y-115613390D02*
X175493095Y-115661009D01*
X175493095Y-115661009D02*
X175445476Y-115756247D01*
X175445476Y-115756247D02*
X175445476Y-115994342D01*
X175445476Y-115994342D02*
X175493095Y-116089580D01*
X175493095Y-116089580D02*
X175540714Y-116137200D01*
X175540714Y-116137200D02*
X175635952Y-116184819D01*
X175635952Y-116184819D02*
X175921666Y-116184819D01*
X175921666Y-116184819D02*
X176016904Y-116137200D01*
X176016904Y-116137200D02*
X176064523Y-116089580D01*
X174588333Y-115518152D02*
X174588333Y-116184819D01*
X174826428Y-115137200D02*
X175064523Y-115851485D01*
X175064523Y-115851485D02*
X174445476Y-115851485D01*
X152345190Y-95668628D02*
X152345190Y-96144819D01*
X152678523Y-95144819D02*
X152345190Y-95668628D01*
X152345190Y-95668628D02*
X152011857Y-95144819D01*
X151726142Y-95240057D02*
X151678523Y-95192438D01*
X151678523Y-95192438D02*
X151583285Y-95144819D01*
X151583285Y-95144819D02*
X151345190Y-95144819D01*
X151345190Y-95144819D02*
X151249952Y-95192438D01*
X151249952Y-95192438D02*
X151202333Y-95240057D01*
X151202333Y-95240057D02*
X151154714Y-95335295D01*
X151154714Y-95335295D02*
X151154714Y-95430533D01*
X151154714Y-95430533D02*
X151202333Y-95573390D01*
X151202333Y-95573390D02*
X151773761Y-96144819D01*
X151773761Y-96144819D02*
X151154714Y-96144819D01*
D12*
%TO.C,105\u002C1*%
X161936580Y-96018000D02*
X161655420Y-96018000D01*
X161936580Y-94998000D02*
X161655420Y-94998000D01*
%TO.C,R3\u002C2*%
X161795276Y-93490500D02*
X162304724Y-93490500D01*
X161795276Y-92445500D02*
X162304724Y-92445500D01*
%TO.C,C35*%
X175400580Y-116330000D02*
X175119420Y-116330000D01*
X175400580Y-117350000D02*
X175119420Y-117350000D01*
%TO.C,104\u002C2*%
X142224420Y-77497400D02*
X142505580Y-77497400D01*
X142224420Y-78517400D02*
X142505580Y-78517400D01*
%TO.C,C9*%
X142097420Y-74424000D02*
X142378580Y-74424000D01*
X142097420Y-75444000D02*
X142378580Y-75444000D01*
%TO.C,C2*%
X142046620Y-71503000D02*
X142327780Y-71503000D01*
X142046620Y-72523000D02*
X142327780Y-72523000D01*
%TO.C,C1*%
X146188580Y-71888000D02*
X145907420Y-71888000D01*
X146188580Y-70868000D02*
X145907420Y-70868000D01*
%TO.C,104\u002C4*%
X138522733Y-73212250D02*
X138815267Y-73212250D01*
X138522733Y-74232250D02*
X138815267Y-74232250D01*
%TO.C,C34*%
X175895580Y-113790000D02*
X175614420Y-113790000D01*
X175895580Y-114810000D02*
X175614420Y-114810000D01*
%TO.C,Y2*%
X156069000Y-89390000D02*
X156069000Y-92990000D01*
X156069000Y-92990000D02*
X155599000Y-92990000D01*
X153769000Y-92990000D02*
X149969000Y-92990000D01*
X148139000Y-92990000D02*
X147669000Y-92990000D01*
X147669000Y-92990000D02*
X147669000Y-91690000D01*
X155599000Y-89390000D02*
X156069000Y-89390000D01*
X149969000Y-89390000D02*
X153769000Y-89390000D01*
X147669000Y-90690000D02*
X147669000Y-89390000D01*
X148139000Y-89390000D02*
X147669000Y-89390000D01*
X147669000Y-90690000D02*
G75*
G02*
X147669000Y-91690000I0J-500000D01*
G01*
%TD*%
M02*
