%TF.GenerationSoftware,KiCad,Pcbnew,8.0.4*%
%TF.CreationDate,2024-09-29T16:10:45+07:00*%
%TF.ProjectId,Schematic_editted,53636865-6d61-4746-9963-5f6564697474,rev?*%
%TF.SameCoordinates,Original*%
%TF.FileFunction,Soldermask,Top*%
%TF.FilePolarity,Negative*%
%FSLAX46Y46*%
G04 Gerber Fmt 4.6, Leading zero omitted, Abs format (unit mm)*
G04 Created by KiCad (PCBNEW 8.0.4) date 2024-09-29 16:10:45*
%MOMM*%
%LPD*%
G01*
G04 APERTURE LIST*
G04 Aperture macros list*
%AMRoundRect*
0 Rectangle with rounded corners*
0 $1 Rounding radius*
0 $2 $3 $4 $5 $6 $7 $8 $9 X,Y pos of 4 corners*
0 Add a 4 corners polygon primitive as box body*
4,1,4,$2,$3,$4,$5,$6,$7,$8,$9,$2,$3,0*
0 Add four circle primitives for the rounded corners*
1,1,$1+$1,$2,$3*
1,1,$1+$1,$4,$5*
1,1,$1+$1,$6,$7*
1,1,$1+$1,$8,$9*
0 Add four rect primitives between the rounded corners*
20,1,$1+$1,$2,$3,$4,$5,0*
20,1,$1+$1,$4,$5,$6,$7,0*
20,1,$1+$1,$6,$7,$8,$9,0*
20,1,$1+$1,$8,$9,$2,$3,0*%
G04 Aperture macros list end*
%ADD10R,1.350000X1.350000*%
%ADD11O,1.350000X1.350000*%
%ADD12RoundRect,0.237500X-0.250000X-0.237500X0.250000X-0.237500X0.250000X0.237500X-0.250000X0.237500X0*%
%ADD13RoundRect,0.225000X0.250000X-0.225000X0.250000X0.225000X-0.250000X0.225000X-0.250000X-0.225000X0*%
%ADD14RoundRect,0.200000X-0.200000X-0.275000X0.200000X-0.275000X0.200000X0.275000X-0.200000X0.275000X0*%
%ADD15RoundRect,0.150000X-0.150000X0.587500X-0.150000X-0.587500X0.150000X-0.587500X0.150000X0.587500X0*%
%ADD16RoundRect,0.225000X-0.225000X-0.250000X0.225000X-0.250000X0.225000X0.250000X-0.225000X0.250000X0*%
%ADD17RoundRect,0.150000X-0.825000X-0.150000X0.825000X-0.150000X0.825000X0.150000X-0.825000X0.150000X0*%
%ADD18R,2.290000X3.000000*%
%ADD19R,1.500000X1.500000*%
%ADD20C,1.500000*%
%ADD21RoundRect,0.075000X-0.662500X-0.075000X0.662500X-0.075000X0.662500X0.075000X-0.662500X0.075000X0*%
%ADD22RoundRect,0.075000X-0.075000X-0.662500X0.075000X-0.662500X0.075000X0.662500X-0.075000X0.662500X0*%
%ADD23RoundRect,0.225000X-0.250000X0.225000X-0.250000X-0.225000X0.250000X-0.225000X0.250000X0.225000X0*%
%ADD24RoundRect,0.218750X-0.218750X-0.256250X0.218750X-0.256250X0.218750X0.256250X-0.218750X0.256250X0*%
%ADD25C,0.800000*%
%ADD26R,0.450000X1.300000*%
%ADD27C,1.800000*%
%ADD28C,2.000000*%
%ADD29RoundRect,0.237500X0.250000X0.237500X-0.250000X0.237500X-0.250000X-0.237500X0.250000X-0.237500X0*%
%ADD30RoundRect,0.237500X0.237500X-0.250000X0.237500X0.250000X-0.237500X0.250000X-0.237500X-0.250000X0*%
%ADD31RoundRect,0.237500X-0.237500X0.287500X-0.237500X-0.287500X0.237500X-0.287500X0.237500X0.287500X0*%
%ADD32RoundRect,0.237500X-0.237500X0.250000X-0.237500X-0.250000X0.237500X-0.250000X0.237500X0.250000X0*%
%ADD33RoundRect,0.218750X0.218750X0.256250X-0.218750X0.256250X-0.218750X-0.256250X0.218750X-0.256250X0*%
%ADD34RoundRect,0.150000X-0.587500X-0.150000X0.587500X-0.150000X0.587500X0.150000X-0.587500X0.150000X0*%
%ADD35R,2.200000X2.200000*%
%ADD36O,2.200000X2.200000*%
%ADD37R,0.900000X2.000000*%
%ADD38RoundRect,0.100000X-0.100000X0.130000X-0.100000X-0.130000X0.100000X-0.130000X0.100000X0.130000X0*%
%ADD39RoundRect,0.250000X1.000000X-1.950000X1.000000X1.950000X-1.000000X1.950000X-1.000000X-1.950000X0*%
%ADD40RoundRect,0.237500X0.287500X0.237500X-0.287500X0.237500X-0.287500X-0.237500X0.287500X-0.237500X0*%
%ADD41R,1.200000X1.250000*%
%ADD42C,2.500000*%
%ADD43C,3.000000*%
%ADD44RoundRect,0.225000X0.225000X0.250000X-0.225000X0.250000X-0.225000X-0.250000X0.225000X-0.250000X0*%
%ADD45RoundRect,0.100000X-0.130000X-0.100000X0.130000X-0.100000X0.130000X0.100000X-0.130000X0.100000X0*%
%ADD46RoundRect,0.200000X0.200000X0.275000X-0.200000X0.275000X-0.200000X-0.275000X0.200000X-0.275000X0*%
%ADD47RoundRect,0.250000X-0.250000X-0.475000X0.250000X-0.475000X0.250000X0.475000X-0.250000X0.475000X0*%
%ADD48R,0.850000X2.350000*%
%ADD49RoundRect,0.375000X-0.625000X-0.375000X0.625000X-0.375000X0.625000X0.375000X-0.625000X0.375000X0*%
%ADD50RoundRect,0.500000X-0.500000X-1.400000X0.500000X-1.400000X0.500000X1.400000X-0.500000X1.400000X0*%
%ADD51RoundRect,0.250000X-0.650000X0.325000X-0.650000X-0.325000X0.650000X-0.325000X0.650000X0.325000X0*%
%ADD52C,7.000000*%
%ADD53RoundRect,0.237500X0.300000X0.237500X-0.300000X0.237500X-0.300000X-0.237500X0.300000X-0.237500X0*%
%ADD54RoundRect,0.125000X0.687500X0.125000X-0.687500X0.125000X-0.687500X-0.125000X0.687500X-0.125000X0*%
%ADD55RoundRect,0.218750X-0.256250X0.218750X-0.256250X-0.218750X0.256250X-0.218750X0.256250X0.218750X0*%
%ADD56RoundRect,0.237500X0.237500X-0.287500X0.237500X0.287500X-0.237500X0.287500X-0.237500X-0.287500X0*%
%ADD57RoundRect,0.150000X-0.150000X-0.200000X0.150000X-0.200000X0.150000X0.200000X-0.150000X0.200000X0*%
%ADD58RoundRect,0.150000X-0.820000X-0.150000X0.820000X-0.150000X0.820000X0.150000X-0.820000X0.150000X0*%
%ADD59R,2.620000X3.510000*%
%ADD60R,2.350000X0.850000*%
%ADD61C,1.440000*%
%ADD62RoundRect,0.150000X0.150000X0.200000X-0.150000X0.200000X-0.150000X-0.200000X0.150000X-0.200000X0*%
%ADD63RoundRect,0.218750X0.256250X-0.218750X0.256250X0.218750X-0.256250X0.218750X-0.256250X-0.218750X0*%
%ADD64RoundRect,0.250000X-2.050000X-0.300000X2.050000X-0.300000X2.050000X0.300000X-2.050000X0.300000X0*%
%ADD65RoundRect,0.250002X-4.449998X-5.149998X4.449998X-5.149998X4.449998X5.149998X-4.449998X5.149998X0*%
%ADD66RoundRect,0.250000X0.300000X-0.300000X0.300000X0.300000X-0.300000X0.300000X-0.300000X-0.300000X0*%
%ADD67R,2.410000X3.810000*%
%ADD68RoundRect,0.250000X-0.300000X-0.300000X0.300000X-0.300000X0.300000X0.300000X-0.300000X0.300000X0*%
%ADD69RoundRect,0.250000X0.475000X-0.337500X0.475000X0.337500X-0.475000X0.337500X-0.475000X-0.337500X0*%
%ADD70R,2.000000X0.900000*%
%ADD71RoundRect,0.875000X0.875000X0.875000X-0.875000X0.875000X-0.875000X-0.875000X0.875000X-0.875000X0*%
%ADD72RoundRect,0.750000X0.750000X1.000000X-0.750000X1.000000X-0.750000X-1.000000X0.750000X-1.000000X0*%
%ADD73R,3.500000X3.500000*%
%ADD74RoundRect,0.250000X1.950000X1.000000X-1.950000X1.000000X-1.950000X-1.000000X1.950000X-1.000000X0*%
G04 APERTURE END LIST*
D10*
%TO.C,J26*%
X158812000Y-102366000D03*
D11*
X160812000Y-102366000D03*
X162812000Y-102366000D03*
X164812000Y-102366000D03*
%TD*%
D12*
%TO.C,R8*%
X170895000Y-135890000D03*
X172720000Y-135890000D03*
%TD*%
D13*
%TO.C,C4-1*%
X151128000Y-91457000D03*
X151128000Y-89907000D03*
%TD*%
D14*
%TO.C,R36*%
X98338900Y-108671400D03*
X99988900Y-108671400D03*
%TD*%
D15*
%TO.C,Q2*%
X124460000Y-136222500D03*
X122560000Y-136222500D03*
X123510000Y-138097500D03*
%TD*%
D16*
%TO.C,C14*%
X187045600Y-142240000D03*
X188595600Y-142240000D03*
%TD*%
D17*
%TO.C,U6*%
X113745000Y-94615000D03*
X113745000Y-95885000D03*
X113745000Y-97155000D03*
X113745000Y-98425000D03*
X118695000Y-98425000D03*
X118695000Y-97155000D03*
X118695000Y-95885000D03*
X118695000Y-94615000D03*
D18*
X116220000Y-96520000D03*
%TD*%
D10*
%TO.C,J24*%
X145540000Y-96318000D03*
D11*
X145540000Y-98318000D03*
X145540000Y-100318000D03*
X145540000Y-102318000D03*
%TD*%
D12*
%TO.C,RV2*%
X91026700Y-108773000D03*
X92851700Y-108773000D03*
%TD*%
D19*
%TO.C,U9*%
X92051900Y-84897000D03*
D20*
X92051900Y-87437000D03*
X92051900Y-89977000D03*
X92051900Y-92517000D03*
%TD*%
D21*
%TO.C,U4*%
X157633500Y-88440000D03*
X157633500Y-88940000D03*
X157633500Y-89440000D03*
X157633500Y-89940000D03*
X157633500Y-90440000D03*
X157633500Y-90940000D03*
X157633500Y-91440000D03*
X157633500Y-91940000D03*
X157633500Y-92440000D03*
X157633500Y-92940000D03*
X157633500Y-93440000D03*
X157633500Y-93940000D03*
D22*
X159046000Y-95352500D03*
X159546000Y-95352500D03*
X160046000Y-95352500D03*
X160546000Y-95352500D03*
X161046000Y-95352500D03*
X161546000Y-95352500D03*
X162046000Y-95352500D03*
X162546000Y-95352500D03*
X163046000Y-95352500D03*
X163546000Y-95352500D03*
X164046000Y-95352500D03*
X164546000Y-95352500D03*
D21*
X165958500Y-93940000D03*
X165958500Y-93440000D03*
X165958500Y-92940000D03*
X165958500Y-92440000D03*
X165958500Y-91940000D03*
X165958500Y-91440000D03*
X165958500Y-90940000D03*
X165958500Y-90440000D03*
X165958500Y-89940000D03*
X165958500Y-89440000D03*
X165958500Y-88940000D03*
X165958500Y-88440000D03*
D22*
X164546000Y-87027500D03*
X164046000Y-87027500D03*
X163546000Y-87027500D03*
X163046000Y-87027500D03*
X162546000Y-87027500D03*
X162046000Y-87027500D03*
X161546000Y-87027500D03*
X161046000Y-87027500D03*
X160546000Y-87027500D03*
X160046000Y-87027500D03*
X159546000Y-87027500D03*
X159046000Y-87027500D03*
%TD*%
D23*
%TO.C,C12*%
X191770000Y-140690000D03*
X191770000Y-142240000D03*
%TD*%
D24*
%TO.C,D7*%
X98927500Y-140350000D03*
X97352500Y-140350000D03*
%TD*%
D25*
%TO.C,J13*%
X173191000Y-74460000D03*
X168191000Y-74460000D03*
D26*
X171991000Y-75560000D03*
X171341000Y-75560000D03*
X170691000Y-75560000D03*
X170041000Y-75560000D03*
X169391000Y-75560000D03*
D27*
X174566000Y-71710000D03*
D28*
X174416000Y-75510000D03*
X166966000Y-75510000D03*
D27*
X166816000Y-71710000D03*
%TD*%
D10*
%TO.C,J23*%
X145540000Y-86206000D03*
D11*
X145540000Y-88206000D03*
X145540000Y-90206000D03*
X145540000Y-92206000D03*
%TD*%
D29*
%TO.C,R26*%
X125015000Y-126234800D03*
X123190000Y-126234800D03*
%TD*%
D30*
%TO.C,R2\u002C2*%
X181100000Y-82808000D03*
X181100000Y-80983000D03*
%TD*%
D10*
%TO.C,J21*%
X173638000Y-83570000D03*
D11*
X171638000Y-83570000D03*
X169638000Y-83570000D03*
X167638000Y-83570000D03*
%TD*%
D13*
%TO.C,C2-1*%
X143000000Y-94772000D03*
X143000000Y-93222000D03*
%TD*%
D31*
%TO.C,D17*%
X145323000Y-132012000D03*
X145323000Y-130262000D03*
%TD*%
D10*
%TO.C,J31*%
X133350000Y-82550000D03*
%TD*%
D32*
%TO.C,R23*%
X111760000Y-90527500D03*
X111760000Y-92352500D03*
%TD*%
D29*
%TO.C,R3\u002C1*%
X142642500Y-86364000D03*
X140817500Y-86364000D03*
%TD*%
D14*
%TO.C,R27*%
X189899063Y-120935763D03*
X188249063Y-120935763D03*
%TD*%
D10*
%TO.C,J12*%
X159256000Y-74934000D03*
%TD*%
D11*
%TO.C,J28*%
X177290000Y-86460000D03*
X177290000Y-88460000D03*
X177290000Y-90460000D03*
D10*
X177290000Y-92460000D03*
%TD*%
%TO.C,J39*%
X129540000Y-111760000D03*
D11*
X129540000Y-109760000D03*
%TD*%
D14*
%TO.C,R34*%
X98352100Y-101965800D03*
X100002100Y-101965800D03*
%TD*%
D29*
%TO.C,R4\u002C1*%
X139340500Y-80014000D03*
X137515500Y-80014000D03*
%TD*%
D13*
%TO.C,C17*%
X107950000Y-92710000D03*
X107950000Y-91160000D03*
%TD*%
D10*
%TO.C,J14*%
X156208000Y-77982000D03*
%TD*%
D32*
%TO.C,R3*%
X141489000Y-89457250D03*
X141489000Y-91282250D03*
%TD*%
D33*
%TO.C,POWER_LED1*%
X92710000Y-130190000D03*
X94285000Y-130190000D03*
%TD*%
D23*
%TO.C,C33*%
X118110000Y-116840000D03*
X118110000Y-115290000D03*
%TD*%
D34*
%TO.C,Q5*%
X121315000Y-85730000D03*
X121315000Y-87630000D03*
X123190000Y-86680000D03*
%TD*%
D35*
%TO.C,D18*%
X158750000Y-110490000D03*
D36*
X148590000Y-110490000D03*
%TD*%
D10*
%TO.C,J16*%
X181100000Y-86904000D03*
D11*
X181100000Y-88904000D03*
X181100000Y-90904000D03*
X181100000Y-92904000D03*
%TD*%
D37*
%TO.C,J8*%
X164750000Y-139040000D03*
X162750000Y-142240000D03*
X160750000Y-139040000D03*
X158750000Y-142240000D03*
X156750000Y-139040000D03*
%TD*%
D12*
%TO.C,R17*%
X97790000Y-134620000D03*
X95965000Y-134620000D03*
%TD*%
D38*
%TO.C,POWER_LED2*%
X118907726Y-137874526D03*
X118907726Y-138514526D03*
%TD*%
D12*
%TO.C,R21*%
X114657500Y-88900000D03*
X116482500Y-88900000D03*
%TD*%
D10*
%TO.C,J15*%
X156208000Y-74934000D03*
%TD*%
D13*
%TO.C,D2*%
X137920000Y-86123000D03*
X137920000Y-84573000D03*
%TD*%
D39*
%TO.C,C30*%
X192947063Y-124355763D03*
X192947063Y-132755763D03*
%TD*%
D29*
%TO.C,R28*%
X125015000Y-123110600D03*
X123190000Y-123110600D03*
%TD*%
D10*
%TO.C,J17*%
X152400000Y-106680000D03*
D11*
X154400000Y-106680000D03*
%TD*%
D40*
%TO.C,D13*%
X124940000Y-133499200D03*
X123190000Y-133499200D03*
%TD*%
D41*
%TO.C,L1*%
X178335063Y-114839763D03*
X180635063Y-114839763D03*
%TD*%
D42*
%TO.C,K3*%
X166940000Y-120450000D03*
D43*
X166990000Y-132700000D03*
X154940000Y-132650000D03*
D42*
X154940000Y-120450000D03*
D43*
X160990000Y-118500000D03*
%TD*%
D31*
%TO.C,D16*%
X145450000Y-120988400D03*
X145450000Y-119238400D03*
%TD*%
D30*
%TO.C,R6*%
X191770000Y-138985000D03*
X191770000Y-137160000D03*
%TD*%
D13*
%TO.C,C38*%
X98427300Y-90167800D03*
X98427300Y-88617800D03*
%TD*%
D44*
%TO.C,C22*%
X116345000Y-92440000D03*
X114795000Y-92440000D03*
%TD*%
D45*
%TO.C,104\u002C1*%
X144458000Y-77220000D03*
X145098000Y-77220000D03*
%TD*%
D29*
%TO.C,R38*%
X148904400Y-119072000D03*
X150729400Y-119072000D03*
%TD*%
D46*
%TO.C,R31*%
X134620000Y-96520000D03*
X132970000Y-96520000D03*
%TD*%
D44*
%TO.C,C15*%
X131090000Y-74930000D03*
X129540000Y-74930000D03*
%TD*%
D47*
%TO.C,C29*%
X118110000Y-119380000D03*
X120010000Y-119380000D03*
%TD*%
D29*
%TO.C,R1*%
X108638100Y-112659200D03*
X106813100Y-112659200D03*
%TD*%
D44*
%TO.C,C10*%
X188671800Y-139700000D03*
X187121800Y-139700000D03*
%TD*%
D20*
%TO.C,Y1*%
X139444000Y-89798000D03*
X139444000Y-93598000D03*
%TD*%
D16*
%TO.C,D1*%
X84050600Y-105998200D03*
X85600600Y-105998200D03*
%TD*%
D48*
%TO.C,J6*%
X105220000Y-143320000D03*
X107220000Y-140970000D03*
X109220000Y-143320000D03*
X111220000Y-140970000D03*
%TD*%
D49*
%TO.C,U1*%
X146962000Y-73904000D03*
X146962000Y-76204000D03*
D50*
X153262000Y-76204000D03*
D49*
X146962000Y-78504000D03*
%TD*%
D44*
%TO.C,C13*%
X131419600Y-78626000D03*
X129869600Y-78626000D03*
%TD*%
D10*
%TO.C,J25*%
X149906000Y-98556000D03*
D11*
X151906000Y-98556000D03*
X153906000Y-98556000D03*
X155906000Y-98556000D03*
%TD*%
D15*
%TO.C,Q1*%
X96870000Y-122570000D03*
X95920000Y-120695000D03*
X97820000Y-120695000D03*
%TD*%
D17*
%TO.C,U7*%
X121335000Y-103775000D03*
X121335000Y-105045000D03*
X121335000Y-106315000D03*
X121335000Y-107585000D03*
X126285000Y-107585000D03*
X126285000Y-106315000D03*
X126285000Y-105045000D03*
X126285000Y-103775000D03*
D18*
X123810000Y-105680000D03*
%TD*%
D12*
%TO.C,R19*%
X103227500Y-91440000D03*
X105052500Y-91440000D03*
%TD*%
D23*
%TO.C,C1-1*%
X143000000Y-88650000D03*
X143000000Y-90200000D03*
%TD*%
D44*
%TO.C,C5*%
X139290500Y-75875500D03*
X137740500Y-75875500D03*
%TD*%
D51*
%TO.C,C31*%
X125933600Y-90193600D03*
X125933600Y-93143600D03*
%TD*%
D10*
%TO.C,J1*%
X84990700Y-95930000D03*
D11*
X84990700Y-93930000D03*
%TD*%
D10*
%TO.C,J22*%
X155144000Y-83570000D03*
D11*
X153144000Y-83570000D03*
X151144000Y-83570000D03*
X149144000Y-83570000D03*
%TD*%
D52*
%TO.C,H7*%
X86624874Y-72254474D03*
%TD*%
D10*
%TO.C,J3*%
X85295500Y-87233800D03*
D11*
X85295500Y-85233800D03*
X85295500Y-83233800D03*
%TD*%
D16*
%TO.C,C27*%
X110210000Y-109982000D03*
X111760000Y-109982000D03*
%TD*%
D53*
%TO.C,104\u002C3*%
X139533826Y-73593426D03*
X137808826Y-73593426D03*
%TD*%
D54*
%TO.C,U2*%
X95815400Y-101010400D03*
X95815400Y-100360400D03*
X95815400Y-99710400D03*
X95815400Y-99060400D03*
X91590400Y-99060400D03*
X91590400Y-99710400D03*
X91590400Y-100360400D03*
X91590400Y-101010400D03*
%TD*%
D16*
%TO.C,C26*%
X110210000Y-106680000D03*
X111760000Y-106680000D03*
%TD*%
D32*
%TO.C,R16*%
X109220000Y-97722200D03*
X109220000Y-99547200D03*
%TD*%
D12*
%TO.C,R30*%
X183803063Y-125507763D03*
X181978063Y-125507763D03*
%TD*%
D30*
%TO.C,R3\u002C4*%
X162558000Y-83316000D03*
X162558000Y-81491000D03*
%TD*%
D55*
%TO.C,D8*%
X93060000Y-139867500D03*
X93060000Y-138292500D03*
%TD*%
D49*
%TO.C,U11*%
X167030000Y-110250000D03*
D50*
X173330000Y-107950000D03*
D49*
X167030000Y-107950000D03*
X167030000Y-105650000D03*
%TD*%
D56*
%TO.C,D15*%
X145424600Y-124510200D03*
X145424600Y-126260200D03*
%TD*%
D32*
%TO.C,R9*%
X185420000Y-137517500D03*
X185420000Y-139342500D03*
%TD*%
D13*
%TO.C,C37*%
X113069600Y-78295800D03*
X113069600Y-76745800D03*
%TD*%
D10*
%TO.C,J20*%
X177290000Y-103096000D03*
D11*
X177290000Y-101096000D03*
X177290000Y-99096000D03*
X177290000Y-97096000D03*
%TD*%
D16*
%TO.C,C6*%
X91048300Y-104480400D03*
X92598300Y-104480400D03*
%TD*%
D15*
%TO.C,Q3*%
X149600400Y-139717600D03*
X148650400Y-137842600D03*
X150550400Y-137842600D03*
%TD*%
D33*
%TO.C,SW1*%
X145792200Y-80598200D03*
X144217200Y-80598200D03*
%TD*%
D57*
%TO.C,D5*%
X186120000Y-134620000D03*
X184720000Y-134620000D03*
%TD*%
D56*
%TO.C,D10*%
X119110926Y-134875126D03*
X119110926Y-133125126D03*
%TD*%
D52*
%TO.C,H6*%
X197546674Y-139462874D03*
%TD*%
D29*
%TO.C,R12*%
X183792500Y-132080000D03*
X181967500Y-132080000D03*
%TD*%
D12*
%TO.C,R7*%
X84177500Y-99060000D03*
X86002500Y-99060000D03*
%TD*%
D29*
%TO.C,R29*%
X119767526Y-122417726D03*
X117942526Y-122417726D03*
%TD*%
D14*
%TO.C,R32*%
X128360400Y-82727800D03*
X130010400Y-82727800D03*
%TD*%
D30*
%TO.C,R2\u002C1*%
X171448000Y-88904000D03*
X171448000Y-87079000D03*
%TD*%
D16*
%TO.C,C19*%
X115570000Y-102017500D03*
X117120000Y-102017500D03*
%TD*%
D10*
%TO.C,J30*%
X162304000Y-74934000D03*
%TD*%
D29*
%TO.C,R37*%
X148781200Y-122958200D03*
X150606200Y-122958200D03*
%TD*%
D12*
%TO.C,R20*%
X119737500Y-92710000D03*
X121562500Y-92710000D03*
%TD*%
D58*
%TO.C,U10*%
X131525000Y-100090000D03*
X131525000Y-101360000D03*
X131525000Y-102630000D03*
X131525000Y-103900000D03*
X136485000Y-103900000D03*
X136485000Y-102630000D03*
X136485000Y-101360000D03*
X136485000Y-100090000D03*
D59*
X134005000Y-101995000D03*
%TD*%
D12*
%TO.C,RV3*%
X103227500Y-87630000D03*
X105052500Y-87630000D03*
%TD*%
%TO.C,R15*%
X93622500Y-134000000D03*
X91797500Y-134000000D03*
%TD*%
%TO.C,R2*%
X179785000Y-134620000D03*
X181610000Y-134620000D03*
%TD*%
D15*
%TO.C,Q4*%
X113980000Y-84152500D03*
X112080000Y-84152500D03*
X113030000Y-86027500D03*
%TD*%
D10*
%TO.C,J11*%
X200660000Y-127000000D03*
D11*
X200660000Y-129000000D03*
%TD*%
D60*
%TO.C,J2*%
X84317100Y-126115600D03*
X86667100Y-128115600D03*
X84317100Y-130115600D03*
X86667100Y-132115600D03*
%TD*%
D61*
%TO.C,RV4*%
X178723063Y-106203763D03*
X178723063Y-108743763D03*
X178723063Y-111283763D03*
%TD*%
D30*
%TO.C,RV1*%
X173990000Y-140255000D03*
X173990000Y-138430000D03*
%TD*%
D38*
%TO.C,POWER_LED3*%
X151130000Y-129540000D03*
X151130000Y-128900000D03*
%TD*%
D62*
%TO.C,D9*%
X115440000Y-111760000D03*
X116840000Y-111760000D03*
%TD*%
D10*
%TO.C,J27*%
X173178000Y-98556000D03*
D11*
X171178000Y-98556000D03*
X169178000Y-98556000D03*
X167178000Y-98556000D03*
%TD*%
D24*
%TO.C,D4*%
X83898400Y-102870000D03*
X85473400Y-102870000D03*
%TD*%
D16*
%TO.C,C8*%
X97790000Y-129540000D03*
X99340000Y-129540000D03*
%TD*%
D12*
%TO.C,R13*%
X94330000Y-126380000D03*
X92505000Y-126380000D03*
%TD*%
D52*
%TO.C,H8*%
X197978474Y-72178274D03*
%TD*%
D29*
%TO.C,R22*%
X116482500Y-106680000D03*
X114657500Y-106680000D03*
%TD*%
D30*
%TO.C,R3\u002C3*%
X176987100Y-82808000D03*
X176987100Y-80983000D03*
%TD*%
D12*
%TO.C,R18*%
X110225800Y-115213900D03*
X108400800Y-115213900D03*
%TD*%
D29*
%TO.C,R33*%
X148753900Y-133499200D03*
X150578900Y-133499200D03*
%TD*%
D17*
%TO.C,Q6*%
X116905000Y-78105000D03*
X116905000Y-79375000D03*
X116905000Y-80645000D03*
X116905000Y-81915000D03*
X121855000Y-81915000D03*
X121855000Y-80645000D03*
X121855000Y-79375000D03*
X121855000Y-78105000D03*
%TD*%
D13*
%TO.C,C32*%
X163830000Y-106400000D03*
X163830000Y-107950000D03*
%TD*%
D23*
%TO.C,C36*%
X123190000Y-119100000D03*
X123190000Y-120650000D03*
%TD*%
D63*
%TO.C,D3*%
X142746000Y-84586000D03*
X142746000Y-83011000D03*
%TD*%
D12*
%TO.C,R4*%
X87759300Y-103718400D03*
X89584300Y-103718400D03*
%TD*%
D64*
%TO.C,U8*%
X185739237Y-114239237D03*
X185739237Y-112539237D03*
D65*
X194889237Y-110839237D03*
D64*
X185739237Y-110839237D03*
X185739237Y-109139237D03*
X185739237Y-107439237D03*
%TD*%
D17*
%TO.C,U3*%
X177295000Y-138315000D03*
X177295000Y-139585000D03*
X177295000Y-140855000D03*
X177295000Y-142125000D03*
X182245000Y-142125000D03*
X182245000Y-140855000D03*
X182245000Y-139585000D03*
X182245000Y-138315000D03*
D18*
X179770000Y-140220000D03*
%TD*%
D66*
%TO.C,D11*%
X198027063Y-118773763D03*
X198027063Y-121573763D03*
%TD*%
D17*
%TO.C,U5*%
X173485000Y-127635000D03*
X173485000Y-128905000D03*
X173485000Y-130175000D03*
X173485000Y-131445000D03*
X178435000Y-131445000D03*
X178435000Y-130175000D03*
X178435000Y-128905000D03*
X178435000Y-127635000D03*
D67*
X175960000Y-129540000D03*
%TD*%
D24*
%TO.C,D19*%
X98198500Y-98359000D03*
X99773500Y-98359000D03*
%TD*%
D68*
%TO.C,D14*%
X185711063Y-119919763D03*
X182911063Y-119919763D03*
%TD*%
D32*
%TO.C,R14*%
X159764000Y-81491000D03*
X159764000Y-83316000D03*
%TD*%
D69*
%TO.C,C28*%
X134620000Y-93747500D03*
X134620000Y-91672500D03*
%TD*%
D29*
%TO.C,R11*%
X99238000Y-113900600D03*
X97413000Y-113900600D03*
%TD*%
D70*
%TO.C,J7*%
X84305100Y-109954600D03*
X87505100Y-111954600D03*
X84305100Y-113954600D03*
X87505100Y-115954600D03*
X84305100Y-117954600D03*
%TD*%
D29*
%TO.C,R10*%
X171092500Y-138430000D03*
X169267500Y-138430000D03*
%TD*%
D56*
%TO.C,D12*%
X119542726Y-128945526D03*
X119542726Y-127195526D03*
%TD*%
D52*
%TO.C,H5*%
X86955074Y-139335874D03*
%TD*%
D29*
%TO.C,R35*%
X148679600Y-126031600D03*
X150504600Y-126031600D03*
%TD*%
D71*
%TO.C,J37*%
X190758237Y-94161737D03*
D72*
X193758237Y-98861737D03*
D73*
X187758237Y-98861737D03*
%TD*%
D42*
%TO.C,K1*%
X114250000Y-121100000D03*
D43*
X114300000Y-133350000D03*
X102250000Y-133300000D03*
D42*
X102250000Y-121100000D03*
D43*
X108300000Y-119150000D03*
%TD*%
D37*
%TO.C,J9*%
X138620000Y-139370000D03*
X136620000Y-142570000D03*
X134620000Y-139370000D03*
X132620000Y-142570000D03*
X130620000Y-139370000D03*
%TD*%
D29*
%TO.C,R24*%
X122475000Y-111760000D03*
X120650000Y-111760000D03*
%TD*%
D10*
%TO.C,J29*%
X159256000Y-77982000D03*
%TD*%
D74*
%TO.C,C25*%
X197958237Y-86220237D03*
X189558237Y-86220237D03*
%TD*%
D43*
%TO.C,K2*%
X134970000Y-119150000D03*
D42*
X128920000Y-121100000D03*
D43*
X128920000Y-133300000D03*
X140970000Y-133350000D03*
D42*
X140920000Y-121100000D03*
%TD*%
D16*
%TO.C,104\u002C5*%
X156488000Y-80776000D03*
X154938000Y-80776000D03*
%TD*%
D33*
%TO.C,D6*%
X97352500Y-126380000D03*
X98927500Y-126380000D03*
%TD*%
D16*
%TO.C,C24*%
X110210000Y-101900800D03*
X111760000Y-101900800D03*
%TD*%
D29*
%TO.C,R25*%
X125015000Y-129790800D03*
X123190000Y-129790800D03*
%TD*%
D23*
%TO.C,C3*%
X168910000Y-141465000D03*
X168910000Y-143015000D03*
%TD*%
D13*
%TO.C,C11*%
X177800000Y-122200000D03*
X177800000Y-120650000D03*
%TD*%
D23*
%TO.C,C16*%
X173466652Y-120625252D03*
X173466652Y-122175252D03*
%TD*%
D29*
%TO.C,R5*%
X174545000Y-143510000D03*
X172720000Y-143510000D03*
%TD*%
D16*
%TO.C,C21*%
X104635000Y-105410000D03*
X106185000Y-105410000D03*
%TD*%
%TO.C,C4*%
X122910000Y-115570000D03*
X124460000Y-115570000D03*
%TD*%
%TO.C,C20*%
X104711800Y-101650800D03*
X106261800Y-101650800D03*
%TD*%
%TO.C,C7*%
X174980000Y-134620000D03*
X176530000Y-134620000D03*
%TD*%
D44*
%TO.C,C23*%
X106236400Y-108635800D03*
X104686400Y-108635800D03*
%TD*%
%TO.C,C18*%
X106185000Y-97790000D03*
X104635000Y-97790000D03*
%TD*%
D13*
%TO.C,C3-1*%
X153160000Y-91457000D03*
X153160000Y-89907000D03*
%TD*%
M02*
