%TF.GenerationSoftware,KiCad,Pcbnew,8.0.4*%
%TF.CreationDate,2024-09-30T00:09:27+07:00*%
%TF.ProjectId,Schematic_editted,53636865-6d61-4746-9963-5f6564697474,rev?*%
%TF.SameCoordinates,Original*%
%TF.FileFunction,Soldermask,Top*%
%TF.FilePolarity,Negative*%
%FSLAX46Y46*%
G04 Gerber Fmt 4.6, Leading zero omitted, Abs format (unit mm)*
G04 Created by KiCad (PCBNEW 8.0.4) date 2024-09-30 00:09:27*
%MOMM*%
%LPD*%
G01*
G04 APERTURE LIST*
G04 Aperture macros list*
%AMRoundRect*
0 Rectangle with rounded corners*
0 $1 Rounding radius*
0 $2 $3 $4 $5 $6 $7 $8 $9 X,Y pos of 4 corners*
0 Add a 4 corners polygon primitive as box body*
4,1,4,$2,$3,$4,$5,$6,$7,$8,$9,$2,$3,0*
0 Add four circle primitives for the rounded corners*
1,1,$1+$1,$2,$3*
1,1,$1+$1,$4,$5*
1,1,$1+$1,$6,$7*
1,1,$1+$1,$8,$9*
0 Add four rect primitives between the rounded corners*
20,1,$1+$1,$2,$3,$4,$5,0*
20,1,$1+$1,$4,$5,$6,$7,0*
20,1,$1+$1,$6,$7,$8,$9,0*
20,1,$1+$1,$8,$9,$2,$3,0*%
G04 Aperture macros list end*
%ADD10R,1.350000X1.350000*%
%ADD11O,1.350000X1.350000*%
%ADD12RoundRect,0.237500X-0.250000X-0.237500X0.250000X-0.237500X0.250000X0.237500X-0.250000X0.237500X0*%
%ADD13RoundRect,0.225000X0.250000X-0.225000X0.250000X0.225000X-0.250000X0.225000X-0.250000X-0.225000X0*%
%ADD14RoundRect,0.200000X-0.200000X-0.275000X0.200000X-0.275000X0.200000X0.275000X-0.200000X0.275000X0*%
%ADD15RoundRect,0.150000X-0.150000X0.587500X-0.150000X-0.587500X0.150000X-0.587500X0.150000X0.587500X0*%
%ADD16RoundRect,0.225000X-0.225000X-0.250000X0.225000X-0.250000X0.225000X0.250000X-0.225000X0.250000X0*%
%ADD17R,2.290000X3.000000*%
%ADD18RoundRect,0.150000X-0.825000X-0.150000X0.825000X-0.150000X0.825000X0.150000X-0.825000X0.150000X0*%
%ADD19R,1.500000X1.500000*%
%ADD20C,1.500000*%
%ADD21RoundRect,0.075000X-0.662500X-0.075000X0.662500X-0.075000X0.662500X0.075000X-0.662500X0.075000X0*%
%ADD22RoundRect,0.075000X-0.075000X-0.662500X0.075000X-0.662500X0.075000X0.662500X-0.075000X0.662500X0*%
%ADD23RoundRect,0.225000X-0.250000X0.225000X-0.250000X-0.225000X0.250000X-0.225000X0.250000X0.225000X0*%
%ADD24RoundRect,0.218750X-0.218750X-0.256250X0.218750X-0.256250X0.218750X0.256250X-0.218750X0.256250X0*%
%ADD25C,1.800000*%
%ADD26C,2.000000*%
%ADD27R,0.450000X1.300000*%
%ADD28C,0.800000*%
%ADD29RoundRect,0.237500X0.250000X0.237500X-0.250000X0.237500X-0.250000X-0.237500X0.250000X-0.237500X0*%
%ADD30RoundRect,0.237500X0.237500X-0.250000X0.237500X0.250000X-0.237500X0.250000X-0.237500X-0.250000X0*%
%ADD31RoundRect,0.237500X-0.237500X0.287500X-0.237500X-0.287500X0.237500X-0.287500X0.237500X0.287500X0*%
%ADD32RoundRect,0.237500X-0.237500X0.250000X-0.237500X-0.250000X0.237500X-0.250000X0.237500X0.250000X0*%
%ADD33RoundRect,0.218750X0.218750X0.256250X-0.218750X0.256250X-0.218750X-0.256250X0.218750X-0.256250X0*%
%ADD34RoundRect,0.150000X-0.587500X-0.150000X0.587500X-0.150000X0.587500X0.150000X-0.587500X0.150000X0*%
%ADD35R,2.200000X2.200000*%
%ADD36O,2.200000X2.200000*%
%ADD37R,0.900000X2.000000*%
%ADD38RoundRect,0.100000X-0.100000X0.130000X-0.100000X-0.130000X0.100000X-0.130000X0.100000X0.130000X0*%
%ADD39RoundRect,0.250000X1.000000X-1.950000X1.000000X1.950000X-1.000000X1.950000X-1.000000X-1.950000X0*%
%ADD40RoundRect,0.237500X0.287500X0.237500X-0.287500X0.237500X-0.287500X-0.237500X0.287500X-0.237500X0*%
%ADD41R,1.200000X1.250000*%
%ADD42C,3.000000*%
%ADD43C,2.500000*%
%ADD44RoundRect,0.225000X0.225000X0.250000X-0.225000X0.250000X-0.225000X-0.250000X0.225000X-0.250000X0*%
%ADD45RoundRect,0.100000X-0.130000X-0.100000X0.130000X-0.100000X0.130000X0.100000X-0.130000X0.100000X0*%
%ADD46RoundRect,0.200000X0.200000X0.275000X-0.200000X0.275000X-0.200000X-0.275000X0.200000X-0.275000X0*%
%ADD47RoundRect,0.250000X-0.250000X-0.475000X0.250000X-0.475000X0.250000X0.475000X-0.250000X0.475000X0*%
%ADD48R,0.850000X2.350000*%
%ADD49RoundRect,0.375000X-0.625000X-0.375000X0.625000X-0.375000X0.625000X0.375000X-0.625000X0.375000X0*%
%ADD50RoundRect,0.500000X-0.500000X-1.400000X0.500000X-1.400000X0.500000X1.400000X-0.500000X1.400000X0*%
%ADD51RoundRect,0.250000X-0.650000X0.325000X-0.650000X-0.325000X0.650000X-0.325000X0.650000X0.325000X0*%
%ADD52C,7.000000*%
%ADD53RoundRect,0.237500X0.300000X0.237500X-0.300000X0.237500X-0.300000X-0.237500X0.300000X-0.237500X0*%
%ADD54RoundRect,0.125000X0.687500X0.125000X-0.687500X0.125000X-0.687500X-0.125000X0.687500X-0.125000X0*%
%ADD55RoundRect,0.218750X-0.256250X0.218750X-0.256250X-0.218750X0.256250X-0.218750X0.256250X0.218750X0*%
%ADD56RoundRect,0.237500X0.237500X-0.287500X0.237500X0.287500X-0.237500X0.287500X-0.237500X-0.287500X0*%
%ADD57RoundRect,0.150000X-0.150000X-0.200000X0.150000X-0.200000X0.150000X0.200000X-0.150000X0.200000X0*%
%ADD58R,2.620000X3.510000*%
%ADD59RoundRect,0.150000X-0.820000X-0.150000X0.820000X-0.150000X0.820000X0.150000X-0.820000X0.150000X0*%
%ADD60R,2.350000X0.850000*%
%ADD61C,1.440000*%
%ADD62RoundRect,0.150000X0.150000X0.200000X-0.150000X0.200000X-0.150000X-0.200000X0.150000X-0.200000X0*%
%ADD63RoundRect,0.218750X0.256250X-0.218750X0.256250X0.218750X-0.256250X0.218750X-0.256250X-0.218750X0*%
%ADD64RoundRect,0.250000X-2.050000X-0.300000X2.050000X-0.300000X2.050000X0.300000X-2.050000X0.300000X0*%
%ADD65RoundRect,0.250002X-4.449998X-5.149998X4.449998X-5.149998X4.449998X5.149998X-4.449998X5.149998X0*%
%ADD66RoundRect,0.250000X0.300000X-0.300000X0.300000X0.300000X-0.300000X0.300000X-0.300000X-0.300000X0*%
%ADD67R,2.410000X3.810000*%
%ADD68RoundRect,0.250000X-0.300000X-0.300000X0.300000X-0.300000X0.300000X0.300000X-0.300000X0.300000X0*%
%ADD69RoundRect,0.250000X0.475000X-0.337500X0.475000X0.337500X-0.475000X0.337500X-0.475000X-0.337500X0*%
%ADD70R,2.000000X0.900000*%
%ADD71RoundRect,0.875000X0.875000X0.875000X-0.875000X0.875000X-0.875000X-0.875000X0.875000X-0.875000X0*%
%ADD72RoundRect,0.750000X0.750000X1.000000X-0.750000X1.000000X-0.750000X-1.000000X0.750000X-1.000000X0*%
%ADD73R,3.500000X3.500000*%
%ADD74RoundRect,0.250000X1.950000X1.000000X-1.950000X1.000000X-1.950000X-1.000000X1.950000X-1.000000X0*%
G04 APERTURE END LIST*
D10*
%TO.C,J32*%
X109572000Y-103120000D03*
%TD*%
%TO.C,J26*%
X166784000Y-100076000D03*
D11*
X168784000Y-100076000D03*
X170784000Y-100076000D03*
X172784000Y-100076000D03*
%TD*%
D12*
%TO.C,R8*%
X178867000Y-133600000D03*
X180692000Y-133600000D03*
%TD*%
D13*
%TO.C,C4-1*%
X159100000Y-89167000D03*
X159100000Y-87617000D03*
%TD*%
D14*
%TO.C,R36*%
X106310900Y-106381400D03*
X107960900Y-106381400D03*
%TD*%
D15*
%TO.C,Q2*%
X132432000Y-133932500D03*
X130532000Y-133932500D03*
X131482000Y-135807500D03*
%TD*%
D16*
%TO.C,C14*%
X195017600Y-139950000D03*
X196567600Y-139950000D03*
%TD*%
D17*
%TO.C,U6*%
X124192000Y-94230000D03*
D18*
X126667000Y-92325000D03*
X126667000Y-93595000D03*
X126667000Y-94865000D03*
X126667000Y-96135000D03*
X121717000Y-96135000D03*
X121717000Y-94865000D03*
X121717000Y-93595000D03*
X121717000Y-92325000D03*
%TD*%
D10*
%TO.C,J24*%
X153512000Y-94028000D03*
D11*
X153512000Y-96028000D03*
X153512000Y-98028000D03*
X153512000Y-100028000D03*
%TD*%
D12*
%TO.C,RV2*%
X98998700Y-106483000D03*
X100823700Y-106483000D03*
%TD*%
D19*
%TO.C,U9*%
X100023900Y-82607000D03*
D20*
X100023900Y-85147000D03*
X100023900Y-87687000D03*
X100023900Y-90227000D03*
%TD*%
D21*
%TO.C,U4*%
X165605500Y-86150000D03*
X165605500Y-86650000D03*
X165605500Y-87150000D03*
X165605500Y-87650000D03*
X165605500Y-88150000D03*
X165605500Y-88650000D03*
X165605500Y-89150000D03*
X165605500Y-89650000D03*
X165605500Y-90150000D03*
X165605500Y-90650000D03*
X165605500Y-91150000D03*
X165605500Y-91650000D03*
D22*
X167018000Y-93062500D03*
X167518000Y-93062500D03*
X168018000Y-93062500D03*
X168518000Y-93062500D03*
X169018000Y-93062500D03*
X169518000Y-93062500D03*
X170018000Y-93062500D03*
X170518000Y-93062500D03*
X171018000Y-93062500D03*
X171518000Y-93062500D03*
X172018000Y-93062500D03*
X172518000Y-93062500D03*
D21*
X173930500Y-91650000D03*
X173930500Y-91150000D03*
X173930500Y-90650000D03*
X173930500Y-90150000D03*
X173930500Y-89650000D03*
X173930500Y-89150000D03*
X173930500Y-88650000D03*
X173930500Y-88150000D03*
X173930500Y-87650000D03*
X173930500Y-87150000D03*
X173930500Y-86650000D03*
X173930500Y-86150000D03*
D22*
X172518000Y-84737500D03*
X172018000Y-84737500D03*
X171518000Y-84737500D03*
X171018000Y-84737500D03*
X170518000Y-84737500D03*
X170018000Y-84737500D03*
X169518000Y-84737500D03*
X169018000Y-84737500D03*
X168518000Y-84737500D03*
X168018000Y-84737500D03*
X167518000Y-84737500D03*
X167018000Y-84737500D03*
%TD*%
D23*
%TO.C,C12*%
X199742000Y-138400000D03*
X199742000Y-139950000D03*
%TD*%
D24*
%TO.C,D7*%
X105324500Y-138060000D03*
X106899500Y-138060000D03*
%TD*%
D25*
%TO.C,J13*%
X174788000Y-69420000D03*
D26*
X174938000Y-73220000D03*
X182388000Y-73220000D03*
D25*
X182538000Y-69420000D03*
D27*
X177363000Y-73270000D03*
X178013000Y-73270000D03*
X178663000Y-73270000D03*
X179313000Y-73270000D03*
X179963000Y-73270000D03*
D28*
X176163000Y-72170000D03*
X181163000Y-72170000D03*
%TD*%
D10*
%TO.C,J23*%
X153512000Y-83916000D03*
D11*
X153512000Y-85916000D03*
X153512000Y-87916000D03*
X153512000Y-89916000D03*
%TD*%
D29*
%TO.C,R26*%
X132987000Y-123944800D03*
X131162000Y-123944800D03*
%TD*%
D30*
%TO.C,R2\u002C2*%
X189072000Y-80518000D03*
X189072000Y-78693000D03*
%TD*%
D23*
%TO.C,C3*%
X176882000Y-139175000D03*
X176882000Y-140725000D03*
%TD*%
D10*
%TO.C,J21*%
X181610000Y-81280000D03*
D11*
X179610000Y-81280000D03*
X177610000Y-81280000D03*
X175610000Y-81280000D03*
%TD*%
D13*
%TO.C,C2-1*%
X150972000Y-92482000D03*
X150972000Y-90932000D03*
%TD*%
D31*
%TO.C,D17*%
X153295000Y-127972000D03*
X153295000Y-129722000D03*
%TD*%
D10*
%TO.C,J31*%
X141322000Y-80260000D03*
%TD*%
D32*
%TO.C,R23*%
X119732000Y-88237500D03*
X119732000Y-90062500D03*
%TD*%
D29*
%TO.C,R3\u002C1*%
X150614500Y-84074000D03*
X148789500Y-84074000D03*
%TD*%
D14*
%TO.C,R27*%
X196221063Y-118645763D03*
X197871063Y-118645763D03*
%TD*%
D10*
%TO.C,J12*%
X167228000Y-72644000D03*
%TD*%
%TO.C,J28*%
X185262000Y-90170000D03*
D11*
X185262000Y-88170000D03*
X185262000Y-86170000D03*
X185262000Y-84170000D03*
%TD*%
D10*
%TO.C,OP_AMP_3*%
X137512000Y-109470000D03*
D11*
X137512000Y-107470000D03*
%TD*%
D14*
%TO.C,R34*%
X106324100Y-99675800D03*
X107974100Y-99675800D03*
%TD*%
D29*
%TO.C,R4\u002C1*%
X147312500Y-77724000D03*
X145487500Y-77724000D03*
%TD*%
D13*
%TO.C,C17*%
X115922000Y-90420000D03*
X115922000Y-88870000D03*
%TD*%
D10*
%TO.C,J14*%
X164180000Y-75692000D03*
%TD*%
D29*
%TO.C,R3*%
X148942000Y-95500000D03*
X150767000Y-95500000D03*
%TD*%
D33*
%TO.C,POWER_LED1*%
X102257000Y-127900000D03*
X100682000Y-127900000D03*
%TD*%
D23*
%TO.C,C33*%
X126082000Y-113000000D03*
X126082000Y-114550000D03*
%TD*%
D13*
%TO.C,C11*%
X185772000Y-119910000D03*
X185772000Y-118360000D03*
%TD*%
D34*
%TO.C,Q5*%
X129287000Y-83440000D03*
X129287000Y-85340000D03*
X131162000Y-84390000D03*
%TD*%
D35*
%TO.C,D18*%
X166722000Y-108200000D03*
D36*
X156562000Y-108200000D03*
%TD*%
D10*
%TO.C,J16*%
X189072000Y-84614000D03*
D11*
X189072000Y-86614000D03*
X189072000Y-88614000D03*
X189072000Y-90614000D03*
%TD*%
D37*
%TO.C,J8*%
X164722000Y-136750000D03*
X166722000Y-139950000D03*
X168722000Y-136750000D03*
X170722000Y-139950000D03*
X172722000Y-136750000D03*
%TD*%
D12*
%TO.C,R17*%
X103937000Y-132330000D03*
X105762000Y-132330000D03*
%TD*%
D38*
%TO.C,POWER_LED2*%
X126879726Y-136224526D03*
X126879726Y-135584526D03*
%TD*%
D12*
%TO.C,R21*%
X122629500Y-86610000D03*
X124454500Y-86610000D03*
%TD*%
D10*
%TO.C,J15*%
X164180000Y-72644000D03*
%TD*%
D13*
%TO.C,D2*%
X145892000Y-83833000D03*
X145892000Y-82283000D03*
%TD*%
D39*
%TO.C,C30*%
X200919063Y-130465763D03*
X200919063Y-122065763D03*
%TD*%
D29*
%TO.C,R28*%
X132987000Y-120820600D03*
X131162000Y-120820600D03*
%TD*%
D10*
%TO.C,J17*%
X160372000Y-104390000D03*
D11*
X162372000Y-104390000D03*
%TD*%
D40*
%TO.C,D13*%
X132912000Y-131209200D03*
X131162000Y-131209200D03*
%TD*%
D41*
%TO.C,L1*%
X188607063Y-112549763D03*
X186307063Y-112549763D03*
%TD*%
D42*
%TO.C,K3*%
X168962000Y-116210000D03*
D43*
X162912000Y-118160000D03*
D42*
X162912000Y-130360000D03*
X174962000Y-130410000D03*
D43*
X174912000Y-118160000D03*
%TD*%
D31*
%TO.C,D16*%
X153422000Y-116948400D03*
X153422000Y-118698400D03*
%TD*%
D30*
%TO.C,R6*%
X199742000Y-136695000D03*
X199742000Y-134870000D03*
%TD*%
D13*
%TO.C,C38*%
X106399300Y-87877800D03*
X106399300Y-86327800D03*
%TD*%
D44*
%TO.C,C22*%
X124317000Y-90150000D03*
X122767000Y-90150000D03*
%TD*%
D45*
%TO.C,104\u002C1*%
X153070000Y-74930000D03*
X152430000Y-74930000D03*
%TD*%
D29*
%TO.C,R38*%
X158701400Y-116782000D03*
X156876400Y-116782000D03*
%TD*%
D46*
%TO.C,R31*%
X142592000Y-94230000D03*
X140942000Y-94230000D03*
%TD*%
D44*
%TO.C,C15*%
X139062000Y-72640000D03*
X137512000Y-72640000D03*
%TD*%
D47*
%TO.C,C29*%
X126082000Y-117090000D03*
X127982000Y-117090000D03*
%TD*%
D29*
%TO.C,R1*%
X116610100Y-110369200D03*
X114785100Y-110369200D03*
%TD*%
D44*
%TO.C,C10*%
X196643800Y-137410000D03*
X195093800Y-137410000D03*
%TD*%
D20*
%TO.C,Y1*%
X147416000Y-87508000D03*
X147416000Y-91308000D03*
%TD*%
D16*
%TO.C,D1*%
X92022600Y-103708200D03*
X93572600Y-103708200D03*
%TD*%
D48*
%TO.C,J6*%
X119192000Y-138680000D03*
X117192000Y-141030000D03*
X115192000Y-138680000D03*
X113192000Y-141030000D03*
%TD*%
D49*
%TO.C,U1*%
X154934000Y-71614000D03*
X154934000Y-73914000D03*
D50*
X161234000Y-73914000D03*
D49*
X154934000Y-76214000D03*
%TD*%
D44*
%TO.C,C13*%
X139391600Y-76336000D03*
X137841600Y-76336000D03*
%TD*%
D10*
%TO.C,J25*%
X157878000Y-96266000D03*
D11*
X159878000Y-96266000D03*
X161878000Y-96266000D03*
X163878000Y-96266000D03*
%TD*%
D15*
%TO.C,Q1*%
X105792000Y-118405000D03*
X103892000Y-118405000D03*
X104842000Y-120280000D03*
%TD*%
D17*
%TO.C,U7*%
X131782000Y-103390000D03*
D18*
X134257000Y-101485000D03*
X134257000Y-102755000D03*
X134257000Y-104025000D03*
X134257000Y-105295000D03*
X129307000Y-105295000D03*
X129307000Y-104025000D03*
X129307000Y-102755000D03*
X129307000Y-101485000D03*
%TD*%
D12*
%TO.C,R19*%
X111199500Y-89150000D03*
X113024500Y-89150000D03*
%TD*%
D23*
%TO.C,C1-1*%
X150972000Y-86360000D03*
X150972000Y-87910000D03*
%TD*%
D44*
%TO.C,C5*%
X147262500Y-73585500D03*
X145712500Y-73585500D03*
%TD*%
D51*
%TO.C,C31*%
X133905600Y-87903600D03*
X133905600Y-90853600D03*
%TD*%
D10*
%TO.C,J1*%
X92962700Y-93640000D03*
D11*
X92962700Y-91640000D03*
%TD*%
D10*
%TO.C,J22*%
X163116000Y-81280000D03*
D11*
X161116000Y-81280000D03*
X159116000Y-81280000D03*
X157116000Y-81280000D03*
%TD*%
D52*
%TO.C,H7*%
X94596874Y-69964474D03*
%TD*%
D10*
%TO.C,J3*%
X93267500Y-84943800D03*
D11*
X93267500Y-82943800D03*
X93267500Y-80943800D03*
%TD*%
D16*
%TO.C,C27*%
X118182000Y-107692000D03*
X119732000Y-107692000D03*
%TD*%
D53*
%TO.C,104\u002C3*%
X147505826Y-71303426D03*
X145780826Y-71303426D03*
%TD*%
D54*
%TO.C,U2*%
X99562400Y-98720400D03*
X99562400Y-98070400D03*
X99562400Y-97420400D03*
X99562400Y-96770400D03*
X103787400Y-96770400D03*
X103787400Y-97420400D03*
X103787400Y-98070400D03*
X103787400Y-98720400D03*
%TD*%
D16*
%TO.C,C26*%
X118182000Y-104390000D03*
X119732000Y-104390000D03*
%TD*%
D32*
%TO.C,R16*%
X117192000Y-95432200D03*
X117192000Y-97257200D03*
%TD*%
D12*
%TO.C,R30*%
X189950063Y-123217763D03*
X191775063Y-123217763D03*
%TD*%
D30*
%TO.C,R3\u002C4*%
X170530000Y-81026000D03*
X170530000Y-79201000D03*
%TD*%
D55*
%TO.C,D8*%
X101032000Y-136002500D03*
X101032000Y-137577500D03*
%TD*%
D49*
%TO.C,U11*%
X175002000Y-103360000D03*
X175002000Y-105660000D03*
D50*
X181302000Y-105660000D03*
D49*
X175002000Y-107960000D03*
%TD*%
D56*
%TO.C,D15*%
X153396600Y-123970200D03*
X153396600Y-122220200D03*
%TD*%
D32*
%TO.C,R9*%
X193392000Y-135227500D03*
X193392000Y-137052500D03*
%TD*%
D13*
%TO.C,C37*%
X121041600Y-76005800D03*
X121041600Y-74455800D03*
%TD*%
D23*
%TO.C,C16*%
X181438652Y-118335252D03*
X181438652Y-119885252D03*
%TD*%
D10*
%TO.C,J20*%
X185262000Y-100806000D03*
D11*
X185262000Y-98806000D03*
X185262000Y-96806000D03*
X185262000Y-94806000D03*
%TD*%
D16*
%TO.C,C6*%
X99020300Y-102190400D03*
X100570300Y-102190400D03*
%TD*%
D15*
%TO.C,Q3*%
X158522400Y-135552600D03*
X156622400Y-135552600D03*
X157572400Y-137427600D03*
%TD*%
D33*
%TO.C,SW1*%
X153764200Y-78308200D03*
X152189200Y-78308200D03*
%TD*%
D57*
%TO.C,D5*%
X194092000Y-132330000D03*
X192692000Y-132330000D03*
%TD*%
D56*
%TO.C,D10*%
X127082926Y-132585126D03*
X127082926Y-130835126D03*
%TD*%
D52*
%TO.C,H6*%
X205518674Y-137172874D03*
%TD*%
D29*
%TO.C,R12*%
X191764500Y-129790000D03*
X189939500Y-129790000D03*
%TD*%
D12*
%TO.C,R7*%
X92149500Y-96770000D03*
X93974500Y-96770000D03*
%TD*%
D29*
%TO.C,R29*%
X127739526Y-120127726D03*
X125914526Y-120127726D03*
%TD*%
D14*
%TO.C,R32*%
X136332400Y-80437800D03*
X137982400Y-80437800D03*
%TD*%
D29*
%TO.C,R5*%
X182517000Y-141220000D03*
X180692000Y-141220000D03*
%TD*%
D30*
%TO.C,R2\u002C1*%
X179420000Y-86614000D03*
X179420000Y-84789000D03*
%TD*%
D16*
%TO.C,C19*%
X123542000Y-99727500D03*
X125092000Y-99727500D03*
%TD*%
D10*
%TO.C,J30*%
X170276000Y-72644000D03*
%TD*%
D29*
%TO.C,R37*%
X158578200Y-120668200D03*
X156753200Y-120668200D03*
%TD*%
D12*
%TO.C,R20*%
X127709500Y-90420000D03*
X129534500Y-90420000D03*
%TD*%
D58*
%TO.C,U10*%
X141977000Y-99705000D03*
D59*
X144457000Y-97800000D03*
X144457000Y-99070000D03*
X144457000Y-100340000D03*
X144457000Y-101610000D03*
X139497000Y-101610000D03*
X139497000Y-100340000D03*
X139497000Y-99070000D03*
X139497000Y-97800000D03*
%TD*%
D12*
%TO.C,RV3*%
X111199500Y-85340000D03*
X113024500Y-85340000D03*
%TD*%
%TO.C,R15*%
X99769500Y-131710000D03*
X101594500Y-131710000D03*
%TD*%
%TO.C,R2*%
X187757000Y-132330000D03*
X189582000Y-132330000D03*
%TD*%
D15*
%TO.C,Q4*%
X121952000Y-81862500D03*
X120052000Y-81862500D03*
X121002000Y-83737500D03*
%TD*%
D16*
%TO.C,C21*%
X112607000Y-103120000D03*
X114157000Y-103120000D03*
%TD*%
D10*
%TO.C,J11*%
X208632000Y-124710000D03*
D11*
X208632000Y-126710000D03*
%TD*%
D60*
%TO.C,J2*%
X92289100Y-123825600D03*
X94639100Y-125825600D03*
X92289100Y-127825600D03*
X94639100Y-129825600D03*
%TD*%
D61*
%TO.C,RV4*%
X186695063Y-103913763D03*
X186695063Y-106453763D03*
X186695063Y-108993763D03*
%TD*%
D30*
%TO.C,RV1*%
X181962000Y-137965000D03*
X181962000Y-136140000D03*
%TD*%
D38*
%TO.C,POWER_LED3*%
X159102000Y-127250000D03*
X159102000Y-126610000D03*
%TD*%
D16*
%TO.C,C4*%
X130882000Y-113280000D03*
X132432000Y-113280000D03*
%TD*%
D62*
%TO.C,D9*%
X123412000Y-109470000D03*
X124812000Y-109470000D03*
%TD*%
D10*
%TO.C,J27*%
X181150000Y-96266000D03*
D11*
X179150000Y-96266000D03*
X177150000Y-96266000D03*
X175150000Y-96266000D03*
%TD*%
D24*
%TO.C,D4*%
X91870400Y-100580000D03*
X93445400Y-100580000D03*
%TD*%
D16*
%TO.C,C8*%
X105762000Y-127250000D03*
X107312000Y-127250000D03*
%TD*%
%TO.C,C20*%
X112683800Y-99360800D03*
X114233800Y-99360800D03*
%TD*%
D12*
%TO.C,R13*%
X100477000Y-124090000D03*
X102302000Y-124090000D03*
%TD*%
D52*
%TO.C,H8*%
X205950474Y-69888274D03*
%TD*%
D29*
%TO.C,R22*%
X124454500Y-104390000D03*
X122629500Y-104390000D03*
%TD*%
D30*
%TO.C,R3\u002C3*%
X184959100Y-80518000D03*
X184959100Y-78693000D03*
%TD*%
D16*
%TO.C,C7*%
X182952000Y-132330000D03*
X184502000Y-132330000D03*
%TD*%
D12*
%TO.C,R18*%
X116372800Y-112923900D03*
X118197800Y-112923900D03*
%TD*%
D29*
%TO.C,R33*%
X158550900Y-131209200D03*
X156725900Y-131209200D03*
%TD*%
D18*
%TO.C,Q6*%
X129827000Y-75815000D03*
X129827000Y-77085000D03*
X129827000Y-78355000D03*
X129827000Y-79625000D03*
X124877000Y-79625000D03*
X124877000Y-78355000D03*
X124877000Y-77085000D03*
X124877000Y-75815000D03*
%TD*%
D13*
%TO.C,C32*%
X171802000Y-105660000D03*
X171802000Y-104110000D03*
%TD*%
D23*
%TO.C,C36*%
X131162000Y-116810000D03*
X131162000Y-118360000D03*
%TD*%
D63*
%TO.C,D3*%
X150718000Y-82296000D03*
X150718000Y-80721000D03*
%TD*%
D12*
%TO.C,R4*%
X95731300Y-101428400D03*
X97556300Y-101428400D03*
%TD*%
D64*
%TO.C,U8*%
X193711237Y-105149237D03*
X193711237Y-106849237D03*
X193711237Y-108549237D03*
D65*
X202861237Y-108549237D03*
D64*
X193711237Y-110249237D03*
X193711237Y-111949237D03*
%TD*%
D17*
%TO.C,U3*%
X187742000Y-137930000D03*
D18*
X190217000Y-136025000D03*
X190217000Y-137295000D03*
X190217000Y-138565000D03*
X190217000Y-139835000D03*
X185267000Y-139835000D03*
X185267000Y-138565000D03*
X185267000Y-137295000D03*
X185267000Y-136025000D03*
%TD*%
D66*
%TO.C,D11*%
X205999063Y-119283763D03*
X205999063Y-116483763D03*
%TD*%
D67*
%TO.C,U5*%
X183932000Y-127250000D03*
D18*
X186407000Y-125345000D03*
X186407000Y-126615000D03*
X186407000Y-127885000D03*
X186407000Y-129155000D03*
X181457000Y-129155000D03*
X181457000Y-127885000D03*
X181457000Y-126615000D03*
X181457000Y-125345000D03*
%TD*%
D24*
%TO.C,D19*%
X106170500Y-96069000D03*
X107745500Y-96069000D03*
%TD*%
D68*
%TO.C,D14*%
X190883063Y-117629763D03*
X193683063Y-117629763D03*
%TD*%
D32*
%TO.C,R14*%
X167736000Y-79201000D03*
X167736000Y-81026000D03*
%TD*%
D69*
%TO.C,C28*%
X142592000Y-91457500D03*
X142592000Y-89382500D03*
%TD*%
D29*
%TO.C,R11*%
X107210000Y-111610600D03*
X105385000Y-111610600D03*
%TD*%
D70*
%TO.C,J7*%
X92277100Y-115664600D03*
X95477100Y-113664600D03*
X92277100Y-111664600D03*
X95477100Y-109664600D03*
X92277100Y-107664600D03*
%TD*%
D29*
%TO.C,R10*%
X179064500Y-136140000D03*
X177239500Y-136140000D03*
%TD*%
D56*
%TO.C,D12*%
X127514726Y-126655526D03*
X127514726Y-124905526D03*
%TD*%
D52*
%TO.C,H5*%
X94927074Y-137045874D03*
%TD*%
D29*
%TO.C,R35*%
X158476600Y-123741600D03*
X156651600Y-123741600D03*
%TD*%
D71*
%TO.C,J37*%
X198730237Y-91871737D03*
D72*
X201730237Y-96571737D03*
D73*
X195730237Y-96571737D03*
%TD*%
D42*
%TO.C,K1*%
X116272000Y-116860000D03*
D43*
X110222000Y-118810000D03*
D42*
X110222000Y-131010000D03*
X122272000Y-131060000D03*
D43*
X122222000Y-118810000D03*
%TD*%
D44*
%TO.C,C23*%
X114208400Y-106345800D03*
X112658400Y-106345800D03*
%TD*%
%TO.C,C18*%
X114157000Y-95500000D03*
X112607000Y-95500000D03*
%TD*%
D37*
%TO.C,J9*%
X138592000Y-137080000D03*
X140592000Y-140280000D03*
X142592000Y-137080000D03*
X144592000Y-140280000D03*
X146592000Y-137080000D03*
%TD*%
D29*
%TO.C,R24*%
X130447000Y-109470000D03*
X128622000Y-109470000D03*
%TD*%
D13*
%TO.C,C3-1*%
X161132000Y-89167000D03*
X161132000Y-87617000D03*
%TD*%
D10*
%TO.C,J29*%
X167228000Y-75692000D03*
%TD*%
D74*
%TO.C,C25*%
X205930237Y-83930237D03*
X197530237Y-83930237D03*
%TD*%
D42*
%TO.C,K2*%
X142942000Y-116860000D03*
D43*
X136892000Y-118810000D03*
D42*
X136892000Y-131010000D03*
X148942000Y-131060000D03*
D43*
X148892000Y-118810000D03*
%TD*%
D16*
%TO.C,104\u002C5*%
X162910000Y-78486000D03*
X164460000Y-78486000D03*
%TD*%
D33*
%TO.C,D6*%
X106899500Y-124090000D03*
X105324500Y-124090000D03*
%TD*%
D16*
%TO.C,C24*%
X118182000Y-99610800D03*
X119732000Y-99610800D03*
%TD*%
D29*
%TO.C,R25*%
X132987000Y-127500800D03*
X131162000Y-127500800D03*
%TD*%
M02*
