%TF.GenerationSoftware,KiCad,Pcbnew,8.0.4*%
%TF.CreationDate,2024-09-29T16:25:58+07:00*%
%TF.ProjectId,Schematic_editted,53636865-6d61-4746-9963-5f6564697474,rev?*%
%TF.SameCoordinates,Original*%
%TF.FileFunction,Drillmap*%
%TF.FilePolarity,Positive*%
%FSLAX45Y45*%
G04 Gerber Fmt 4.5, Leading zero omitted, Abs format (unit mm)*
G04 Created by KiCad (PCBNEW 8.0.4) date 2024-09-29 16:25:58*
%MOMM*%
%LPD*%
G01*
G04 APERTURE LIST*
%ADD10C,0.200000*%
%ADD11C,0.100000*%
%ADD12C,0.110000*%
%ADD13C,0.120000*%
%ADD14C,0.130000*%
%ADD15C,0.140000*%
%ADD16C,0.350000*%
G04 APERTURE END LIST*
D10*
D11*
X11547000Y-9542000D02*
X11567000Y-9562000D01*
X11567000Y-9542000D02*
X11547000Y-9562000D01*
X11547000Y-9642000D02*
X11567000Y-9662000D01*
X11567000Y-9642000D02*
X11547000Y-9662000D01*
X11547000Y-9742000D02*
X11567000Y-9762000D01*
X11567000Y-9742000D02*
X11547000Y-9762000D01*
X11677000Y-9542000D02*
X11697000Y-9562000D01*
X11697000Y-9542000D02*
X11677000Y-9562000D01*
X11677000Y-9642000D02*
X11697000Y-9662000D01*
X11697000Y-9642000D02*
X11677000Y-9662000D01*
X11677000Y-9742000D02*
X11697000Y-9762000D01*
X11697000Y-9742000D02*
X11677000Y-9762000D01*
X12306000Y-10458000D02*
X12326000Y-10478000D01*
X12326000Y-10458000D02*
X12306000Y-10478000D01*
X12306000Y-10558000D02*
X12326000Y-10578000D01*
X12326000Y-10558000D02*
X12306000Y-10578000D01*
X12306000Y-10658000D02*
X12326000Y-10678000D01*
X12326000Y-10658000D02*
X12306000Y-10678000D01*
X12436000Y-10458000D02*
X12456000Y-10478000D01*
X12456000Y-10458000D02*
X12436000Y-10478000D01*
X12436000Y-10558000D02*
X12456000Y-10578000D01*
X12456000Y-10558000D02*
X12436000Y-10578000D01*
X12436000Y-10658000D02*
X12456000Y-10678000D01*
X12456000Y-10658000D02*
X12436000Y-10678000D01*
X17516000Y-12804000D02*
X17536000Y-12824000D01*
X17536000Y-12804000D02*
X17516000Y-12824000D01*
X17516000Y-12944000D02*
X17536000Y-12964000D01*
X17536000Y-12944000D02*
X17516000Y-12964000D01*
X17516000Y-13084000D02*
X17536000Y-13104000D01*
X17536000Y-13084000D02*
X17516000Y-13104000D01*
X17656000Y-12804000D02*
X17676000Y-12824000D01*
X17676000Y-12804000D02*
X17656000Y-12824000D01*
X17656000Y-12944000D02*
X17676000Y-12964000D01*
X17676000Y-12944000D02*
X17656000Y-12964000D01*
X17656000Y-13084000D02*
X17676000Y-13104000D01*
X17676000Y-13084000D02*
X17656000Y-13104000D01*
X17902000Y-13912000D02*
X17922000Y-13932000D01*
X17922000Y-13912000D02*
X17902000Y-13932000D01*
X17902000Y-14012000D02*
X17922000Y-14032000D01*
X17922000Y-14012000D02*
X17902000Y-14032000D01*
X17902000Y-14112000D02*
X17922000Y-14132000D01*
X17922000Y-14112000D02*
X17902000Y-14132000D01*
X18032000Y-13912000D02*
X18052000Y-13932000D01*
X18052000Y-13912000D02*
X18032000Y-13932000D01*
X18032000Y-14012000D02*
X18052000Y-14032000D01*
X18052000Y-14012000D02*
X18032000Y-14032000D01*
X18032000Y-14112000D02*
X18052000Y-14132000D01*
X18052000Y-14112000D02*
X18032000Y-14132000D01*
X8515060Y-10414000D02*
G75*
G02*
X8485060Y-10414000I-15000J0D01*
G01*
X8485060Y-10414000D02*
G75*
G02*
X8515060Y-10414000I15000J0D01*
G01*
X8540363Y-11300460D02*
G75*
G02*
X8510363Y-11300460I-15000J0D01*
G01*
X8510363Y-11300460D02*
G75*
G02*
X8540363Y-11300460I15000J0D01*
G01*
X8651000Y-10414000D02*
G75*
G02*
X8621000Y-10414000I-15000J0D01*
G01*
X8621000Y-10414000D02*
G75*
G02*
X8651000Y-10414000I15000J0D01*
G01*
X8778000Y-10033000D02*
G75*
G02*
X8748000Y-10033000I-15000J0D01*
G01*
X8748000Y-10033000D02*
G75*
G02*
X8778000Y-10033000I15000J0D01*
G01*
X8778000Y-10922000D02*
G75*
G02*
X8748000Y-10922000I-15000J0D01*
G01*
X8748000Y-10922000D02*
G75*
G02*
X8778000Y-10922000I15000J0D01*
G01*
X8778000Y-13081000D02*
G75*
G02*
X8748000Y-13081000I-15000J0D01*
G01*
X8748000Y-13081000D02*
G75*
G02*
X8778000Y-13081000I15000J0D01*
G01*
X8905000Y-10541000D02*
G75*
G02*
X8875000Y-10541000I-15000J0D01*
G01*
X8875000Y-10541000D02*
G75*
G02*
X8905000Y-10541000I15000J0D01*
G01*
X8905000Y-10795000D02*
G75*
G02*
X8875000Y-10795000I-15000J0D01*
G01*
X8875000Y-10795000D02*
G75*
G02*
X8905000Y-10795000I15000J0D01*
G01*
X8905000Y-11430000D02*
G75*
G02*
X8875000Y-11430000I-15000J0D01*
G01*
X8875000Y-11430000D02*
G75*
G02*
X8905000Y-11430000I15000J0D01*
G01*
X8966035Y-9844965D02*
G75*
G02*
X8936035Y-9844965I-15000J0D01*
G01*
X8936035Y-9844965D02*
G75*
G02*
X8966035Y-9844965I15000J0D01*
G01*
X9032000Y-12827000D02*
G75*
G02*
X9002000Y-12827000I-15000J0D01*
G01*
X9002000Y-12827000D02*
G75*
G02*
X9032000Y-12827000I15000J0D01*
G01*
X9159000Y-10287000D02*
G75*
G02*
X9129000Y-10287000I-15000J0D01*
G01*
X9129000Y-10287000D02*
G75*
G02*
X9159000Y-10287000I15000J0D01*
G01*
X9159000Y-12446000D02*
G75*
G02*
X9129000Y-12446000I-15000J0D01*
G01*
X9129000Y-12446000D02*
G75*
G02*
X9159000Y-12446000I15000J0D01*
G01*
X9286000Y-12827000D02*
G75*
G02*
X9256000Y-12827000I-15000J0D01*
G01*
X9256000Y-12827000D02*
G75*
G02*
X9286000Y-12827000I15000J0D01*
G01*
X9346000Y-10287000D02*
G75*
G02*
X9316000Y-10287000I-15000J0D01*
G01*
X9316000Y-10287000D02*
G75*
G02*
X9346000Y-10287000I15000J0D01*
G01*
X9413000Y-9906000D02*
G75*
G02*
X9383000Y-9906000I-15000J0D01*
G01*
X9383000Y-9906000D02*
G75*
G02*
X9413000Y-9906000I15000J0D01*
G01*
X9413000Y-10541000D02*
G75*
G02*
X9383000Y-10541000I-15000J0D01*
G01*
X9383000Y-10541000D02*
G75*
G02*
X9413000Y-10541000I15000J0D01*
G01*
X9540000Y-11430000D02*
G75*
G02*
X9510000Y-11430000I-15000J0D01*
G01*
X9510000Y-11430000D02*
G75*
G02*
X9540000Y-11430000I15000J0D01*
G01*
X9648039Y-12812858D02*
G75*
G02*
X9618039Y-12812858I-15000J0D01*
G01*
X9618039Y-12812858D02*
G75*
G02*
X9648039Y-12812858I15000J0D01*
G01*
X9667000Y-13081000D02*
G75*
G02*
X9637000Y-13081000I-15000J0D01*
G01*
X9637000Y-13081000D02*
G75*
G02*
X9667000Y-13081000I15000J0D01*
G01*
X9794000Y-10033000D02*
G75*
G02*
X9764000Y-10033000I-15000J0D01*
G01*
X9764000Y-10033000D02*
G75*
G02*
X9794000Y-10033000I15000J0D01*
G01*
X9794000Y-13716000D02*
G75*
G02*
X9764000Y-13716000I-15000J0D01*
G01*
X9764000Y-13716000D02*
G75*
G02*
X9794000Y-13716000I15000J0D01*
G01*
X9935677Y-11825676D02*
G75*
G02*
X9905677Y-11825676I-15000J0D01*
G01*
X9905677Y-11825676D02*
G75*
G02*
X9935677Y-11825676I15000J0D01*
G01*
X9969000Y-13637000D02*
G75*
G02*
X9939000Y-13637000I-15000J0D01*
G01*
X9939000Y-13637000D02*
G75*
G02*
X9969000Y-13637000I15000J0D01*
G01*
X9969000Y-13891000D02*
G75*
G02*
X9939000Y-13891000I-15000J0D01*
G01*
X9939000Y-13891000D02*
G75*
G02*
X9969000Y-13891000I15000J0D01*
G01*
X9992350Y-9835900D02*
G75*
G02*
X9962350Y-9835900I-15000J0D01*
G01*
X9962350Y-9835900D02*
G75*
G02*
X9992350Y-9835900I15000J0D01*
G01*
X10048000Y-10668000D02*
G75*
G02*
X10018000Y-10668000I-15000J0D01*
G01*
X10018000Y-10668000D02*
G75*
G02*
X10048000Y-10668000I15000J0D01*
G01*
X10175000Y-12827000D02*
G75*
G02*
X10145000Y-12827000I-15000J0D01*
G01*
X10145000Y-12827000D02*
G75*
G02*
X10175000Y-12827000I15000J0D01*
G01*
X10302000Y-11303000D02*
G75*
G02*
X10272000Y-11303000I-15000J0D01*
G01*
X10272000Y-11303000D02*
G75*
G02*
X10302000Y-11303000I15000J0D01*
G01*
X10429000Y-12446000D02*
G75*
G02*
X10399000Y-12446000I-15000J0D01*
G01*
X10399000Y-12446000D02*
G75*
G02*
X10429000Y-12446000I15000J0D01*
G01*
X10556000Y-12700000D02*
G75*
G02*
X10526000Y-12700000I-15000J0D01*
G01*
X10526000Y-12700000D02*
G75*
G02*
X10556000Y-12700000I15000J0D01*
G01*
X10683000Y-10033000D02*
G75*
G02*
X10653000Y-10033000I-15000J0D01*
G01*
X10653000Y-10033000D02*
G75*
G02*
X10683000Y-10033000I15000J0D01*
G01*
X10810000Y-9116000D02*
G75*
G02*
X10780000Y-9116000I-15000J0D01*
G01*
X10780000Y-9116000D02*
G75*
G02*
X10810000Y-9116000I15000J0D01*
G01*
X10810000Y-10795000D02*
G75*
G02*
X10780000Y-10795000I-15000J0D01*
G01*
X10780000Y-10795000D02*
G75*
G02*
X10810000Y-10795000I15000J0D01*
G01*
X10937000Y-8890000D02*
G75*
G02*
X10907000Y-8890000I-15000J0D01*
G01*
X10907000Y-8890000D02*
G75*
G02*
X10937000Y-8890000I15000J0D01*
G01*
X10937000Y-9271000D02*
G75*
G02*
X10907000Y-9271000I-15000J0D01*
G01*
X10907000Y-9271000D02*
G75*
G02*
X10937000Y-9271000I15000J0D01*
G01*
X10937000Y-12700000D02*
G75*
G02*
X10907000Y-12700000I-15000J0D01*
G01*
X10907000Y-12700000D02*
G75*
G02*
X10937000Y-12700000I15000J0D01*
G01*
X10937000Y-13843000D02*
G75*
G02*
X10907000Y-13843000I-15000J0D01*
G01*
X10907000Y-13843000D02*
G75*
G02*
X10937000Y-13843000I15000J0D01*
G01*
X11064000Y-8509000D02*
G75*
G02*
X11034000Y-8509000I-15000J0D01*
G01*
X11034000Y-8509000D02*
G75*
G02*
X11064000Y-8509000I15000J0D01*
G01*
X11191000Y-9398000D02*
G75*
G02*
X11161000Y-9398000I-15000J0D01*
G01*
X11161000Y-9398000D02*
G75*
G02*
X11191000Y-9398000I15000J0D01*
G01*
X11191000Y-9832220D02*
G75*
G02*
X11161000Y-9832220I-15000J0D01*
G01*
X11161000Y-9832220D02*
G75*
G02*
X11191000Y-9832220I15000J0D01*
G01*
X11378000Y-11470000D02*
G75*
G02*
X11348000Y-11470000I-15000J0D01*
G01*
X11348000Y-11470000D02*
G75*
G02*
X11378000Y-11470000I15000J0D01*
G01*
X11445000Y-11176000D02*
G75*
G02*
X11415000Y-11176000I-15000J0D01*
G01*
X11415000Y-11176000D02*
G75*
G02*
X11445000Y-11176000I15000J0D01*
G01*
X11480750Y-8890000D02*
G75*
G02*
X11450750Y-8890000I-15000J0D01*
G01*
X11450750Y-8890000D02*
G75*
G02*
X11480750Y-8890000I15000J0D01*
G01*
X11699000Y-12446000D02*
G75*
G02*
X11669000Y-12446000I-15000J0D01*
G01*
X11669000Y-12446000D02*
G75*
G02*
X11699000Y-12446000I15000J0D01*
G01*
X11762000Y-10665076D02*
G75*
G02*
X11732000Y-10665076I-15000J0D01*
G01*
X11732000Y-10665076D02*
G75*
G02*
X11762000Y-10665076I15000J0D01*
G01*
X11826000Y-10541000D02*
G75*
G02*
X11796000Y-10541000I-15000J0D01*
G01*
X11796000Y-10541000D02*
G75*
G02*
X11826000Y-10541000I15000J0D01*
G01*
X11953000Y-12446000D02*
G75*
G02*
X11923000Y-12446000I-15000J0D01*
G01*
X11923000Y-12446000D02*
G75*
G02*
X11953000Y-12446000I15000J0D01*
G01*
X11953000Y-13081000D02*
G75*
G02*
X11923000Y-13081000I-15000J0D01*
G01*
X11923000Y-13081000D02*
G75*
G02*
X11953000Y-13081000I15000J0D01*
G01*
X11961000Y-10398397D02*
G75*
G02*
X11931000Y-10398397I-15000J0D01*
G01*
X11931000Y-10398397D02*
G75*
G02*
X11961000Y-10398397I15000J0D01*
G01*
X12080000Y-10033000D02*
G75*
G02*
X12050000Y-10033000I-15000J0D01*
G01*
X12050000Y-10033000D02*
G75*
G02*
X12080000Y-10033000I15000J0D01*
G01*
X12080000Y-13081000D02*
G75*
G02*
X12050000Y-13081000I-15000J0D01*
G01*
X12050000Y-13081000D02*
G75*
G02*
X12080000Y-13081000I15000J0D01*
G01*
X12207000Y-10033000D02*
G75*
G02*
X12177000Y-10033000I-15000J0D01*
G01*
X12177000Y-10033000D02*
G75*
G02*
X12207000Y-10033000I15000J0D01*
G01*
X12207000Y-12065000D02*
G75*
G02*
X12177000Y-12065000I-15000J0D01*
G01*
X12177000Y-12065000D02*
G75*
G02*
X12207000Y-12065000I15000J0D01*
G01*
X12334000Y-12446000D02*
G75*
G02*
X12304000Y-12446000I-15000J0D01*
G01*
X12304000Y-12446000D02*
G75*
G02*
X12334000Y-12446000I15000J0D01*
G01*
X12334000Y-12827000D02*
G75*
G02*
X12304000Y-12827000I-15000J0D01*
G01*
X12304000Y-12827000D02*
G75*
G02*
X12334000Y-12827000I15000J0D01*
G01*
X12334000Y-13208000D02*
G75*
G02*
X12304000Y-13208000I-15000J0D01*
G01*
X12304000Y-13208000D02*
G75*
G02*
X12334000Y-13208000I15000J0D01*
G01*
X12461000Y-11303000D02*
G75*
G02*
X12431000Y-11303000I-15000J0D01*
G01*
X12431000Y-11303000D02*
G75*
G02*
X12461000Y-11303000I15000J0D01*
G01*
X12588000Y-11176000D02*
G75*
G02*
X12558000Y-11176000I-15000J0D01*
G01*
X12558000Y-11176000D02*
G75*
G02*
X12588000Y-11176000I15000J0D01*
G01*
X12969000Y-10160000D02*
G75*
G02*
X12939000Y-10160000I-15000J0D01*
G01*
X12939000Y-10160000D02*
G75*
G02*
X12969000Y-10160000I15000J0D01*
G01*
X13096000Y-9906000D02*
G75*
G02*
X13066000Y-9906000I-15000J0D01*
G01*
X13066000Y-9906000D02*
G75*
G02*
X13096000Y-9906000I15000J0D01*
G01*
X13096000Y-10668000D02*
G75*
G02*
X13066000Y-10668000I-15000J0D01*
G01*
X13066000Y-10668000D02*
G75*
G02*
X13096000Y-10668000I15000J0D01*
G01*
X13312000Y-9652000D02*
G75*
G02*
X13282000Y-9652000I-15000J0D01*
G01*
X13282000Y-9652000D02*
G75*
G02*
X13312000Y-9652000I15000J0D01*
G01*
X13477000Y-11430000D02*
G75*
G02*
X13447000Y-11430000I-15000J0D01*
G01*
X13447000Y-11430000D02*
G75*
G02*
X13477000Y-11430000I15000J0D01*
G01*
X13477000Y-11557000D02*
G75*
G02*
X13447000Y-11557000I-15000J0D01*
G01*
X13447000Y-11557000D02*
G75*
G02*
X13477000Y-11557000I15000J0D01*
G01*
X13477000Y-13589000D02*
G75*
G02*
X13447000Y-13589000I-15000J0D01*
G01*
X13447000Y-13589000D02*
G75*
G02*
X13477000Y-13589000I15000J0D01*
G01*
X13604000Y-9779000D02*
G75*
G02*
X13574000Y-9779000I-15000J0D01*
G01*
X13574000Y-9779000D02*
G75*
G02*
X13604000Y-9779000I15000J0D01*
G01*
X13731000Y-9017000D02*
G75*
G02*
X13701000Y-9017000I-15000J0D01*
G01*
X13701000Y-9017000D02*
G75*
G02*
X13731000Y-9017000I15000J0D01*
G01*
X13789050Y-7587550D02*
G75*
G02*
X13759050Y-7587550I-15000J0D01*
G01*
X13759050Y-7587550D02*
G75*
G02*
X13789050Y-7587550I15000J0D01*
G01*
X13857800Y-8179200D02*
G75*
G02*
X13827800Y-8179200I-15000J0D01*
G01*
X13827800Y-8179200D02*
G75*
G02*
X13857800Y-8179200I15000J0D01*
G01*
X13858000Y-10414000D02*
G75*
G02*
X13828000Y-10414000I-15000J0D01*
G01*
X13828000Y-10414000D02*
G75*
G02*
X13858000Y-10414000I15000J0D01*
G01*
X13925000Y-10160000D02*
G75*
G02*
X13895000Y-10160000I-15000J0D01*
G01*
X13895000Y-10160000D02*
G75*
G02*
X13925000Y-10160000I15000J0D01*
G01*
X13958100Y-7372225D02*
G75*
G02*
X13928100Y-7372225I-15000J0D01*
G01*
X13928100Y-7372225D02*
G75*
G02*
X13958100Y-7372225I15000J0D01*
G01*
X13985000Y-10287000D02*
G75*
G02*
X13955000Y-10287000I-15000J0D01*
G01*
X13955000Y-10287000D02*
G75*
G02*
X13985000Y-10287000I15000J0D01*
G01*
X14111800Y-8458600D02*
G75*
G02*
X14081800Y-8458600I-15000J0D01*
G01*
X14081800Y-8458600D02*
G75*
G02*
X14111800Y-8458600I15000J0D01*
G01*
X14112000Y-10922000D02*
G75*
G02*
X14082000Y-10922000I-15000J0D01*
G01*
X14082000Y-10922000D02*
G75*
G02*
X14112000Y-10922000I15000J0D01*
G01*
X14174000Y-7800740D02*
G75*
G02*
X14144000Y-7800740I-15000J0D01*
G01*
X14144000Y-7800740D02*
G75*
G02*
X14174000Y-7800740I15000J0D01*
G01*
X14239000Y-6985000D02*
G75*
G02*
X14209000Y-6985000I-15000J0D01*
G01*
X14209000Y-6985000D02*
G75*
G02*
X14239000Y-6985000I15000J0D01*
G01*
X14315000Y-7341000D02*
G75*
G02*
X14285000Y-7341000I-15000J0D01*
G01*
X14285000Y-7341000D02*
G75*
G02*
X14315000Y-7341000I15000J0D01*
G01*
X14329000Y-7800740D02*
G75*
G02*
X14299000Y-7800740I-15000J0D01*
G01*
X14299000Y-7800740D02*
G75*
G02*
X14329000Y-7800740I15000J0D01*
G01*
X14436720Y-8059820D02*
G75*
G02*
X14406720Y-8059820I-15000J0D01*
G01*
X14406720Y-8059820D02*
G75*
G02*
X14436720Y-8059820I15000J0D01*
G01*
X14594220Y-8059820D02*
G75*
G02*
X14564220Y-8059820I-15000J0D01*
G01*
X14564220Y-8059820D02*
G75*
G02*
X14594220Y-8059820I15000J0D01*
G01*
X14620000Y-13462000D02*
G75*
G02*
X14590000Y-13462000I-15000J0D01*
G01*
X14590000Y-13462000D02*
G75*
G02*
X14620000Y-13462000I15000J0D01*
G01*
X14683500Y-14287500D02*
G75*
G02*
X14653500Y-14287500I-15000J0D01*
G01*
X14653500Y-14287500D02*
G75*
G02*
X14683500Y-14287500I15000J0D01*
G01*
X14696000Y-7417200D02*
G75*
G02*
X14666000Y-7417200I-15000J0D01*
G01*
X14666000Y-7417200D02*
G75*
G02*
X14696000Y-7417200I15000J0D01*
G01*
X14696000Y-9449200D02*
G75*
G02*
X14666000Y-9449200I-15000J0D01*
G01*
X14666000Y-9449200D02*
G75*
G02*
X14696000Y-9449200I15000J0D01*
G01*
X14711200Y-7850400D02*
G75*
G02*
X14681200Y-7850400I-15000J0D01*
G01*
X14681200Y-7850400D02*
G75*
G02*
X14711200Y-7850400I15000J0D01*
G01*
X14747000Y-11684000D02*
G75*
G02*
X14717000Y-11684000I-15000J0D01*
G01*
X14717000Y-11684000D02*
G75*
G02*
X14747000Y-11684000I15000J0D01*
G01*
X14752720Y-12821280D02*
G75*
G02*
X14722720Y-12821280I-15000J0D01*
G01*
X14722720Y-12821280D02*
G75*
G02*
X14752720Y-12821280I15000J0D01*
G01*
X14772200Y-8636400D02*
G75*
G02*
X14742200Y-8636400I-15000J0D01*
G01*
X14742200Y-8636400D02*
G75*
G02*
X14772200Y-8636400I15000J0D01*
G01*
X14874000Y-13081000D02*
G75*
G02*
X14844000Y-13081000I-15000J0D01*
G01*
X14844000Y-13081000D02*
G75*
G02*
X14874000Y-13081000I15000J0D01*
G01*
X14947900Y-9326500D02*
G75*
G02*
X14917900Y-9326500I-15000J0D01*
G01*
X14917900Y-9326500D02*
G75*
G02*
X14947900Y-9326500I15000J0D01*
G01*
X15026200Y-8179200D02*
G75*
G02*
X14996200Y-8179200I-15000J0D01*
G01*
X14996200Y-8179200D02*
G75*
G02*
X15026200Y-8179200I15000J0D01*
G01*
X15255000Y-12700000D02*
G75*
G02*
X15225000Y-12700000I-15000J0D01*
G01*
X15225000Y-12700000D02*
G75*
G02*
X15255000Y-12700000I15000J0D01*
G01*
X15331000Y-9114000D02*
G75*
G02*
X15301000Y-9114000I-15000J0D01*
G01*
X15301000Y-9114000D02*
G75*
G02*
X15331000Y-9114000I15000J0D01*
G01*
X15534200Y-9134000D02*
G75*
G02*
X15504200Y-9134000I-15000J0D01*
G01*
X15504200Y-9134000D02*
G75*
G02*
X15534200Y-9134000I15000J0D01*
G01*
X15637800Y-8994000D02*
G75*
G02*
X15607800Y-8994000I-15000J0D01*
G01*
X15607800Y-8994000D02*
G75*
G02*
X15637800Y-8994000I15000J0D01*
G01*
X15788200Y-8153800D02*
G75*
G02*
X15758200Y-8153800I-15000J0D01*
G01*
X15758200Y-8153800D02*
G75*
G02*
X15788200Y-8153800I15000J0D01*
G01*
X15813600Y-8458600D02*
G75*
G02*
X15783600Y-8458600I-15000J0D01*
G01*
X15783600Y-8458600D02*
G75*
G02*
X15813600Y-8458600I15000J0D01*
G01*
X15915200Y-8992000D02*
G75*
G02*
X15885200Y-8992000I-15000J0D01*
G01*
X15885200Y-8992000D02*
G75*
G02*
X15915200Y-8992000I15000J0D01*
G01*
X15958789Y-9111789D02*
G75*
G02*
X15928789Y-9111789I-15000J0D01*
G01*
X15928789Y-9111789D02*
G75*
G02*
X15958789Y-9111789I15000J0D01*
G01*
X16035847Y-9904800D02*
G75*
G02*
X16005847Y-9904800I-15000J0D01*
G01*
X16005847Y-9904800D02*
G75*
G02*
X16035847Y-9904800I15000J0D01*
G01*
X16042358Y-9984535D02*
G75*
G02*
X16012358Y-9984535I-15000J0D01*
G01*
X16012358Y-9984535D02*
G75*
G02*
X16042358Y-9984535I15000J0D01*
G01*
X16067600Y-8966600D02*
G75*
G02*
X16037600Y-8966600I-15000J0D01*
G01*
X16037600Y-8966600D02*
G75*
G02*
X16067600Y-8966600I15000J0D01*
G01*
X16118400Y-8484000D02*
G75*
G02*
X16088400Y-8484000I-15000J0D01*
G01*
X16088400Y-8484000D02*
G75*
G02*
X16118400Y-8484000I15000J0D01*
G01*
X16143800Y-9296800D02*
G75*
G02*
X16113800Y-9296800I-15000J0D01*
G01*
X16113800Y-9296800D02*
G75*
G02*
X16143800Y-9296800I15000J0D01*
G01*
X16169200Y-9042800D02*
G75*
G02*
X16139200Y-9042800I-15000J0D01*
G01*
X16139200Y-9042800D02*
G75*
G02*
X16169200Y-9042800I15000J0D01*
G01*
X16174969Y-8427431D02*
G75*
G02*
X16144969Y-8427431I-15000J0D01*
G01*
X16144969Y-8427431D02*
G75*
G02*
X16174969Y-8427431I15000J0D01*
G01*
X16207300Y-7912500D02*
G75*
G02*
X16177300Y-7912500I-15000J0D01*
G01*
X16177300Y-7912500D02*
G75*
G02*
X16207300Y-7912500I15000J0D01*
G01*
X16266473Y-8428874D02*
G75*
G02*
X16236473Y-8428874I-15000J0D01*
G01*
X16236473Y-8428874D02*
G75*
G02*
X16266473Y-8428874I15000J0D01*
G01*
X16270800Y-8149100D02*
G75*
G02*
X16240800Y-8149100I-15000J0D01*
G01*
X16240800Y-8149100D02*
G75*
G02*
X16270800Y-8149100I15000J0D01*
G01*
X16270800Y-8966600D02*
G75*
G02*
X16240800Y-8966600I-15000J0D01*
G01*
X16240800Y-8966600D02*
G75*
G02*
X16270800Y-8966600I15000J0D01*
G01*
X16271000Y-13208000D02*
G75*
G02*
X16241000Y-13208000I-15000J0D01*
G01*
X16241000Y-13208000D02*
G75*
G02*
X16271000Y-13208000I15000J0D01*
G01*
X16347000Y-9042800D02*
G75*
G02*
X16317000Y-9042800I-15000J0D01*
G01*
X16317000Y-9042800D02*
G75*
G02*
X16347000Y-9042800I15000J0D01*
G01*
X16397800Y-8204600D02*
G75*
G02*
X16367800Y-8204600I-15000J0D01*
G01*
X16367800Y-8204600D02*
G75*
G02*
X16397800Y-8204600I15000J0D01*
G01*
X16398000Y-11049000D02*
G75*
G02*
X16368000Y-11049000I-15000J0D01*
G01*
X16368000Y-11049000D02*
G75*
G02*
X16398000Y-11049000I15000J0D01*
G01*
X16423200Y-8834000D02*
G75*
G02*
X16393200Y-8834000I-15000J0D01*
G01*
X16393200Y-8834000D02*
G75*
G02*
X16423200Y-8834000I15000J0D01*
G01*
X16499400Y-8560200D02*
G75*
G02*
X16469400Y-8560200I-15000J0D01*
G01*
X16469400Y-8560200D02*
G75*
G02*
X16499400Y-8560200I15000J0D01*
G01*
X16525000Y-10922000D02*
G75*
G02*
X16495000Y-10922000I-15000J0D01*
G01*
X16495000Y-10922000D02*
G75*
G02*
X16525000Y-10922000I15000J0D01*
G01*
X16550200Y-8484000D02*
G75*
G02*
X16520200Y-8484000I-15000J0D01*
G01*
X16520200Y-8484000D02*
G75*
G02*
X16550200Y-8484000I15000J0D01*
G01*
X16601000Y-8290450D02*
G75*
G02*
X16571000Y-8290450I-15000J0D01*
G01*
X16571000Y-8290450D02*
G75*
G02*
X16601000Y-8290450I15000J0D01*
G01*
X16601000Y-8738000D02*
G75*
G02*
X16571000Y-8738000I-15000J0D01*
G01*
X16571000Y-8738000D02*
G75*
G02*
X16601000Y-8738000I15000J0D01*
G01*
X16778800Y-8884000D02*
G75*
G02*
X16748800Y-8884000I-15000J0D01*
G01*
X16748800Y-8884000D02*
G75*
G02*
X16778800Y-8884000I15000J0D01*
G01*
X16906000Y-10160000D02*
G75*
G02*
X16876000Y-10160000I-15000J0D01*
G01*
X16876000Y-10160000D02*
G75*
G02*
X16906000Y-10160000I15000J0D01*
G01*
X16952274Y-8934000D02*
G75*
G02*
X16922274Y-8934000I-15000J0D01*
G01*
X16922274Y-8934000D02*
G75*
G02*
X16952274Y-8934000I15000J0D01*
G01*
X16956600Y-8077600D02*
G75*
G02*
X16926600Y-8077600I-15000J0D01*
G01*
X16926600Y-8077600D02*
G75*
G02*
X16956600Y-8077600I15000J0D01*
G01*
X17160000Y-11303000D02*
G75*
G02*
X17130000Y-11303000I-15000J0D01*
G01*
X17130000Y-11303000D02*
G75*
G02*
X17160000Y-11303000I15000J0D01*
G01*
X17160000Y-12827000D02*
G75*
G02*
X17130000Y-12827000I-15000J0D01*
G01*
X17130000Y-12827000D02*
G75*
G02*
X17160000Y-12827000I15000J0D01*
G01*
X17160000Y-13335000D02*
G75*
G02*
X17130000Y-13335000I-15000J0D01*
G01*
X17130000Y-13335000D02*
G75*
G02*
X17160000Y-13335000I15000J0D01*
G01*
X17160000Y-14097000D02*
G75*
G02*
X17130000Y-14097000I-15000J0D01*
G01*
X17130000Y-14097000D02*
G75*
G02*
X17160000Y-14097000I15000J0D01*
G01*
X17160177Y-12953823D02*
G75*
G02*
X17130177Y-12953823I-15000J0D01*
G01*
X17130177Y-12953823D02*
G75*
G02*
X17160177Y-12953823I15000J0D01*
G01*
X17287000Y-13589000D02*
G75*
G02*
X17257000Y-13589000I-15000J0D01*
G01*
X17257000Y-13589000D02*
G75*
G02*
X17287000Y-13589000I15000J0D01*
G01*
X17348000Y-10795000D02*
G75*
G02*
X17318000Y-10795000I-15000J0D01*
G01*
X17318000Y-10795000D02*
G75*
G02*
X17348000Y-10795000I15000J0D01*
G01*
X17414000Y-13716000D02*
G75*
G02*
X17384000Y-13716000I-15000J0D01*
G01*
X17384000Y-13716000D02*
G75*
G02*
X17414000Y-13716000I15000J0D01*
G01*
X17414000Y-13843000D02*
G75*
G02*
X17384000Y-13843000I-15000J0D01*
G01*
X17384000Y-13843000D02*
G75*
G02*
X17414000Y-13843000I15000J0D01*
G01*
X17414000Y-14213500D02*
G75*
G02*
X17384000Y-14213500I-15000J0D01*
G01*
X17384000Y-14213500D02*
G75*
G02*
X17414000Y-14213500I15000J0D01*
G01*
X17566200Y-8839600D02*
G75*
G02*
X17536200Y-8839600I-15000J0D01*
G01*
X17536200Y-8839600D02*
G75*
G02*
X17566200Y-8839600I15000J0D01*
G01*
X17668000Y-11430000D02*
G75*
G02*
X17638000Y-11430000I-15000J0D01*
G01*
X17638000Y-11430000D02*
G75*
G02*
X17668000Y-11430000I15000J0D01*
G01*
X17668000Y-13462000D02*
G75*
G02*
X17638000Y-13462000I-15000J0D01*
G01*
X17638000Y-13462000D02*
G75*
G02*
X17668000Y-13462000I15000J0D01*
G01*
X17668000Y-13716000D02*
G75*
G02*
X17638000Y-13716000I-15000J0D01*
G01*
X17638000Y-13716000D02*
G75*
G02*
X17668000Y-13716000I15000J0D01*
G01*
X17668000Y-14351000D02*
G75*
G02*
X17638000Y-14351000I-15000J0D01*
G01*
X17638000Y-14351000D02*
G75*
G02*
X17668000Y-14351000I15000J0D01*
G01*
X17744500Y-13958500D02*
G75*
G02*
X17714500Y-13958500I-15000J0D01*
G01*
X17714500Y-13958500D02*
G75*
G02*
X17744500Y-13958500I15000J0D01*
G01*
X18049000Y-12446000D02*
G75*
G02*
X18019000Y-12446000I-15000J0D01*
G01*
X18019000Y-12446000D02*
G75*
G02*
X18049000Y-12446000I15000J0D01*
G01*
X18049000Y-12700000D02*
G75*
G02*
X18019000Y-12700000I-15000J0D01*
G01*
X18019000Y-12700000D02*
G75*
G02*
X18049000Y-12700000I15000J0D01*
G01*
X18049000Y-13208000D02*
G75*
G02*
X18019000Y-13208000I-15000J0D01*
G01*
X18019000Y-13208000D02*
G75*
G02*
X18049000Y-13208000I15000J0D01*
G01*
X18049000Y-14351000D02*
G75*
G02*
X18019000Y-14351000I-15000J0D01*
G01*
X18019000Y-14351000D02*
G75*
G02*
X18049000Y-14351000I15000J0D01*
G01*
X18078506Y-11483976D02*
G75*
G02*
X18048506Y-11483976I-15000J0D01*
G01*
X18048506Y-11483976D02*
G75*
G02*
X18078506Y-11483976I15000J0D01*
G01*
X18176000Y-13462000D02*
G75*
G02*
X18146000Y-13462000I-15000J0D01*
G01*
X18146000Y-13462000D02*
G75*
G02*
X18176000Y-13462000I15000J0D01*
G01*
X18210924Y-11718924D02*
G75*
G02*
X18180924Y-11718924I-15000J0D01*
G01*
X18180924Y-11718924D02*
G75*
G02*
X18210924Y-11718924I15000J0D01*
G01*
X18293706Y-11268076D02*
G75*
G02*
X18263706Y-11268076I-15000J0D01*
G01*
X18263706Y-11268076D02*
G75*
G02*
X18293706Y-11268076I15000J0D01*
G01*
X18303000Y-13462000D02*
G75*
G02*
X18273000Y-13462000I-15000J0D01*
G01*
X18273000Y-13462000D02*
G75*
G02*
X18303000Y-13462000I15000J0D01*
G01*
X18430000Y-13716000D02*
G75*
G02*
X18400000Y-13716000I-15000J0D01*
G01*
X18400000Y-13716000D02*
G75*
G02*
X18430000Y-13716000I15000J0D01*
G01*
X18430000Y-13994250D02*
G75*
G02*
X18400000Y-13994250I-15000J0D01*
G01*
X18400000Y-13994250D02*
G75*
G02*
X18430000Y-13994250I15000J0D01*
G01*
X18464924Y-11718924D02*
G75*
G02*
X18434924Y-11718924I-15000J0D01*
G01*
X18434924Y-11718924D02*
G75*
G02*
X18464924Y-11718924I15000J0D01*
G01*
X18557000Y-13335000D02*
G75*
G02*
X18527000Y-13335000I-15000J0D01*
G01*
X18527000Y-13335000D02*
G75*
G02*
X18557000Y-13335000I15000J0D01*
G01*
X18684000Y-13589000D02*
G75*
G02*
X18654000Y-13589000I-15000J0D01*
G01*
X18654000Y-13589000D02*
G75*
G02*
X18684000Y-13589000I15000J0D01*
G01*
X18801706Y-11903076D02*
G75*
G02*
X18771706Y-11903076I-15000J0D01*
G01*
X18771706Y-11903076D02*
G75*
G02*
X18801706Y-11903076I15000J0D01*
G01*
X18871000Y-13462000D02*
G75*
G02*
X18841000Y-13462000I-15000J0D01*
G01*
X18841000Y-13462000D02*
G75*
G02*
X18871000Y-13462000I15000J0D01*
G01*
X18938000Y-12954000D02*
G75*
G02*
X18908000Y-12954000I-15000J0D01*
G01*
X18908000Y-12954000D02*
G75*
G02*
X18938000Y-12954000I15000J0D01*
G01*
X18942180Y-13843000D02*
G75*
G02*
X18912180Y-13843000I-15000J0D01*
G01*
X18912180Y-13843000D02*
G75*
G02*
X18942180Y-13843000I15000J0D01*
G01*
X19182706Y-12093576D02*
G75*
G02*
X19152706Y-12093576I-15000J0D01*
G01*
X19152706Y-12093576D02*
G75*
G02*
X19182706Y-12093576I15000J0D01*
G01*
X19330654Y-8622024D02*
G75*
G02*
X19300654Y-8622024I-15000J0D01*
G01*
X19300654Y-8622024D02*
G75*
G02*
X19330654Y-8622024I15000J0D01*
G01*
X19817706Y-11877376D02*
G75*
G02*
X19787706Y-11877376I-15000J0D01*
G01*
X19787706Y-11877376D02*
G75*
G02*
X19817706Y-11877376I15000J0D01*
G01*
X8499070Y-9353000D02*
X8499070Y-9433000D01*
X8459070Y-9393000D02*
X8539070Y-9393000D01*
X8499070Y-9553000D02*
X8499070Y-9633000D01*
X8459070Y-9593000D02*
X8539070Y-9593000D01*
X8529550Y-8283380D02*
X8529550Y-8363380D01*
X8489550Y-8323380D02*
X8569550Y-8323380D01*
X8529550Y-8483380D02*
X8529550Y-8563380D01*
X8489550Y-8523380D02*
X8569550Y-8523380D01*
X8529550Y-8683380D02*
X8529550Y-8763380D01*
X8489550Y-8723380D02*
X8569550Y-8723380D01*
X9205190Y-8449700D02*
X9205190Y-8529700D01*
X9165190Y-8489700D02*
X9245190Y-8489700D01*
X9205190Y-8703700D02*
X9205190Y-8783700D01*
X9165190Y-8743700D02*
X9245190Y-8743700D01*
X9205190Y-8957700D02*
X9205190Y-9037700D01*
X9165190Y-8997700D02*
X9245190Y-8997700D01*
X9205190Y-9211700D02*
X9205190Y-9291700D01*
X9165190Y-9251700D02*
X9245190Y-9251700D01*
X12954000Y-10936000D02*
X12954000Y-11016000D01*
X12914000Y-10976000D02*
X12994000Y-10976000D01*
X12954000Y-11136000D02*
X12954000Y-11216000D01*
X12914000Y-11176000D02*
X12994000Y-11176000D01*
X13335000Y-8215000D02*
X13335000Y-8295000D01*
X13295000Y-8255000D02*
X13375000Y-8255000D01*
X13944400Y-8939800D02*
X13944400Y-9019800D01*
X13904400Y-8979800D02*
X13984400Y-8979800D01*
X13944400Y-9319800D02*
X13944400Y-9399800D01*
X13904400Y-9359800D02*
X13984400Y-9359800D01*
X14554000Y-8580600D02*
X14554000Y-8660600D01*
X14514000Y-8620600D02*
X14594000Y-8620600D01*
X14554000Y-8780600D02*
X14554000Y-8860600D01*
X14514000Y-8820600D02*
X14594000Y-8820600D01*
X14554000Y-8980600D02*
X14554000Y-9060600D01*
X14514000Y-9020600D02*
X14594000Y-9020600D01*
X14554000Y-9180600D02*
X14554000Y-9260600D01*
X14514000Y-9220600D02*
X14594000Y-9220600D01*
X14554000Y-9591800D02*
X14554000Y-9671800D01*
X14514000Y-9631800D02*
X14594000Y-9631800D01*
X14554000Y-9791800D02*
X14554000Y-9871800D01*
X14514000Y-9831800D02*
X14594000Y-9831800D01*
X14554000Y-9991800D02*
X14554000Y-10071800D01*
X14514000Y-10031800D02*
X14594000Y-10031800D01*
X14554000Y-10191800D02*
X14554000Y-10271800D01*
X14514000Y-10231800D02*
X14594000Y-10231800D01*
X14914400Y-8317000D02*
X14914400Y-8397000D01*
X14874400Y-8357000D02*
X14954400Y-8357000D01*
X14990600Y-9815600D02*
X14990600Y-9895600D01*
X14950600Y-9855600D02*
X15030600Y-9855600D01*
X15114400Y-8317000D02*
X15114400Y-8397000D01*
X15074400Y-8357000D02*
X15154400Y-8357000D01*
X15190600Y-9815600D02*
X15190600Y-9895600D01*
X15150600Y-9855600D02*
X15230600Y-9855600D01*
X15240000Y-10628000D02*
X15240000Y-10708000D01*
X15200000Y-10668000D02*
X15280000Y-10668000D01*
X15314400Y-8317000D02*
X15314400Y-8397000D01*
X15274400Y-8357000D02*
X15354400Y-8357000D01*
X15390600Y-9815600D02*
X15390600Y-9895600D01*
X15350600Y-9855600D02*
X15430600Y-9855600D01*
X15440000Y-10628000D02*
X15440000Y-10708000D01*
X15400000Y-10668000D02*
X15480000Y-10668000D01*
X15514400Y-8317000D02*
X15514400Y-8397000D01*
X15474400Y-8357000D02*
X15554400Y-8357000D01*
X15590600Y-9815600D02*
X15590600Y-9895600D01*
X15550600Y-9855600D02*
X15630600Y-9855600D01*
X15620800Y-7453400D02*
X15620800Y-7533400D01*
X15580800Y-7493400D02*
X15660800Y-7493400D01*
X15620800Y-7758200D02*
X15620800Y-7838200D01*
X15580800Y-7798200D02*
X15660800Y-7798200D01*
X15881200Y-10196600D02*
X15881200Y-10276600D01*
X15841200Y-10236600D02*
X15921200Y-10236600D01*
X15925600Y-7453400D02*
X15925600Y-7533400D01*
X15885600Y-7493400D02*
X15965600Y-7493400D01*
X15925600Y-7758200D02*
X15925600Y-7838200D01*
X15885600Y-7798200D02*
X15965600Y-7798200D01*
X16081200Y-10196600D02*
X16081200Y-10276600D01*
X16041200Y-10236600D02*
X16121200Y-10236600D01*
X16230400Y-7453400D02*
X16230400Y-7533400D01*
X16190400Y-7493400D02*
X16270400Y-7493400D01*
X16281200Y-10196600D02*
X16281200Y-10276600D01*
X16241200Y-10236600D02*
X16321200Y-10236600D01*
X16481200Y-10196600D02*
X16481200Y-10276600D01*
X16441200Y-10236600D02*
X16521200Y-10236600D01*
X16717800Y-9815600D02*
X16717800Y-9895600D01*
X16677800Y-9855600D02*
X16757800Y-9855600D01*
X16763800Y-8317000D02*
X16763800Y-8397000D01*
X16723800Y-8357000D02*
X16803800Y-8357000D01*
X16917800Y-9815600D02*
X16917800Y-9895600D01*
X16877800Y-9855600D02*
X16957800Y-9855600D01*
X16963800Y-8317000D02*
X16963800Y-8397000D01*
X16923800Y-8357000D02*
X17003800Y-8357000D01*
X17117800Y-9815600D02*
X17117800Y-9895600D01*
X17077800Y-9855600D02*
X17157800Y-9855600D01*
X17163800Y-8317000D02*
X17163800Y-8397000D01*
X17123800Y-8357000D02*
X17203800Y-8357000D01*
X17317800Y-9815600D02*
X17317800Y-9895600D01*
X17277800Y-9855600D02*
X17357800Y-9855600D01*
X17363800Y-8317000D02*
X17363800Y-8397000D01*
X17323800Y-8357000D02*
X17403800Y-8357000D01*
X17729000Y-8606000D02*
X17729000Y-8686000D01*
X17689000Y-8646000D02*
X17769000Y-8646000D01*
X17729000Y-8806000D02*
X17729000Y-8886000D01*
X17689000Y-8846000D02*
X17769000Y-8846000D01*
X17729000Y-9006000D02*
X17729000Y-9086000D01*
X17689000Y-9046000D02*
X17769000Y-9046000D01*
X17729000Y-9206000D02*
X17729000Y-9286000D01*
X17689000Y-9246000D02*
X17769000Y-9246000D01*
X17729000Y-9669600D02*
X17729000Y-9749600D01*
X17689000Y-9709600D02*
X17769000Y-9709600D01*
X17729000Y-9869600D02*
X17729000Y-9949600D01*
X17689000Y-9909600D02*
X17769000Y-9909600D01*
X17729000Y-10069600D02*
X17729000Y-10149600D01*
X17689000Y-10109600D02*
X17769000Y-10109600D01*
X17729000Y-10269600D02*
X17729000Y-10349600D01*
X17689000Y-10309600D02*
X17769000Y-10309600D01*
X17872306Y-10580376D02*
X17872306Y-10660376D01*
X17832306Y-10620376D02*
X17912306Y-10620376D01*
X17872306Y-10834376D02*
X17872306Y-10914376D01*
X17832306Y-10874376D02*
X17912306Y-10874376D01*
X17872306Y-11088376D02*
X17872306Y-11168376D01*
X17832306Y-11128376D02*
X17912306Y-11128376D01*
X18110000Y-8650400D02*
X18110000Y-8730400D01*
X18070000Y-8690400D02*
X18150000Y-8690400D01*
X18110000Y-8850400D02*
X18110000Y-8930400D01*
X18070000Y-8890400D02*
X18150000Y-8890400D01*
X18110000Y-9050400D02*
X18110000Y-9130400D01*
X18070000Y-9090400D02*
X18150000Y-9090400D01*
X18110000Y-9250400D02*
X18110000Y-9330400D01*
X18070000Y-9290400D02*
X18150000Y-9290400D01*
X20066000Y-12660000D02*
X20066000Y-12740000D01*
X20026000Y-12700000D02*
X20106000Y-12700000D01*
X20066000Y-12860000D02*
X20066000Y-12940000D01*
X20026000Y-12900000D02*
X20106000Y-12900000D01*
X10260356Y-12145356D02*
X10260356Y-12074644D01*
X10189644Y-12074644D01*
X10189644Y-12145356D01*
X10260356Y-12145356D01*
X11460356Y-12145356D02*
X11460356Y-12074644D01*
X11389644Y-12074644D01*
X11389644Y-12145356D01*
X11460356Y-12145356D01*
X12927356Y-12145356D02*
X12927356Y-12074644D01*
X12856644Y-12074644D01*
X12856644Y-12145356D01*
X12927356Y-12145356D01*
X14127356Y-12145356D02*
X14127356Y-12074644D01*
X14056644Y-12074644D01*
X14056644Y-12145356D01*
X14127356Y-12145356D01*
X15529356Y-12080356D02*
X15529356Y-12009644D01*
X15458644Y-12009644D01*
X15458644Y-12080356D01*
X15529356Y-12080356D01*
X16729356Y-12080356D02*
X16729356Y-12009644D01*
X16658644Y-12009644D01*
X16658644Y-12080356D01*
X16729356Y-12080356D01*
X18811179Y-9921529D02*
X18811179Y-9850818D01*
X18740468Y-9850818D01*
X18740468Y-9921529D01*
X18811179Y-9921529D01*
X18825824Y-9986174D02*
X18825824Y-9786174D01*
X18725824Y-9786174D02*
G75*
G02*
X18825824Y-9786174I50000J0D01*
G01*
X18725824Y-9786174D02*
X18725824Y-9986174D01*
X18725824Y-9986174D02*
G75*
G03*
X18825824Y-9986174I50000J0D01*
G01*
X19111179Y-9451529D02*
X19111179Y-9380818D01*
X19040468Y-9380818D01*
X19040468Y-9451529D01*
X19111179Y-9451529D01*
X19175824Y-9366174D02*
X18975824Y-9366174D01*
X18975824Y-9466174D02*
G75*
G02*
X18975824Y-9366174I0J50000D01*
G01*
X18975824Y-9466174D02*
X19175824Y-9466174D01*
X19175824Y-9466174D02*
G75*
G03*
X19175824Y-9366174I0J50000D01*
G01*
X19411179Y-9921529D02*
X19411179Y-9850818D01*
X19340468Y-9850818D01*
X19340468Y-9921529D01*
X19411179Y-9921529D01*
X19425824Y-9986174D02*
X19425824Y-9786174D01*
X19325824Y-9786174D02*
G75*
G02*
X19425824Y-9786174I50000J0D01*
G01*
X19325824Y-9786174D02*
X19325824Y-9986174D01*
X19325824Y-9986174D02*
G75*
G03*
X19425824Y-9986174I50000J0D01*
G01*
D12*
X14859000Y-11104000D02*
X14914000Y-11049000D01*
X14859000Y-10994000D01*
X14804000Y-11049000D01*
X14859000Y-11104000D01*
X15875000Y-11104000D02*
X15930000Y-11049000D01*
X15875000Y-10994000D01*
X15820000Y-11049000D01*
X15875000Y-11104000D01*
D13*
X16621600Y-7111000D02*
X16741600Y-7231000D01*
X16741600Y-7111000D02*
X16621600Y-7231000D01*
X16741600Y-7171000D02*
G75*
G02*
X16621600Y-7171000I-60000J0D01*
G01*
X16621600Y-7171000D02*
G75*
G02*
X16741600Y-7171000I60000J0D01*
G01*
X17396600Y-7111000D02*
X17516600Y-7231000D01*
X17516600Y-7111000D02*
X17396600Y-7231000D01*
X17516600Y-7171000D02*
G75*
G02*
X17396600Y-7171000I-60000J0D01*
G01*
X17396600Y-7171000D02*
G75*
G02*
X17516600Y-7171000I60000J0D01*
G01*
D14*
X10160000Y-13265000D02*
X10290000Y-13395000D01*
X10290000Y-13265000D02*
X10160000Y-13395000D01*
X10225000Y-13265000D02*
X10225000Y-13395000D01*
X10160000Y-13330000D02*
X10290000Y-13330000D01*
X10765000Y-11850000D02*
X10895000Y-11980000D01*
X10895000Y-11850000D02*
X10765000Y-11980000D01*
X10830000Y-11850000D02*
X10830000Y-11980000D01*
X10765000Y-11915000D02*
X10895000Y-11915000D01*
X11365000Y-13270000D02*
X11495000Y-13400000D01*
X11495000Y-13270000D02*
X11365000Y-13400000D01*
X11430000Y-13270000D02*
X11430000Y-13400000D01*
X11365000Y-13335000D02*
X11495000Y-13335000D01*
X12827000Y-13265000D02*
X12957000Y-13395000D01*
X12957000Y-13265000D02*
X12827000Y-13395000D01*
X12892000Y-13265000D02*
X12892000Y-13395000D01*
X12827000Y-13330000D02*
X12957000Y-13330000D01*
X13432000Y-11850000D02*
X13562000Y-11980000D01*
X13562000Y-11850000D02*
X13432000Y-11980000D01*
X13497000Y-11850000D02*
X13497000Y-11980000D01*
X13432000Y-11915000D02*
X13562000Y-11915000D01*
X14032000Y-13270000D02*
X14162000Y-13400000D01*
X14162000Y-13270000D02*
X14032000Y-13400000D01*
X14097000Y-13270000D02*
X14097000Y-13400000D01*
X14032000Y-13335000D02*
X14162000Y-13335000D01*
X15429000Y-13200000D02*
X15559000Y-13330000D01*
X15559000Y-13200000D02*
X15429000Y-13330000D01*
X15494000Y-13200000D02*
X15494000Y-13330000D01*
X15429000Y-13265000D02*
X15559000Y-13265000D01*
X16034000Y-11785000D02*
X16164000Y-11915000D01*
X16164000Y-11785000D02*
X16034000Y-11915000D01*
X16099000Y-11785000D02*
X16099000Y-11915000D01*
X16034000Y-11850000D02*
X16164000Y-11850000D01*
X16634000Y-13205000D02*
X16764000Y-13335000D01*
X16764000Y-13205000D02*
X16634000Y-13335000D01*
X16699000Y-13205000D02*
X16699000Y-13335000D01*
X16634000Y-13270000D02*
X16764000Y-13270000D01*
D15*
X16626600Y-7481000D02*
X16766600Y-7621000D01*
X16766600Y-7481000D02*
X16626600Y-7621000D01*
X16746098Y-7600498D02*
X16746098Y-7501502D01*
X16647102Y-7501502D01*
X16647102Y-7600498D01*
X16746098Y-7600498D01*
X17371600Y-7481000D02*
X17511600Y-7621000D01*
X17511600Y-7481000D02*
X17371600Y-7621000D01*
X17491098Y-7600498D02*
X17491098Y-7501502D01*
X17392102Y-7501502D01*
X17392102Y-7600498D01*
X17491098Y-7600498D01*
D16*
X8487487Y-7050447D02*
X8837487Y-7400447D01*
X8837487Y-7050447D02*
X8487487Y-7400447D01*
X8662487Y-7400447D02*
X8837487Y-7225447D01*
X8662487Y-7050447D01*
X8487487Y-7225447D01*
X8662487Y-7400447D01*
X8520507Y-13758587D02*
X8870507Y-14108587D01*
X8870507Y-13758587D02*
X8520507Y-14108587D01*
X8695507Y-14108587D02*
X8870507Y-13933587D01*
X8695507Y-13758587D01*
X8520507Y-13933587D01*
X8695507Y-14108587D01*
X19579667Y-13771287D02*
X19929667Y-14121287D01*
X19929667Y-13771287D02*
X19579667Y-14121287D01*
X19754667Y-14121287D02*
X19929667Y-13946287D01*
X19754667Y-13771287D01*
X19579667Y-13946287D01*
X19754667Y-14121287D01*
X19622847Y-7042827D02*
X19972847Y-7392827D01*
X19972847Y-7042827D02*
X19622847Y-7392827D01*
X19797847Y-7392827D02*
X19972847Y-7217827D01*
X19797847Y-7042827D01*
X19622847Y-7217827D01*
X19797847Y-7392827D01*
D10*
X260777Y-311484D02*
X260777Y-111484D01*
X260777Y-111484D02*
X308396Y-111484D01*
X308396Y-111484D02*
X336967Y-121008D01*
X336967Y-121008D02*
X356015Y-140055D01*
X356015Y-140055D02*
X365539Y-159103D01*
X365539Y-159103D02*
X375062Y-197198D01*
X375062Y-197198D02*
X375062Y-225769D01*
X375062Y-225769D02*
X365539Y-263865D01*
X365539Y-263865D02*
X356015Y-282912D01*
X356015Y-282912D02*
X336967Y-301960D01*
X336967Y-301960D02*
X308396Y-311484D01*
X308396Y-311484D02*
X260777Y-311484D01*
X460777Y-311484D02*
X460777Y-178150D01*
X460777Y-216246D02*
X470301Y-197198D01*
X470301Y-197198D02*
X479824Y-187674D01*
X479824Y-187674D02*
X498872Y-178150D01*
X498872Y-178150D02*
X517920Y-178150D01*
X584586Y-311484D02*
X584586Y-178150D01*
X584586Y-111484D02*
X575063Y-121008D01*
X575063Y-121008D02*
X584586Y-130531D01*
X584586Y-130531D02*
X594110Y-121008D01*
X594110Y-121008D02*
X584586Y-111484D01*
X584586Y-111484D02*
X584586Y-130531D01*
X708396Y-311484D02*
X689348Y-301960D01*
X689348Y-301960D02*
X679824Y-282912D01*
X679824Y-282912D02*
X679824Y-111484D01*
X813158Y-311484D02*
X794110Y-301960D01*
X794110Y-301960D02*
X784586Y-282912D01*
X784586Y-282912D02*
X784586Y-111484D01*
X1041729Y-311484D02*
X1041729Y-111484D01*
X1041729Y-111484D02*
X1108396Y-254341D01*
X1108396Y-254341D02*
X1175063Y-111484D01*
X1175063Y-111484D02*
X1175063Y-311484D01*
X1356015Y-311484D02*
X1356015Y-206722D01*
X1356015Y-206722D02*
X1346491Y-187674D01*
X1346491Y-187674D02*
X1327444Y-178150D01*
X1327444Y-178150D02*
X1289348Y-178150D01*
X1289348Y-178150D02*
X1270301Y-187674D01*
X1356015Y-301960D02*
X1336967Y-311484D01*
X1336967Y-311484D02*
X1289348Y-311484D01*
X1289348Y-311484D02*
X1270301Y-301960D01*
X1270301Y-301960D02*
X1260777Y-282912D01*
X1260777Y-282912D02*
X1260777Y-263865D01*
X1260777Y-263865D02*
X1270301Y-244817D01*
X1270301Y-244817D02*
X1289348Y-235293D01*
X1289348Y-235293D02*
X1336967Y-235293D01*
X1336967Y-235293D02*
X1356015Y-225769D01*
X1451253Y-178150D02*
X1451253Y-378150D01*
X1451253Y-187674D02*
X1470301Y-178150D01*
X1470301Y-178150D02*
X1508396Y-178150D01*
X1508396Y-178150D02*
X1527443Y-187674D01*
X1527443Y-187674D02*
X1536967Y-197198D01*
X1536967Y-197198D02*
X1546491Y-216246D01*
X1546491Y-216246D02*
X1546491Y-273389D01*
X1546491Y-273389D02*
X1536967Y-292436D01*
X1536967Y-292436D02*
X1527443Y-301960D01*
X1527443Y-301960D02*
X1508396Y-311484D01*
X1508396Y-311484D02*
X1470301Y-311484D01*
X1470301Y-311484D02*
X1451253Y-301960D01*
X1632205Y-292436D02*
X1641729Y-301960D01*
X1641729Y-301960D02*
X1632205Y-311484D01*
X1632205Y-311484D02*
X1622682Y-301960D01*
X1622682Y-301960D02*
X1632205Y-292436D01*
X1632205Y-292436D02*
X1632205Y-311484D01*
X1632205Y-187674D02*
X1641729Y-197198D01*
X1641729Y-197198D02*
X1632205Y-206722D01*
X1632205Y-206722D02*
X1622682Y-197198D01*
X1622682Y-197198D02*
X1632205Y-187674D01*
X1632205Y-187674D02*
X1632205Y-206722D01*
D11*
X-20000Y-630000D02*
X0Y-650000D01*
X0Y-630000D02*
X-20000Y-650000D01*
D10*
X298872Y-531484D02*
X317920Y-531484D01*
X317920Y-531484D02*
X336967Y-541008D01*
X336967Y-541008D02*
X346491Y-550531D01*
X346491Y-550531D02*
X356015Y-569579D01*
X356015Y-569579D02*
X365539Y-607674D01*
X365539Y-607674D02*
X365539Y-655293D01*
X365539Y-655293D02*
X356015Y-693389D01*
X356015Y-693389D02*
X346491Y-712436D01*
X346491Y-712436D02*
X336967Y-721960D01*
X336967Y-721960D02*
X317920Y-731484D01*
X317920Y-731484D02*
X298872Y-731484D01*
X298872Y-731484D02*
X279824Y-721960D01*
X279824Y-721960D02*
X270301Y-712436D01*
X270301Y-712436D02*
X260777Y-693389D01*
X260777Y-693389D02*
X251253Y-655293D01*
X251253Y-655293D02*
X251253Y-607674D01*
X251253Y-607674D02*
X260777Y-569579D01*
X260777Y-569579D02*
X270301Y-550531D01*
X270301Y-550531D02*
X279824Y-541008D01*
X279824Y-541008D02*
X298872Y-531484D01*
X451253Y-712436D02*
X460777Y-721960D01*
X460777Y-721960D02*
X451253Y-731484D01*
X451253Y-731484D02*
X441729Y-721960D01*
X441729Y-721960D02*
X451253Y-712436D01*
X451253Y-712436D02*
X451253Y-731484D01*
X536967Y-550531D02*
X546491Y-541008D01*
X546491Y-541008D02*
X565539Y-531484D01*
X565539Y-531484D02*
X613158Y-531484D01*
X613158Y-531484D02*
X632205Y-541008D01*
X632205Y-541008D02*
X641729Y-550531D01*
X641729Y-550531D02*
X651253Y-569579D01*
X651253Y-569579D02*
X651253Y-588627D01*
X651253Y-588627D02*
X641729Y-617198D01*
X641729Y-617198D02*
X527444Y-731484D01*
X527444Y-731484D02*
X651253Y-731484D01*
X775062Y-531484D02*
X794110Y-531484D01*
X794110Y-531484D02*
X813158Y-541008D01*
X813158Y-541008D02*
X822682Y-550531D01*
X822682Y-550531D02*
X832205Y-569579D01*
X832205Y-569579D02*
X841729Y-607674D01*
X841729Y-607674D02*
X841729Y-655293D01*
X841729Y-655293D02*
X832205Y-693389D01*
X832205Y-693389D02*
X822682Y-712436D01*
X822682Y-712436D02*
X813158Y-721960D01*
X813158Y-721960D02*
X794110Y-731484D01*
X794110Y-731484D02*
X775062Y-731484D01*
X775062Y-731484D02*
X756015Y-721960D01*
X756015Y-721960D02*
X746491Y-712436D01*
X746491Y-712436D02*
X736967Y-693389D01*
X736967Y-693389D02*
X727443Y-655293D01*
X727443Y-655293D02*
X727443Y-607674D01*
X727443Y-607674D02*
X736967Y-569579D01*
X736967Y-569579D02*
X746491Y-550531D01*
X746491Y-550531D02*
X756015Y-541008D01*
X756015Y-541008D02*
X775062Y-531484D01*
X965539Y-531484D02*
X984586Y-531484D01*
X984586Y-531484D02*
X1003634Y-541008D01*
X1003634Y-541008D02*
X1013158Y-550531D01*
X1013158Y-550531D02*
X1022682Y-569579D01*
X1022682Y-569579D02*
X1032205Y-607674D01*
X1032205Y-607674D02*
X1032205Y-655293D01*
X1032205Y-655293D02*
X1022682Y-693389D01*
X1022682Y-693389D02*
X1013158Y-712436D01*
X1013158Y-712436D02*
X1003634Y-721960D01*
X1003634Y-721960D02*
X984586Y-731484D01*
X984586Y-731484D02*
X965539Y-731484D01*
X965539Y-731484D02*
X946491Y-721960D01*
X946491Y-721960D02*
X936967Y-712436D01*
X936967Y-712436D02*
X927443Y-693389D01*
X927443Y-693389D02*
X917920Y-655293D01*
X917920Y-655293D02*
X917920Y-607674D01*
X917920Y-607674D02*
X927443Y-569579D01*
X927443Y-569579D02*
X936967Y-550531D01*
X936967Y-550531D02*
X946491Y-541008D01*
X946491Y-541008D02*
X965539Y-531484D01*
X1117920Y-731484D02*
X1117920Y-598150D01*
X1117920Y-617198D02*
X1127444Y-607674D01*
X1127444Y-607674D02*
X1146491Y-598150D01*
X1146491Y-598150D02*
X1175063Y-598150D01*
X1175063Y-598150D02*
X1194110Y-607674D01*
X1194110Y-607674D02*
X1203634Y-626722D01*
X1203634Y-626722D02*
X1203634Y-731484D01*
X1203634Y-626722D02*
X1213158Y-607674D01*
X1213158Y-607674D02*
X1232205Y-598150D01*
X1232205Y-598150D02*
X1260777Y-598150D01*
X1260777Y-598150D02*
X1279825Y-607674D01*
X1279825Y-607674D02*
X1289348Y-626722D01*
X1289348Y-626722D02*
X1289348Y-731484D01*
X1384586Y-731484D02*
X1384586Y-598150D01*
X1384586Y-617198D02*
X1394110Y-607674D01*
X1394110Y-607674D02*
X1413158Y-598150D01*
X1413158Y-598150D02*
X1441729Y-598150D01*
X1441729Y-598150D02*
X1460777Y-607674D01*
X1460777Y-607674D02*
X1470301Y-626722D01*
X1470301Y-626722D02*
X1470301Y-731484D01*
X1470301Y-626722D02*
X1479824Y-607674D01*
X1479824Y-607674D02*
X1498872Y-598150D01*
X1498872Y-598150D02*
X1527443Y-598150D01*
X1527443Y-598150D02*
X1546491Y-607674D01*
X1546491Y-607674D02*
X1556015Y-626722D01*
X1556015Y-626722D02*
X1556015Y-731484D01*
X1946491Y-521960D02*
X1775063Y-779103D01*
X2203634Y-531484D02*
X2222682Y-531484D01*
X2222682Y-531484D02*
X2241729Y-541008D01*
X2241729Y-541008D02*
X2251253Y-550531D01*
X2251253Y-550531D02*
X2260777Y-569579D01*
X2260777Y-569579D02*
X2270301Y-607674D01*
X2270301Y-607674D02*
X2270301Y-655293D01*
X2270301Y-655293D02*
X2260777Y-693389D01*
X2260777Y-693389D02*
X2251253Y-712436D01*
X2251253Y-712436D02*
X2241729Y-721960D01*
X2241729Y-721960D02*
X2222682Y-731484D01*
X2222682Y-731484D02*
X2203634Y-731484D01*
X2203634Y-731484D02*
X2184587Y-721960D01*
X2184587Y-721960D02*
X2175063Y-712436D01*
X2175063Y-712436D02*
X2165539Y-693389D01*
X2165539Y-693389D02*
X2156015Y-655293D01*
X2156015Y-655293D02*
X2156015Y-607674D01*
X2156015Y-607674D02*
X2165539Y-569579D01*
X2165539Y-569579D02*
X2175063Y-550531D01*
X2175063Y-550531D02*
X2184587Y-541008D01*
X2184587Y-541008D02*
X2203634Y-531484D01*
X2356015Y-712436D02*
X2365539Y-721960D01*
X2365539Y-721960D02*
X2356015Y-731484D01*
X2356015Y-731484D02*
X2346491Y-721960D01*
X2346491Y-721960D02*
X2356015Y-712436D01*
X2356015Y-712436D02*
X2356015Y-731484D01*
X2489348Y-531484D02*
X2508396Y-531484D01*
X2508396Y-531484D02*
X2527444Y-541008D01*
X2527444Y-541008D02*
X2536968Y-550531D01*
X2536968Y-550531D02*
X2546491Y-569579D01*
X2546491Y-569579D02*
X2556015Y-607674D01*
X2556015Y-607674D02*
X2556015Y-655293D01*
X2556015Y-655293D02*
X2546491Y-693389D01*
X2546491Y-693389D02*
X2536968Y-712436D01*
X2536968Y-712436D02*
X2527444Y-721960D01*
X2527444Y-721960D02*
X2508396Y-731484D01*
X2508396Y-731484D02*
X2489348Y-731484D01*
X2489348Y-731484D02*
X2470301Y-721960D01*
X2470301Y-721960D02*
X2460777Y-712436D01*
X2460777Y-712436D02*
X2451253Y-693389D01*
X2451253Y-693389D02*
X2441729Y-655293D01*
X2441729Y-655293D02*
X2441729Y-607674D01*
X2441729Y-607674D02*
X2451253Y-569579D01*
X2451253Y-569579D02*
X2460777Y-550531D01*
X2460777Y-550531D02*
X2470301Y-541008D01*
X2470301Y-541008D02*
X2489348Y-531484D01*
X2679825Y-531484D02*
X2698872Y-531484D01*
X2698872Y-531484D02*
X2717920Y-541008D01*
X2717920Y-541008D02*
X2727444Y-550531D01*
X2727444Y-550531D02*
X2736968Y-569579D01*
X2736968Y-569579D02*
X2746491Y-607674D01*
X2746491Y-607674D02*
X2746491Y-655293D01*
X2746491Y-655293D02*
X2736968Y-693389D01*
X2736968Y-693389D02*
X2727444Y-712436D01*
X2727444Y-712436D02*
X2717920Y-721960D01*
X2717920Y-721960D02*
X2698872Y-731484D01*
X2698872Y-731484D02*
X2679825Y-731484D01*
X2679825Y-731484D02*
X2660777Y-721960D01*
X2660777Y-721960D02*
X2651253Y-712436D01*
X2651253Y-712436D02*
X2641729Y-693389D01*
X2641729Y-693389D02*
X2632206Y-655293D01*
X2632206Y-655293D02*
X2632206Y-607674D01*
X2632206Y-607674D02*
X2641729Y-569579D01*
X2641729Y-569579D02*
X2651253Y-550531D01*
X2651253Y-550531D02*
X2660777Y-541008D01*
X2660777Y-541008D02*
X2679825Y-531484D01*
X2813158Y-531484D02*
X2946491Y-531484D01*
X2946491Y-531484D02*
X2860777Y-731484D01*
X3032206Y-731484D02*
X3070301Y-731484D01*
X3070301Y-731484D02*
X3089348Y-721960D01*
X3089348Y-721960D02*
X3098872Y-712436D01*
X3098872Y-712436D02*
X3117920Y-683865D01*
X3117920Y-683865D02*
X3127444Y-645770D01*
X3127444Y-645770D02*
X3127444Y-569579D01*
X3127444Y-569579D02*
X3117920Y-550531D01*
X3117920Y-550531D02*
X3108396Y-541008D01*
X3108396Y-541008D02*
X3089348Y-531484D01*
X3089348Y-531484D02*
X3051253Y-531484D01*
X3051253Y-531484D02*
X3032206Y-541008D01*
X3032206Y-541008D02*
X3022682Y-550531D01*
X3022682Y-550531D02*
X3013158Y-569579D01*
X3013158Y-569579D02*
X3013158Y-617198D01*
X3013158Y-617198D02*
X3022682Y-636246D01*
X3022682Y-636246D02*
X3032206Y-645770D01*
X3032206Y-645770D02*
X3051253Y-655293D01*
X3051253Y-655293D02*
X3089348Y-655293D01*
X3089348Y-655293D02*
X3108396Y-645770D01*
X3108396Y-645770D02*
X3117920Y-636246D01*
X3117920Y-636246D02*
X3127444Y-617198D01*
X3203634Y-531484D02*
X3203634Y-569579D01*
X3279825Y-531484D02*
X3279825Y-569579D01*
X3575063Y-807674D02*
X3565539Y-798150D01*
X3565539Y-798150D02*
X3546491Y-769579D01*
X3546491Y-769579D02*
X3536968Y-750531D01*
X3536968Y-750531D02*
X3527444Y-721960D01*
X3527444Y-721960D02*
X3517920Y-674341D01*
X3517920Y-674341D02*
X3517920Y-636246D01*
X3517920Y-636246D02*
X3527444Y-588627D01*
X3527444Y-588627D02*
X3536968Y-560055D01*
X3536968Y-560055D02*
X3546491Y-541008D01*
X3546491Y-541008D02*
X3565539Y-512436D01*
X3565539Y-512436D02*
X3575063Y-502912D01*
X3641729Y-550531D02*
X3651253Y-541008D01*
X3651253Y-541008D02*
X3670301Y-531484D01*
X3670301Y-531484D02*
X3717920Y-531484D01*
X3717920Y-531484D02*
X3736968Y-541008D01*
X3736968Y-541008D02*
X3746491Y-550531D01*
X3746491Y-550531D02*
X3756015Y-569579D01*
X3756015Y-569579D02*
X3756015Y-588627D01*
X3756015Y-588627D02*
X3746491Y-617198D01*
X3746491Y-617198D02*
X3632206Y-731484D01*
X3632206Y-731484D02*
X3756015Y-731484D01*
X3927444Y-598150D02*
X3927444Y-731484D01*
X3879825Y-521960D02*
X3832206Y-664817D01*
X3832206Y-664817D02*
X3956015Y-664817D01*
X4184587Y-731484D02*
X4184587Y-531484D01*
X4270301Y-731484D02*
X4270301Y-626722D01*
X4270301Y-626722D02*
X4260777Y-607674D01*
X4260777Y-607674D02*
X4241730Y-598150D01*
X4241730Y-598150D02*
X4213158Y-598150D01*
X4213158Y-598150D02*
X4194110Y-607674D01*
X4194110Y-607674D02*
X4184587Y-617198D01*
X4394111Y-731484D02*
X4375063Y-721960D01*
X4375063Y-721960D02*
X4365539Y-712436D01*
X4365539Y-712436D02*
X4356015Y-693389D01*
X4356015Y-693389D02*
X4356015Y-636246D01*
X4356015Y-636246D02*
X4365539Y-617198D01*
X4365539Y-617198D02*
X4375063Y-607674D01*
X4375063Y-607674D02*
X4394111Y-598150D01*
X4394111Y-598150D02*
X4422682Y-598150D01*
X4422682Y-598150D02*
X4441730Y-607674D01*
X4441730Y-607674D02*
X4451253Y-617198D01*
X4451253Y-617198D02*
X4460777Y-636246D01*
X4460777Y-636246D02*
X4460777Y-693389D01*
X4460777Y-693389D02*
X4451253Y-712436D01*
X4451253Y-712436D02*
X4441730Y-721960D01*
X4441730Y-721960D02*
X4422682Y-731484D01*
X4422682Y-731484D02*
X4394111Y-731484D01*
X4575063Y-731484D02*
X4556015Y-721960D01*
X4556015Y-721960D02*
X4546492Y-702912D01*
X4546492Y-702912D02*
X4546492Y-531484D01*
X4727444Y-721960D02*
X4708396Y-731484D01*
X4708396Y-731484D02*
X4670301Y-731484D01*
X4670301Y-731484D02*
X4651253Y-721960D01*
X4651253Y-721960D02*
X4641730Y-702912D01*
X4641730Y-702912D02*
X4641730Y-626722D01*
X4641730Y-626722D02*
X4651253Y-607674D01*
X4651253Y-607674D02*
X4670301Y-598150D01*
X4670301Y-598150D02*
X4708396Y-598150D01*
X4708396Y-598150D02*
X4727444Y-607674D01*
X4727444Y-607674D02*
X4736968Y-626722D01*
X4736968Y-626722D02*
X4736968Y-645770D01*
X4736968Y-645770D02*
X4641730Y-664817D01*
X4813158Y-721960D02*
X4832206Y-731484D01*
X4832206Y-731484D02*
X4870301Y-731484D01*
X4870301Y-731484D02*
X4889349Y-721960D01*
X4889349Y-721960D02*
X4898873Y-702912D01*
X4898873Y-702912D02*
X4898873Y-693389D01*
X4898873Y-693389D02*
X4889349Y-674341D01*
X4889349Y-674341D02*
X4870301Y-664817D01*
X4870301Y-664817D02*
X4841730Y-664817D01*
X4841730Y-664817D02*
X4822682Y-655293D01*
X4822682Y-655293D02*
X4813158Y-636246D01*
X4813158Y-636246D02*
X4813158Y-626722D01*
X4813158Y-626722D02*
X4822682Y-607674D01*
X4822682Y-607674D02*
X4841730Y-598150D01*
X4841730Y-598150D02*
X4870301Y-598150D01*
X4870301Y-598150D02*
X4889349Y-607674D01*
X4965539Y-807674D02*
X4975063Y-798150D01*
X4975063Y-798150D02*
X4994111Y-769579D01*
X4994111Y-769579D02*
X5003634Y-750531D01*
X5003634Y-750531D02*
X5013158Y-721960D01*
X5013158Y-721960D02*
X5022682Y-674341D01*
X5022682Y-674341D02*
X5022682Y-636246D01*
X5022682Y-636246D02*
X5013158Y-588627D01*
X5013158Y-588627D02*
X5003634Y-560055D01*
X5003634Y-560055D02*
X4994111Y-541008D01*
X4994111Y-541008D02*
X4975063Y-512436D01*
X4975063Y-512436D02*
X4965539Y-502912D01*
D11*
X0Y-904000D02*
G75*
G02*
X-30000Y-904000I-15000J0D01*
G01*
X-30000Y-904000D02*
G75*
G02*
X0Y-904000I15000J0D01*
G01*
D10*
X298872Y-795484D02*
X317920Y-795484D01*
X317920Y-795484D02*
X336967Y-805008D01*
X336967Y-805008D02*
X346491Y-814531D01*
X346491Y-814531D02*
X356015Y-833579D01*
X356015Y-833579D02*
X365539Y-871674D01*
X365539Y-871674D02*
X365539Y-919293D01*
X365539Y-919293D02*
X356015Y-957388D01*
X356015Y-957388D02*
X346491Y-976436D01*
X346491Y-976436D02*
X336967Y-985960D01*
X336967Y-985960D02*
X317920Y-995484D01*
X317920Y-995484D02*
X298872Y-995484D01*
X298872Y-995484D02*
X279824Y-985960D01*
X279824Y-985960D02*
X270301Y-976436D01*
X270301Y-976436D02*
X260777Y-957388D01*
X260777Y-957388D02*
X251253Y-919293D01*
X251253Y-919293D02*
X251253Y-871674D01*
X251253Y-871674D02*
X260777Y-833579D01*
X260777Y-833579D02*
X270301Y-814531D01*
X270301Y-814531D02*
X279824Y-805008D01*
X279824Y-805008D02*
X298872Y-795484D01*
X451253Y-976436D02*
X460777Y-985960D01*
X460777Y-985960D02*
X451253Y-995484D01*
X451253Y-995484D02*
X441729Y-985960D01*
X441729Y-985960D02*
X451253Y-976436D01*
X451253Y-976436D02*
X451253Y-995484D01*
X527444Y-795484D02*
X651253Y-795484D01*
X651253Y-795484D02*
X584586Y-871674D01*
X584586Y-871674D02*
X613158Y-871674D01*
X613158Y-871674D02*
X632205Y-881198D01*
X632205Y-881198D02*
X641729Y-890722D01*
X641729Y-890722D02*
X651253Y-909769D01*
X651253Y-909769D02*
X651253Y-957388D01*
X651253Y-957388D02*
X641729Y-976436D01*
X641729Y-976436D02*
X632205Y-985960D01*
X632205Y-985960D02*
X613158Y-995484D01*
X613158Y-995484D02*
X556015Y-995484D01*
X556015Y-995484D02*
X536967Y-985960D01*
X536967Y-985960D02*
X527444Y-976436D01*
X775062Y-795484D02*
X794110Y-795484D01*
X794110Y-795484D02*
X813158Y-805008D01*
X813158Y-805008D02*
X822682Y-814531D01*
X822682Y-814531D02*
X832205Y-833579D01*
X832205Y-833579D02*
X841729Y-871674D01*
X841729Y-871674D02*
X841729Y-919293D01*
X841729Y-919293D02*
X832205Y-957388D01*
X832205Y-957388D02*
X822682Y-976436D01*
X822682Y-976436D02*
X813158Y-985960D01*
X813158Y-985960D02*
X794110Y-995484D01*
X794110Y-995484D02*
X775062Y-995484D01*
X775062Y-995484D02*
X756015Y-985960D01*
X756015Y-985960D02*
X746491Y-976436D01*
X746491Y-976436D02*
X736967Y-957388D01*
X736967Y-957388D02*
X727443Y-919293D01*
X727443Y-919293D02*
X727443Y-871674D01*
X727443Y-871674D02*
X736967Y-833579D01*
X736967Y-833579D02*
X746491Y-814531D01*
X746491Y-814531D02*
X756015Y-805008D01*
X756015Y-805008D02*
X775062Y-795484D01*
X965539Y-795484D02*
X984586Y-795484D01*
X984586Y-795484D02*
X1003634Y-805008D01*
X1003634Y-805008D02*
X1013158Y-814531D01*
X1013158Y-814531D02*
X1022682Y-833579D01*
X1022682Y-833579D02*
X1032205Y-871674D01*
X1032205Y-871674D02*
X1032205Y-919293D01*
X1032205Y-919293D02*
X1022682Y-957388D01*
X1022682Y-957388D02*
X1013158Y-976436D01*
X1013158Y-976436D02*
X1003634Y-985960D01*
X1003634Y-985960D02*
X984586Y-995484D01*
X984586Y-995484D02*
X965539Y-995484D01*
X965539Y-995484D02*
X946491Y-985960D01*
X946491Y-985960D02*
X936967Y-976436D01*
X936967Y-976436D02*
X927443Y-957388D01*
X927443Y-957388D02*
X917920Y-919293D01*
X917920Y-919293D02*
X917920Y-871674D01*
X917920Y-871674D02*
X927443Y-833579D01*
X927443Y-833579D02*
X936967Y-814531D01*
X936967Y-814531D02*
X946491Y-805008D01*
X946491Y-805008D02*
X965539Y-795484D01*
X1117920Y-995484D02*
X1117920Y-862150D01*
X1117920Y-881198D02*
X1127444Y-871674D01*
X1127444Y-871674D02*
X1146491Y-862150D01*
X1146491Y-862150D02*
X1175063Y-862150D01*
X1175063Y-862150D02*
X1194110Y-871674D01*
X1194110Y-871674D02*
X1203634Y-890722D01*
X1203634Y-890722D02*
X1203634Y-995484D01*
X1203634Y-890722D02*
X1213158Y-871674D01*
X1213158Y-871674D02*
X1232205Y-862150D01*
X1232205Y-862150D02*
X1260777Y-862150D01*
X1260777Y-862150D02*
X1279825Y-871674D01*
X1279825Y-871674D02*
X1289348Y-890722D01*
X1289348Y-890722D02*
X1289348Y-995484D01*
X1384586Y-995484D02*
X1384586Y-862150D01*
X1384586Y-881198D02*
X1394110Y-871674D01*
X1394110Y-871674D02*
X1413158Y-862150D01*
X1413158Y-862150D02*
X1441729Y-862150D01*
X1441729Y-862150D02*
X1460777Y-871674D01*
X1460777Y-871674D02*
X1470301Y-890722D01*
X1470301Y-890722D02*
X1470301Y-995484D01*
X1470301Y-890722D02*
X1479824Y-871674D01*
X1479824Y-871674D02*
X1498872Y-862150D01*
X1498872Y-862150D02*
X1527443Y-862150D01*
X1527443Y-862150D02*
X1546491Y-871674D01*
X1546491Y-871674D02*
X1556015Y-890722D01*
X1556015Y-890722D02*
X1556015Y-995484D01*
X1946491Y-785960D02*
X1775063Y-1043103D01*
X2203634Y-795484D02*
X2222682Y-795484D01*
X2222682Y-795484D02*
X2241729Y-805008D01*
X2241729Y-805008D02*
X2251253Y-814531D01*
X2251253Y-814531D02*
X2260777Y-833579D01*
X2260777Y-833579D02*
X2270301Y-871674D01*
X2270301Y-871674D02*
X2270301Y-919293D01*
X2270301Y-919293D02*
X2260777Y-957388D01*
X2260777Y-957388D02*
X2251253Y-976436D01*
X2251253Y-976436D02*
X2241729Y-985960D01*
X2241729Y-985960D02*
X2222682Y-995484D01*
X2222682Y-995484D02*
X2203634Y-995484D01*
X2203634Y-995484D02*
X2184587Y-985960D01*
X2184587Y-985960D02*
X2175063Y-976436D01*
X2175063Y-976436D02*
X2165539Y-957388D01*
X2165539Y-957388D02*
X2156015Y-919293D01*
X2156015Y-919293D02*
X2156015Y-871674D01*
X2156015Y-871674D02*
X2165539Y-833579D01*
X2165539Y-833579D02*
X2175063Y-814531D01*
X2175063Y-814531D02*
X2184587Y-805008D01*
X2184587Y-805008D02*
X2203634Y-795484D01*
X2356015Y-976436D02*
X2365539Y-985960D01*
X2365539Y-985960D02*
X2356015Y-995484D01*
X2356015Y-995484D02*
X2346491Y-985960D01*
X2346491Y-985960D02*
X2356015Y-976436D01*
X2356015Y-976436D02*
X2356015Y-995484D01*
X2489348Y-795484D02*
X2508396Y-795484D01*
X2508396Y-795484D02*
X2527444Y-805008D01*
X2527444Y-805008D02*
X2536968Y-814531D01*
X2536968Y-814531D02*
X2546491Y-833579D01*
X2546491Y-833579D02*
X2556015Y-871674D01*
X2556015Y-871674D02*
X2556015Y-919293D01*
X2556015Y-919293D02*
X2546491Y-957388D01*
X2546491Y-957388D02*
X2536968Y-976436D01*
X2536968Y-976436D02*
X2527444Y-985960D01*
X2527444Y-985960D02*
X2508396Y-995484D01*
X2508396Y-995484D02*
X2489348Y-995484D01*
X2489348Y-995484D02*
X2470301Y-985960D01*
X2470301Y-985960D02*
X2460777Y-976436D01*
X2460777Y-976436D02*
X2451253Y-957388D01*
X2451253Y-957388D02*
X2441729Y-919293D01*
X2441729Y-919293D02*
X2441729Y-871674D01*
X2441729Y-871674D02*
X2451253Y-833579D01*
X2451253Y-833579D02*
X2460777Y-814531D01*
X2460777Y-814531D02*
X2470301Y-805008D01*
X2470301Y-805008D02*
X2489348Y-795484D01*
X2746491Y-995484D02*
X2632206Y-995484D01*
X2689348Y-995484D02*
X2689348Y-795484D01*
X2689348Y-795484D02*
X2670301Y-824055D01*
X2670301Y-824055D02*
X2651253Y-843103D01*
X2651253Y-843103D02*
X2632206Y-852627D01*
X2936967Y-995484D02*
X2822682Y-995484D01*
X2879825Y-995484D02*
X2879825Y-795484D01*
X2879825Y-795484D02*
X2860777Y-824055D01*
X2860777Y-824055D02*
X2841729Y-843103D01*
X2841729Y-843103D02*
X2822682Y-852627D01*
X3051253Y-881198D02*
X3032206Y-871674D01*
X3032206Y-871674D02*
X3022682Y-862150D01*
X3022682Y-862150D02*
X3013158Y-843103D01*
X3013158Y-843103D02*
X3013158Y-833579D01*
X3013158Y-833579D02*
X3022682Y-814531D01*
X3022682Y-814531D02*
X3032206Y-805008D01*
X3032206Y-805008D02*
X3051253Y-795484D01*
X3051253Y-795484D02*
X3089348Y-795484D01*
X3089348Y-795484D02*
X3108396Y-805008D01*
X3108396Y-805008D02*
X3117920Y-814531D01*
X3117920Y-814531D02*
X3127444Y-833579D01*
X3127444Y-833579D02*
X3127444Y-843103D01*
X3127444Y-843103D02*
X3117920Y-862150D01*
X3117920Y-862150D02*
X3108396Y-871674D01*
X3108396Y-871674D02*
X3089348Y-881198D01*
X3089348Y-881198D02*
X3051253Y-881198D01*
X3051253Y-881198D02*
X3032206Y-890722D01*
X3032206Y-890722D02*
X3022682Y-900246D01*
X3022682Y-900246D02*
X3013158Y-919293D01*
X3013158Y-919293D02*
X3013158Y-957388D01*
X3013158Y-957388D02*
X3022682Y-976436D01*
X3022682Y-976436D02*
X3032206Y-985960D01*
X3032206Y-985960D02*
X3051253Y-995484D01*
X3051253Y-995484D02*
X3089348Y-995484D01*
X3089348Y-995484D02*
X3108396Y-985960D01*
X3108396Y-985960D02*
X3117920Y-976436D01*
X3117920Y-976436D02*
X3127444Y-957388D01*
X3127444Y-957388D02*
X3127444Y-919293D01*
X3127444Y-919293D02*
X3117920Y-900246D01*
X3117920Y-900246D02*
X3108396Y-890722D01*
X3108396Y-890722D02*
X3089348Y-881198D01*
X3203634Y-795484D02*
X3203634Y-833579D01*
X3279825Y-795484D02*
X3279825Y-833579D01*
X3575063Y-1071674D02*
X3565539Y-1062150D01*
X3565539Y-1062150D02*
X3546491Y-1033579D01*
X3546491Y-1033579D02*
X3536968Y-1014531D01*
X3536968Y-1014531D02*
X3527444Y-985960D01*
X3527444Y-985960D02*
X3517920Y-938341D01*
X3517920Y-938341D02*
X3517920Y-900246D01*
X3517920Y-900246D02*
X3527444Y-852627D01*
X3527444Y-852627D02*
X3536968Y-824055D01*
X3536968Y-824055D02*
X3546491Y-805008D01*
X3546491Y-805008D02*
X3565539Y-776436D01*
X3565539Y-776436D02*
X3575063Y-766912D01*
X3756015Y-995484D02*
X3641729Y-995484D01*
X3698872Y-995484D02*
X3698872Y-795484D01*
X3698872Y-795484D02*
X3679825Y-824055D01*
X3679825Y-824055D02*
X3660777Y-843103D01*
X3660777Y-843103D02*
X3641729Y-852627D01*
X3927444Y-795484D02*
X3889348Y-795484D01*
X3889348Y-795484D02*
X3870301Y-805008D01*
X3870301Y-805008D02*
X3860777Y-814531D01*
X3860777Y-814531D02*
X3841729Y-843103D01*
X3841729Y-843103D02*
X3832206Y-881198D01*
X3832206Y-881198D02*
X3832206Y-957388D01*
X3832206Y-957388D02*
X3841729Y-976436D01*
X3841729Y-976436D02*
X3851253Y-985960D01*
X3851253Y-985960D02*
X3870301Y-995484D01*
X3870301Y-995484D02*
X3908396Y-995484D01*
X3908396Y-995484D02*
X3927444Y-985960D01*
X3927444Y-985960D02*
X3936968Y-976436D01*
X3936968Y-976436D02*
X3946491Y-957388D01*
X3946491Y-957388D02*
X3946491Y-909769D01*
X3946491Y-909769D02*
X3936968Y-890722D01*
X3936968Y-890722D02*
X3927444Y-881198D01*
X3927444Y-881198D02*
X3908396Y-871674D01*
X3908396Y-871674D02*
X3870301Y-871674D01*
X3870301Y-871674D02*
X3851253Y-881198D01*
X3851253Y-881198D02*
X3841729Y-890722D01*
X3841729Y-890722D02*
X3832206Y-909769D01*
X4013158Y-795484D02*
X4136968Y-795484D01*
X4136968Y-795484D02*
X4070301Y-871674D01*
X4070301Y-871674D02*
X4098872Y-871674D01*
X4098872Y-871674D02*
X4117920Y-881198D01*
X4117920Y-881198D02*
X4127444Y-890722D01*
X4127444Y-890722D02*
X4136968Y-909769D01*
X4136968Y-909769D02*
X4136968Y-957388D01*
X4136968Y-957388D02*
X4127444Y-976436D01*
X4127444Y-976436D02*
X4117920Y-985960D01*
X4117920Y-985960D02*
X4098872Y-995484D01*
X4098872Y-995484D02*
X4041729Y-995484D01*
X4041729Y-995484D02*
X4022682Y-985960D01*
X4022682Y-985960D02*
X4013158Y-976436D01*
X4375063Y-995484D02*
X4375063Y-795484D01*
X4460777Y-995484D02*
X4460777Y-890722D01*
X4460777Y-890722D02*
X4451253Y-871674D01*
X4451253Y-871674D02*
X4432206Y-862150D01*
X4432206Y-862150D02*
X4403634Y-862150D01*
X4403634Y-862150D02*
X4384587Y-871674D01*
X4384587Y-871674D02*
X4375063Y-881198D01*
X4584587Y-995484D02*
X4565539Y-985960D01*
X4565539Y-985960D02*
X4556015Y-976436D01*
X4556015Y-976436D02*
X4546492Y-957388D01*
X4546492Y-957388D02*
X4546492Y-900246D01*
X4546492Y-900246D02*
X4556015Y-881198D01*
X4556015Y-881198D02*
X4565539Y-871674D01*
X4565539Y-871674D02*
X4584587Y-862150D01*
X4584587Y-862150D02*
X4613158Y-862150D01*
X4613158Y-862150D02*
X4632206Y-871674D01*
X4632206Y-871674D02*
X4641730Y-881198D01*
X4641730Y-881198D02*
X4651253Y-900246D01*
X4651253Y-900246D02*
X4651253Y-957388D01*
X4651253Y-957388D02*
X4641730Y-976436D01*
X4641730Y-976436D02*
X4632206Y-985960D01*
X4632206Y-985960D02*
X4613158Y-995484D01*
X4613158Y-995484D02*
X4584587Y-995484D01*
X4765539Y-995484D02*
X4746492Y-985960D01*
X4746492Y-985960D02*
X4736968Y-966912D01*
X4736968Y-966912D02*
X4736968Y-795484D01*
X4917920Y-985960D02*
X4898873Y-995484D01*
X4898873Y-995484D02*
X4860777Y-995484D01*
X4860777Y-995484D02*
X4841730Y-985960D01*
X4841730Y-985960D02*
X4832206Y-966912D01*
X4832206Y-966912D02*
X4832206Y-890722D01*
X4832206Y-890722D02*
X4841730Y-871674D01*
X4841730Y-871674D02*
X4860777Y-862150D01*
X4860777Y-862150D02*
X4898873Y-862150D01*
X4898873Y-862150D02*
X4917920Y-871674D01*
X4917920Y-871674D02*
X4927444Y-890722D01*
X4927444Y-890722D02*
X4927444Y-909769D01*
X4927444Y-909769D02*
X4832206Y-928817D01*
X5003634Y-985960D02*
X5022682Y-995484D01*
X5022682Y-995484D02*
X5060777Y-995484D01*
X5060777Y-995484D02*
X5079825Y-985960D01*
X5079825Y-985960D02*
X5089349Y-966912D01*
X5089349Y-966912D02*
X5089349Y-957388D01*
X5089349Y-957388D02*
X5079825Y-938341D01*
X5079825Y-938341D02*
X5060777Y-928817D01*
X5060777Y-928817D02*
X5032206Y-928817D01*
X5032206Y-928817D02*
X5013158Y-919293D01*
X5013158Y-919293D02*
X5003634Y-900246D01*
X5003634Y-900246D02*
X5003634Y-890722D01*
X5003634Y-890722D02*
X5013158Y-871674D01*
X5013158Y-871674D02*
X5032206Y-862150D01*
X5032206Y-862150D02*
X5060777Y-862150D01*
X5060777Y-862150D02*
X5079825Y-871674D01*
X5156015Y-1071674D02*
X5165539Y-1062150D01*
X5165539Y-1062150D02*
X5184587Y-1033579D01*
X5184587Y-1033579D02*
X5194111Y-1014531D01*
X5194111Y-1014531D02*
X5203634Y-985960D01*
X5203634Y-985960D02*
X5213158Y-938341D01*
X5213158Y-938341D02*
X5213158Y-900246D01*
X5213158Y-900246D02*
X5203634Y-852627D01*
X5203634Y-852627D02*
X5194111Y-824055D01*
X5194111Y-824055D02*
X5184587Y-805008D01*
X5184587Y-805008D02*
X5165539Y-776436D01*
X5165539Y-776436D02*
X5156015Y-766912D01*
D11*
X-40000Y-1128000D02*
X-40000Y-1208000D01*
X-80000Y-1168000D02*
X0Y-1168000D01*
D10*
X298872Y-1059484D02*
X317920Y-1059484D01*
X317920Y-1059484D02*
X336967Y-1069008D01*
X336967Y-1069008D02*
X346491Y-1078531D01*
X346491Y-1078531D02*
X356015Y-1097579D01*
X356015Y-1097579D02*
X365539Y-1135674D01*
X365539Y-1135674D02*
X365539Y-1183293D01*
X365539Y-1183293D02*
X356015Y-1221389D01*
X356015Y-1221389D02*
X346491Y-1240436D01*
X346491Y-1240436D02*
X336967Y-1249960D01*
X336967Y-1249960D02*
X317920Y-1259484D01*
X317920Y-1259484D02*
X298872Y-1259484D01*
X298872Y-1259484D02*
X279824Y-1249960D01*
X279824Y-1249960D02*
X270301Y-1240436D01*
X270301Y-1240436D02*
X260777Y-1221389D01*
X260777Y-1221389D02*
X251253Y-1183293D01*
X251253Y-1183293D02*
X251253Y-1135674D01*
X251253Y-1135674D02*
X260777Y-1097579D01*
X260777Y-1097579D02*
X270301Y-1078531D01*
X270301Y-1078531D02*
X279824Y-1069008D01*
X279824Y-1069008D02*
X298872Y-1059484D01*
X451253Y-1240436D02*
X460777Y-1249960D01*
X460777Y-1249960D02*
X451253Y-1259484D01*
X451253Y-1259484D02*
X441729Y-1249960D01*
X441729Y-1249960D02*
X451253Y-1240436D01*
X451253Y-1240436D02*
X451253Y-1259484D01*
X575063Y-1145198D02*
X556015Y-1135674D01*
X556015Y-1135674D02*
X546491Y-1126150D01*
X546491Y-1126150D02*
X536967Y-1107103D01*
X536967Y-1107103D02*
X536967Y-1097579D01*
X536967Y-1097579D02*
X546491Y-1078531D01*
X546491Y-1078531D02*
X556015Y-1069008D01*
X556015Y-1069008D02*
X575063Y-1059484D01*
X575063Y-1059484D02*
X613158Y-1059484D01*
X613158Y-1059484D02*
X632205Y-1069008D01*
X632205Y-1069008D02*
X641729Y-1078531D01*
X641729Y-1078531D02*
X651253Y-1097579D01*
X651253Y-1097579D02*
X651253Y-1107103D01*
X651253Y-1107103D02*
X641729Y-1126150D01*
X641729Y-1126150D02*
X632205Y-1135674D01*
X632205Y-1135674D02*
X613158Y-1145198D01*
X613158Y-1145198D02*
X575063Y-1145198D01*
X575063Y-1145198D02*
X556015Y-1154722D01*
X556015Y-1154722D02*
X546491Y-1164246D01*
X546491Y-1164246D02*
X536967Y-1183293D01*
X536967Y-1183293D02*
X536967Y-1221389D01*
X536967Y-1221389D02*
X546491Y-1240436D01*
X546491Y-1240436D02*
X556015Y-1249960D01*
X556015Y-1249960D02*
X575063Y-1259484D01*
X575063Y-1259484D02*
X613158Y-1259484D01*
X613158Y-1259484D02*
X632205Y-1249960D01*
X632205Y-1249960D02*
X641729Y-1240436D01*
X641729Y-1240436D02*
X651253Y-1221389D01*
X651253Y-1221389D02*
X651253Y-1183293D01*
X651253Y-1183293D02*
X641729Y-1164246D01*
X641729Y-1164246D02*
X632205Y-1154722D01*
X632205Y-1154722D02*
X613158Y-1145198D01*
X775062Y-1059484D02*
X794110Y-1059484D01*
X794110Y-1059484D02*
X813158Y-1069008D01*
X813158Y-1069008D02*
X822682Y-1078531D01*
X822682Y-1078531D02*
X832205Y-1097579D01*
X832205Y-1097579D02*
X841729Y-1135674D01*
X841729Y-1135674D02*
X841729Y-1183293D01*
X841729Y-1183293D02*
X832205Y-1221389D01*
X832205Y-1221389D02*
X822682Y-1240436D01*
X822682Y-1240436D02*
X813158Y-1249960D01*
X813158Y-1249960D02*
X794110Y-1259484D01*
X794110Y-1259484D02*
X775062Y-1259484D01*
X775062Y-1259484D02*
X756015Y-1249960D01*
X756015Y-1249960D02*
X746491Y-1240436D01*
X746491Y-1240436D02*
X736967Y-1221389D01*
X736967Y-1221389D02*
X727443Y-1183293D01*
X727443Y-1183293D02*
X727443Y-1135674D01*
X727443Y-1135674D02*
X736967Y-1097579D01*
X736967Y-1097579D02*
X746491Y-1078531D01*
X746491Y-1078531D02*
X756015Y-1069008D01*
X756015Y-1069008D02*
X775062Y-1059484D01*
X965539Y-1059484D02*
X984586Y-1059484D01*
X984586Y-1059484D02*
X1003634Y-1069008D01*
X1003634Y-1069008D02*
X1013158Y-1078531D01*
X1013158Y-1078531D02*
X1022682Y-1097579D01*
X1022682Y-1097579D02*
X1032205Y-1135674D01*
X1032205Y-1135674D02*
X1032205Y-1183293D01*
X1032205Y-1183293D02*
X1022682Y-1221389D01*
X1022682Y-1221389D02*
X1013158Y-1240436D01*
X1013158Y-1240436D02*
X1003634Y-1249960D01*
X1003634Y-1249960D02*
X984586Y-1259484D01*
X984586Y-1259484D02*
X965539Y-1259484D01*
X965539Y-1259484D02*
X946491Y-1249960D01*
X946491Y-1249960D02*
X936967Y-1240436D01*
X936967Y-1240436D02*
X927443Y-1221389D01*
X927443Y-1221389D02*
X917920Y-1183293D01*
X917920Y-1183293D02*
X917920Y-1135674D01*
X917920Y-1135674D02*
X927443Y-1097579D01*
X927443Y-1097579D02*
X936967Y-1078531D01*
X936967Y-1078531D02*
X946491Y-1069008D01*
X946491Y-1069008D02*
X965539Y-1059484D01*
X1117920Y-1259484D02*
X1117920Y-1126150D01*
X1117920Y-1145198D02*
X1127444Y-1135674D01*
X1127444Y-1135674D02*
X1146491Y-1126150D01*
X1146491Y-1126150D02*
X1175063Y-1126150D01*
X1175063Y-1126150D02*
X1194110Y-1135674D01*
X1194110Y-1135674D02*
X1203634Y-1154722D01*
X1203634Y-1154722D02*
X1203634Y-1259484D01*
X1203634Y-1154722D02*
X1213158Y-1135674D01*
X1213158Y-1135674D02*
X1232205Y-1126150D01*
X1232205Y-1126150D02*
X1260777Y-1126150D01*
X1260777Y-1126150D02*
X1279825Y-1135674D01*
X1279825Y-1135674D02*
X1289348Y-1154722D01*
X1289348Y-1154722D02*
X1289348Y-1259484D01*
X1384586Y-1259484D02*
X1384586Y-1126150D01*
X1384586Y-1145198D02*
X1394110Y-1135674D01*
X1394110Y-1135674D02*
X1413158Y-1126150D01*
X1413158Y-1126150D02*
X1441729Y-1126150D01*
X1441729Y-1126150D02*
X1460777Y-1135674D01*
X1460777Y-1135674D02*
X1470301Y-1154722D01*
X1470301Y-1154722D02*
X1470301Y-1259484D01*
X1470301Y-1154722D02*
X1479824Y-1135674D01*
X1479824Y-1135674D02*
X1498872Y-1126150D01*
X1498872Y-1126150D02*
X1527443Y-1126150D01*
X1527443Y-1126150D02*
X1546491Y-1135674D01*
X1546491Y-1135674D02*
X1556015Y-1154722D01*
X1556015Y-1154722D02*
X1556015Y-1259484D01*
X1946491Y-1049960D02*
X1775063Y-1307103D01*
X2203634Y-1059484D02*
X2222682Y-1059484D01*
X2222682Y-1059484D02*
X2241729Y-1069008D01*
X2241729Y-1069008D02*
X2251253Y-1078531D01*
X2251253Y-1078531D02*
X2260777Y-1097579D01*
X2260777Y-1097579D02*
X2270301Y-1135674D01*
X2270301Y-1135674D02*
X2270301Y-1183293D01*
X2270301Y-1183293D02*
X2260777Y-1221389D01*
X2260777Y-1221389D02*
X2251253Y-1240436D01*
X2251253Y-1240436D02*
X2241729Y-1249960D01*
X2241729Y-1249960D02*
X2222682Y-1259484D01*
X2222682Y-1259484D02*
X2203634Y-1259484D01*
X2203634Y-1259484D02*
X2184587Y-1249960D01*
X2184587Y-1249960D02*
X2175063Y-1240436D01*
X2175063Y-1240436D02*
X2165539Y-1221389D01*
X2165539Y-1221389D02*
X2156015Y-1183293D01*
X2156015Y-1183293D02*
X2156015Y-1135674D01*
X2156015Y-1135674D02*
X2165539Y-1097579D01*
X2165539Y-1097579D02*
X2175063Y-1078531D01*
X2175063Y-1078531D02*
X2184587Y-1069008D01*
X2184587Y-1069008D02*
X2203634Y-1059484D01*
X2356015Y-1240436D02*
X2365539Y-1249960D01*
X2365539Y-1249960D02*
X2356015Y-1259484D01*
X2356015Y-1259484D02*
X2346491Y-1249960D01*
X2346491Y-1249960D02*
X2356015Y-1240436D01*
X2356015Y-1240436D02*
X2356015Y-1259484D01*
X2489348Y-1059484D02*
X2508396Y-1059484D01*
X2508396Y-1059484D02*
X2527444Y-1069008D01*
X2527444Y-1069008D02*
X2536968Y-1078531D01*
X2536968Y-1078531D02*
X2546491Y-1097579D01*
X2546491Y-1097579D02*
X2556015Y-1135674D01*
X2556015Y-1135674D02*
X2556015Y-1183293D01*
X2556015Y-1183293D02*
X2546491Y-1221389D01*
X2546491Y-1221389D02*
X2536968Y-1240436D01*
X2536968Y-1240436D02*
X2527444Y-1249960D01*
X2527444Y-1249960D02*
X2508396Y-1259484D01*
X2508396Y-1259484D02*
X2489348Y-1259484D01*
X2489348Y-1259484D02*
X2470301Y-1249960D01*
X2470301Y-1249960D02*
X2460777Y-1240436D01*
X2460777Y-1240436D02*
X2451253Y-1221389D01*
X2451253Y-1221389D02*
X2441729Y-1183293D01*
X2441729Y-1183293D02*
X2441729Y-1135674D01*
X2441729Y-1135674D02*
X2451253Y-1097579D01*
X2451253Y-1097579D02*
X2460777Y-1078531D01*
X2460777Y-1078531D02*
X2470301Y-1069008D01*
X2470301Y-1069008D02*
X2489348Y-1059484D01*
X2622682Y-1059484D02*
X2746491Y-1059484D01*
X2746491Y-1059484D02*
X2679825Y-1135674D01*
X2679825Y-1135674D02*
X2708396Y-1135674D01*
X2708396Y-1135674D02*
X2727444Y-1145198D01*
X2727444Y-1145198D02*
X2736968Y-1154722D01*
X2736968Y-1154722D02*
X2746491Y-1173770D01*
X2746491Y-1173770D02*
X2746491Y-1221389D01*
X2746491Y-1221389D02*
X2736968Y-1240436D01*
X2736968Y-1240436D02*
X2727444Y-1249960D01*
X2727444Y-1249960D02*
X2708396Y-1259484D01*
X2708396Y-1259484D02*
X2651253Y-1259484D01*
X2651253Y-1259484D02*
X2632206Y-1249960D01*
X2632206Y-1249960D02*
X2622682Y-1240436D01*
X2936967Y-1259484D02*
X2822682Y-1259484D01*
X2879825Y-1259484D02*
X2879825Y-1059484D01*
X2879825Y-1059484D02*
X2860777Y-1088055D01*
X2860777Y-1088055D02*
X2841729Y-1107103D01*
X2841729Y-1107103D02*
X2822682Y-1116627D01*
X3117920Y-1059484D02*
X3022682Y-1059484D01*
X3022682Y-1059484D02*
X3013158Y-1154722D01*
X3013158Y-1154722D02*
X3022682Y-1145198D01*
X3022682Y-1145198D02*
X3041729Y-1135674D01*
X3041729Y-1135674D02*
X3089348Y-1135674D01*
X3089348Y-1135674D02*
X3108396Y-1145198D01*
X3108396Y-1145198D02*
X3117920Y-1154722D01*
X3117920Y-1154722D02*
X3127444Y-1173770D01*
X3127444Y-1173770D02*
X3127444Y-1221389D01*
X3127444Y-1221389D02*
X3117920Y-1240436D01*
X3117920Y-1240436D02*
X3108396Y-1249960D01*
X3108396Y-1249960D02*
X3089348Y-1259484D01*
X3089348Y-1259484D02*
X3041729Y-1259484D01*
X3041729Y-1259484D02*
X3022682Y-1249960D01*
X3022682Y-1249960D02*
X3013158Y-1240436D01*
X3203634Y-1059484D02*
X3203634Y-1097579D01*
X3279825Y-1059484D02*
X3279825Y-1097579D01*
X3575063Y-1335674D02*
X3565539Y-1326150D01*
X3565539Y-1326150D02*
X3546491Y-1297579D01*
X3546491Y-1297579D02*
X3536968Y-1278531D01*
X3536968Y-1278531D02*
X3527444Y-1249960D01*
X3527444Y-1249960D02*
X3517920Y-1202341D01*
X3517920Y-1202341D02*
X3517920Y-1164246D01*
X3517920Y-1164246D02*
X3527444Y-1116627D01*
X3527444Y-1116627D02*
X3536968Y-1088055D01*
X3536968Y-1088055D02*
X3546491Y-1069008D01*
X3546491Y-1069008D02*
X3565539Y-1040436D01*
X3565539Y-1040436D02*
X3575063Y-1030912D01*
X3736968Y-1059484D02*
X3698872Y-1059484D01*
X3698872Y-1059484D02*
X3679825Y-1069008D01*
X3679825Y-1069008D02*
X3670301Y-1078531D01*
X3670301Y-1078531D02*
X3651253Y-1107103D01*
X3651253Y-1107103D02*
X3641729Y-1145198D01*
X3641729Y-1145198D02*
X3641729Y-1221389D01*
X3641729Y-1221389D02*
X3651253Y-1240436D01*
X3651253Y-1240436D02*
X3660777Y-1249960D01*
X3660777Y-1249960D02*
X3679825Y-1259484D01*
X3679825Y-1259484D02*
X3717920Y-1259484D01*
X3717920Y-1259484D02*
X3736968Y-1249960D01*
X3736968Y-1249960D02*
X3746491Y-1240436D01*
X3746491Y-1240436D02*
X3756015Y-1221389D01*
X3756015Y-1221389D02*
X3756015Y-1173770D01*
X3756015Y-1173770D02*
X3746491Y-1154722D01*
X3746491Y-1154722D02*
X3736968Y-1145198D01*
X3736968Y-1145198D02*
X3717920Y-1135674D01*
X3717920Y-1135674D02*
X3679825Y-1135674D01*
X3679825Y-1135674D02*
X3660777Y-1145198D01*
X3660777Y-1145198D02*
X3651253Y-1154722D01*
X3651253Y-1154722D02*
X3641729Y-1173770D01*
X3927444Y-1059484D02*
X3889348Y-1059484D01*
X3889348Y-1059484D02*
X3870301Y-1069008D01*
X3870301Y-1069008D02*
X3860777Y-1078531D01*
X3860777Y-1078531D02*
X3841729Y-1107103D01*
X3841729Y-1107103D02*
X3832206Y-1145198D01*
X3832206Y-1145198D02*
X3832206Y-1221389D01*
X3832206Y-1221389D02*
X3841729Y-1240436D01*
X3841729Y-1240436D02*
X3851253Y-1249960D01*
X3851253Y-1249960D02*
X3870301Y-1259484D01*
X3870301Y-1259484D02*
X3908396Y-1259484D01*
X3908396Y-1259484D02*
X3927444Y-1249960D01*
X3927444Y-1249960D02*
X3936968Y-1240436D01*
X3936968Y-1240436D02*
X3946491Y-1221389D01*
X3946491Y-1221389D02*
X3946491Y-1173770D01*
X3946491Y-1173770D02*
X3936968Y-1154722D01*
X3936968Y-1154722D02*
X3927444Y-1145198D01*
X3927444Y-1145198D02*
X3908396Y-1135674D01*
X3908396Y-1135674D02*
X3870301Y-1135674D01*
X3870301Y-1135674D02*
X3851253Y-1145198D01*
X3851253Y-1145198D02*
X3841729Y-1154722D01*
X3841729Y-1154722D02*
X3832206Y-1173770D01*
X4184587Y-1259484D02*
X4184587Y-1059484D01*
X4270301Y-1259484D02*
X4270301Y-1154722D01*
X4270301Y-1154722D02*
X4260777Y-1135674D01*
X4260777Y-1135674D02*
X4241730Y-1126150D01*
X4241730Y-1126150D02*
X4213158Y-1126150D01*
X4213158Y-1126150D02*
X4194110Y-1135674D01*
X4194110Y-1135674D02*
X4184587Y-1145198D01*
X4394111Y-1259484D02*
X4375063Y-1249960D01*
X4375063Y-1249960D02*
X4365539Y-1240436D01*
X4365539Y-1240436D02*
X4356015Y-1221389D01*
X4356015Y-1221389D02*
X4356015Y-1164246D01*
X4356015Y-1164246D02*
X4365539Y-1145198D01*
X4365539Y-1145198D02*
X4375063Y-1135674D01*
X4375063Y-1135674D02*
X4394111Y-1126150D01*
X4394111Y-1126150D02*
X4422682Y-1126150D01*
X4422682Y-1126150D02*
X4441730Y-1135674D01*
X4441730Y-1135674D02*
X4451253Y-1145198D01*
X4451253Y-1145198D02*
X4460777Y-1164246D01*
X4460777Y-1164246D02*
X4460777Y-1221389D01*
X4460777Y-1221389D02*
X4451253Y-1240436D01*
X4451253Y-1240436D02*
X4441730Y-1249960D01*
X4441730Y-1249960D02*
X4422682Y-1259484D01*
X4422682Y-1259484D02*
X4394111Y-1259484D01*
X4575063Y-1259484D02*
X4556015Y-1249960D01*
X4556015Y-1249960D02*
X4546492Y-1230912D01*
X4546492Y-1230912D02*
X4546492Y-1059484D01*
X4727444Y-1249960D02*
X4708396Y-1259484D01*
X4708396Y-1259484D02*
X4670301Y-1259484D01*
X4670301Y-1259484D02*
X4651253Y-1249960D01*
X4651253Y-1249960D02*
X4641730Y-1230912D01*
X4641730Y-1230912D02*
X4641730Y-1154722D01*
X4641730Y-1154722D02*
X4651253Y-1135674D01*
X4651253Y-1135674D02*
X4670301Y-1126150D01*
X4670301Y-1126150D02*
X4708396Y-1126150D01*
X4708396Y-1126150D02*
X4727444Y-1135674D01*
X4727444Y-1135674D02*
X4736968Y-1154722D01*
X4736968Y-1154722D02*
X4736968Y-1173770D01*
X4736968Y-1173770D02*
X4641730Y-1192817D01*
X4813158Y-1249960D02*
X4832206Y-1259484D01*
X4832206Y-1259484D02*
X4870301Y-1259484D01*
X4870301Y-1259484D02*
X4889349Y-1249960D01*
X4889349Y-1249960D02*
X4898873Y-1230912D01*
X4898873Y-1230912D02*
X4898873Y-1221389D01*
X4898873Y-1221389D02*
X4889349Y-1202341D01*
X4889349Y-1202341D02*
X4870301Y-1192817D01*
X4870301Y-1192817D02*
X4841730Y-1192817D01*
X4841730Y-1192817D02*
X4822682Y-1183293D01*
X4822682Y-1183293D02*
X4813158Y-1164246D01*
X4813158Y-1164246D02*
X4813158Y-1154722D01*
X4813158Y-1154722D02*
X4822682Y-1135674D01*
X4822682Y-1135674D02*
X4841730Y-1126150D01*
X4841730Y-1126150D02*
X4870301Y-1126150D01*
X4870301Y-1126150D02*
X4889349Y-1135674D01*
X4965539Y-1335674D02*
X4975063Y-1326150D01*
X4975063Y-1326150D02*
X4994111Y-1297579D01*
X4994111Y-1297579D02*
X5003634Y-1278531D01*
X5003634Y-1278531D02*
X5013158Y-1249960D01*
X5013158Y-1249960D02*
X5022682Y-1202341D01*
X5022682Y-1202341D02*
X5022682Y-1164246D01*
X5022682Y-1164246D02*
X5013158Y-1116627D01*
X5013158Y-1116627D02*
X5003634Y-1088055D01*
X5003634Y-1088055D02*
X4994111Y-1069008D01*
X4994111Y-1069008D02*
X4975063Y-1040436D01*
X4975063Y-1040436D02*
X4965539Y-1030912D01*
D11*
X-14644Y-1467356D02*
X-14644Y-1396644D01*
X-85356Y-1396644D01*
X-85356Y-1467356D01*
X-14644Y-1467356D01*
D10*
X365539Y-1523484D02*
X251253Y-1523484D01*
X308396Y-1523484D02*
X308396Y-1323484D01*
X308396Y-1323484D02*
X289348Y-1352055D01*
X289348Y-1352055D02*
X270301Y-1371103D01*
X270301Y-1371103D02*
X251253Y-1380627D01*
X451253Y-1504436D02*
X460777Y-1513960D01*
X460777Y-1513960D02*
X451253Y-1523484D01*
X451253Y-1523484D02*
X441729Y-1513960D01*
X441729Y-1513960D02*
X451253Y-1504436D01*
X451253Y-1504436D02*
X451253Y-1523484D01*
X584586Y-1323484D02*
X603634Y-1323484D01*
X603634Y-1323484D02*
X622682Y-1333008D01*
X622682Y-1333008D02*
X632205Y-1342531D01*
X632205Y-1342531D02*
X641729Y-1361579D01*
X641729Y-1361579D02*
X651253Y-1399674D01*
X651253Y-1399674D02*
X651253Y-1447293D01*
X651253Y-1447293D02*
X641729Y-1485388D01*
X641729Y-1485388D02*
X632205Y-1504436D01*
X632205Y-1504436D02*
X622682Y-1513960D01*
X622682Y-1513960D02*
X603634Y-1523484D01*
X603634Y-1523484D02*
X584586Y-1523484D01*
X584586Y-1523484D02*
X565539Y-1513960D01*
X565539Y-1513960D02*
X556015Y-1504436D01*
X556015Y-1504436D02*
X546491Y-1485388D01*
X546491Y-1485388D02*
X536967Y-1447293D01*
X536967Y-1447293D02*
X536967Y-1399674D01*
X536967Y-1399674D02*
X546491Y-1361579D01*
X546491Y-1361579D02*
X556015Y-1342531D01*
X556015Y-1342531D02*
X565539Y-1333008D01*
X565539Y-1333008D02*
X584586Y-1323484D01*
X775062Y-1323484D02*
X794110Y-1323484D01*
X794110Y-1323484D02*
X813158Y-1333008D01*
X813158Y-1333008D02*
X822682Y-1342531D01*
X822682Y-1342531D02*
X832205Y-1361579D01*
X832205Y-1361579D02*
X841729Y-1399674D01*
X841729Y-1399674D02*
X841729Y-1447293D01*
X841729Y-1447293D02*
X832205Y-1485388D01*
X832205Y-1485388D02*
X822682Y-1504436D01*
X822682Y-1504436D02*
X813158Y-1513960D01*
X813158Y-1513960D02*
X794110Y-1523484D01*
X794110Y-1523484D02*
X775062Y-1523484D01*
X775062Y-1523484D02*
X756015Y-1513960D01*
X756015Y-1513960D02*
X746491Y-1504436D01*
X746491Y-1504436D02*
X736967Y-1485388D01*
X736967Y-1485388D02*
X727443Y-1447293D01*
X727443Y-1447293D02*
X727443Y-1399674D01*
X727443Y-1399674D02*
X736967Y-1361579D01*
X736967Y-1361579D02*
X746491Y-1342531D01*
X746491Y-1342531D02*
X756015Y-1333008D01*
X756015Y-1333008D02*
X775062Y-1323484D01*
X965539Y-1323484D02*
X984586Y-1323484D01*
X984586Y-1323484D02*
X1003634Y-1333008D01*
X1003634Y-1333008D02*
X1013158Y-1342531D01*
X1013158Y-1342531D02*
X1022682Y-1361579D01*
X1022682Y-1361579D02*
X1032205Y-1399674D01*
X1032205Y-1399674D02*
X1032205Y-1447293D01*
X1032205Y-1447293D02*
X1022682Y-1485388D01*
X1022682Y-1485388D02*
X1013158Y-1504436D01*
X1013158Y-1504436D02*
X1003634Y-1513960D01*
X1003634Y-1513960D02*
X984586Y-1523484D01*
X984586Y-1523484D02*
X965539Y-1523484D01*
X965539Y-1523484D02*
X946491Y-1513960D01*
X946491Y-1513960D02*
X936967Y-1504436D01*
X936967Y-1504436D02*
X927443Y-1485388D01*
X927443Y-1485388D02*
X917920Y-1447293D01*
X917920Y-1447293D02*
X917920Y-1399674D01*
X917920Y-1399674D02*
X927443Y-1361579D01*
X927443Y-1361579D02*
X936967Y-1342531D01*
X936967Y-1342531D02*
X946491Y-1333008D01*
X946491Y-1333008D02*
X965539Y-1323484D01*
X1117920Y-1523484D02*
X1117920Y-1390150D01*
X1117920Y-1409198D02*
X1127444Y-1399674D01*
X1127444Y-1399674D02*
X1146491Y-1390150D01*
X1146491Y-1390150D02*
X1175063Y-1390150D01*
X1175063Y-1390150D02*
X1194110Y-1399674D01*
X1194110Y-1399674D02*
X1203634Y-1418722D01*
X1203634Y-1418722D02*
X1203634Y-1523484D01*
X1203634Y-1418722D02*
X1213158Y-1399674D01*
X1213158Y-1399674D02*
X1232205Y-1390150D01*
X1232205Y-1390150D02*
X1260777Y-1390150D01*
X1260777Y-1390150D02*
X1279825Y-1399674D01*
X1279825Y-1399674D02*
X1289348Y-1418722D01*
X1289348Y-1418722D02*
X1289348Y-1523484D01*
X1384586Y-1523484D02*
X1384586Y-1390150D01*
X1384586Y-1409198D02*
X1394110Y-1399674D01*
X1394110Y-1399674D02*
X1413158Y-1390150D01*
X1413158Y-1390150D02*
X1441729Y-1390150D01*
X1441729Y-1390150D02*
X1460777Y-1399674D01*
X1460777Y-1399674D02*
X1470301Y-1418722D01*
X1470301Y-1418722D02*
X1470301Y-1523484D01*
X1470301Y-1418722D02*
X1479824Y-1399674D01*
X1479824Y-1399674D02*
X1498872Y-1390150D01*
X1498872Y-1390150D02*
X1527443Y-1390150D01*
X1527443Y-1390150D02*
X1546491Y-1399674D01*
X1546491Y-1399674D02*
X1556015Y-1418722D01*
X1556015Y-1418722D02*
X1556015Y-1523484D01*
X1946491Y-1313960D02*
X1775063Y-1571103D01*
X2203634Y-1323484D02*
X2222682Y-1323484D01*
X2222682Y-1323484D02*
X2241729Y-1333008D01*
X2241729Y-1333008D02*
X2251253Y-1342531D01*
X2251253Y-1342531D02*
X2260777Y-1361579D01*
X2260777Y-1361579D02*
X2270301Y-1399674D01*
X2270301Y-1399674D02*
X2270301Y-1447293D01*
X2270301Y-1447293D02*
X2260777Y-1485388D01*
X2260777Y-1485388D02*
X2251253Y-1504436D01*
X2251253Y-1504436D02*
X2241729Y-1513960D01*
X2241729Y-1513960D02*
X2222682Y-1523484D01*
X2222682Y-1523484D02*
X2203634Y-1523484D01*
X2203634Y-1523484D02*
X2184587Y-1513960D01*
X2184587Y-1513960D02*
X2175063Y-1504436D01*
X2175063Y-1504436D02*
X2165539Y-1485388D01*
X2165539Y-1485388D02*
X2156015Y-1447293D01*
X2156015Y-1447293D02*
X2156015Y-1399674D01*
X2156015Y-1399674D02*
X2165539Y-1361579D01*
X2165539Y-1361579D02*
X2175063Y-1342531D01*
X2175063Y-1342531D02*
X2184587Y-1333008D01*
X2184587Y-1333008D02*
X2203634Y-1323484D01*
X2356015Y-1504436D02*
X2365539Y-1513960D01*
X2365539Y-1513960D02*
X2356015Y-1523484D01*
X2356015Y-1523484D02*
X2346491Y-1513960D01*
X2346491Y-1513960D02*
X2356015Y-1504436D01*
X2356015Y-1504436D02*
X2356015Y-1523484D01*
X2489348Y-1323484D02*
X2508396Y-1323484D01*
X2508396Y-1323484D02*
X2527444Y-1333008D01*
X2527444Y-1333008D02*
X2536968Y-1342531D01*
X2536968Y-1342531D02*
X2546491Y-1361579D01*
X2546491Y-1361579D02*
X2556015Y-1399674D01*
X2556015Y-1399674D02*
X2556015Y-1447293D01*
X2556015Y-1447293D02*
X2546491Y-1485388D01*
X2546491Y-1485388D02*
X2536968Y-1504436D01*
X2536968Y-1504436D02*
X2527444Y-1513960D01*
X2527444Y-1513960D02*
X2508396Y-1523484D01*
X2508396Y-1523484D02*
X2489348Y-1523484D01*
X2489348Y-1523484D02*
X2470301Y-1513960D01*
X2470301Y-1513960D02*
X2460777Y-1504436D01*
X2460777Y-1504436D02*
X2451253Y-1485388D01*
X2451253Y-1485388D02*
X2441729Y-1447293D01*
X2441729Y-1447293D02*
X2441729Y-1399674D01*
X2441729Y-1399674D02*
X2451253Y-1361579D01*
X2451253Y-1361579D02*
X2460777Y-1342531D01*
X2460777Y-1342531D02*
X2470301Y-1333008D01*
X2470301Y-1333008D02*
X2489348Y-1323484D01*
X2622682Y-1323484D02*
X2746491Y-1323484D01*
X2746491Y-1323484D02*
X2679825Y-1399674D01*
X2679825Y-1399674D02*
X2708396Y-1399674D01*
X2708396Y-1399674D02*
X2727444Y-1409198D01*
X2727444Y-1409198D02*
X2736968Y-1418722D01*
X2736968Y-1418722D02*
X2746491Y-1437769D01*
X2746491Y-1437769D02*
X2746491Y-1485388D01*
X2746491Y-1485388D02*
X2736968Y-1504436D01*
X2736968Y-1504436D02*
X2727444Y-1513960D01*
X2727444Y-1513960D02*
X2708396Y-1523484D01*
X2708396Y-1523484D02*
X2651253Y-1523484D01*
X2651253Y-1523484D02*
X2632206Y-1513960D01*
X2632206Y-1513960D02*
X2622682Y-1504436D01*
X2841729Y-1523484D02*
X2879825Y-1523484D01*
X2879825Y-1523484D02*
X2898872Y-1513960D01*
X2898872Y-1513960D02*
X2908396Y-1504436D01*
X2908396Y-1504436D02*
X2927444Y-1475865D01*
X2927444Y-1475865D02*
X2936967Y-1437769D01*
X2936967Y-1437769D02*
X2936967Y-1361579D01*
X2936967Y-1361579D02*
X2927444Y-1342531D01*
X2927444Y-1342531D02*
X2917920Y-1333008D01*
X2917920Y-1333008D02*
X2898872Y-1323484D01*
X2898872Y-1323484D02*
X2860777Y-1323484D01*
X2860777Y-1323484D02*
X2841729Y-1333008D01*
X2841729Y-1333008D02*
X2832206Y-1342531D01*
X2832206Y-1342531D02*
X2822682Y-1361579D01*
X2822682Y-1361579D02*
X2822682Y-1409198D01*
X2822682Y-1409198D02*
X2832206Y-1428246D01*
X2832206Y-1428246D02*
X2841729Y-1437769D01*
X2841729Y-1437769D02*
X2860777Y-1447293D01*
X2860777Y-1447293D02*
X2898872Y-1447293D01*
X2898872Y-1447293D02*
X2917920Y-1437769D01*
X2917920Y-1437769D02*
X2927444Y-1428246D01*
X2927444Y-1428246D02*
X2936967Y-1409198D01*
X3108396Y-1390150D02*
X3108396Y-1523484D01*
X3060777Y-1313960D02*
X3013158Y-1456817D01*
X3013158Y-1456817D02*
X3136967Y-1456817D01*
X3203634Y-1323484D02*
X3203634Y-1361579D01*
X3279825Y-1323484D02*
X3279825Y-1361579D01*
X3575063Y-1599674D02*
X3565539Y-1590150D01*
X3565539Y-1590150D02*
X3546491Y-1561579D01*
X3546491Y-1561579D02*
X3536968Y-1542531D01*
X3536968Y-1542531D02*
X3527444Y-1513960D01*
X3527444Y-1513960D02*
X3517920Y-1466341D01*
X3517920Y-1466341D02*
X3517920Y-1428246D01*
X3517920Y-1428246D02*
X3527444Y-1380627D01*
X3527444Y-1380627D02*
X3536968Y-1352055D01*
X3536968Y-1352055D02*
X3546491Y-1333008D01*
X3546491Y-1333008D02*
X3565539Y-1304436D01*
X3565539Y-1304436D02*
X3575063Y-1294912D01*
X3736968Y-1323484D02*
X3698872Y-1323484D01*
X3698872Y-1323484D02*
X3679825Y-1333008D01*
X3679825Y-1333008D02*
X3670301Y-1342531D01*
X3670301Y-1342531D02*
X3651253Y-1371103D01*
X3651253Y-1371103D02*
X3641729Y-1409198D01*
X3641729Y-1409198D02*
X3641729Y-1485388D01*
X3641729Y-1485388D02*
X3651253Y-1504436D01*
X3651253Y-1504436D02*
X3660777Y-1513960D01*
X3660777Y-1513960D02*
X3679825Y-1523484D01*
X3679825Y-1523484D02*
X3717920Y-1523484D01*
X3717920Y-1523484D02*
X3736968Y-1513960D01*
X3736968Y-1513960D02*
X3746491Y-1504436D01*
X3746491Y-1504436D02*
X3756015Y-1485388D01*
X3756015Y-1485388D02*
X3756015Y-1437769D01*
X3756015Y-1437769D02*
X3746491Y-1418722D01*
X3746491Y-1418722D02*
X3736968Y-1409198D01*
X3736968Y-1409198D02*
X3717920Y-1399674D01*
X3717920Y-1399674D02*
X3679825Y-1399674D01*
X3679825Y-1399674D02*
X3660777Y-1409198D01*
X3660777Y-1409198D02*
X3651253Y-1418722D01*
X3651253Y-1418722D02*
X3641729Y-1437769D01*
X3994110Y-1523484D02*
X3994110Y-1323484D01*
X4079825Y-1523484D02*
X4079825Y-1418722D01*
X4079825Y-1418722D02*
X4070301Y-1399674D01*
X4070301Y-1399674D02*
X4051253Y-1390150D01*
X4051253Y-1390150D02*
X4022682Y-1390150D01*
X4022682Y-1390150D02*
X4003634Y-1399674D01*
X4003634Y-1399674D02*
X3994110Y-1409198D01*
X4203634Y-1523484D02*
X4184587Y-1513960D01*
X4184587Y-1513960D02*
X4175063Y-1504436D01*
X4175063Y-1504436D02*
X4165539Y-1485388D01*
X4165539Y-1485388D02*
X4165539Y-1428246D01*
X4165539Y-1428246D02*
X4175063Y-1409198D01*
X4175063Y-1409198D02*
X4184587Y-1399674D01*
X4184587Y-1399674D02*
X4203634Y-1390150D01*
X4203634Y-1390150D02*
X4232206Y-1390150D01*
X4232206Y-1390150D02*
X4251253Y-1399674D01*
X4251253Y-1399674D02*
X4260777Y-1409198D01*
X4260777Y-1409198D02*
X4270301Y-1428246D01*
X4270301Y-1428246D02*
X4270301Y-1485388D01*
X4270301Y-1485388D02*
X4260777Y-1504436D01*
X4260777Y-1504436D02*
X4251253Y-1513960D01*
X4251253Y-1513960D02*
X4232206Y-1523484D01*
X4232206Y-1523484D02*
X4203634Y-1523484D01*
X4384587Y-1523484D02*
X4365539Y-1513960D01*
X4365539Y-1513960D02*
X4356015Y-1494912D01*
X4356015Y-1494912D02*
X4356015Y-1323484D01*
X4536968Y-1513960D02*
X4517920Y-1523484D01*
X4517920Y-1523484D02*
X4479825Y-1523484D01*
X4479825Y-1523484D02*
X4460777Y-1513960D01*
X4460777Y-1513960D02*
X4451253Y-1494912D01*
X4451253Y-1494912D02*
X4451253Y-1418722D01*
X4451253Y-1418722D02*
X4460777Y-1399674D01*
X4460777Y-1399674D02*
X4479825Y-1390150D01*
X4479825Y-1390150D02*
X4517920Y-1390150D01*
X4517920Y-1390150D02*
X4536968Y-1399674D01*
X4536968Y-1399674D02*
X4546492Y-1418722D01*
X4546492Y-1418722D02*
X4546492Y-1437769D01*
X4546492Y-1437769D02*
X4451253Y-1456817D01*
X4622682Y-1513960D02*
X4641730Y-1523484D01*
X4641730Y-1523484D02*
X4679825Y-1523484D01*
X4679825Y-1523484D02*
X4698873Y-1513960D01*
X4698873Y-1513960D02*
X4708396Y-1494912D01*
X4708396Y-1494912D02*
X4708396Y-1485388D01*
X4708396Y-1485388D02*
X4698873Y-1466341D01*
X4698873Y-1466341D02*
X4679825Y-1456817D01*
X4679825Y-1456817D02*
X4651253Y-1456817D01*
X4651253Y-1456817D02*
X4632206Y-1447293D01*
X4632206Y-1447293D02*
X4622682Y-1428246D01*
X4622682Y-1428246D02*
X4622682Y-1418722D01*
X4622682Y-1418722D02*
X4632206Y-1399674D01*
X4632206Y-1399674D02*
X4651253Y-1390150D01*
X4651253Y-1390150D02*
X4679825Y-1390150D01*
X4679825Y-1390150D02*
X4698873Y-1399674D01*
X4946492Y-1447293D02*
X5098873Y-1447293D01*
X5022682Y-1523484D02*
X5022682Y-1371103D01*
X5327444Y-1323484D02*
X5451254Y-1323484D01*
X5451254Y-1323484D02*
X5384587Y-1399674D01*
X5384587Y-1399674D02*
X5413158Y-1399674D01*
X5413158Y-1399674D02*
X5432206Y-1409198D01*
X5432206Y-1409198D02*
X5441730Y-1418722D01*
X5441730Y-1418722D02*
X5451254Y-1437769D01*
X5451254Y-1437769D02*
X5451254Y-1485388D01*
X5451254Y-1485388D02*
X5441730Y-1504436D01*
X5441730Y-1504436D02*
X5432206Y-1513960D01*
X5432206Y-1513960D02*
X5413158Y-1523484D01*
X5413158Y-1523484D02*
X5356015Y-1523484D01*
X5356015Y-1523484D02*
X5336968Y-1513960D01*
X5336968Y-1513960D02*
X5327444Y-1504436D01*
X5679825Y-1513960D02*
X5698873Y-1523484D01*
X5698873Y-1523484D02*
X5736968Y-1523484D01*
X5736968Y-1523484D02*
X5756015Y-1513960D01*
X5756015Y-1513960D02*
X5765539Y-1494912D01*
X5765539Y-1494912D02*
X5765539Y-1485388D01*
X5765539Y-1485388D02*
X5756015Y-1466341D01*
X5756015Y-1466341D02*
X5736968Y-1456817D01*
X5736968Y-1456817D02*
X5708396Y-1456817D01*
X5708396Y-1456817D02*
X5689349Y-1447293D01*
X5689349Y-1447293D02*
X5679825Y-1428246D01*
X5679825Y-1428246D02*
X5679825Y-1418722D01*
X5679825Y-1418722D02*
X5689349Y-1399674D01*
X5689349Y-1399674D02*
X5708396Y-1390150D01*
X5708396Y-1390150D02*
X5736968Y-1390150D01*
X5736968Y-1390150D02*
X5756015Y-1399674D01*
X5879825Y-1523484D02*
X5860777Y-1513960D01*
X5860777Y-1513960D02*
X5851254Y-1494912D01*
X5851254Y-1494912D02*
X5851254Y-1323484D01*
X5984587Y-1523484D02*
X5965539Y-1513960D01*
X5965539Y-1513960D02*
X5956015Y-1504436D01*
X5956015Y-1504436D02*
X5946492Y-1485388D01*
X5946492Y-1485388D02*
X5946492Y-1428246D01*
X5946492Y-1428246D02*
X5956015Y-1409198D01*
X5956015Y-1409198D02*
X5965539Y-1399674D01*
X5965539Y-1399674D02*
X5984587Y-1390150D01*
X5984587Y-1390150D02*
X6013158Y-1390150D01*
X6013158Y-1390150D02*
X6032206Y-1399674D01*
X6032206Y-1399674D02*
X6041730Y-1409198D01*
X6041730Y-1409198D02*
X6051254Y-1428246D01*
X6051254Y-1428246D02*
X6051254Y-1485388D01*
X6051254Y-1485388D02*
X6041730Y-1504436D01*
X6041730Y-1504436D02*
X6032206Y-1513960D01*
X6032206Y-1513960D02*
X6013158Y-1523484D01*
X6013158Y-1523484D02*
X5984587Y-1523484D01*
X6108396Y-1390150D02*
X6184587Y-1390150D01*
X6136968Y-1323484D02*
X6136968Y-1494912D01*
X6136968Y-1494912D02*
X6146492Y-1513960D01*
X6146492Y-1513960D02*
X6165539Y-1523484D01*
X6165539Y-1523484D02*
X6184587Y-1523484D01*
X6241730Y-1513960D02*
X6260777Y-1523484D01*
X6260777Y-1523484D02*
X6298873Y-1523484D01*
X6298873Y-1523484D02*
X6317920Y-1513960D01*
X6317920Y-1513960D02*
X6327444Y-1494912D01*
X6327444Y-1494912D02*
X6327444Y-1485388D01*
X6327444Y-1485388D02*
X6317920Y-1466341D01*
X6317920Y-1466341D02*
X6298873Y-1456817D01*
X6298873Y-1456817D02*
X6270301Y-1456817D01*
X6270301Y-1456817D02*
X6251254Y-1447293D01*
X6251254Y-1447293D02*
X6241730Y-1428246D01*
X6241730Y-1428246D02*
X6241730Y-1418722D01*
X6241730Y-1418722D02*
X6251254Y-1399674D01*
X6251254Y-1399674D02*
X6270301Y-1390150D01*
X6270301Y-1390150D02*
X6298873Y-1390150D01*
X6298873Y-1390150D02*
X6317920Y-1399674D01*
X6394111Y-1599674D02*
X6403635Y-1590150D01*
X6403635Y-1590150D02*
X6422682Y-1561579D01*
X6422682Y-1561579D02*
X6432206Y-1542531D01*
X6432206Y-1542531D02*
X6441730Y-1513960D01*
X6441730Y-1513960D02*
X6451254Y-1466341D01*
X6451254Y-1466341D02*
X6451254Y-1428246D01*
X6451254Y-1428246D02*
X6441730Y-1380627D01*
X6441730Y-1380627D02*
X6432206Y-1352055D01*
X6432206Y-1352055D02*
X6422682Y-1333008D01*
X6422682Y-1333008D02*
X6403635Y-1304436D01*
X6403635Y-1304436D02*
X6394111Y-1294912D01*
D12*
X-55000Y-1751000D02*
X0Y-1696000D01*
X-55000Y-1641000D01*
X-110000Y-1696000D01*
X-55000Y-1751000D01*
D10*
X365539Y-1787484D02*
X251253Y-1787484D01*
X308396Y-1787484D02*
X308396Y-1587484D01*
X308396Y-1587484D02*
X289348Y-1616055D01*
X289348Y-1616055D02*
X270301Y-1635103D01*
X270301Y-1635103D02*
X251253Y-1644627D01*
X451253Y-1768436D02*
X460777Y-1777960D01*
X460777Y-1777960D02*
X451253Y-1787484D01*
X451253Y-1787484D02*
X441729Y-1777960D01*
X441729Y-1777960D02*
X451253Y-1768436D01*
X451253Y-1768436D02*
X451253Y-1787484D01*
X651253Y-1787484D02*
X536967Y-1787484D01*
X594110Y-1787484D02*
X594110Y-1587484D01*
X594110Y-1587484D02*
X575063Y-1616055D01*
X575063Y-1616055D02*
X556015Y-1635103D01*
X556015Y-1635103D02*
X536967Y-1644627D01*
X775062Y-1587484D02*
X794110Y-1587484D01*
X794110Y-1587484D02*
X813158Y-1597008D01*
X813158Y-1597008D02*
X822682Y-1606531D01*
X822682Y-1606531D02*
X832205Y-1625579D01*
X832205Y-1625579D02*
X841729Y-1663674D01*
X841729Y-1663674D02*
X841729Y-1711293D01*
X841729Y-1711293D02*
X832205Y-1749388D01*
X832205Y-1749388D02*
X822682Y-1768436D01*
X822682Y-1768436D02*
X813158Y-1777960D01*
X813158Y-1777960D02*
X794110Y-1787484D01*
X794110Y-1787484D02*
X775062Y-1787484D01*
X775062Y-1787484D02*
X756015Y-1777960D01*
X756015Y-1777960D02*
X746491Y-1768436D01*
X746491Y-1768436D02*
X736967Y-1749388D01*
X736967Y-1749388D02*
X727443Y-1711293D01*
X727443Y-1711293D02*
X727443Y-1663674D01*
X727443Y-1663674D02*
X736967Y-1625579D01*
X736967Y-1625579D02*
X746491Y-1606531D01*
X746491Y-1606531D02*
X756015Y-1597008D01*
X756015Y-1597008D02*
X775062Y-1587484D01*
X965539Y-1587484D02*
X984586Y-1587484D01*
X984586Y-1587484D02*
X1003634Y-1597008D01*
X1003634Y-1597008D02*
X1013158Y-1606531D01*
X1013158Y-1606531D02*
X1022682Y-1625579D01*
X1022682Y-1625579D02*
X1032205Y-1663674D01*
X1032205Y-1663674D02*
X1032205Y-1711293D01*
X1032205Y-1711293D02*
X1022682Y-1749388D01*
X1022682Y-1749388D02*
X1013158Y-1768436D01*
X1013158Y-1768436D02*
X1003634Y-1777960D01*
X1003634Y-1777960D02*
X984586Y-1787484D01*
X984586Y-1787484D02*
X965539Y-1787484D01*
X965539Y-1787484D02*
X946491Y-1777960D01*
X946491Y-1777960D02*
X936967Y-1768436D01*
X936967Y-1768436D02*
X927443Y-1749388D01*
X927443Y-1749388D02*
X917920Y-1711293D01*
X917920Y-1711293D02*
X917920Y-1663674D01*
X917920Y-1663674D02*
X927443Y-1625579D01*
X927443Y-1625579D02*
X936967Y-1606531D01*
X936967Y-1606531D02*
X946491Y-1597008D01*
X946491Y-1597008D02*
X965539Y-1587484D01*
X1117920Y-1787484D02*
X1117920Y-1654150D01*
X1117920Y-1673198D02*
X1127444Y-1663674D01*
X1127444Y-1663674D02*
X1146491Y-1654150D01*
X1146491Y-1654150D02*
X1175063Y-1654150D01*
X1175063Y-1654150D02*
X1194110Y-1663674D01*
X1194110Y-1663674D02*
X1203634Y-1682722D01*
X1203634Y-1682722D02*
X1203634Y-1787484D01*
X1203634Y-1682722D02*
X1213158Y-1663674D01*
X1213158Y-1663674D02*
X1232205Y-1654150D01*
X1232205Y-1654150D02*
X1260777Y-1654150D01*
X1260777Y-1654150D02*
X1279825Y-1663674D01*
X1279825Y-1663674D02*
X1289348Y-1682722D01*
X1289348Y-1682722D02*
X1289348Y-1787484D01*
X1384586Y-1787484D02*
X1384586Y-1654150D01*
X1384586Y-1673198D02*
X1394110Y-1663674D01*
X1394110Y-1663674D02*
X1413158Y-1654150D01*
X1413158Y-1654150D02*
X1441729Y-1654150D01*
X1441729Y-1654150D02*
X1460777Y-1663674D01*
X1460777Y-1663674D02*
X1470301Y-1682722D01*
X1470301Y-1682722D02*
X1470301Y-1787484D01*
X1470301Y-1682722D02*
X1479824Y-1663674D01*
X1479824Y-1663674D02*
X1498872Y-1654150D01*
X1498872Y-1654150D02*
X1527443Y-1654150D01*
X1527443Y-1654150D02*
X1546491Y-1663674D01*
X1546491Y-1663674D02*
X1556015Y-1682722D01*
X1556015Y-1682722D02*
X1556015Y-1787484D01*
X1946491Y-1577960D02*
X1775063Y-1835103D01*
X2203634Y-1587484D02*
X2222682Y-1587484D01*
X2222682Y-1587484D02*
X2241729Y-1597008D01*
X2241729Y-1597008D02*
X2251253Y-1606531D01*
X2251253Y-1606531D02*
X2260777Y-1625579D01*
X2260777Y-1625579D02*
X2270301Y-1663674D01*
X2270301Y-1663674D02*
X2270301Y-1711293D01*
X2270301Y-1711293D02*
X2260777Y-1749388D01*
X2260777Y-1749388D02*
X2251253Y-1768436D01*
X2251253Y-1768436D02*
X2241729Y-1777960D01*
X2241729Y-1777960D02*
X2222682Y-1787484D01*
X2222682Y-1787484D02*
X2203634Y-1787484D01*
X2203634Y-1787484D02*
X2184587Y-1777960D01*
X2184587Y-1777960D02*
X2175063Y-1768436D01*
X2175063Y-1768436D02*
X2165539Y-1749388D01*
X2165539Y-1749388D02*
X2156015Y-1711293D01*
X2156015Y-1711293D02*
X2156015Y-1663674D01*
X2156015Y-1663674D02*
X2165539Y-1625579D01*
X2165539Y-1625579D02*
X2175063Y-1606531D01*
X2175063Y-1606531D02*
X2184587Y-1597008D01*
X2184587Y-1597008D02*
X2203634Y-1587484D01*
X2356015Y-1768436D02*
X2365539Y-1777960D01*
X2365539Y-1777960D02*
X2356015Y-1787484D01*
X2356015Y-1787484D02*
X2346491Y-1777960D01*
X2346491Y-1777960D02*
X2356015Y-1768436D01*
X2356015Y-1768436D02*
X2356015Y-1787484D01*
X2489348Y-1587484D02*
X2508396Y-1587484D01*
X2508396Y-1587484D02*
X2527444Y-1597008D01*
X2527444Y-1597008D02*
X2536968Y-1606531D01*
X2536968Y-1606531D02*
X2546491Y-1625579D01*
X2546491Y-1625579D02*
X2556015Y-1663674D01*
X2556015Y-1663674D02*
X2556015Y-1711293D01*
X2556015Y-1711293D02*
X2546491Y-1749388D01*
X2546491Y-1749388D02*
X2536968Y-1768436D01*
X2536968Y-1768436D02*
X2527444Y-1777960D01*
X2527444Y-1777960D02*
X2508396Y-1787484D01*
X2508396Y-1787484D02*
X2489348Y-1787484D01*
X2489348Y-1787484D02*
X2470301Y-1777960D01*
X2470301Y-1777960D02*
X2460777Y-1768436D01*
X2460777Y-1768436D02*
X2451253Y-1749388D01*
X2451253Y-1749388D02*
X2441729Y-1711293D01*
X2441729Y-1711293D02*
X2441729Y-1663674D01*
X2441729Y-1663674D02*
X2451253Y-1625579D01*
X2451253Y-1625579D02*
X2460777Y-1606531D01*
X2460777Y-1606531D02*
X2470301Y-1597008D01*
X2470301Y-1597008D02*
X2489348Y-1587484D01*
X2727444Y-1654150D02*
X2727444Y-1787484D01*
X2679825Y-1577960D02*
X2632206Y-1720817D01*
X2632206Y-1720817D02*
X2756015Y-1720817D01*
X2813158Y-1587484D02*
X2936967Y-1587484D01*
X2936967Y-1587484D02*
X2870301Y-1663674D01*
X2870301Y-1663674D02*
X2898872Y-1663674D01*
X2898872Y-1663674D02*
X2917920Y-1673198D01*
X2917920Y-1673198D02*
X2927444Y-1682722D01*
X2927444Y-1682722D02*
X2936967Y-1701769D01*
X2936967Y-1701769D02*
X2936967Y-1749388D01*
X2936967Y-1749388D02*
X2927444Y-1768436D01*
X2927444Y-1768436D02*
X2917920Y-1777960D01*
X2917920Y-1777960D02*
X2898872Y-1787484D01*
X2898872Y-1787484D02*
X2841729Y-1787484D01*
X2841729Y-1787484D02*
X2822682Y-1777960D01*
X2822682Y-1777960D02*
X2813158Y-1768436D01*
X3003634Y-1587484D02*
X3127444Y-1587484D01*
X3127444Y-1587484D02*
X3060777Y-1663674D01*
X3060777Y-1663674D02*
X3089348Y-1663674D01*
X3089348Y-1663674D02*
X3108396Y-1673198D01*
X3108396Y-1673198D02*
X3117920Y-1682722D01*
X3117920Y-1682722D02*
X3127444Y-1701769D01*
X3127444Y-1701769D02*
X3127444Y-1749388D01*
X3127444Y-1749388D02*
X3117920Y-1768436D01*
X3117920Y-1768436D02*
X3108396Y-1777960D01*
X3108396Y-1777960D02*
X3089348Y-1787484D01*
X3089348Y-1787484D02*
X3032206Y-1787484D01*
X3032206Y-1787484D02*
X3013158Y-1777960D01*
X3013158Y-1777960D02*
X3003634Y-1768436D01*
X3203634Y-1587484D02*
X3203634Y-1625579D01*
X3279825Y-1587484D02*
X3279825Y-1625579D01*
X3575063Y-1863674D02*
X3565539Y-1854150D01*
X3565539Y-1854150D02*
X3546491Y-1825579D01*
X3546491Y-1825579D02*
X3536968Y-1806531D01*
X3536968Y-1806531D02*
X3527444Y-1777960D01*
X3527444Y-1777960D02*
X3517920Y-1730341D01*
X3517920Y-1730341D02*
X3517920Y-1692246D01*
X3517920Y-1692246D02*
X3527444Y-1644627D01*
X3527444Y-1644627D02*
X3536968Y-1616055D01*
X3536968Y-1616055D02*
X3546491Y-1597008D01*
X3546491Y-1597008D02*
X3565539Y-1568436D01*
X3565539Y-1568436D02*
X3575063Y-1558912D01*
X3641729Y-1606531D02*
X3651253Y-1597008D01*
X3651253Y-1597008D02*
X3670301Y-1587484D01*
X3670301Y-1587484D02*
X3717920Y-1587484D01*
X3717920Y-1587484D02*
X3736968Y-1597008D01*
X3736968Y-1597008D02*
X3746491Y-1606531D01*
X3746491Y-1606531D02*
X3756015Y-1625579D01*
X3756015Y-1625579D02*
X3756015Y-1644627D01*
X3756015Y-1644627D02*
X3746491Y-1673198D01*
X3746491Y-1673198D02*
X3632206Y-1787484D01*
X3632206Y-1787484D02*
X3756015Y-1787484D01*
X3994110Y-1787484D02*
X3994110Y-1587484D01*
X4079825Y-1787484D02*
X4079825Y-1682722D01*
X4079825Y-1682722D02*
X4070301Y-1663674D01*
X4070301Y-1663674D02*
X4051253Y-1654150D01*
X4051253Y-1654150D02*
X4022682Y-1654150D01*
X4022682Y-1654150D02*
X4003634Y-1663674D01*
X4003634Y-1663674D02*
X3994110Y-1673198D01*
X4203634Y-1787484D02*
X4184587Y-1777960D01*
X4184587Y-1777960D02*
X4175063Y-1768436D01*
X4175063Y-1768436D02*
X4165539Y-1749388D01*
X4165539Y-1749388D02*
X4165539Y-1692246D01*
X4165539Y-1692246D02*
X4175063Y-1673198D01*
X4175063Y-1673198D02*
X4184587Y-1663674D01*
X4184587Y-1663674D02*
X4203634Y-1654150D01*
X4203634Y-1654150D02*
X4232206Y-1654150D01*
X4232206Y-1654150D02*
X4251253Y-1663674D01*
X4251253Y-1663674D02*
X4260777Y-1673198D01*
X4260777Y-1673198D02*
X4270301Y-1692246D01*
X4270301Y-1692246D02*
X4270301Y-1749388D01*
X4270301Y-1749388D02*
X4260777Y-1768436D01*
X4260777Y-1768436D02*
X4251253Y-1777960D01*
X4251253Y-1777960D02*
X4232206Y-1787484D01*
X4232206Y-1787484D02*
X4203634Y-1787484D01*
X4384587Y-1787484D02*
X4365539Y-1777960D01*
X4365539Y-1777960D02*
X4356015Y-1758912D01*
X4356015Y-1758912D02*
X4356015Y-1587484D01*
X4536968Y-1777960D02*
X4517920Y-1787484D01*
X4517920Y-1787484D02*
X4479825Y-1787484D01*
X4479825Y-1787484D02*
X4460777Y-1777960D01*
X4460777Y-1777960D02*
X4451253Y-1758912D01*
X4451253Y-1758912D02*
X4451253Y-1682722D01*
X4451253Y-1682722D02*
X4460777Y-1663674D01*
X4460777Y-1663674D02*
X4479825Y-1654150D01*
X4479825Y-1654150D02*
X4517920Y-1654150D01*
X4517920Y-1654150D02*
X4536968Y-1663674D01*
X4536968Y-1663674D02*
X4546492Y-1682722D01*
X4546492Y-1682722D02*
X4546492Y-1701769D01*
X4546492Y-1701769D02*
X4451253Y-1720817D01*
X4622682Y-1777960D02*
X4641730Y-1787484D01*
X4641730Y-1787484D02*
X4679825Y-1787484D01*
X4679825Y-1787484D02*
X4698873Y-1777960D01*
X4698873Y-1777960D02*
X4708396Y-1758912D01*
X4708396Y-1758912D02*
X4708396Y-1749388D01*
X4708396Y-1749388D02*
X4698873Y-1730341D01*
X4698873Y-1730341D02*
X4679825Y-1720817D01*
X4679825Y-1720817D02*
X4651253Y-1720817D01*
X4651253Y-1720817D02*
X4632206Y-1711293D01*
X4632206Y-1711293D02*
X4622682Y-1692246D01*
X4622682Y-1692246D02*
X4622682Y-1682722D01*
X4622682Y-1682722D02*
X4632206Y-1663674D01*
X4632206Y-1663674D02*
X4651253Y-1654150D01*
X4651253Y-1654150D02*
X4679825Y-1654150D01*
X4679825Y-1654150D02*
X4698873Y-1663674D01*
X4775063Y-1863674D02*
X4784587Y-1854150D01*
X4784587Y-1854150D02*
X4803634Y-1825579D01*
X4803634Y-1825579D02*
X4813158Y-1806531D01*
X4813158Y-1806531D02*
X4822682Y-1777960D01*
X4822682Y-1777960D02*
X4832206Y-1730341D01*
X4832206Y-1730341D02*
X4832206Y-1692246D01*
X4832206Y-1692246D02*
X4822682Y-1644627D01*
X4822682Y-1644627D02*
X4813158Y-1616055D01*
X4813158Y-1616055D02*
X4803634Y-1597008D01*
X4803634Y-1597008D02*
X4784587Y-1568436D01*
X4784587Y-1568436D02*
X4775063Y-1558912D01*
D13*
X-120000Y-1900000D02*
X0Y-2020000D01*
X0Y-1900000D02*
X-120000Y-2020000D01*
X0Y-1960000D02*
G75*
G02*
X-120000Y-1960000I-60000J0D01*
G01*
X-120000Y-1960000D02*
G75*
G02*
X0Y-1960000I60000J0D01*
G01*
D10*
X365539Y-2051484D02*
X251253Y-2051484D01*
X308396Y-2051484D02*
X308396Y-1851484D01*
X308396Y-1851484D02*
X289348Y-1880055D01*
X289348Y-1880055D02*
X270301Y-1899103D01*
X270301Y-1899103D02*
X251253Y-1908627D01*
X451253Y-2032436D02*
X460777Y-2041960D01*
X460777Y-2041960D02*
X451253Y-2051484D01*
X451253Y-2051484D02*
X441729Y-2041960D01*
X441729Y-2041960D02*
X451253Y-2032436D01*
X451253Y-2032436D02*
X451253Y-2051484D01*
X536967Y-1870531D02*
X546491Y-1861008D01*
X546491Y-1861008D02*
X565539Y-1851484D01*
X565539Y-1851484D02*
X613158Y-1851484D01*
X613158Y-1851484D02*
X632205Y-1861008D01*
X632205Y-1861008D02*
X641729Y-1870531D01*
X641729Y-1870531D02*
X651253Y-1889579D01*
X651253Y-1889579D02*
X651253Y-1908627D01*
X651253Y-1908627D02*
X641729Y-1937198D01*
X641729Y-1937198D02*
X527444Y-2051484D01*
X527444Y-2051484D02*
X651253Y-2051484D01*
X775062Y-1851484D02*
X794110Y-1851484D01*
X794110Y-1851484D02*
X813158Y-1861008D01*
X813158Y-1861008D02*
X822682Y-1870531D01*
X822682Y-1870531D02*
X832205Y-1889579D01*
X832205Y-1889579D02*
X841729Y-1927674D01*
X841729Y-1927674D02*
X841729Y-1975293D01*
X841729Y-1975293D02*
X832205Y-2013388D01*
X832205Y-2013388D02*
X822682Y-2032436D01*
X822682Y-2032436D02*
X813158Y-2041960D01*
X813158Y-2041960D02*
X794110Y-2051484D01*
X794110Y-2051484D02*
X775062Y-2051484D01*
X775062Y-2051484D02*
X756015Y-2041960D01*
X756015Y-2041960D02*
X746491Y-2032436D01*
X746491Y-2032436D02*
X736967Y-2013388D01*
X736967Y-2013388D02*
X727443Y-1975293D01*
X727443Y-1975293D02*
X727443Y-1927674D01*
X727443Y-1927674D02*
X736967Y-1889579D01*
X736967Y-1889579D02*
X746491Y-1870531D01*
X746491Y-1870531D02*
X756015Y-1861008D01*
X756015Y-1861008D02*
X775062Y-1851484D01*
X965539Y-1851484D02*
X984586Y-1851484D01*
X984586Y-1851484D02*
X1003634Y-1861008D01*
X1003634Y-1861008D02*
X1013158Y-1870531D01*
X1013158Y-1870531D02*
X1022682Y-1889579D01*
X1022682Y-1889579D02*
X1032205Y-1927674D01*
X1032205Y-1927674D02*
X1032205Y-1975293D01*
X1032205Y-1975293D02*
X1022682Y-2013388D01*
X1022682Y-2013388D02*
X1013158Y-2032436D01*
X1013158Y-2032436D02*
X1003634Y-2041960D01*
X1003634Y-2041960D02*
X984586Y-2051484D01*
X984586Y-2051484D02*
X965539Y-2051484D01*
X965539Y-2051484D02*
X946491Y-2041960D01*
X946491Y-2041960D02*
X936967Y-2032436D01*
X936967Y-2032436D02*
X927443Y-2013388D01*
X927443Y-2013388D02*
X917920Y-1975293D01*
X917920Y-1975293D02*
X917920Y-1927674D01*
X917920Y-1927674D02*
X927443Y-1889579D01*
X927443Y-1889579D02*
X936967Y-1870531D01*
X936967Y-1870531D02*
X946491Y-1861008D01*
X946491Y-1861008D02*
X965539Y-1851484D01*
X1117920Y-2051484D02*
X1117920Y-1918150D01*
X1117920Y-1937198D02*
X1127444Y-1927674D01*
X1127444Y-1927674D02*
X1146491Y-1918150D01*
X1146491Y-1918150D02*
X1175063Y-1918150D01*
X1175063Y-1918150D02*
X1194110Y-1927674D01*
X1194110Y-1927674D02*
X1203634Y-1946722D01*
X1203634Y-1946722D02*
X1203634Y-2051484D01*
X1203634Y-1946722D02*
X1213158Y-1927674D01*
X1213158Y-1927674D02*
X1232205Y-1918150D01*
X1232205Y-1918150D02*
X1260777Y-1918150D01*
X1260777Y-1918150D02*
X1279825Y-1927674D01*
X1279825Y-1927674D02*
X1289348Y-1946722D01*
X1289348Y-1946722D02*
X1289348Y-2051484D01*
X1384586Y-2051484D02*
X1384586Y-1918150D01*
X1384586Y-1937198D02*
X1394110Y-1927674D01*
X1394110Y-1927674D02*
X1413158Y-1918150D01*
X1413158Y-1918150D02*
X1441729Y-1918150D01*
X1441729Y-1918150D02*
X1460777Y-1927674D01*
X1460777Y-1927674D02*
X1470301Y-1946722D01*
X1470301Y-1946722D02*
X1470301Y-2051484D01*
X1470301Y-1946722D02*
X1479824Y-1927674D01*
X1479824Y-1927674D02*
X1498872Y-1918150D01*
X1498872Y-1918150D02*
X1527443Y-1918150D01*
X1527443Y-1918150D02*
X1546491Y-1927674D01*
X1546491Y-1927674D02*
X1556015Y-1946722D01*
X1556015Y-1946722D02*
X1556015Y-2051484D01*
X1946491Y-1841960D02*
X1775063Y-2099103D01*
X2203634Y-1851484D02*
X2222682Y-1851484D01*
X2222682Y-1851484D02*
X2241729Y-1861008D01*
X2241729Y-1861008D02*
X2251253Y-1870531D01*
X2251253Y-1870531D02*
X2260777Y-1889579D01*
X2260777Y-1889579D02*
X2270301Y-1927674D01*
X2270301Y-1927674D02*
X2270301Y-1975293D01*
X2270301Y-1975293D02*
X2260777Y-2013388D01*
X2260777Y-2013388D02*
X2251253Y-2032436D01*
X2251253Y-2032436D02*
X2241729Y-2041960D01*
X2241729Y-2041960D02*
X2222682Y-2051484D01*
X2222682Y-2051484D02*
X2203634Y-2051484D01*
X2203634Y-2051484D02*
X2184587Y-2041960D01*
X2184587Y-2041960D02*
X2175063Y-2032436D01*
X2175063Y-2032436D02*
X2165539Y-2013388D01*
X2165539Y-2013388D02*
X2156015Y-1975293D01*
X2156015Y-1975293D02*
X2156015Y-1927674D01*
X2156015Y-1927674D02*
X2165539Y-1889579D01*
X2165539Y-1889579D02*
X2175063Y-1870531D01*
X2175063Y-1870531D02*
X2184587Y-1861008D01*
X2184587Y-1861008D02*
X2203634Y-1851484D01*
X2356015Y-2032436D02*
X2365539Y-2041960D01*
X2365539Y-2041960D02*
X2356015Y-2051484D01*
X2356015Y-2051484D02*
X2346491Y-2041960D01*
X2346491Y-2041960D02*
X2356015Y-2032436D01*
X2356015Y-2032436D02*
X2356015Y-2051484D01*
X2489348Y-1851484D02*
X2508396Y-1851484D01*
X2508396Y-1851484D02*
X2527444Y-1861008D01*
X2527444Y-1861008D02*
X2536968Y-1870531D01*
X2536968Y-1870531D02*
X2546491Y-1889579D01*
X2546491Y-1889579D02*
X2556015Y-1927674D01*
X2556015Y-1927674D02*
X2556015Y-1975293D01*
X2556015Y-1975293D02*
X2546491Y-2013388D01*
X2546491Y-2013388D02*
X2536968Y-2032436D01*
X2536968Y-2032436D02*
X2527444Y-2041960D01*
X2527444Y-2041960D02*
X2508396Y-2051484D01*
X2508396Y-2051484D02*
X2489348Y-2051484D01*
X2489348Y-2051484D02*
X2470301Y-2041960D01*
X2470301Y-2041960D02*
X2460777Y-2032436D01*
X2460777Y-2032436D02*
X2451253Y-2013388D01*
X2451253Y-2013388D02*
X2441729Y-1975293D01*
X2441729Y-1975293D02*
X2441729Y-1927674D01*
X2441729Y-1927674D02*
X2451253Y-1889579D01*
X2451253Y-1889579D02*
X2460777Y-1870531D01*
X2460777Y-1870531D02*
X2470301Y-1861008D01*
X2470301Y-1861008D02*
X2489348Y-1851484D01*
X2727444Y-1918150D02*
X2727444Y-2051484D01*
X2679825Y-1841960D02*
X2632206Y-1984817D01*
X2632206Y-1984817D02*
X2756015Y-1984817D01*
X2813158Y-1851484D02*
X2946491Y-1851484D01*
X2946491Y-1851484D02*
X2860777Y-2051484D01*
X3013158Y-1870531D02*
X3022682Y-1861008D01*
X3022682Y-1861008D02*
X3041729Y-1851484D01*
X3041729Y-1851484D02*
X3089348Y-1851484D01*
X3089348Y-1851484D02*
X3108396Y-1861008D01*
X3108396Y-1861008D02*
X3117920Y-1870531D01*
X3117920Y-1870531D02*
X3127444Y-1889579D01*
X3127444Y-1889579D02*
X3127444Y-1908627D01*
X3127444Y-1908627D02*
X3117920Y-1937198D01*
X3117920Y-1937198D02*
X3003634Y-2051484D01*
X3003634Y-2051484D02*
X3127444Y-2051484D01*
X3203634Y-1851484D02*
X3203634Y-1889579D01*
X3279825Y-1851484D02*
X3279825Y-1889579D01*
X3575063Y-2127674D02*
X3565539Y-2118150D01*
X3565539Y-2118150D02*
X3546491Y-2089579D01*
X3546491Y-2089579D02*
X3536968Y-2070531D01*
X3536968Y-2070531D02*
X3527444Y-2041960D01*
X3527444Y-2041960D02*
X3517920Y-1994341D01*
X3517920Y-1994341D02*
X3517920Y-1956246D01*
X3517920Y-1956246D02*
X3527444Y-1908627D01*
X3527444Y-1908627D02*
X3536968Y-1880055D01*
X3536968Y-1880055D02*
X3546491Y-1861008D01*
X3546491Y-1861008D02*
X3565539Y-1832436D01*
X3565539Y-1832436D02*
X3575063Y-1822912D01*
X3641729Y-1870531D02*
X3651253Y-1861008D01*
X3651253Y-1861008D02*
X3670301Y-1851484D01*
X3670301Y-1851484D02*
X3717920Y-1851484D01*
X3717920Y-1851484D02*
X3736968Y-1861008D01*
X3736968Y-1861008D02*
X3746491Y-1870531D01*
X3746491Y-1870531D02*
X3756015Y-1889579D01*
X3756015Y-1889579D02*
X3756015Y-1908627D01*
X3756015Y-1908627D02*
X3746491Y-1937198D01*
X3746491Y-1937198D02*
X3632206Y-2051484D01*
X3632206Y-2051484D02*
X3756015Y-2051484D01*
X3994110Y-2051484D02*
X3994110Y-1851484D01*
X4079825Y-2051484D02*
X4079825Y-1946722D01*
X4079825Y-1946722D02*
X4070301Y-1927674D01*
X4070301Y-1927674D02*
X4051253Y-1918150D01*
X4051253Y-1918150D02*
X4022682Y-1918150D01*
X4022682Y-1918150D02*
X4003634Y-1927674D01*
X4003634Y-1927674D02*
X3994110Y-1937198D01*
X4203634Y-2051484D02*
X4184587Y-2041960D01*
X4184587Y-2041960D02*
X4175063Y-2032436D01*
X4175063Y-2032436D02*
X4165539Y-2013388D01*
X4165539Y-2013388D02*
X4165539Y-1956246D01*
X4165539Y-1956246D02*
X4175063Y-1937198D01*
X4175063Y-1937198D02*
X4184587Y-1927674D01*
X4184587Y-1927674D02*
X4203634Y-1918150D01*
X4203634Y-1918150D02*
X4232206Y-1918150D01*
X4232206Y-1918150D02*
X4251253Y-1927674D01*
X4251253Y-1927674D02*
X4260777Y-1937198D01*
X4260777Y-1937198D02*
X4270301Y-1956246D01*
X4270301Y-1956246D02*
X4270301Y-2013388D01*
X4270301Y-2013388D02*
X4260777Y-2032436D01*
X4260777Y-2032436D02*
X4251253Y-2041960D01*
X4251253Y-2041960D02*
X4232206Y-2051484D01*
X4232206Y-2051484D02*
X4203634Y-2051484D01*
X4384587Y-2051484D02*
X4365539Y-2041960D01*
X4365539Y-2041960D02*
X4356015Y-2022912D01*
X4356015Y-2022912D02*
X4356015Y-1851484D01*
X4536968Y-2041960D02*
X4517920Y-2051484D01*
X4517920Y-2051484D02*
X4479825Y-2051484D01*
X4479825Y-2051484D02*
X4460777Y-2041960D01*
X4460777Y-2041960D02*
X4451253Y-2022912D01*
X4451253Y-2022912D02*
X4451253Y-1946722D01*
X4451253Y-1946722D02*
X4460777Y-1927674D01*
X4460777Y-1927674D02*
X4479825Y-1918150D01*
X4479825Y-1918150D02*
X4517920Y-1918150D01*
X4517920Y-1918150D02*
X4536968Y-1927674D01*
X4536968Y-1927674D02*
X4546492Y-1946722D01*
X4546492Y-1946722D02*
X4546492Y-1965769D01*
X4546492Y-1965769D02*
X4451253Y-1984817D01*
X4622682Y-2041960D02*
X4641730Y-2051484D01*
X4641730Y-2051484D02*
X4679825Y-2051484D01*
X4679825Y-2051484D02*
X4698873Y-2041960D01*
X4698873Y-2041960D02*
X4708396Y-2022912D01*
X4708396Y-2022912D02*
X4708396Y-2013388D01*
X4708396Y-2013388D02*
X4698873Y-1994341D01*
X4698873Y-1994341D02*
X4679825Y-1984817D01*
X4679825Y-1984817D02*
X4651253Y-1984817D01*
X4651253Y-1984817D02*
X4632206Y-1975293D01*
X4632206Y-1975293D02*
X4622682Y-1956246D01*
X4622682Y-1956246D02*
X4622682Y-1946722D01*
X4622682Y-1946722D02*
X4632206Y-1927674D01*
X4632206Y-1927674D02*
X4651253Y-1918150D01*
X4651253Y-1918150D02*
X4679825Y-1918150D01*
X4679825Y-1918150D02*
X4698873Y-1927674D01*
X4775063Y-2127674D02*
X4784587Y-2118150D01*
X4784587Y-2118150D02*
X4803634Y-2089579D01*
X4803634Y-2089579D02*
X4813158Y-2070531D01*
X4813158Y-2070531D02*
X4822682Y-2041960D01*
X4822682Y-2041960D02*
X4832206Y-1994341D01*
X4832206Y-1994341D02*
X4832206Y-1956246D01*
X4832206Y-1956246D02*
X4822682Y-1908627D01*
X4822682Y-1908627D02*
X4813158Y-1880055D01*
X4813158Y-1880055D02*
X4803634Y-1861008D01*
X4803634Y-1861008D02*
X4784587Y-1832436D01*
X4784587Y-1832436D02*
X4775063Y-1822912D01*
D14*
X-130000Y-2159000D02*
X0Y-2289000D01*
X0Y-2159000D02*
X-130000Y-2289000D01*
X-65000Y-2159000D02*
X-65000Y-2289000D01*
X-130000Y-2224000D02*
X0Y-2224000D01*
D10*
X365539Y-2315484D02*
X251253Y-2315484D01*
X308396Y-2315484D02*
X308396Y-2115484D01*
X308396Y-2115484D02*
X289348Y-2144055D01*
X289348Y-2144055D02*
X270301Y-2163103D01*
X270301Y-2163103D02*
X251253Y-2172627D01*
X451253Y-2296436D02*
X460777Y-2305960D01*
X460777Y-2305960D02*
X451253Y-2315484D01*
X451253Y-2315484D02*
X441729Y-2305960D01*
X441729Y-2305960D02*
X451253Y-2296436D01*
X451253Y-2296436D02*
X451253Y-2315484D01*
X527444Y-2115484D02*
X651253Y-2115484D01*
X651253Y-2115484D02*
X584586Y-2191674D01*
X584586Y-2191674D02*
X613158Y-2191674D01*
X613158Y-2191674D02*
X632205Y-2201198D01*
X632205Y-2201198D02*
X641729Y-2210722D01*
X641729Y-2210722D02*
X651253Y-2229770D01*
X651253Y-2229770D02*
X651253Y-2277389D01*
X651253Y-2277389D02*
X641729Y-2296436D01*
X641729Y-2296436D02*
X632205Y-2305960D01*
X632205Y-2305960D02*
X613158Y-2315484D01*
X613158Y-2315484D02*
X556015Y-2315484D01*
X556015Y-2315484D02*
X536967Y-2305960D01*
X536967Y-2305960D02*
X527444Y-2296436D01*
X775062Y-2115484D02*
X794110Y-2115484D01*
X794110Y-2115484D02*
X813158Y-2125008D01*
X813158Y-2125008D02*
X822682Y-2134531D01*
X822682Y-2134531D02*
X832205Y-2153579D01*
X832205Y-2153579D02*
X841729Y-2191674D01*
X841729Y-2191674D02*
X841729Y-2239293D01*
X841729Y-2239293D02*
X832205Y-2277389D01*
X832205Y-2277389D02*
X822682Y-2296436D01*
X822682Y-2296436D02*
X813158Y-2305960D01*
X813158Y-2305960D02*
X794110Y-2315484D01*
X794110Y-2315484D02*
X775062Y-2315484D01*
X775062Y-2315484D02*
X756015Y-2305960D01*
X756015Y-2305960D02*
X746491Y-2296436D01*
X746491Y-2296436D02*
X736967Y-2277389D01*
X736967Y-2277389D02*
X727443Y-2239293D01*
X727443Y-2239293D02*
X727443Y-2191674D01*
X727443Y-2191674D02*
X736967Y-2153579D01*
X736967Y-2153579D02*
X746491Y-2134531D01*
X746491Y-2134531D02*
X756015Y-2125008D01*
X756015Y-2125008D02*
X775062Y-2115484D01*
X965539Y-2115484D02*
X984586Y-2115484D01*
X984586Y-2115484D02*
X1003634Y-2125008D01*
X1003634Y-2125008D02*
X1013158Y-2134531D01*
X1013158Y-2134531D02*
X1022682Y-2153579D01*
X1022682Y-2153579D02*
X1032205Y-2191674D01*
X1032205Y-2191674D02*
X1032205Y-2239293D01*
X1032205Y-2239293D02*
X1022682Y-2277389D01*
X1022682Y-2277389D02*
X1013158Y-2296436D01*
X1013158Y-2296436D02*
X1003634Y-2305960D01*
X1003634Y-2305960D02*
X984586Y-2315484D01*
X984586Y-2315484D02*
X965539Y-2315484D01*
X965539Y-2315484D02*
X946491Y-2305960D01*
X946491Y-2305960D02*
X936967Y-2296436D01*
X936967Y-2296436D02*
X927443Y-2277389D01*
X927443Y-2277389D02*
X917920Y-2239293D01*
X917920Y-2239293D02*
X917920Y-2191674D01*
X917920Y-2191674D02*
X927443Y-2153579D01*
X927443Y-2153579D02*
X936967Y-2134531D01*
X936967Y-2134531D02*
X946491Y-2125008D01*
X946491Y-2125008D02*
X965539Y-2115484D01*
X1117920Y-2315484D02*
X1117920Y-2182150D01*
X1117920Y-2201198D02*
X1127444Y-2191674D01*
X1127444Y-2191674D02*
X1146491Y-2182150D01*
X1146491Y-2182150D02*
X1175063Y-2182150D01*
X1175063Y-2182150D02*
X1194110Y-2191674D01*
X1194110Y-2191674D02*
X1203634Y-2210722D01*
X1203634Y-2210722D02*
X1203634Y-2315484D01*
X1203634Y-2210722D02*
X1213158Y-2191674D01*
X1213158Y-2191674D02*
X1232205Y-2182150D01*
X1232205Y-2182150D02*
X1260777Y-2182150D01*
X1260777Y-2182150D02*
X1279825Y-2191674D01*
X1279825Y-2191674D02*
X1289348Y-2210722D01*
X1289348Y-2210722D02*
X1289348Y-2315484D01*
X1384586Y-2315484D02*
X1384586Y-2182150D01*
X1384586Y-2201198D02*
X1394110Y-2191674D01*
X1394110Y-2191674D02*
X1413158Y-2182150D01*
X1413158Y-2182150D02*
X1441729Y-2182150D01*
X1441729Y-2182150D02*
X1460777Y-2191674D01*
X1460777Y-2191674D02*
X1470301Y-2210722D01*
X1470301Y-2210722D02*
X1470301Y-2315484D01*
X1470301Y-2210722D02*
X1479824Y-2191674D01*
X1479824Y-2191674D02*
X1498872Y-2182150D01*
X1498872Y-2182150D02*
X1527443Y-2182150D01*
X1527443Y-2182150D02*
X1546491Y-2191674D01*
X1546491Y-2191674D02*
X1556015Y-2210722D01*
X1556015Y-2210722D02*
X1556015Y-2315484D01*
X1946491Y-2105960D02*
X1775063Y-2363103D01*
X2203634Y-2115484D02*
X2222682Y-2115484D01*
X2222682Y-2115484D02*
X2241729Y-2125008D01*
X2241729Y-2125008D02*
X2251253Y-2134531D01*
X2251253Y-2134531D02*
X2260777Y-2153579D01*
X2260777Y-2153579D02*
X2270301Y-2191674D01*
X2270301Y-2191674D02*
X2270301Y-2239293D01*
X2270301Y-2239293D02*
X2260777Y-2277389D01*
X2260777Y-2277389D02*
X2251253Y-2296436D01*
X2251253Y-2296436D02*
X2241729Y-2305960D01*
X2241729Y-2305960D02*
X2222682Y-2315484D01*
X2222682Y-2315484D02*
X2203634Y-2315484D01*
X2203634Y-2315484D02*
X2184587Y-2305960D01*
X2184587Y-2305960D02*
X2175063Y-2296436D01*
X2175063Y-2296436D02*
X2165539Y-2277389D01*
X2165539Y-2277389D02*
X2156015Y-2239293D01*
X2156015Y-2239293D02*
X2156015Y-2191674D01*
X2156015Y-2191674D02*
X2165539Y-2153579D01*
X2165539Y-2153579D02*
X2175063Y-2134531D01*
X2175063Y-2134531D02*
X2184587Y-2125008D01*
X2184587Y-2125008D02*
X2203634Y-2115484D01*
X2356015Y-2296436D02*
X2365539Y-2305960D01*
X2365539Y-2305960D02*
X2356015Y-2315484D01*
X2356015Y-2315484D02*
X2346491Y-2305960D01*
X2346491Y-2305960D02*
X2356015Y-2296436D01*
X2356015Y-2296436D02*
X2356015Y-2315484D01*
X2489348Y-2115484D02*
X2508396Y-2115484D01*
X2508396Y-2115484D02*
X2527444Y-2125008D01*
X2527444Y-2125008D02*
X2536968Y-2134531D01*
X2536968Y-2134531D02*
X2546491Y-2153579D01*
X2546491Y-2153579D02*
X2556015Y-2191674D01*
X2556015Y-2191674D02*
X2556015Y-2239293D01*
X2556015Y-2239293D02*
X2546491Y-2277389D01*
X2546491Y-2277389D02*
X2536968Y-2296436D01*
X2536968Y-2296436D02*
X2527444Y-2305960D01*
X2527444Y-2305960D02*
X2508396Y-2315484D01*
X2508396Y-2315484D02*
X2489348Y-2315484D01*
X2489348Y-2315484D02*
X2470301Y-2305960D01*
X2470301Y-2305960D02*
X2460777Y-2296436D01*
X2460777Y-2296436D02*
X2451253Y-2277389D01*
X2451253Y-2277389D02*
X2441729Y-2239293D01*
X2441729Y-2239293D02*
X2441729Y-2191674D01*
X2441729Y-2191674D02*
X2451253Y-2153579D01*
X2451253Y-2153579D02*
X2460777Y-2134531D01*
X2460777Y-2134531D02*
X2470301Y-2125008D01*
X2470301Y-2125008D02*
X2489348Y-2115484D01*
X2736968Y-2115484D02*
X2641729Y-2115484D01*
X2641729Y-2115484D02*
X2632206Y-2210722D01*
X2632206Y-2210722D02*
X2641729Y-2201198D01*
X2641729Y-2201198D02*
X2660777Y-2191674D01*
X2660777Y-2191674D02*
X2708396Y-2191674D01*
X2708396Y-2191674D02*
X2727444Y-2201198D01*
X2727444Y-2201198D02*
X2736968Y-2210722D01*
X2736968Y-2210722D02*
X2746491Y-2229770D01*
X2746491Y-2229770D02*
X2746491Y-2277389D01*
X2746491Y-2277389D02*
X2736968Y-2296436D01*
X2736968Y-2296436D02*
X2727444Y-2305960D01*
X2727444Y-2305960D02*
X2708396Y-2315484D01*
X2708396Y-2315484D02*
X2660777Y-2315484D01*
X2660777Y-2315484D02*
X2641729Y-2305960D01*
X2641729Y-2305960D02*
X2632206Y-2296436D01*
X2936967Y-2315484D02*
X2822682Y-2315484D01*
X2879825Y-2315484D02*
X2879825Y-2115484D01*
X2879825Y-2115484D02*
X2860777Y-2144055D01*
X2860777Y-2144055D02*
X2841729Y-2163103D01*
X2841729Y-2163103D02*
X2822682Y-2172627D01*
X3013158Y-2134531D02*
X3022682Y-2125008D01*
X3022682Y-2125008D02*
X3041729Y-2115484D01*
X3041729Y-2115484D02*
X3089348Y-2115484D01*
X3089348Y-2115484D02*
X3108396Y-2125008D01*
X3108396Y-2125008D02*
X3117920Y-2134531D01*
X3117920Y-2134531D02*
X3127444Y-2153579D01*
X3127444Y-2153579D02*
X3127444Y-2172627D01*
X3127444Y-2172627D02*
X3117920Y-2201198D01*
X3117920Y-2201198D02*
X3003634Y-2315484D01*
X3003634Y-2315484D02*
X3127444Y-2315484D01*
X3203634Y-2115484D02*
X3203634Y-2153579D01*
X3279825Y-2115484D02*
X3279825Y-2153579D01*
X3575063Y-2391674D02*
X3565539Y-2382150D01*
X3565539Y-2382150D02*
X3546491Y-2353579D01*
X3546491Y-2353579D02*
X3536968Y-2334531D01*
X3536968Y-2334531D02*
X3527444Y-2305960D01*
X3527444Y-2305960D02*
X3517920Y-2258341D01*
X3517920Y-2258341D02*
X3517920Y-2220246D01*
X3517920Y-2220246D02*
X3527444Y-2172627D01*
X3527444Y-2172627D02*
X3536968Y-2144055D01*
X3536968Y-2144055D02*
X3546491Y-2125008D01*
X3546491Y-2125008D02*
X3565539Y-2096436D01*
X3565539Y-2096436D02*
X3575063Y-2086912D01*
X3660777Y-2315484D02*
X3698872Y-2315484D01*
X3698872Y-2315484D02*
X3717920Y-2305960D01*
X3717920Y-2305960D02*
X3727444Y-2296436D01*
X3727444Y-2296436D02*
X3746491Y-2267865D01*
X3746491Y-2267865D02*
X3756015Y-2229770D01*
X3756015Y-2229770D02*
X3756015Y-2153579D01*
X3756015Y-2153579D02*
X3746491Y-2134531D01*
X3746491Y-2134531D02*
X3736968Y-2125008D01*
X3736968Y-2125008D02*
X3717920Y-2115484D01*
X3717920Y-2115484D02*
X3679825Y-2115484D01*
X3679825Y-2115484D02*
X3660777Y-2125008D01*
X3660777Y-2125008D02*
X3651253Y-2134531D01*
X3651253Y-2134531D02*
X3641729Y-2153579D01*
X3641729Y-2153579D02*
X3641729Y-2201198D01*
X3641729Y-2201198D02*
X3651253Y-2220246D01*
X3651253Y-2220246D02*
X3660777Y-2229770D01*
X3660777Y-2229770D02*
X3679825Y-2239293D01*
X3679825Y-2239293D02*
X3717920Y-2239293D01*
X3717920Y-2239293D02*
X3736968Y-2229770D01*
X3736968Y-2229770D02*
X3746491Y-2220246D01*
X3746491Y-2220246D02*
X3756015Y-2201198D01*
X3994110Y-2315484D02*
X3994110Y-2115484D01*
X4079825Y-2315484D02*
X4079825Y-2210722D01*
X4079825Y-2210722D02*
X4070301Y-2191674D01*
X4070301Y-2191674D02*
X4051253Y-2182150D01*
X4051253Y-2182150D02*
X4022682Y-2182150D01*
X4022682Y-2182150D02*
X4003634Y-2191674D01*
X4003634Y-2191674D02*
X3994110Y-2201198D01*
X4203634Y-2315484D02*
X4184587Y-2305960D01*
X4184587Y-2305960D02*
X4175063Y-2296436D01*
X4175063Y-2296436D02*
X4165539Y-2277389D01*
X4165539Y-2277389D02*
X4165539Y-2220246D01*
X4165539Y-2220246D02*
X4175063Y-2201198D01*
X4175063Y-2201198D02*
X4184587Y-2191674D01*
X4184587Y-2191674D02*
X4203634Y-2182150D01*
X4203634Y-2182150D02*
X4232206Y-2182150D01*
X4232206Y-2182150D02*
X4251253Y-2191674D01*
X4251253Y-2191674D02*
X4260777Y-2201198D01*
X4260777Y-2201198D02*
X4270301Y-2220246D01*
X4270301Y-2220246D02*
X4270301Y-2277389D01*
X4270301Y-2277389D02*
X4260777Y-2296436D01*
X4260777Y-2296436D02*
X4251253Y-2305960D01*
X4251253Y-2305960D02*
X4232206Y-2315484D01*
X4232206Y-2315484D02*
X4203634Y-2315484D01*
X4384587Y-2315484D02*
X4365539Y-2305960D01*
X4365539Y-2305960D02*
X4356015Y-2286912D01*
X4356015Y-2286912D02*
X4356015Y-2115484D01*
X4536968Y-2305960D02*
X4517920Y-2315484D01*
X4517920Y-2315484D02*
X4479825Y-2315484D01*
X4479825Y-2315484D02*
X4460777Y-2305960D01*
X4460777Y-2305960D02*
X4451253Y-2286912D01*
X4451253Y-2286912D02*
X4451253Y-2210722D01*
X4451253Y-2210722D02*
X4460777Y-2191674D01*
X4460777Y-2191674D02*
X4479825Y-2182150D01*
X4479825Y-2182150D02*
X4517920Y-2182150D01*
X4517920Y-2182150D02*
X4536968Y-2191674D01*
X4536968Y-2191674D02*
X4546492Y-2210722D01*
X4546492Y-2210722D02*
X4546492Y-2229770D01*
X4546492Y-2229770D02*
X4451253Y-2248817D01*
X4622682Y-2305960D02*
X4641730Y-2315484D01*
X4641730Y-2315484D02*
X4679825Y-2315484D01*
X4679825Y-2315484D02*
X4698873Y-2305960D01*
X4698873Y-2305960D02*
X4708396Y-2286912D01*
X4708396Y-2286912D02*
X4708396Y-2277389D01*
X4708396Y-2277389D02*
X4698873Y-2258341D01*
X4698873Y-2258341D02*
X4679825Y-2248817D01*
X4679825Y-2248817D02*
X4651253Y-2248817D01*
X4651253Y-2248817D02*
X4632206Y-2239293D01*
X4632206Y-2239293D02*
X4622682Y-2220246D01*
X4622682Y-2220246D02*
X4622682Y-2210722D01*
X4622682Y-2210722D02*
X4632206Y-2191674D01*
X4632206Y-2191674D02*
X4651253Y-2182150D01*
X4651253Y-2182150D02*
X4679825Y-2182150D01*
X4679825Y-2182150D02*
X4698873Y-2191674D01*
X4775063Y-2391674D02*
X4784587Y-2382150D01*
X4784587Y-2382150D02*
X4803634Y-2353579D01*
X4803634Y-2353579D02*
X4813158Y-2334531D01*
X4813158Y-2334531D02*
X4822682Y-2305960D01*
X4822682Y-2305960D02*
X4832206Y-2258341D01*
X4832206Y-2258341D02*
X4832206Y-2220246D01*
X4832206Y-2220246D02*
X4822682Y-2172627D01*
X4822682Y-2172627D02*
X4813158Y-2144055D01*
X4813158Y-2144055D02*
X4803634Y-2125008D01*
X4803634Y-2125008D02*
X4784587Y-2096436D01*
X4784587Y-2096436D02*
X4775063Y-2086912D01*
D15*
X-140000Y-2418000D02*
X0Y-2558000D01*
X0Y-2418000D02*
X-140000Y-2558000D01*
X-20502Y-2537498D02*
X-20502Y-2438502D01*
X-119498Y-2438502D01*
X-119498Y-2537498D01*
X-20502Y-2537498D01*
D10*
X365539Y-2579484D02*
X251253Y-2579484D01*
X308396Y-2579484D02*
X308396Y-2379484D01*
X308396Y-2379484D02*
X289348Y-2408055D01*
X289348Y-2408055D02*
X270301Y-2427103D01*
X270301Y-2427103D02*
X251253Y-2436627D01*
X451253Y-2560436D02*
X460777Y-2569960D01*
X460777Y-2569960D02*
X451253Y-2579484D01*
X451253Y-2579484D02*
X441729Y-2569960D01*
X441729Y-2569960D02*
X451253Y-2560436D01*
X451253Y-2560436D02*
X451253Y-2579484D01*
X632205Y-2446150D02*
X632205Y-2579484D01*
X584586Y-2369960D02*
X536967Y-2512817D01*
X536967Y-2512817D02*
X660777Y-2512817D01*
X775062Y-2379484D02*
X794110Y-2379484D01*
X794110Y-2379484D02*
X813158Y-2389008D01*
X813158Y-2389008D02*
X822682Y-2398531D01*
X822682Y-2398531D02*
X832205Y-2417579D01*
X832205Y-2417579D02*
X841729Y-2455674D01*
X841729Y-2455674D02*
X841729Y-2503293D01*
X841729Y-2503293D02*
X832205Y-2541389D01*
X832205Y-2541389D02*
X822682Y-2560436D01*
X822682Y-2560436D02*
X813158Y-2569960D01*
X813158Y-2569960D02*
X794110Y-2579484D01*
X794110Y-2579484D02*
X775062Y-2579484D01*
X775062Y-2579484D02*
X756015Y-2569960D01*
X756015Y-2569960D02*
X746491Y-2560436D01*
X746491Y-2560436D02*
X736967Y-2541389D01*
X736967Y-2541389D02*
X727443Y-2503293D01*
X727443Y-2503293D02*
X727443Y-2455674D01*
X727443Y-2455674D02*
X736967Y-2417579D01*
X736967Y-2417579D02*
X746491Y-2398531D01*
X746491Y-2398531D02*
X756015Y-2389008D01*
X756015Y-2389008D02*
X775062Y-2379484D01*
X965539Y-2379484D02*
X984586Y-2379484D01*
X984586Y-2379484D02*
X1003634Y-2389008D01*
X1003634Y-2389008D02*
X1013158Y-2398531D01*
X1013158Y-2398531D02*
X1022682Y-2417579D01*
X1022682Y-2417579D02*
X1032205Y-2455674D01*
X1032205Y-2455674D02*
X1032205Y-2503293D01*
X1032205Y-2503293D02*
X1022682Y-2541389D01*
X1022682Y-2541389D02*
X1013158Y-2560436D01*
X1013158Y-2560436D02*
X1003634Y-2569960D01*
X1003634Y-2569960D02*
X984586Y-2579484D01*
X984586Y-2579484D02*
X965539Y-2579484D01*
X965539Y-2579484D02*
X946491Y-2569960D01*
X946491Y-2569960D02*
X936967Y-2560436D01*
X936967Y-2560436D02*
X927443Y-2541389D01*
X927443Y-2541389D02*
X917920Y-2503293D01*
X917920Y-2503293D02*
X917920Y-2455674D01*
X917920Y-2455674D02*
X927443Y-2417579D01*
X927443Y-2417579D02*
X936967Y-2398531D01*
X936967Y-2398531D02*
X946491Y-2389008D01*
X946491Y-2389008D02*
X965539Y-2379484D01*
X1117920Y-2579484D02*
X1117920Y-2446150D01*
X1117920Y-2465198D02*
X1127444Y-2455674D01*
X1127444Y-2455674D02*
X1146491Y-2446150D01*
X1146491Y-2446150D02*
X1175063Y-2446150D01*
X1175063Y-2446150D02*
X1194110Y-2455674D01*
X1194110Y-2455674D02*
X1203634Y-2474722D01*
X1203634Y-2474722D02*
X1203634Y-2579484D01*
X1203634Y-2474722D02*
X1213158Y-2455674D01*
X1213158Y-2455674D02*
X1232205Y-2446150D01*
X1232205Y-2446150D02*
X1260777Y-2446150D01*
X1260777Y-2446150D02*
X1279825Y-2455674D01*
X1279825Y-2455674D02*
X1289348Y-2474722D01*
X1289348Y-2474722D02*
X1289348Y-2579484D01*
X1384586Y-2579484D02*
X1384586Y-2446150D01*
X1384586Y-2465198D02*
X1394110Y-2455674D01*
X1394110Y-2455674D02*
X1413158Y-2446150D01*
X1413158Y-2446150D02*
X1441729Y-2446150D01*
X1441729Y-2446150D02*
X1460777Y-2455674D01*
X1460777Y-2455674D02*
X1470301Y-2474722D01*
X1470301Y-2474722D02*
X1470301Y-2579484D01*
X1470301Y-2474722D02*
X1479824Y-2455674D01*
X1479824Y-2455674D02*
X1498872Y-2446150D01*
X1498872Y-2446150D02*
X1527443Y-2446150D01*
X1527443Y-2446150D02*
X1546491Y-2455674D01*
X1546491Y-2455674D02*
X1556015Y-2474722D01*
X1556015Y-2474722D02*
X1556015Y-2579484D01*
X1946491Y-2369960D02*
X1775063Y-2627103D01*
X2203634Y-2379484D02*
X2222682Y-2379484D01*
X2222682Y-2379484D02*
X2241729Y-2389008D01*
X2241729Y-2389008D02*
X2251253Y-2398531D01*
X2251253Y-2398531D02*
X2260777Y-2417579D01*
X2260777Y-2417579D02*
X2270301Y-2455674D01*
X2270301Y-2455674D02*
X2270301Y-2503293D01*
X2270301Y-2503293D02*
X2260777Y-2541389D01*
X2260777Y-2541389D02*
X2251253Y-2560436D01*
X2251253Y-2560436D02*
X2241729Y-2569960D01*
X2241729Y-2569960D02*
X2222682Y-2579484D01*
X2222682Y-2579484D02*
X2203634Y-2579484D01*
X2203634Y-2579484D02*
X2184587Y-2569960D01*
X2184587Y-2569960D02*
X2175063Y-2560436D01*
X2175063Y-2560436D02*
X2165539Y-2541389D01*
X2165539Y-2541389D02*
X2156015Y-2503293D01*
X2156015Y-2503293D02*
X2156015Y-2455674D01*
X2156015Y-2455674D02*
X2165539Y-2417579D01*
X2165539Y-2417579D02*
X2175063Y-2398531D01*
X2175063Y-2398531D02*
X2184587Y-2389008D01*
X2184587Y-2389008D02*
X2203634Y-2379484D01*
X2356015Y-2560436D02*
X2365539Y-2569960D01*
X2365539Y-2569960D02*
X2356015Y-2579484D01*
X2356015Y-2579484D02*
X2346491Y-2569960D01*
X2346491Y-2569960D02*
X2356015Y-2560436D01*
X2356015Y-2560436D02*
X2356015Y-2579484D01*
X2489348Y-2379484D02*
X2508396Y-2379484D01*
X2508396Y-2379484D02*
X2527444Y-2389008D01*
X2527444Y-2389008D02*
X2536968Y-2398531D01*
X2536968Y-2398531D02*
X2546491Y-2417579D01*
X2546491Y-2417579D02*
X2556015Y-2455674D01*
X2556015Y-2455674D02*
X2556015Y-2503293D01*
X2556015Y-2503293D02*
X2546491Y-2541389D01*
X2546491Y-2541389D02*
X2536968Y-2560436D01*
X2536968Y-2560436D02*
X2527444Y-2569960D01*
X2527444Y-2569960D02*
X2508396Y-2579484D01*
X2508396Y-2579484D02*
X2489348Y-2579484D01*
X2489348Y-2579484D02*
X2470301Y-2569960D01*
X2470301Y-2569960D02*
X2460777Y-2560436D01*
X2460777Y-2560436D02*
X2451253Y-2541389D01*
X2451253Y-2541389D02*
X2441729Y-2503293D01*
X2441729Y-2503293D02*
X2441729Y-2455674D01*
X2441729Y-2455674D02*
X2451253Y-2417579D01*
X2451253Y-2417579D02*
X2460777Y-2398531D01*
X2460777Y-2398531D02*
X2470301Y-2389008D01*
X2470301Y-2389008D02*
X2489348Y-2379484D01*
X2736968Y-2379484D02*
X2641729Y-2379484D01*
X2641729Y-2379484D02*
X2632206Y-2474722D01*
X2632206Y-2474722D02*
X2641729Y-2465198D01*
X2641729Y-2465198D02*
X2660777Y-2455674D01*
X2660777Y-2455674D02*
X2708396Y-2455674D01*
X2708396Y-2455674D02*
X2727444Y-2465198D01*
X2727444Y-2465198D02*
X2736968Y-2474722D01*
X2736968Y-2474722D02*
X2746491Y-2493770D01*
X2746491Y-2493770D02*
X2746491Y-2541389D01*
X2746491Y-2541389D02*
X2736968Y-2560436D01*
X2736968Y-2560436D02*
X2727444Y-2569960D01*
X2727444Y-2569960D02*
X2708396Y-2579484D01*
X2708396Y-2579484D02*
X2660777Y-2579484D01*
X2660777Y-2579484D02*
X2641729Y-2569960D01*
X2641729Y-2569960D02*
X2632206Y-2560436D01*
X2927444Y-2379484D02*
X2832206Y-2379484D01*
X2832206Y-2379484D02*
X2822682Y-2474722D01*
X2822682Y-2474722D02*
X2832206Y-2465198D01*
X2832206Y-2465198D02*
X2851253Y-2455674D01*
X2851253Y-2455674D02*
X2898872Y-2455674D01*
X2898872Y-2455674D02*
X2917920Y-2465198D01*
X2917920Y-2465198D02*
X2927444Y-2474722D01*
X2927444Y-2474722D02*
X2936967Y-2493770D01*
X2936967Y-2493770D02*
X2936967Y-2541389D01*
X2936967Y-2541389D02*
X2927444Y-2560436D01*
X2927444Y-2560436D02*
X2917920Y-2569960D01*
X2917920Y-2569960D02*
X2898872Y-2579484D01*
X2898872Y-2579484D02*
X2851253Y-2579484D01*
X2851253Y-2579484D02*
X2832206Y-2569960D01*
X2832206Y-2569960D02*
X2822682Y-2560436D01*
X3127444Y-2579484D02*
X3013158Y-2579484D01*
X3070301Y-2579484D02*
X3070301Y-2379484D01*
X3070301Y-2379484D02*
X3051253Y-2408055D01*
X3051253Y-2408055D02*
X3032206Y-2427103D01*
X3032206Y-2427103D02*
X3013158Y-2436627D01*
X3203634Y-2379484D02*
X3203634Y-2417579D01*
X3279825Y-2379484D02*
X3279825Y-2417579D01*
X3575063Y-2655674D02*
X3565539Y-2646150D01*
X3565539Y-2646150D02*
X3546491Y-2617579D01*
X3546491Y-2617579D02*
X3536968Y-2598531D01*
X3536968Y-2598531D02*
X3527444Y-2569960D01*
X3527444Y-2569960D02*
X3517920Y-2522341D01*
X3517920Y-2522341D02*
X3517920Y-2484246D01*
X3517920Y-2484246D02*
X3527444Y-2436627D01*
X3527444Y-2436627D02*
X3536968Y-2408055D01*
X3536968Y-2408055D02*
X3546491Y-2389008D01*
X3546491Y-2389008D02*
X3565539Y-2360436D01*
X3565539Y-2360436D02*
X3575063Y-2350912D01*
X3641729Y-2398531D02*
X3651253Y-2389008D01*
X3651253Y-2389008D02*
X3670301Y-2379484D01*
X3670301Y-2379484D02*
X3717920Y-2379484D01*
X3717920Y-2379484D02*
X3736968Y-2389008D01*
X3736968Y-2389008D02*
X3746491Y-2398531D01*
X3746491Y-2398531D02*
X3756015Y-2417579D01*
X3756015Y-2417579D02*
X3756015Y-2436627D01*
X3756015Y-2436627D02*
X3746491Y-2465198D01*
X3746491Y-2465198D02*
X3632206Y-2579484D01*
X3632206Y-2579484D02*
X3756015Y-2579484D01*
X3994110Y-2579484D02*
X3994110Y-2379484D01*
X4079825Y-2579484D02*
X4079825Y-2474722D01*
X4079825Y-2474722D02*
X4070301Y-2455674D01*
X4070301Y-2455674D02*
X4051253Y-2446150D01*
X4051253Y-2446150D02*
X4022682Y-2446150D01*
X4022682Y-2446150D02*
X4003634Y-2455674D01*
X4003634Y-2455674D02*
X3994110Y-2465198D01*
X4203634Y-2579484D02*
X4184587Y-2569960D01*
X4184587Y-2569960D02*
X4175063Y-2560436D01*
X4175063Y-2560436D02*
X4165539Y-2541389D01*
X4165539Y-2541389D02*
X4165539Y-2484246D01*
X4165539Y-2484246D02*
X4175063Y-2465198D01*
X4175063Y-2465198D02*
X4184587Y-2455674D01*
X4184587Y-2455674D02*
X4203634Y-2446150D01*
X4203634Y-2446150D02*
X4232206Y-2446150D01*
X4232206Y-2446150D02*
X4251253Y-2455674D01*
X4251253Y-2455674D02*
X4260777Y-2465198D01*
X4260777Y-2465198D02*
X4270301Y-2484246D01*
X4270301Y-2484246D02*
X4270301Y-2541389D01*
X4270301Y-2541389D02*
X4260777Y-2560436D01*
X4260777Y-2560436D02*
X4251253Y-2569960D01*
X4251253Y-2569960D02*
X4232206Y-2579484D01*
X4232206Y-2579484D02*
X4203634Y-2579484D01*
X4384587Y-2579484D02*
X4365539Y-2569960D01*
X4365539Y-2569960D02*
X4356015Y-2550912D01*
X4356015Y-2550912D02*
X4356015Y-2379484D01*
X4536968Y-2569960D02*
X4517920Y-2579484D01*
X4517920Y-2579484D02*
X4479825Y-2579484D01*
X4479825Y-2579484D02*
X4460777Y-2569960D01*
X4460777Y-2569960D02*
X4451253Y-2550912D01*
X4451253Y-2550912D02*
X4451253Y-2474722D01*
X4451253Y-2474722D02*
X4460777Y-2455674D01*
X4460777Y-2455674D02*
X4479825Y-2446150D01*
X4479825Y-2446150D02*
X4517920Y-2446150D01*
X4517920Y-2446150D02*
X4536968Y-2455674D01*
X4536968Y-2455674D02*
X4546492Y-2474722D01*
X4546492Y-2474722D02*
X4546492Y-2493770D01*
X4546492Y-2493770D02*
X4451253Y-2512817D01*
X4622682Y-2569960D02*
X4641730Y-2579484D01*
X4641730Y-2579484D02*
X4679825Y-2579484D01*
X4679825Y-2579484D02*
X4698873Y-2569960D01*
X4698873Y-2569960D02*
X4708396Y-2550912D01*
X4708396Y-2550912D02*
X4708396Y-2541389D01*
X4708396Y-2541389D02*
X4698873Y-2522341D01*
X4698873Y-2522341D02*
X4679825Y-2512817D01*
X4679825Y-2512817D02*
X4651253Y-2512817D01*
X4651253Y-2512817D02*
X4632206Y-2503293D01*
X4632206Y-2503293D02*
X4622682Y-2484246D01*
X4622682Y-2484246D02*
X4622682Y-2474722D01*
X4622682Y-2474722D02*
X4632206Y-2455674D01*
X4632206Y-2455674D02*
X4651253Y-2446150D01*
X4651253Y-2446150D02*
X4679825Y-2446150D01*
X4679825Y-2446150D02*
X4698873Y-2455674D01*
X4775063Y-2655674D02*
X4784587Y-2646150D01*
X4784587Y-2646150D02*
X4803634Y-2617579D01*
X4803634Y-2617579D02*
X4813158Y-2598531D01*
X4813158Y-2598531D02*
X4822682Y-2569960D01*
X4822682Y-2569960D02*
X4832206Y-2522341D01*
X4832206Y-2522341D02*
X4832206Y-2484246D01*
X4832206Y-2484246D02*
X4822682Y-2436627D01*
X4822682Y-2436627D02*
X4813158Y-2408055D01*
X4813158Y-2408055D02*
X4803634Y-2389008D01*
X4803634Y-2389008D02*
X4784587Y-2360436D01*
X4784587Y-2360436D02*
X4775063Y-2350912D01*
X-200000Y-2652000D02*
X0Y-2852000D01*
X0Y-2652000D02*
X-200000Y-2852000D01*
X-100000Y-2852000D02*
X0Y-2752000D01*
X-100000Y-2652000D01*
X-200000Y-2752000D01*
X-100000Y-2852000D01*
X241729Y-2643484D02*
X365539Y-2643484D01*
X365539Y-2643484D02*
X298872Y-2719674D01*
X298872Y-2719674D02*
X327444Y-2719674D01*
X327444Y-2719674D02*
X346491Y-2729198D01*
X346491Y-2729198D02*
X356015Y-2738722D01*
X356015Y-2738722D02*
X365539Y-2757770D01*
X365539Y-2757770D02*
X365539Y-2805388D01*
X365539Y-2805388D02*
X356015Y-2824436D01*
X356015Y-2824436D02*
X346491Y-2833960D01*
X346491Y-2833960D02*
X327444Y-2843484D01*
X327444Y-2843484D02*
X270301Y-2843484D01*
X270301Y-2843484D02*
X251253Y-2833960D01*
X251253Y-2833960D02*
X241729Y-2824436D01*
X451253Y-2824436D02*
X460777Y-2833960D01*
X460777Y-2833960D02*
X451253Y-2843484D01*
X451253Y-2843484D02*
X441729Y-2833960D01*
X441729Y-2833960D02*
X451253Y-2824436D01*
X451253Y-2824436D02*
X451253Y-2843484D01*
X641729Y-2643484D02*
X546491Y-2643484D01*
X546491Y-2643484D02*
X536967Y-2738722D01*
X536967Y-2738722D02*
X546491Y-2729198D01*
X546491Y-2729198D02*
X565539Y-2719674D01*
X565539Y-2719674D02*
X613158Y-2719674D01*
X613158Y-2719674D02*
X632205Y-2729198D01*
X632205Y-2729198D02*
X641729Y-2738722D01*
X641729Y-2738722D02*
X651253Y-2757770D01*
X651253Y-2757770D02*
X651253Y-2805388D01*
X651253Y-2805388D02*
X641729Y-2824436D01*
X641729Y-2824436D02*
X632205Y-2833960D01*
X632205Y-2833960D02*
X613158Y-2843484D01*
X613158Y-2843484D02*
X565539Y-2843484D01*
X565539Y-2843484D02*
X546491Y-2833960D01*
X546491Y-2833960D02*
X536967Y-2824436D01*
X775062Y-2643484D02*
X794110Y-2643484D01*
X794110Y-2643484D02*
X813158Y-2653008D01*
X813158Y-2653008D02*
X822682Y-2662531D01*
X822682Y-2662531D02*
X832205Y-2681579D01*
X832205Y-2681579D02*
X841729Y-2719674D01*
X841729Y-2719674D02*
X841729Y-2767293D01*
X841729Y-2767293D02*
X832205Y-2805388D01*
X832205Y-2805388D02*
X822682Y-2824436D01*
X822682Y-2824436D02*
X813158Y-2833960D01*
X813158Y-2833960D02*
X794110Y-2843484D01*
X794110Y-2843484D02*
X775062Y-2843484D01*
X775062Y-2843484D02*
X756015Y-2833960D01*
X756015Y-2833960D02*
X746491Y-2824436D01*
X746491Y-2824436D02*
X736967Y-2805388D01*
X736967Y-2805388D02*
X727443Y-2767293D01*
X727443Y-2767293D02*
X727443Y-2719674D01*
X727443Y-2719674D02*
X736967Y-2681579D01*
X736967Y-2681579D02*
X746491Y-2662531D01*
X746491Y-2662531D02*
X756015Y-2653008D01*
X756015Y-2653008D02*
X775062Y-2643484D01*
X965539Y-2643484D02*
X984586Y-2643484D01*
X984586Y-2643484D02*
X1003634Y-2653008D01*
X1003634Y-2653008D02*
X1013158Y-2662531D01*
X1013158Y-2662531D02*
X1022682Y-2681579D01*
X1022682Y-2681579D02*
X1032205Y-2719674D01*
X1032205Y-2719674D02*
X1032205Y-2767293D01*
X1032205Y-2767293D02*
X1022682Y-2805388D01*
X1022682Y-2805388D02*
X1013158Y-2824436D01*
X1013158Y-2824436D02*
X1003634Y-2833960D01*
X1003634Y-2833960D02*
X984586Y-2843484D01*
X984586Y-2843484D02*
X965539Y-2843484D01*
X965539Y-2843484D02*
X946491Y-2833960D01*
X946491Y-2833960D02*
X936967Y-2824436D01*
X936967Y-2824436D02*
X927443Y-2805388D01*
X927443Y-2805388D02*
X917920Y-2767293D01*
X917920Y-2767293D02*
X917920Y-2719674D01*
X917920Y-2719674D02*
X927443Y-2681579D01*
X927443Y-2681579D02*
X936967Y-2662531D01*
X936967Y-2662531D02*
X946491Y-2653008D01*
X946491Y-2653008D02*
X965539Y-2643484D01*
X1117920Y-2843484D02*
X1117920Y-2710150D01*
X1117920Y-2729198D02*
X1127444Y-2719674D01*
X1127444Y-2719674D02*
X1146491Y-2710150D01*
X1146491Y-2710150D02*
X1175063Y-2710150D01*
X1175063Y-2710150D02*
X1194110Y-2719674D01*
X1194110Y-2719674D02*
X1203634Y-2738722D01*
X1203634Y-2738722D02*
X1203634Y-2843484D01*
X1203634Y-2738722D02*
X1213158Y-2719674D01*
X1213158Y-2719674D02*
X1232205Y-2710150D01*
X1232205Y-2710150D02*
X1260777Y-2710150D01*
X1260777Y-2710150D02*
X1279825Y-2719674D01*
X1279825Y-2719674D02*
X1289348Y-2738722D01*
X1289348Y-2738722D02*
X1289348Y-2843484D01*
X1384586Y-2843484D02*
X1384586Y-2710150D01*
X1384586Y-2729198D02*
X1394110Y-2719674D01*
X1394110Y-2719674D02*
X1413158Y-2710150D01*
X1413158Y-2710150D02*
X1441729Y-2710150D01*
X1441729Y-2710150D02*
X1460777Y-2719674D01*
X1460777Y-2719674D02*
X1470301Y-2738722D01*
X1470301Y-2738722D02*
X1470301Y-2843484D01*
X1470301Y-2738722D02*
X1479824Y-2719674D01*
X1479824Y-2719674D02*
X1498872Y-2710150D01*
X1498872Y-2710150D02*
X1527443Y-2710150D01*
X1527443Y-2710150D02*
X1546491Y-2719674D01*
X1546491Y-2719674D02*
X1556015Y-2738722D01*
X1556015Y-2738722D02*
X1556015Y-2843484D01*
X1946491Y-2633960D02*
X1775063Y-2891103D01*
X2203634Y-2643484D02*
X2222682Y-2643484D01*
X2222682Y-2643484D02*
X2241729Y-2653008D01*
X2241729Y-2653008D02*
X2251253Y-2662531D01*
X2251253Y-2662531D02*
X2260777Y-2681579D01*
X2260777Y-2681579D02*
X2270301Y-2719674D01*
X2270301Y-2719674D02*
X2270301Y-2767293D01*
X2270301Y-2767293D02*
X2260777Y-2805388D01*
X2260777Y-2805388D02*
X2251253Y-2824436D01*
X2251253Y-2824436D02*
X2241729Y-2833960D01*
X2241729Y-2833960D02*
X2222682Y-2843484D01*
X2222682Y-2843484D02*
X2203634Y-2843484D01*
X2203634Y-2843484D02*
X2184587Y-2833960D01*
X2184587Y-2833960D02*
X2175063Y-2824436D01*
X2175063Y-2824436D02*
X2165539Y-2805388D01*
X2165539Y-2805388D02*
X2156015Y-2767293D01*
X2156015Y-2767293D02*
X2156015Y-2719674D01*
X2156015Y-2719674D02*
X2165539Y-2681579D01*
X2165539Y-2681579D02*
X2175063Y-2662531D01*
X2175063Y-2662531D02*
X2184587Y-2653008D01*
X2184587Y-2653008D02*
X2203634Y-2643484D01*
X2356015Y-2824436D02*
X2365539Y-2833960D01*
X2365539Y-2833960D02*
X2356015Y-2843484D01*
X2356015Y-2843484D02*
X2346491Y-2833960D01*
X2346491Y-2833960D02*
X2356015Y-2824436D01*
X2356015Y-2824436D02*
X2356015Y-2843484D01*
X2556015Y-2843484D02*
X2441729Y-2843484D01*
X2498872Y-2843484D02*
X2498872Y-2643484D01*
X2498872Y-2643484D02*
X2479825Y-2672055D01*
X2479825Y-2672055D02*
X2460777Y-2691103D01*
X2460777Y-2691103D02*
X2441729Y-2700627D01*
X2622682Y-2643484D02*
X2746491Y-2643484D01*
X2746491Y-2643484D02*
X2679825Y-2719674D01*
X2679825Y-2719674D02*
X2708396Y-2719674D01*
X2708396Y-2719674D02*
X2727444Y-2729198D01*
X2727444Y-2729198D02*
X2736968Y-2738722D01*
X2736968Y-2738722D02*
X2746491Y-2757770D01*
X2746491Y-2757770D02*
X2746491Y-2805388D01*
X2746491Y-2805388D02*
X2736968Y-2824436D01*
X2736968Y-2824436D02*
X2727444Y-2833960D01*
X2727444Y-2833960D02*
X2708396Y-2843484D01*
X2708396Y-2843484D02*
X2651253Y-2843484D01*
X2651253Y-2843484D02*
X2632206Y-2833960D01*
X2632206Y-2833960D02*
X2622682Y-2824436D01*
X2813158Y-2643484D02*
X2946491Y-2643484D01*
X2946491Y-2643484D02*
X2860777Y-2843484D01*
X3051253Y-2729198D02*
X3032206Y-2719674D01*
X3032206Y-2719674D02*
X3022682Y-2710150D01*
X3022682Y-2710150D02*
X3013158Y-2691103D01*
X3013158Y-2691103D02*
X3013158Y-2681579D01*
X3013158Y-2681579D02*
X3022682Y-2662531D01*
X3022682Y-2662531D02*
X3032206Y-2653008D01*
X3032206Y-2653008D02*
X3051253Y-2643484D01*
X3051253Y-2643484D02*
X3089348Y-2643484D01*
X3089348Y-2643484D02*
X3108396Y-2653008D01*
X3108396Y-2653008D02*
X3117920Y-2662531D01*
X3117920Y-2662531D02*
X3127444Y-2681579D01*
X3127444Y-2681579D02*
X3127444Y-2691103D01*
X3127444Y-2691103D02*
X3117920Y-2710150D01*
X3117920Y-2710150D02*
X3108396Y-2719674D01*
X3108396Y-2719674D02*
X3089348Y-2729198D01*
X3089348Y-2729198D02*
X3051253Y-2729198D01*
X3051253Y-2729198D02*
X3032206Y-2738722D01*
X3032206Y-2738722D02*
X3022682Y-2748246D01*
X3022682Y-2748246D02*
X3013158Y-2767293D01*
X3013158Y-2767293D02*
X3013158Y-2805388D01*
X3013158Y-2805388D02*
X3022682Y-2824436D01*
X3022682Y-2824436D02*
X3032206Y-2833960D01*
X3032206Y-2833960D02*
X3051253Y-2843484D01*
X3051253Y-2843484D02*
X3089348Y-2843484D01*
X3089348Y-2843484D02*
X3108396Y-2833960D01*
X3108396Y-2833960D02*
X3117920Y-2824436D01*
X3117920Y-2824436D02*
X3127444Y-2805388D01*
X3127444Y-2805388D02*
X3127444Y-2767293D01*
X3127444Y-2767293D02*
X3117920Y-2748246D01*
X3117920Y-2748246D02*
X3108396Y-2738722D01*
X3108396Y-2738722D02*
X3089348Y-2729198D01*
X3203634Y-2643484D02*
X3203634Y-2681579D01*
X3279825Y-2643484D02*
X3279825Y-2681579D01*
X3575063Y-2919674D02*
X3565539Y-2910150D01*
X3565539Y-2910150D02*
X3546491Y-2881579D01*
X3546491Y-2881579D02*
X3536968Y-2862531D01*
X3536968Y-2862531D02*
X3527444Y-2833960D01*
X3527444Y-2833960D02*
X3517920Y-2786341D01*
X3517920Y-2786341D02*
X3517920Y-2748246D01*
X3517920Y-2748246D02*
X3527444Y-2700627D01*
X3527444Y-2700627D02*
X3536968Y-2672055D01*
X3536968Y-2672055D02*
X3546491Y-2653008D01*
X3546491Y-2653008D02*
X3565539Y-2624436D01*
X3565539Y-2624436D02*
X3575063Y-2614912D01*
X3736968Y-2710150D02*
X3736968Y-2843484D01*
X3689348Y-2633960D02*
X3641729Y-2776817D01*
X3641729Y-2776817D02*
X3765539Y-2776817D01*
X3994110Y-2843484D02*
X3994110Y-2643484D01*
X4079825Y-2843484D02*
X4079825Y-2738722D01*
X4079825Y-2738722D02*
X4070301Y-2719674D01*
X4070301Y-2719674D02*
X4051253Y-2710150D01*
X4051253Y-2710150D02*
X4022682Y-2710150D01*
X4022682Y-2710150D02*
X4003634Y-2719674D01*
X4003634Y-2719674D02*
X3994110Y-2729198D01*
X4203634Y-2843484D02*
X4184587Y-2833960D01*
X4184587Y-2833960D02*
X4175063Y-2824436D01*
X4175063Y-2824436D02*
X4165539Y-2805388D01*
X4165539Y-2805388D02*
X4165539Y-2748246D01*
X4165539Y-2748246D02*
X4175063Y-2729198D01*
X4175063Y-2729198D02*
X4184587Y-2719674D01*
X4184587Y-2719674D02*
X4203634Y-2710150D01*
X4203634Y-2710150D02*
X4232206Y-2710150D01*
X4232206Y-2710150D02*
X4251253Y-2719674D01*
X4251253Y-2719674D02*
X4260777Y-2729198D01*
X4260777Y-2729198D02*
X4270301Y-2748246D01*
X4270301Y-2748246D02*
X4270301Y-2805388D01*
X4270301Y-2805388D02*
X4260777Y-2824436D01*
X4260777Y-2824436D02*
X4251253Y-2833960D01*
X4251253Y-2833960D02*
X4232206Y-2843484D01*
X4232206Y-2843484D02*
X4203634Y-2843484D01*
X4384587Y-2843484D02*
X4365539Y-2833960D01*
X4365539Y-2833960D02*
X4356015Y-2814912D01*
X4356015Y-2814912D02*
X4356015Y-2643484D01*
X4536968Y-2833960D02*
X4517920Y-2843484D01*
X4517920Y-2843484D02*
X4479825Y-2843484D01*
X4479825Y-2843484D02*
X4460777Y-2833960D01*
X4460777Y-2833960D02*
X4451253Y-2814912D01*
X4451253Y-2814912D02*
X4451253Y-2738722D01*
X4451253Y-2738722D02*
X4460777Y-2719674D01*
X4460777Y-2719674D02*
X4479825Y-2710150D01*
X4479825Y-2710150D02*
X4517920Y-2710150D01*
X4517920Y-2710150D02*
X4536968Y-2719674D01*
X4536968Y-2719674D02*
X4546492Y-2738722D01*
X4546492Y-2738722D02*
X4546492Y-2757770D01*
X4546492Y-2757770D02*
X4451253Y-2776817D01*
X4622682Y-2833960D02*
X4641730Y-2843484D01*
X4641730Y-2843484D02*
X4679825Y-2843484D01*
X4679825Y-2843484D02*
X4698873Y-2833960D01*
X4698873Y-2833960D02*
X4708396Y-2814912D01*
X4708396Y-2814912D02*
X4708396Y-2805388D01*
X4708396Y-2805388D02*
X4698873Y-2786341D01*
X4698873Y-2786341D02*
X4679825Y-2776817D01*
X4679825Y-2776817D02*
X4651253Y-2776817D01*
X4651253Y-2776817D02*
X4632206Y-2767293D01*
X4632206Y-2767293D02*
X4622682Y-2748246D01*
X4622682Y-2748246D02*
X4622682Y-2738722D01*
X4622682Y-2738722D02*
X4632206Y-2719674D01*
X4632206Y-2719674D02*
X4651253Y-2710150D01*
X4651253Y-2710150D02*
X4679825Y-2710150D01*
X4679825Y-2710150D02*
X4698873Y-2719674D01*
X4775063Y-2919674D02*
X4784587Y-2910150D01*
X4784587Y-2910150D02*
X4803634Y-2881579D01*
X4803634Y-2881579D02*
X4813158Y-2862531D01*
X4813158Y-2862531D02*
X4822682Y-2833960D01*
X4822682Y-2833960D02*
X4832206Y-2786341D01*
X4832206Y-2786341D02*
X4832206Y-2748246D01*
X4832206Y-2748246D02*
X4822682Y-2700627D01*
X4822682Y-2700627D02*
X4813158Y-2672055D01*
X4813158Y-2672055D02*
X4803634Y-2653008D01*
X4803634Y-2653008D02*
X4784587Y-2624436D01*
X4784587Y-2624436D02*
X4775063Y-2614912D01*
M02*
