%TF.GenerationSoftware,KiCad,Pcbnew,8.0.4*%
%TF.CreationDate,2024-09-30T00:09:27+07:00*%
%TF.ProjectId,Schematic_editted,53636865-6d61-4746-9963-5f6564697474,rev?*%
%TF.SameCoordinates,Original*%
%TF.FileFunction,Soldermask,Bot*%
%TF.FilePolarity,Negative*%
%FSLAX46Y46*%
G04 Gerber Fmt 4.6, Leading zero omitted, Abs format (unit mm)*
G04 Created by KiCad (PCBNEW 8.0.4) date 2024-09-30 00:09:27*
%MOMM*%
%LPD*%
G01*
G04 APERTURE LIST*
G04 Aperture macros list*
%AMRoundRect*
0 Rectangle with rounded corners*
0 $1 Rounding radius*
0 $2 $3 $4 $5 $6 $7 $8 $9 X,Y pos of 4 corners*
0 Add a 4 corners polygon primitive as box body*
4,1,4,$2,$3,$4,$5,$6,$7,$8,$9,$2,$3,0*
0 Add four circle primitives for the rounded corners*
1,1,$1+$1,$2,$3*
1,1,$1+$1,$4,$5*
1,1,$1+$1,$6,$7*
1,1,$1+$1,$8,$9*
0 Add four rect primitives between the rounded corners*
20,1,$1+$1,$2,$3,$4,$5,0*
20,1,$1+$1,$4,$5,$6,$7,0*
20,1,$1+$1,$6,$7,$8,$9,0*
20,1,$1+$1,$8,$9,$2,$3,0*%
G04 Aperture macros list end*
%ADD10R,1.350000X1.350000*%
%ADD11O,1.350000X1.350000*%
%ADD12R,1.500000X1.500000*%
%ADD13C,1.500000*%
%ADD14C,1.800000*%
%ADD15C,2.000000*%
%ADD16C,0.800000*%
%ADD17R,2.200000X2.200000*%
%ADD18O,2.200000X2.200000*%
%ADD19C,3.000000*%
%ADD20C,2.500000*%
%ADD21C,7.000000*%
%ADD22C,1.440000*%
%ADD23RoundRect,0.875000X0.875000X0.875000X-0.875000X0.875000X-0.875000X-0.875000X0.875000X-0.875000X0*%
%ADD24RoundRect,0.750000X0.750000X1.000000X-0.750000X1.000000X-0.750000X-1.000000X0.750000X-1.000000X0*%
%ADD25R,3.500000X3.500000*%
%ADD26RoundRect,0.225000X-0.225000X-0.250000X0.225000X-0.250000X0.225000X0.250000X-0.225000X0.250000X0*%
%ADD27RoundRect,0.225000X0.225000X0.250000X-0.225000X0.250000X-0.225000X-0.250000X0.225000X-0.250000X0*%
%ADD28RoundRect,0.237500X0.300000X0.237500X-0.300000X0.237500X-0.300000X-0.237500X0.300000X-0.237500X0*%
%ADD29RoundRect,0.237500X0.250000X0.237500X-0.250000X0.237500X-0.250000X-0.237500X0.250000X-0.237500X0*%
%ADD30R,1.430000X2.850000*%
G04 APERTURE END LIST*
D10*
%TO.C,J32*%
X109572000Y-103120000D03*
%TD*%
%TO.C,J26*%
X166784000Y-100076000D03*
D11*
X168784000Y-100076000D03*
X170784000Y-100076000D03*
X172784000Y-100076000D03*
%TD*%
D10*
%TO.C,J24*%
X153512000Y-94028000D03*
D11*
X153512000Y-96028000D03*
X153512000Y-98028000D03*
X153512000Y-100028000D03*
%TD*%
D12*
%TO.C,U9*%
X100023900Y-82607000D03*
D13*
X100023900Y-85147000D03*
X100023900Y-87687000D03*
X100023900Y-90227000D03*
%TD*%
D14*
%TO.C,J13*%
X174788000Y-69420000D03*
D15*
X174938000Y-73220000D03*
X182388000Y-73220000D03*
D14*
X182538000Y-69420000D03*
D16*
X176163000Y-72170000D03*
X181163000Y-72170000D03*
%TD*%
D10*
%TO.C,J23*%
X153512000Y-83916000D03*
D11*
X153512000Y-85916000D03*
X153512000Y-87916000D03*
X153512000Y-89916000D03*
%TD*%
D10*
%TO.C,J21*%
X181610000Y-81280000D03*
D11*
X179610000Y-81280000D03*
X177610000Y-81280000D03*
X175610000Y-81280000D03*
%TD*%
D10*
%TO.C,J31*%
X141322000Y-80260000D03*
%TD*%
%TO.C,J12*%
X167228000Y-72644000D03*
%TD*%
%TO.C,J28*%
X185262000Y-90170000D03*
D11*
X185262000Y-88170000D03*
X185262000Y-86170000D03*
X185262000Y-84170000D03*
%TD*%
D10*
%TO.C,OP_AMP_3*%
X137512000Y-109470000D03*
D11*
X137512000Y-107470000D03*
%TD*%
D10*
%TO.C,J14*%
X164180000Y-75692000D03*
%TD*%
D17*
%TO.C,D18*%
X166722000Y-108200000D03*
D18*
X156562000Y-108200000D03*
%TD*%
D10*
%TO.C,J16*%
X189072000Y-84614000D03*
D11*
X189072000Y-86614000D03*
X189072000Y-88614000D03*
X189072000Y-90614000D03*
%TD*%
D10*
%TO.C,J15*%
X164180000Y-72644000D03*
%TD*%
%TO.C,J17*%
X160372000Y-104390000D03*
D11*
X162372000Y-104390000D03*
%TD*%
D19*
%TO.C,K3*%
X168962000Y-116210000D03*
D20*
X162912000Y-118160000D03*
D19*
X162912000Y-130360000D03*
X174962000Y-130410000D03*
D20*
X174912000Y-118160000D03*
%TD*%
D13*
%TO.C,Y1*%
X147416000Y-87508000D03*
X147416000Y-91308000D03*
%TD*%
D10*
%TO.C,J25*%
X157878000Y-96266000D03*
D11*
X159878000Y-96266000D03*
X161878000Y-96266000D03*
X163878000Y-96266000D03*
%TD*%
D10*
%TO.C,J1*%
X92962700Y-93640000D03*
D11*
X92962700Y-91640000D03*
%TD*%
D10*
%TO.C,J22*%
X163116000Y-81280000D03*
D11*
X161116000Y-81280000D03*
X159116000Y-81280000D03*
X157116000Y-81280000D03*
%TD*%
D21*
%TO.C,H7*%
X94596874Y-69964474D03*
%TD*%
D10*
%TO.C,J3*%
X93267500Y-84943800D03*
D11*
X93267500Y-82943800D03*
X93267500Y-80943800D03*
%TD*%
D10*
%TO.C,J20*%
X185262000Y-100806000D03*
D11*
X185262000Y-98806000D03*
X185262000Y-96806000D03*
X185262000Y-94806000D03*
%TD*%
D21*
%TO.C,H6*%
X205518674Y-137172874D03*
%TD*%
D10*
%TO.C,J30*%
X170276000Y-72644000D03*
%TD*%
%TO.C,J11*%
X208632000Y-124710000D03*
D11*
X208632000Y-126710000D03*
%TD*%
D22*
%TO.C,RV4*%
X186695063Y-103913763D03*
X186695063Y-106453763D03*
X186695063Y-108993763D03*
%TD*%
D10*
%TO.C,J27*%
X181150000Y-96266000D03*
D11*
X179150000Y-96266000D03*
X177150000Y-96266000D03*
X175150000Y-96266000D03*
%TD*%
D21*
%TO.C,H8*%
X205950474Y-69888274D03*
%TD*%
%TO.C,H5*%
X94927074Y-137045874D03*
%TD*%
D23*
%TO.C,J37*%
X198730237Y-91871737D03*
D24*
X201730237Y-96571737D03*
D25*
X195730237Y-96571737D03*
%TD*%
D19*
%TO.C,K1*%
X116272000Y-116860000D03*
D20*
X110222000Y-118810000D03*
D19*
X110222000Y-131010000D03*
X122272000Y-131060000D03*
D20*
X122222000Y-118810000D03*
%TD*%
D10*
%TO.C,J29*%
X167228000Y-75692000D03*
%TD*%
D19*
%TO.C,K2*%
X142942000Y-116860000D03*
D20*
X136892000Y-118810000D03*
D19*
X136892000Y-131010000D03*
X148942000Y-131060000D03*
D20*
X148892000Y-118810000D03*
%TD*%
D26*
%TO.C,C35*%
X182457000Y-114550000D03*
X184007000Y-114550000D03*
%TD*%
D27*
%TO.C,104\u002C2*%
X151112000Y-75717400D03*
X149562000Y-75717400D03*
%TD*%
%TO.C,C9*%
X150985000Y-72644000D03*
X149435000Y-72644000D03*
%TD*%
%TO.C,C2*%
X150934200Y-69723000D03*
X149384200Y-69723000D03*
%TD*%
D26*
%TO.C,C1*%
X153245000Y-69088000D03*
X154795000Y-69088000D03*
%TD*%
D28*
%TO.C,104\u002C4*%
X147503500Y-71432250D03*
X145778500Y-71432250D03*
%TD*%
D26*
%TO.C,105\u002C1*%
X168993000Y-93218000D03*
X170543000Y-93218000D03*
%TD*%
%TO.C,C34*%
X182952000Y-112010000D03*
X184502000Y-112010000D03*
%TD*%
D29*
%TO.C,R3\u002C2*%
X170934500Y-90678000D03*
X169109500Y-90678000D03*
%TD*%
D30*
%TO.C,Y2*%
X157026000Y-86825000D03*
X162656000Y-86825000D03*
X162656000Y-90975000D03*
X157026000Y-90975000D03*
%TD*%
M02*
