%TF.GenerationSoftware,KiCad,Pcbnew,8.0.4*%
%TF.CreationDate,2024-09-30T00:09:27+07:00*%
%TF.ProjectId,Schematic_editted,53636865-6d61-4746-9963-5f6564697474,rev?*%
%TF.SameCoordinates,Original*%
%TF.FileFunction,Paste,Top*%
%TF.FilePolarity,Positive*%
%FSLAX46Y46*%
G04 Gerber Fmt 4.6, Leading zero omitted, Abs format (unit mm)*
G04 Created by KiCad (PCBNEW 8.0.4) date 2024-09-30 00:09:27*
%MOMM*%
%LPD*%
G01*
G04 APERTURE LIST*
G04 Aperture macros list*
%AMRoundRect*
0 Rectangle with rounded corners*
0 $1 Rounding radius*
0 $2 $3 $4 $5 $6 $7 $8 $9 X,Y pos of 4 corners*
0 Add a 4 corners polygon primitive as box body*
4,1,4,$2,$3,$4,$5,$6,$7,$8,$9,$2,$3,0*
0 Add four circle primitives for the rounded corners*
1,1,$1+$1,$2,$3*
1,1,$1+$1,$4,$5*
1,1,$1+$1,$6,$7*
1,1,$1+$1,$8,$9*
0 Add four rect primitives between the rounded corners*
20,1,$1+$1,$2,$3,$4,$5,0*
20,1,$1+$1,$4,$5,$6,$7,0*
20,1,$1+$1,$6,$7,$8,$9,0*
20,1,$1+$1,$8,$9,$2,$3,0*%
G04 Aperture macros list end*
%ADD10RoundRect,0.237500X-0.250000X-0.237500X0.250000X-0.237500X0.250000X0.237500X-0.250000X0.237500X0*%
%ADD11RoundRect,0.225000X0.250000X-0.225000X0.250000X0.225000X-0.250000X0.225000X-0.250000X-0.225000X0*%
%ADD12RoundRect,0.200000X-0.200000X-0.275000X0.200000X-0.275000X0.200000X0.275000X-0.200000X0.275000X0*%
%ADD13RoundRect,0.150000X-0.150000X0.587500X-0.150000X-0.587500X0.150000X-0.587500X0.150000X0.587500X0*%
%ADD14RoundRect,0.225000X-0.225000X-0.250000X0.225000X-0.250000X0.225000X0.250000X-0.225000X0.250000X0*%
%ADD15RoundRect,0.150000X-0.825000X-0.150000X0.825000X-0.150000X0.825000X0.150000X-0.825000X0.150000X0*%
%ADD16RoundRect,0.240000X-0.240000X-0.385000X0.240000X-0.385000X0.240000X0.385000X-0.240000X0.385000X0*%
%ADD17RoundRect,0.075000X-0.662500X-0.075000X0.662500X-0.075000X0.662500X0.075000X-0.662500X0.075000X0*%
%ADD18RoundRect,0.075000X-0.075000X-0.662500X0.075000X-0.662500X0.075000X0.662500X-0.075000X0.662500X0*%
%ADD19RoundRect,0.225000X-0.250000X0.225000X-0.250000X-0.225000X0.250000X-0.225000X0.250000X0.225000X0*%
%ADD20RoundRect,0.218750X-0.218750X-0.256250X0.218750X-0.256250X0.218750X0.256250X-0.218750X0.256250X0*%
%ADD21R,0.450000X1.300000*%
%ADD22RoundRect,0.237500X0.250000X0.237500X-0.250000X0.237500X-0.250000X-0.237500X0.250000X-0.237500X0*%
%ADD23RoundRect,0.237500X0.237500X-0.250000X0.237500X0.250000X-0.237500X0.250000X-0.237500X-0.250000X0*%
%ADD24RoundRect,0.237500X-0.237500X0.287500X-0.237500X-0.287500X0.237500X-0.287500X0.237500X0.287500X0*%
%ADD25RoundRect,0.237500X-0.237500X0.250000X-0.237500X-0.250000X0.237500X-0.250000X0.237500X0.250000X0*%
%ADD26RoundRect,0.218750X0.218750X0.256250X-0.218750X0.256250X-0.218750X-0.256250X0.218750X-0.256250X0*%
%ADD27RoundRect,0.150000X-0.587500X-0.150000X0.587500X-0.150000X0.587500X0.150000X-0.587500X0.150000X0*%
%ADD28R,0.900000X2.000000*%
%ADD29RoundRect,0.079500X-0.100500X0.079500X-0.100500X-0.079500X0.100500X-0.079500X0.100500X0.079500X0*%
%ADD30RoundRect,0.250000X1.000000X-1.950000X1.000000X1.950000X-1.000000X1.950000X-1.000000X-1.950000X0*%
%ADD31RoundRect,0.237500X0.287500X0.237500X-0.287500X0.237500X-0.287500X-0.237500X0.287500X-0.237500X0*%
%ADD32R,1.200000X1.250000*%
%ADD33RoundRect,0.225000X0.225000X0.250000X-0.225000X0.250000X-0.225000X-0.250000X0.225000X-0.250000X0*%
%ADD34RoundRect,0.079500X-0.079500X-0.100500X0.079500X-0.100500X0.079500X0.100500X-0.079500X0.100500X0*%
%ADD35RoundRect,0.200000X0.200000X0.275000X-0.200000X0.275000X-0.200000X-0.275000X0.200000X-0.275000X0*%
%ADD36RoundRect,0.250000X-0.250000X-0.475000X0.250000X-0.475000X0.250000X0.475000X-0.250000X0.475000X0*%
%ADD37R,0.850000X2.350000*%
%ADD38RoundRect,0.375000X-0.625000X-0.375000X0.625000X-0.375000X0.625000X0.375000X-0.625000X0.375000X0*%
%ADD39RoundRect,0.500000X-0.500000X-1.400000X0.500000X-1.400000X0.500000X1.400000X-0.500000X1.400000X0*%
%ADD40RoundRect,0.250000X-0.650000X0.325000X-0.650000X-0.325000X0.650000X-0.325000X0.650000X0.325000X0*%
%ADD41RoundRect,0.237500X0.300000X0.237500X-0.300000X0.237500X-0.300000X-0.237500X0.300000X-0.237500X0*%
%ADD42RoundRect,0.125000X0.687500X0.125000X-0.687500X0.125000X-0.687500X-0.125000X0.687500X-0.125000X0*%
%ADD43RoundRect,0.218750X-0.256250X0.218750X-0.256250X-0.218750X0.256250X-0.218750X0.256250X0.218750X0*%
%ADD44RoundRect,0.237500X0.237500X-0.287500X0.237500X0.287500X-0.237500X0.287500X-0.237500X-0.287500X0*%
%ADD45RoundRect,0.150000X-0.150000X-0.200000X0.150000X-0.200000X0.150000X0.200000X-0.150000X0.200000X0*%
%ADD46RoundRect,0.150000X-0.820000X-0.150000X0.820000X-0.150000X0.820000X0.150000X-0.820000X0.150000X0*%
%ADD47RoundRect,0.250000X-0.280000X-0.455000X0.280000X-0.455000X0.280000X0.455000X-0.280000X0.455000X0*%
%ADD48R,2.350000X0.850000*%
%ADD49RoundRect,0.150000X0.150000X0.200000X-0.150000X0.200000X-0.150000X-0.200000X0.150000X-0.200000X0*%
%ADD50RoundRect,0.218750X0.256250X-0.218750X0.256250X0.218750X-0.256250X0.218750X-0.256250X-0.218750X0*%
%ADD51RoundRect,0.250000X-2.050000X-0.300000X2.050000X-0.300000X2.050000X0.300000X-2.050000X0.300000X0*%
%ADD52RoundRect,0.250000X-2.025000X-2.375000X2.025000X-2.375000X2.025000X2.375000X-2.025000X2.375000X0*%
%ADD53RoundRect,0.250000X0.300000X-0.300000X0.300000X0.300000X-0.300000X0.300000X-0.300000X-0.300000X0*%
%ADD54RoundRect,0.250000X-0.255000X-0.545000X0.255000X-0.545000X0.255000X0.545000X-0.255000X0.545000X0*%
%ADD55RoundRect,0.250000X-0.300000X-0.300000X0.300000X-0.300000X0.300000X0.300000X-0.300000X0.300000X0*%
%ADD56RoundRect,0.250000X0.475000X-0.337500X0.475000X0.337500X-0.475000X0.337500X-0.475000X-0.337500X0*%
%ADD57R,2.000000X0.900000*%
%ADD58RoundRect,0.250000X1.950000X1.000000X-1.950000X1.000000X-1.950000X-1.000000X1.950000X-1.000000X0*%
G04 APERTURE END LIST*
D10*
%TO.C,R8*%
X178867000Y-133600000D03*
X180692000Y-133600000D03*
%TD*%
D11*
%TO.C,C4-1*%
X159100000Y-89167000D03*
X159100000Y-87617000D03*
%TD*%
D12*
%TO.C,R36*%
X106310900Y-106381400D03*
X107960900Y-106381400D03*
%TD*%
D13*
%TO.C,Q2*%
X132432000Y-133932500D03*
X130532000Y-133932500D03*
X131482000Y-135807500D03*
%TD*%
D14*
%TO.C,C14*%
X195017600Y-139950000D03*
X196567600Y-139950000D03*
%TD*%
D15*
%TO.C,U6*%
X126667000Y-92325000D03*
X126667000Y-93595000D03*
X126667000Y-94865000D03*
X126667000Y-96135000D03*
X121717000Y-96135000D03*
X121717000Y-94865000D03*
X121717000Y-93595000D03*
X121717000Y-92325000D03*
D16*
X124762000Y-94980000D03*
X124762000Y-93480000D03*
X123622000Y-94980000D03*
X123622000Y-93480000D03*
%TD*%
D10*
%TO.C,RV2*%
X98998700Y-106483000D03*
X100823700Y-106483000D03*
%TD*%
D17*
%TO.C,U4*%
X165605500Y-86150000D03*
X165605500Y-86650000D03*
X165605500Y-87150000D03*
X165605500Y-87650000D03*
X165605500Y-88150000D03*
X165605500Y-88650000D03*
X165605500Y-89150000D03*
X165605500Y-89650000D03*
X165605500Y-90150000D03*
X165605500Y-90650000D03*
X165605500Y-91150000D03*
X165605500Y-91650000D03*
D18*
X167018000Y-93062500D03*
X167518000Y-93062500D03*
X168018000Y-93062500D03*
X168518000Y-93062500D03*
X169018000Y-93062500D03*
X169518000Y-93062500D03*
X170018000Y-93062500D03*
X170518000Y-93062500D03*
X171018000Y-93062500D03*
X171518000Y-93062500D03*
X172018000Y-93062500D03*
X172518000Y-93062500D03*
D17*
X173930500Y-91650000D03*
X173930500Y-91150000D03*
X173930500Y-90650000D03*
X173930500Y-90150000D03*
X173930500Y-89650000D03*
X173930500Y-89150000D03*
X173930500Y-88650000D03*
X173930500Y-88150000D03*
X173930500Y-87650000D03*
X173930500Y-87150000D03*
X173930500Y-86650000D03*
X173930500Y-86150000D03*
D18*
X172518000Y-84737500D03*
X172018000Y-84737500D03*
X171518000Y-84737500D03*
X171018000Y-84737500D03*
X170518000Y-84737500D03*
X170018000Y-84737500D03*
X169518000Y-84737500D03*
X169018000Y-84737500D03*
X168518000Y-84737500D03*
X168018000Y-84737500D03*
X167518000Y-84737500D03*
X167018000Y-84737500D03*
%TD*%
D19*
%TO.C,C12*%
X199742000Y-138400000D03*
X199742000Y-139950000D03*
%TD*%
D20*
%TO.C,D7*%
X105324500Y-138060000D03*
X106899500Y-138060000D03*
%TD*%
D21*
%TO.C,J13*%
X177363000Y-73270000D03*
X178013000Y-73270000D03*
X178663000Y-73270000D03*
X179313000Y-73270000D03*
X179963000Y-73270000D03*
%TD*%
D22*
%TO.C,R26*%
X132987000Y-123944800D03*
X131162000Y-123944800D03*
%TD*%
D23*
%TO.C,R2\u002C2*%
X189072000Y-80518000D03*
X189072000Y-78693000D03*
%TD*%
D19*
%TO.C,C3*%
X176882000Y-139175000D03*
X176882000Y-140725000D03*
%TD*%
D11*
%TO.C,C2-1*%
X150972000Y-92482000D03*
X150972000Y-90932000D03*
%TD*%
D24*
%TO.C,D17*%
X153295000Y-127972000D03*
X153295000Y-129722000D03*
%TD*%
D25*
%TO.C,R23*%
X119732000Y-88237500D03*
X119732000Y-90062500D03*
%TD*%
D22*
%TO.C,R3\u002C1*%
X150614500Y-84074000D03*
X148789500Y-84074000D03*
%TD*%
D12*
%TO.C,R27*%
X196221063Y-118645763D03*
X197871063Y-118645763D03*
%TD*%
%TO.C,R34*%
X106324100Y-99675800D03*
X107974100Y-99675800D03*
%TD*%
D22*
%TO.C,R4\u002C1*%
X147312500Y-77724000D03*
X145487500Y-77724000D03*
%TD*%
D11*
%TO.C,C17*%
X115922000Y-90420000D03*
X115922000Y-88870000D03*
%TD*%
D22*
%TO.C,R3*%
X148942000Y-95500000D03*
X150767000Y-95500000D03*
%TD*%
D26*
%TO.C,POWER_LED1*%
X102257000Y-127900000D03*
X100682000Y-127900000D03*
%TD*%
D19*
%TO.C,C33*%
X126082000Y-113000000D03*
X126082000Y-114550000D03*
%TD*%
D11*
%TO.C,C11*%
X185772000Y-119910000D03*
X185772000Y-118360000D03*
%TD*%
D27*
%TO.C,Q5*%
X129287000Y-83440000D03*
X129287000Y-85340000D03*
X131162000Y-84390000D03*
%TD*%
D28*
%TO.C,J8*%
X164722000Y-136750000D03*
X166722000Y-139950000D03*
X168722000Y-136750000D03*
X170722000Y-139950000D03*
X172722000Y-136750000D03*
%TD*%
D10*
%TO.C,R17*%
X103937000Y-132330000D03*
X105762000Y-132330000D03*
%TD*%
D29*
%TO.C,POWER_LED2*%
X126879726Y-136249526D03*
X126879726Y-135559526D03*
%TD*%
D10*
%TO.C,R21*%
X122629500Y-86610000D03*
X124454500Y-86610000D03*
%TD*%
D11*
%TO.C,D2*%
X145892000Y-83833000D03*
X145892000Y-82283000D03*
%TD*%
D30*
%TO.C,C30*%
X200919063Y-130465763D03*
X200919063Y-122065763D03*
%TD*%
D22*
%TO.C,R28*%
X132987000Y-120820600D03*
X131162000Y-120820600D03*
%TD*%
D31*
%TO.C,D13*%
X132912000Y-131209200D03*
X131162000Y-131209200D03*
%TD*%
D32*
%TO.C,L1*%
X188607063Y-112549763D03*
X186307063Y-112549763D03*
%TD*%
D24*
%TO.C,D16*%
X153422000Y-116948400D03*
X153422000Y-118698400D03*
%TD*%
D23*
%TO.C,R6*%
X199742000Y-136695000D03*
X199742000Y-134870000D03*
%TD*%
D11*
%TO.C,C38*%
X106399300Y-87877800D03*
X106399300Y-86327800D03*
%TD*%
D33*
%TO.C,C22*%
X124317000Y-90150000D03*
X122767000Y-90150000D03*
%TD*%
D34*
%TO.C,104\u002C1*%
X153095000Y-74930000D03*
X152405000Y-74930000D03*
%TD*%
D22*
%TO.C,R38*%
X158701400Y-116782000D03*
X156876400Y-116782000D03*
%TD*%
D35*
%TO.C,R31*%
X142592000Y-94230000D03*
X140942000Y-94230000D03*
%TD*%
D33*
%TO.C,C15*%
X139062000Y-72640000D03*
X137512000Y-72640000D03*
%TD*%
D36*
%TO.C,C29*%
X126082000Y-117090000D03*
X127982000Y-117090000D03*
%TD*%
D22*
%TO.C,R1*%
X116610100Y-110369200D03*
X114785100Y-110369200D03*
%TD*%
D33*
%TO.C,C10*%
X196643800Y-137410000D03*
X195093800Y-137410000D03*
%TD*%
D14*
%TO.C,D1*%
X92022600Y-103708200D03*
X93572600Y-103708200D03*
%TD*%
D37*
%TO.C,J6*%
X119192000Y-138680000D03*
X117192000Y-141030000D03*
X115192000Y-138680000D03*
X113192000Y-141030000D03*
%TD*%
D38*
%TO.C,U1*%
X154934000Y-71614000D03*
X154934000Y-73914000D03*
D39*
X161234000Y-73914000D03*
D38*
X154934000Y-76214000D03*
%TD*%
D33*
%TO.C,C13*%
X139391600Y-76336000D03*
X137841600Y-76336000D03*
%TD*%
D13*
%TO.C,Q1*%
X105792000Y-118405000D03*
X103892000Y-118405000D03*
X104842000Y-120280000D03*
%TD*%
D15*
%TO.C,U7*%
X134257000Y-101485000D03*
X134257000Y-102755000D03*
X134257000Y-104025000D03*
X134257000Y-105295000D03*
X129307000Y-105295000D03*
X129307000Y-104025000D03*
X129307000Y-102755000D03*
X129307000Y-101485000D03*
D16*
X132352000Y-104140000D03*
X132352000Y-102640000D03*
X131212000Y-104140000D03*
X131212000Y-102640000D03*
%TD*%
D10*
%TO.C,R19*%
X111199500Y-89150000D03*
X113024500Y-89150000D03*
%TD*%
D19*
%TO.C,C1-1*%
X150972000Y-86360000D03*
X150972000Y-87910000D03*
%TD*%
D33*
%TO.C,C5*%
X147262500Y-73585500D03*
X145712500Y-73585500D03*
%TD*%
D40*
%TO.C,C31*%
X133905600Y-87903600D03*
X133905600Y-90853600D03*
%TD*%
D14*
%TO.C,C27*%
X118182000Y-107692000D03*
X119732000Y-107692000D03*
%TD*%
D41*
%TO.C,104\u002C3*%
X147505826Y-71303426D03*
X145780826Y-71303426D03*
%TD*%
D42*
%TO.C,U2*%
X99562400Y-98720400D03*
X99562400Y-98070400D03*
X99562400Y-97420400D03*
X99562400Y-96770400D03*
X103787400Y-96770400D03*
X103787400Y-97420400D03*
X103787400Y-98070400D03*
X103787400Y-98720400D03*
%TD*%
D14*
%TO.C,C26*%
X118182000Y-104390000D03*
X119732000Y-104390000D03*
%TD*%
D25*
%TO.C,R16*%
X117192000Y-95432200D03*
X117192000Y-97257200D03*
%TD*%
D10*
%TO.C,R30*%
X189950063Y-123217763D03*
X191775063Y-123217763D03*
%TD*%
D23*
%TO.C,R3\u002C4*%
X170530000Y-81026000D03*
X170530000Y-79201000D03*
%TD*%
D43*
%TO.C,D8*%
X101032000Y-136002500D03*
X101032000Y-137577500D03*
%TD*%
D38*
%TO.C,U11*%
X175002000Y-103360000D03*
X175002000Y-105660000D03*
D39*
X181302000Y-105660000D03*
D38*
X175002000Y-107960000D03*
%TD*%
D44*
%TO.C,D15*%
X153396600Y-123970200D03*
X153396600Y-122220200D03*
%TD*%
D25*
%TO.C,R9*%
X193392000Y-135227500D03*
X193392000Y-137052500D03*
%TD*%
D11*
%TO.C,C37*%
X121041600Y-76005800D03*
X121041600Y-74455800D03*
%TD*%
D19*
%TO.C,C16*%
X181438652Y-118335252D03*
X181438652Y-119885252D03*
%TD*%
D14*
%TO.C,C6*%
X99020300Y-102190400D03*
X100570300Y-102190400D03*
%TD*%
D13*
%TO.C,Q3*%
X158522400Y-135552600D03*
X156622400Y-135552600D03*
X157572400Y-137427600D03*
%TD*%
D26*
%TO.C,SW1*%
X153764200Y-78308200D03*
X152189200Y-78308200D03*
%TD*%
D45*
%TO.C,D5*%
X194092000Y-132330000D03*
X192692000Y-132330000D03*
%TD*%
D44*
%TO.C,D10*%
X127082926Y-132585126D03*
X127082926Y-130835126D03*
%TD*%
D22*
%TO.C,R12*%
X191764500Y-129790000D03*
X189939500Y-129790000D03*
%TD*%
D10*
%TO.C,R7*%
X92149500Y-96770000D03*
X93974500Y-96770000D03*
%TD*%
D22*
%TO.C,R29*%
X127739526Y-120127726D03*
X125914526Y-120127726D03*
%TD*%
D12*
%TO.C,R32*%
X136332400Y-80437800D03*
X137982400Y-80437800D03*
%TD*%
D22*
%TO.C,R5*%
X182517000Y-141220000D03*
X180692000Y-141220000D03*
%TD*%
D23*
%TO.C,R2\u002C1*%
X179420000Y-86614000D03*
X179420000Y-84789000D03*
%TD*%
D14*
%TO.C,C19*%
X123542000Y-99727500D03*
X125092000Y-99727500D03*
%TD*%
D22*
%TO.C,R37*%
X158578200Y-120668200D03*
X156753200Y-120668200D03*
%TD*%
D10*
%TO.C,R20*%
X127709500Y-90420000D03*
X129534500Y-90420000D03*
%TD*%
D46*
%TO.C,U10*%
X144457000Y-97800000D03*
X144457000Y-99070000D03*
X144457000Y-100340000D03*
X144457000Y-101610000D03*
X139497000Y-101610000D03*
X139497000Y-100340000D03*
X139497000Y-99070000D03*
X139497000Y-97800000D03*
D47*
X142632000Y-100580000D03*
X142632000Y-98830000D03*
X141322000Y-100580000D03*
X141322000Y-98830000D03*
%TD*%
D10*
%TO.C,RV3*%
X111199500Y-85340000D03*
X113024500Y-85340000D03*
%TD*%
%TO.C,R15*%
X99769500Y-131710000D03*
X101594500Y-131710000D03*
%TD*%
%TO.C,R2*%
X187757000Y-132330000D03*
X189582000Y-132330000D03*
%TD*%
D13*
%TO.C,Q4*%
X121952000Y-81862500D03*
X120052000Y-81862500D03*
X121002000Y-83737500D03*
%TD*%
D14*
%TO.C,C21*%
X112607000Y-103120000D03*
X114157000Y-103120000D03*
%TD*%
D48*
%TO.C,J2*%
X92289100Y-123825600D03*
X94639100Y-125825600D03*
X92289100Y-127825600D03*
X94639100Y-129825600D03*
%TD*%
D23*
%TO.C,RV1*%
X181962000Y-137965000D03*
X181962000Y-136140000D03*
%TD*%
D29*
%TO.C,POWER_LED3*%
X159102000Y-127275000D03*
X159102000Y-126585000D03*
%TD*%
D14*
%TO.C,C4*%
X130882000Y-113280000D03*
X132432000Y-113280000D03*
%TD*%
D49*
%TO.C,D9*%
X123412000Y-109470000D03*
X124812000Y-109470000D03*
%TD*%
D20*
%TO.C,D4*%
X91870400Y-100580000D03*
X93445400Y-100580000D03*
%TD*%
D14*
%TO.C,C8*%
X105762000Y-127250000D03*
X107312000Y-127250000D03*
%TD*%
%TO.C,C20*%
X112683800Y-99360800D03*
X114233800Y-99360800D03*
%TD*%
D10*
%TO.C,R13*%
X100477000Y-124090000D03*
X102302000Y-124090000D03*
%TD*%
D22*
%TO.C,R22*%
X124454500Y-104390000D03*
X122629500Y-104390000D03*
%TD*%
D23*
%TO.C,R3\u002C3*%
X184959100Y-80518000D03*
X184959100Y-78693000D03*
%TD*%
D14*
%TO.C,C7*%
X182952000Y-132330000D03*
X184502000Y-132330000D03*
%TD*%
D10*
%TO.C,R18*%
X116372800Y-112923900D03*
X118197800Y-112923900D03*
%TD*%
D22*
%TO.C,R33*%
X158550900Y-131209200D03*
X156725900Y-131209200D03*
%TD*%
D15*
%TO.C,Q6*%
X129827000Y-75815000D03*
X129827000Y-77085000D03*
X129827000Y-78355000D03*
X129827000Y-79625000D03*
X124877000Y-79625000D03*
X124877000Y-78355000D03*
X124877000Y-77085000D03*
X124877000Y-75815000D03*
%TD*%
D11*
%TO.C,C32*%
X171802000Y-105660000D03*
X171802000Y-104110000D03*
%TD*%
D19*
%TO.C,C36*%
X131162000Y-116810000D03*
X131162000Y-118360000D03*
%TD*%
D50*
%TO.C,D3*%
X150718000Y-82296000D03*
X150718000Y-80721000D03*
%TD*%
D10*
%TO.C,R4*%
X95731300Y-101428400D03*
X97556300Y-101428400D03*
%TD*%
D51*
%TO.C,U8*%
X193711237Y-105149237D03*
X193711237Y-106849237D03*
X193711237Y-108549237D03*
D52*
X200436237Y-105774237D03*
X200436237Y-111324237D03*
X205286237Y-105774237D03*
X205286237Y-111324237D03*
D51*
X193711237Y-110249237D03*
X193711237Y-111949237D03*
%TD*%
D15*
%TO.C,U3*%
X190217000Y-136025000D03*
X190217000Y-137295000D03*
X190217000Y-138565000D03*
X190217000Y-139835000D03*
X185267000Y-139835000D03*
X185267000Y-138565000D03*
X185267000Y-137295000D03*
X185267000Y-136025000D03*
D16*
X188312000Y-138680000D03*
X188312000Y-137180000D03*
X187172000Y-138680000D03*
X187172000Y-137180000D03*
%TD*%
D53*
%TO.C,D11*%
X205999063Y-119283763D03*
X205999063Y-116483763D03*
%TD*%
D15*
%TO.C,U5*%
X186407000Y-125345000D03*
X186407000Y-126615000D03*
X186407000Y-127885000D03*
X186407000Y-129155000D03*
X181457000Y-129155000D03*
X181457000Y-127885000D03*
X181457000Y-126615000D03*
X181457000Y-125345000D03*
D54*
X184532000Y-128200000D03*
X184532000Y-126300000D03*
X183332000Y-128200000D03*
X183332000Y-126300000D03*
%TD*%
D20*
%TO.C,D19*%
X106170500Y-96069000D03*
X107745500Y-96069000D03*
%TD*%
D55*
%TO.C,D14*%
X190883063Y-117629763D03*
X193683063Y-117629763D03*
%TD*%
D25*
%TO.C,R14*%
X167736000Y-79201000D03*
X167736000Y-81026000D03*
%TD*%
D56*
%TO.C,C28*%
X142592000Y-91457500D03*
X142592000Y-89382500D03*
%TD*%
D22*
%TO.C,R11*%
X107210000Y-111610600D03*
X105385000Y-111610600D03*
%TD*%
D57*
%TO.C,J7*%
X92277100Y-115664600D03*
X95477100Y-113664600D03*
X92277100Y-111664600D03*
X95477100Y-109664600D03*
X92277100Y-107664600D03*
%TD*%
D22*
%TO.C,R10*%
X179064500Y-136140000D03*
X177239500Y-136140000D03*
%TD*%
D44*
%TO.C,D12*%
X127514726Y-126655526D03*
X127514726Y-124905526D03*
%TD*%
D22*
%TO.C,R35*%
X158476600Y-123741600D03*
X156651600Y-123741600D03*
%TD*%
D33*
%TO.C,C23*%
X114208400Y-106345800D03*
X112658400Y-106345800D03*
%TD*%
%TO.C,C18*%
X114157000Y-95500000D03*
X112607000Y-95500000D03*
%TD*%
D28*
%TO.C,J9*%
X138592000Y-137080000D03*
X140592000Y-140280000D03*
X142592000Y-137080000D03*
X144592000Y-140280000D03*
X146592000Y-137080000D03*
%TD*%
D22*
%TO.C,R24*%
X130447000Y-109470000D03*
X128622000Y-109470000D03*
%TD*%
D11*
%TO.C,C3-1*%
X161132000Y-89167000D03*
X161132000Y-87617000D03*
%TD*%
D58*
%TO.C,C25*%
X205930237Y-83930237D03*
X197530237Y-83930237D03*
%TD*%
D14*
%TO.C,104\u002C5*%
X162910000Y-78486000D03*
X164460000Y-78486000D03*
%TD*%
D26*
%TO.C,D6*%
X106899500Y-124090000D03*
X105324500Y-124090000D03*
%TD*%
D14*
%TO.C,C24*%
X118182000Y-99610800D03*
X119732000Y-99610800D03*
%TD*%
D22*
%TO.C,R25*%
X132987000Y-127500800D03*
X131162000Y-127500800D03*
%TD*%
M02*
