%TF.GenerationSoftware,KiCad,Pcbnew,8.0.4*%
%TF.CreationDate,2024-09-30T00:09:27+07:00*%
%TF.ProjectId,Schematic_editted,53636865-6d61-4746-9963-5f6564697474,rev?*%
%TF.SameCoordinates,Original*%
%TF.FileFunction,Legend,Bot*%
%TF.FilePolarity,Positive*%
%FSLAX46Y46*%
G04 Gerber Fmt 4.6, Leading zero omitted, Abs format (unit mm)*
G04 Created by KiCad (PCBNEW 8.0.4) date 2024-09-30 00:09:27*
%MOMM*%
%LPD*%
G01*
G04 APERTURE LIST*
%ADD10C,0.300000*%
%ADD11C,0.100000*%
%ADD12C,0.150000*%
%ADD13C,0.120000*%
G04 APERTURE END LIST*
D10*
X104292828Y-69384510D02*
X102792828Y-69384510D01*
X102792828Y-69384510D02*
X102792828Y-69741653D01*
X102792828Y-69741653D02*
X102864257Y-69955939D01*
X102864257Y-69955939D02*
X103007114Y-70098796D01*
X103007114Y-70098796D02*
X103149971Y-70170225D01*
X103149971Y-70170225D02*
X103435685Y-70241653D01*
X103435685Y-70241653D02*
X103649971Y-70241653D01*
X103649971Y-70241653D02*
X103935685Y-70170225D01*
X103935685Y-70170225D02*
X104078542Y-70098796D01*
X104078542Y-70098796D02*
X104221400Y-69955939D01*
X104221400Y-69955939D02*
X104292828Y-69741653D01*
X104292828Y-69741653D02*
X104292828Y-69384510D01*
X104292828Y-70884510D02*
X102792828Y-70884510D01*
X103507114Y-70884510D02*
X103507114Y-71741653D01*
X104292828Y-71741653D02*
X102792828Y-71741653D01*
X102792828Y-72241654D02*
X102792828Y-73098797D01*
X104292828Y-72670225D02*
X102792828Y-72670225D01*
X104292828Y-74384511D02*
X104292828Y-73527368D01*
X104292828Y-73955939D02*
X102792828Y-73955939D01*
X102792828Y-73955939D02*
X103007114Y-73813082D01*
X103007114Y-73813082D02*
X103149971Y-73670225D01*
X103149971Y-73670225D02*
X103221400Y-73527368D01*
X104292828Y-75813082D02*
X104292828Y-74955939D01*
X104292828Y-75384510D02*
X102792828Y-75384510D01*
X102792828Y-75384510D02*
X103007114Y-75241653D01*
X103007114Y-75241653D02*
X103149971Y-75098796D01*
X103149971Y-75098796D02*
X103221400Y-74955939D01*
X103721400Y-77598795D02*
X103721400Y-78741653D01*
X104292828Y-80598795D02*
X102792828Y-80598795D01*
X103507114Y-80598795D02*
X103507114Y-81455938D01*
X104292828Y-81455938D02*
X102792828Y-81455938D01*
X103292828Y-82813082D02*
X104292828Y-82813082D01*
X103292828Y-82170224D02*
X104078542Y-82170224D01*
X104078542Y-82170224D02*
X104221400Y-82241653D01*
X104221400Y-82241653D02*
X104292828Y-82384510D01*
X104292828Y-82384510D02*
X104292828Y-82598796D01*
X104292828Y-82598796D02*
X104221400Y-82741653D01*
X104221400Y-82741653D02*
X104149971Y-82813082D01*
X104292828Y-83527367D02*
X103292828Y-83527367D01*
X103435685Y-83527367D02*
X103364257Y-83598796D01*
X103364257Y-83598796D02*
X103292828Y-83741653D01*
X103292828Y-83741653D02*
X103292828Y-83955939D01*
X103292828Y-83955939D02*
X103364257Y-84098796D01*
X103364257Y-84098796D02*
X103507114Y-84170225D01*
X103507114Y-84170225D02*
X104292828Y-84170225D01*
X103507114Y-84170225D02*
X103364257Y-84241653D01*
X103364257Y-84241653D02*
X103292828Y-84384510D01*
X103292828Y-84384510D02*
X103292828Y-84598796D01*
X103292828Y-84598796D02*
X103364257Y-84741653D01*
X103364257Y-84741653D02*
X103507114Y-84813082D01*
X103507114Y-84813082D02*
X104292828Y-84813082D01*
X104292828Y-85527367D02*
X103292828Y-85527367D01*
X102792828Y-85527367D02*
X102864257Y-85455939D01*
X102864257Y-85455939D02*
X102935685Y-85527367D01*
X102935685Y-85527367D02*
X102864257Y-85598796D01*
X102864257Y-85598796D02*
X102792828Y-85527367D01*
X102792828Y-85527367D02*
X102935685Y-85527367D01*
X104292828Y-86884511D02*
X102792828Y-86884511D01*
X104221400Y-86884511D02*
X104292828Y-86741653D01*
X104292828Y-86741653D02*
X104292828Y-86455939D01*
X104292828Y-86455939D02*
X104221400Y-86313082D01*
X104221400Y-86313082D02*
X104149971Y-86241653D01*
X104149971Y-86241653D02*
X104007114Y-86170225D01*
X104007114Y-86170225D02*
X103578542Y-86170225D01*
X103578542Y-86170225D02*
X103435685Y-86241653D01*
X103435685Y-86241653D02*
X103364257Y-86313082D01*
X103364257Y-86313082D02*
X103292828Y-86455939D01*
X103292828Y-86455939D02*
X103292828Y-86741653D01*
X103292828Y-86741653D02*
X103364257Y-86884511D01*
X104292828Y-87598796D02*
X103292828Y-87598796D01*
X102792828Y-87598796D02*
X102864257Y-87527368D01*
X102864257Y-87527368D02*
X102935685Y-87598796D01*
X102935685Y-87598796D02*
X102864257Y-87670225D01*
X102864257Y-87670225D02*
X102792828Y-87598796D01*
X102792828Y-87598796D02*
X102935685Y-87598796D01*
X103292828Y-88098797D02*
X103292828Y-88670225D01*
X102792828Y-88313082D02*
X104078542Y-88313082D01*
X104078542Y-88313082D02*
X104221400Y-88384511D01*
X104221400Y-88384511D02*
X104292828Y-88527368D01*
X104292828Y-88527368D02*
X104292828Y-88670225D01*
X103292828Y-89027368D02*
X104292828Y-89384511D01*
X103292828Y-89741654D02*
X104292828Y-89384511D01*
X104292828Y-89384511D02*
X104649971Y-89241654D01*
X104649971Y-89241654D02*
X104721400Y-89170225D01*
X104721400Y-89170225D02*
X104792828Y-89027368D01*
X104292828Y-92098797D02*
X103507114Y-92098797D01*
X103507114Y-92098797D02*
X103364257Y-92027368D01*
X103364257Y-92027368D02*
X103292828Y-91884511D01*
X103292828Y-91884511D02*
X103292828Y-91598797D01*
X103292828Y-91598797D02*
X103364257Y-91455939D01*
X104221400Y-92098797D02*
X104292828Y-91955939D01*
X104292828Y-91955939D02*
X104292828Y-91598797D01*
X104292828Y-91598797D02*
X104221400Y-91455939D01*
X104221400Y-91455939D02*
X104078542Y-91384511D01*
X104078542Y-91384511D02*
X103935685Y-91384511D01*
X103935685Y-91384511D02*
X103792828Y-91455939D01*
X103792828Y-91455939D02*
X103721400Y-91598797D01*
X103721400Y-91598797D02*
X103721400Y-91955939D01*
X103721400Y-91955939D02*
X103649971Y-92098797D01*
X103292828Y-92813082D02*
X104292828Y-92813082D01*
X103435685Y-92813082D02*
X103364257Y-92884511D01*
X103364257Y-92884511D02*
X103292828Y-93027368D01*
X103292828Y-93027368D02*
X103292828Y-93241654D01*
X103292828Y-93241654D02*
X103364257Y-93384511D01*
X103364257Y-93384511D02*
X103507114Y-93455940D01*
X103507114Y-93455940D02*
X104292828Y-93455940D01*
X104292828Y-94813083D02*
X102792828Y-94813083D01*
X104221400Y-94813083D02*
X104292828Y-94670225D01*
X104292828Y-94670225D02*
X104292828Y-94384511D01*
X104292828Y-94384511D02*
X104221400Y-94241654D01*
X104221400Y-94241654D02*
X104149971Y-94170225D01*
X104149971Y-94170225D02*
X104007114Y-94098797D01*
X104007114Y-94098797D02*
X103578542Y-94098797D01*
X103578542Y-94098797D02*
X103435685Y-94170225D01*
X103435685Y-94170225D02*
X103364257Y-94241654D01*
X103364257Y-94241654D02*
X103292828Y-94384511D01*
X103292828Y-94384511D02*
X103292828Y-94670225D01*
X103292828Y-94670225D02*
X103364257Y-94813083D01*
X103292828Y-96455940D02*
X103292828Y-97027368D01*
X102792828Y-96670225D02*
X104078542Y-96670225D01*
X104078542Y-96670225D02*
X104221400Y-96741654D01*
X104221400Y-96741654D02*
X104292828Y-96884511D01*
X104292828Y-96884511D02*
X104292828Y-97027368D01*
X104221400Y-98098797D02*
X104292828Y-97955940D01*
X104292828Y-97955940D02*
X104292828Y-97670226D01*
X104292828Y-97670226D02*
X104221400Y-97527368D01*
X104221400Y-97527368D02*
X104078542Y-97455940D01*
X104078542Y-97455940D02*
X103507114Y-97455940D01*
X103507114Y-97455940D02*
X103364257Y-97527368D01*
X103364257Y-97527368D02*
X103292828Y-97670226D01*
X103292828Y-97670226D02*
X103292828Y-97955940D01*
X103292828Y-97955940D02*
X103364257Y-98098797D01*
X103364257Y-98098797D02*
X103507114Y-98170226D01*
X103507114Y-98170226D02*
X103649971Y-98170226D01*
X103649971Y-98170226D02*
X103792828Y-97455940D01*
X104292828Y-98813082D02*
X103292828Y-98813082D01*
X103435685Y-98813082D02*
X103364257Y-98884511D01*
X103364257Y-98884511D02*
X103292828Y-99027368D01*
X103292828Y-99027368D02*
X103292828Y-99241654D01*
X103292828Y-99241654D02*
X103364257Y-99384511D01*
X103364257Y-99384511D02*
X103507114Y-99455940D01*
X103507114Y-99455940D02*
X104292828Y-99455940D01*
X103507114Y-99455940D02*
X103364257Y-99527368D01*
X103364257Y-99527368D02*
X103292828Y-99670225D01*
X103292828Y-99670225D02*
X103292828Y-99884511D01*
X103292828Y-99884511D02*
X103364257Y-100027368D01*
X103364257Y-100027368D02*
X103507114Y-100098797D01*
X103507114Y-100098797D02*
X104292828Y-100098797D01*
X103292828Y-100813082D02*
X104792828Y-100813082D01*
X103364257Y-100813082D02*
X103292828Y-100955940D01*
X103292828Y-100955940D02*
X103292828Y-101241654D01*
X103292828Y-101241654D02*
X103364257Y-101384511D01*
X103364257Y-101384511D02*
X103435685Y-101455940D01*
X103435685Y-101455940D02*
X103578542Y-101527368D01*
X103578542Y-101527368D02*
X104007114Y-101527368D01*
X104007114Y-101527368D02*
X104149971Y-101455940D01*
X104149971Y-101455940D02*
X104221400Y-101384511D01*
X104221400Y-101384511D02*
X104292828Y-101241654D01*
X104292828Y-101241654D02*
X104292828Y-100955940D01*
X104292828Y-100955940D02*
X104221400Y-100813082D01*
X146260346Y-141020828D02*
X146760346Y-140306542D01*
X147117489Y-141020828D02*
X147117489Y-139520828D01*
X147117489Y-139520828D02*
X146546060Y-139520828D01*
X146546060Y-139520828D02*
X146403203Y-139592257D01*
X146403203Y-139592257D02*
X146331774Y-139663685D01*
X146331774Y-139663685D02*
X146260346Y-139806542D01*
X146260346Y-139806542D02*
X146260346Y-140020828D01*
X146260346Y-140020828D02*
X146331774Y-140163685D01*
X146331774Y-140163685D02*
X146403203Y-140235114D01*
X146403203Y-140235114D02*
X146546060Y-140306542D01*
X146546060Y-140306542D02*
X147117489Y-140306542D01*
X145617489Y-140235114D02*
X145117489Y-140235114D01*
X144903203Y-141020828D02*
X145617489Y-141020828D01*
X145617489Y-141020828D02*
X145617489Y-139520828D01*
X145617489Y-139520828D02*
X144903203Y-139520828D01*
X143546060Y-141020828D02*
X144260346Y-141020828D01*
X144260346Y-141020828D02*
X144260346Y-139520828D01*
X143117488Y-140592257D02*
X142403203Y-140592257D01*
X143260345Y-141020828D02*
X142760345Y-139520828D01*
X142760345Y-139520828D02*
X142260345Y-141020828D01*
X141474631Y-140306542D02*
X141474631Y-141020828D01*
X141974631Y-139520828D02*
X141474631Y-140306542D01*
X141474631Y-140306542D02*
X140974631Y-139520828D01*
X139403203Y-139663685D02*
X139331775Y-139592257D01*
X139331775Y-139592257D02*
X139188918Y-139520828D01*
X139188918Y-139520828D02*
X138831775Y-139520828D01*
X138831775Y-139520828D02*
X138688918Y-139592257D01*
X138688918Y-139592257D02*
X138617489Y-139663685D01*
X138617489Y-139663685D02*
X138546060Y-139806542D01*
X138546060Y-139806542D02*
X138546060Y-139949400D01*
X138546060Y-139949400D02*
X138617489Y-140163685D01*
X138617489Y-140163685D02*
X139474632Y-141020828D01*
X139474632Y-141020828D02*
X138546060Y-141020828D01*
D11*
X112744782Y-68178609D02*
X112601925Y-68226228D01*
X112601925Y-68226228D02*
X112554306Y-68273847D01*
X112554306Y-68273847D02*
X112506687Y-68369085D01*
X112506687Y-68369085D02*
X112506687Y-68511942D01*
X112506687Y-68511942D02*
X112554306Y-68607180D01*
X112554306Y-68607180D02*
X112601925Y-68654800D01*
X112601925Y-68654800D02*
X112697163Y-68702419D01*
X112697163Y-68702419D02*
X113078115Y-68702419D01*
X113078115Y-68702419D02*
X113078115Y-67702419D01*
X113078115Y-67702419D02*
X112744782Y-67702419D01*
X112744782Y-67702419D02*
X112649544Y-67750038D01*
X112649544Y-67750038D02*
X112601925Y-67797657D01*
X112601925Y-67797657D02*
X112554306Y-67892895D01*
X112554306Y-67892895D02*
X112554306Y-67988133D01*
X112554306Y-67988133D02*
X112601925Y-68083371D01*
X112601925Y-68083371D02*
X112649544Y-68130990D01*
X112649544Y-68130990D02*
X112744782Y-68178609D01*
X112744782Y-68178609D02*
X113078115Y-68178609D01*
X111649544Y-68035752D02*
X111649544Y-68702419D01*
X112078115Y-68035752D02*
X112078115Y-68559561D01*
X112078115Y-68559561D02*
X112030496Y-68654800D01*
X112030496Y-68654800D02*
X111935258Y-68702419D01*
X111935258Y-68702419D02*
X111792401Y-68702419D01*
X111792401Y-68702419D02*
X111697163Y-68654800D01*
X111697163Y-68654800D02*
X111649544Y-68607180D01*
X111173353Y-68702419D02*
X111173353Y-68035752D01*
X111173353Y-67702419D02*
X111220972Y-67750038D01*
X111220972Y-67750038D02*
X111173353Y-67797657D01*
X111173353Y-67797657D02*
X111125734Y-67750038D01*
X111125734Y-67750038D02*
X111173353Y-67702419D01*
X111173353Y-67702419D02*
X111173353Y-67797657D01*
X109935258Y-68702419D02*
X109935258Y-67702419D01*
X109363830Y-68702419D02*
X109792401Y-68130990D01*
X109363830Y-67702419D02*
X109935258Y-68273847D01*
X108935258Y-68702419D02*
X108935258Y-67702419D01*
X108506687Y-68702419D02*
X108506687Y-68178609D01*
X108506687Y-68178609D02*
X108554306Y-68083371D01*
X108554306Y-68083371D02*
X108649544Y-68035752D01*
X108649544Y-68035752D02*
X108792401Y-68035752D01*
X108792401Y-68035752D02*
X108887639Y-68083371D01*
X108887639Y-68083371D02*
X108935258Y-68130990D01*
X107601925Y-68702419D02*
X107601925Y-68178609D01*
X107601925Y-68178609D02*
X107649544Y-68083371D01*
X107649544Y-68083371D02*
X107744782Y-68035752D01*
X107744782Y-68035752D02*
X107935258Y-68035752D01*
X107935258Y-68035752D02*
X108030496Y-68083371D01*
X107601925Y-68654800D02*
X107697163Y-68702419D01*
X107697163Y-68702419D02*
X107935258Y-68702419D01*
X107935258Y-68702419D02*
X108030496Y-68654800D01*
X108030496Y-68654800D02*
X108078115Y-68559561D01*
X108078115Y-68559561D02*
X108078115Y-68464323D01*
X108078115Y-68464323D02*
X108030496Y-68369085D01*
X108030496Y-68369085D02*
X107935258Y-68321466D01*
X107935258Y-68321466D02*
X107697163Y-68321466D01*
X107697163Y-68321466D02*
X107601925Y-68273847D01*
X107125734Y-68035752D02*
X107125734Y-68702419D01*
X107125734Y-68130990D02*
X107078115Y-68083371D01*
X107078115Y-68083371D02*
X106982877Y-68035752D01*
X106982877Y-68035752D02*
X106840020Y-68035752D01*
X106840020Y-68035752D02*
X106744782Y-68083371D01*
X106744782Y-68083371D02*
X106697163Y-68178609D01*
X106697163Y-68178609D02*
X106697163Y-68702419D01*
X106220972Y-68702419D02*
X106220972Y-67702419D01*
X105792401Y-68702419D02*
X105792401Y-68178609D01*
X105792401Y-68178609D02*
X105840020Y-68083371D01*
X105840020Y-68083371D02*
X105935258Y-68035752D01*
X105935258Y-68035752D02*
X106078115Y-68035752D01*
X106078115Y-68035752D02*
X106173353Y-68083371D01*
X106173353Y-68083371D02*
X106220972Y-68130990D01*
X104554305Y-68702419D02*
X104554305Y-67702419D01*
X104554305Y-68178609D02*
X103982877Y-68178609D01*
X103982877Y-68702419D02*
X103982877Y-67702419D01*
X103363829Y-68702419D02*
X103459067Y-68654800D01*
X103459067Y-68654800D02*
X103506686Y-68607180D01*
X103506686Y-68607180D02*
X103554305Y-68511942D01*
X103554305Y-68511942D02*
X103554305Y-68226228D01*
X103554305Y-68226228D02*
X103506686Y-68130990D01*
X103506686Y-68130990D02*
X103459067Y-68083371D01*
X103459067Y-68083371D02*
X103363829Y-68035752D01*
X103363829Y-68035752D02*
X103220972Y-68035752D01*
X103220972Y-68035752D02*
X103125734Y-68083371D01*
X103125734Y-68083371D02*
X103078115Y-68130990D01*
X103078115Y-68130990D02*
X103030496Y-68226228D01*
X103030496Y-68226228D02*
X103030496Y-68511942D01*
X103030496Y-68511942D02*
X103078115Y-68607180D01*
X103078115Y-68607180D02*
X103125734Y-68654800D01*
X103125734Y-68654800D02*
X103220972Y-68702419D01*
X103220972Y-68702419D02*
X103363829Y-68702419D01*
X102173353Y-68702419D02*
X102173353Y-68178609D01*
X102173353Y-68178609D02*
X102220972Y-68083371D01*
X102220972Y-68083371D02*
X102316210Y-68035752D01*
X102316210Y-68035752D02*
X102506686Y-68035752D01*
X102506686Y-68035752D02*
X102601924Y-68083371D01*
X102173353Y-68654800D02*
X102268591Y-68702419D01*
X102268591Y-68702419D02*
X102506686Y-68702419D01*
X102506686Y-68702419D02*
X102601924Y-68654800D01*
X102601924Y-68654800D02*
X102649543Y-68559561D01*
X102649543Y-68559561D02*
X102649543Y-68464323D01*
X102649543Y-68464323D02*
X102601924Y-68369085D01*
X102601924Y-68369085D02*
X102506686Y-68321466D01*
X102506686Y-68321466D02*
X102268591Y-68321466D01*
X102268591Y-68321466D02*
X102173353Y-68273847D01*
X101697162Y-68035752D02*
X101697162Y-68702419D01*
X101697162Y-68130990D02*
X101649543Y-68083371D01*
X101649543Y-68083371D02*
X101554305Y-68035752D01*
X101554305Y-68035752D02*
X101411448Y-68035752D01*
X101411448Y-68035752D02*
X101316210Y-68083371D01*
X101316210Y-68083371D02*
X101268591Y-68178609D01*
X101268591Y-68178609D02*
X101268591Y-68702419D01*
X100363829Y-68035752D02*
X100363829Y-68845276D01*
X100363829Y-68845276D02*
X100411448Y-68940514D01*
X100411448Y-68940514D02*
X100459067Y-68988133D01*
X100459067Y-68988133D02*
X100554305Y-69035752D01*
X100554305Y-69035752D02*
X100697162Y-69035752D01*
X100697162Y-69035752D02*
X100792400Y-68988133D01*
X100363829Y-68654800D02*
X100459067Y-68702419D01*
X100459067Y-68702419D02*
X100649543Y-68702419D01*
X100649543Y-68702419D02*
X100744781Y-68654800D01*
X100744781Y-68654800D02*
X100792400Y-68607180D01*
X100792400Y-68607180D02*
X100840019Y-68511942D01*
X100840019Y-68511942D02*
X100840019Y-68226228D01*
X100840019Y-68226228D02*
X100792400Y-68130990D01*
X100792400Y-68130990D02*
X100744781Y-68083371D01*
X100744781Y-68083371D02*
X100649543Y-68035752D01*
X100649543Y-68035752D02*
X100459067Y-68035752D01*
X100459067Y-68035752D02*
X100363829Y-68083371D01*
D10*
X208955695Y-130386441D02*
X206955695Y-130386441D01*
X208860457Y-130386441D02*
X208955695Y-130195965D01*
X208955695Y-130195965D02*
X208955695Y-129815012D01*
X208955695Y-129815012D02*
X208860457Y-129624536D01*
X208860457Y-129624536D02*
X208765219Y-129529298D01*
X208765219Y-129529298D02*
X208574742Y-129434060D01*
X208574742Y-129434060D02*
X208003314Y-129434060D01*
X208003314Y-129434060D02*
X207812838Y-129529298D01*
X207812838Y-129529298D02*
X207717600Y-129624536D01*
X207717600Y-129624536D02*
X207622361Y-129815012D01*
X207622361Y-129815012D02*
X207622361Y-130195965D01*
X207622361Y-130195965D02*
X207717600Y-130386441D01*
X207622361Y-128576917D02*
X209622361Y-128576917D01*
X208669980Y-128576917D02*
X208669980Y-127434060D01*
X207622361Y-127434060D02*
X209622361Y-127434060D01*
X207622361Y-124957869D02*
X209622361Y-124957869D01*
X209622361Y-124957869D02*
X208193790Y-124291202D01*
X208193790Y-124291202D02*
X209622361Y-123624536D01*
X209622361Y-123624536D02*
X207622361Y-123624536D01*
X208669980Y-122672155D02*
X208669980Y-122005488D01*
X207622361Y-121719774D02*
X207622361Y-122672155D01*
X207622361Y-122672155D02*
X209622361Y-122672155D01*
X209622361Y-122672155D02*
X209622361Y-121719774D01*
X208193790Y-120957869D02*
X208193790Y-120005488D01*
X207622361Y-121148345D02*
X209622361Y-120481679D01*
X209622361Y-120481679D02*
X207622361Y-119815012D01*
X207717600Y-119243583D02*
X207622361Y-118957869D01*
X207622361Y-118957869D02*
X207622361Y-118481678D01*
X207622361Y-118481678D02*
X207717600Y-118291202D01*
X207717600Y-118291202D02*
X207812838Y-118195964D01*
X207812838Y-118195964D02*
X208003314Y-118100726D01*
X208003314Y-118100726D02*
X208193790Y-118100726D01*
X208193790Y-118100726D02*
X208384266Y-118195964D01*
X208384266Y-118195964D02*
X208479504Y-118291202D01*
X208479504Y-118291202D02*
X208574742Y-118481678D01*
X208574742Y-118481678D02*
X208669980Y-118862631D01*
X208669980Y-118862631D02*
X208765219Y-119053107D01*
X208765219Y-119053107D02*
X208860457Y-119148345D01*
X208860457Y-119148345D02*
X209050933Y-119243583D01*
X209050933Y-119243583D02*
X209241409Y-119243583D01*
X209241409Y-119243583D02*
X209431885Y-119148345D01*
X209431885Y-119148345D02*
X209527123Y-119053107D01*
X209527123Y-119053107D02*
X209622361Y-118862631D01*
X209622361Y-118862631D02*
X209622361Y-118386440D01*
X209622361Y-118386440D02*
X209527123Y-118100726D01*
X209622361Y-117243583D02*
X208003314Y-117243583D01*
X208003314Y-117243583D02*
X207812838Y-117148345D01*
X207812838Y-117148345D02*
X207717600Y-117053107D01*
X207717600Y-117053107D02*
X207622361Y-116862631D01*
X207622361Y-116862631D02*
X207622361Y-116481678D01*
X207622361Y-116481678D02*
X207717600Y-116291202D01*
X207717600Y-116291202D02*
X207812838Y-116195964D01*
X207812838Y-116195964D02*
X208003314Y-116100726D01*
X208003314Y-116100726D02*
X209622361Y-116100726D01*
X207622361Y-114005488D02*
X208574742Y-114672155D01*
X207622361Y-115148345D02*
X209622361Y-115148345D01*
X209622361Y-115148345D02*
X209622361Y-114386440D01*
X209622361Y-114386440D02*
X209527123Y-114195964D01*
X209527123Y-114195964D02*
X209431885Y-114100726D01*
X209431885Y-114100726D02*
X209241409Y-114005488D01*
X209241409Y-114005488D02*
X208955695Y-114005488D01*
X208955695Y-114005488D02*
X208765219Y-114100726D01*
X208765219Y-114100726D02*
X208669980Y-114195964D01*
X208669980Y-114195964D02*
X208574742Y-114386440D01*
X208574742Y-114386440D02*
X208574742Y-115148345D01*
X208669980Y-113148345D02*
X208669980Y-112481678D01*
X207622361Y-112195964D02*
X207622361Y-113148345D01*
X207622361Y-113148345D02*
X209622361Y-113148345D01*
X209622361Y-113148345D02*
X209622361Y-112195964D01*
D11*
X123873353Y-128392419D02*
X125301925Y-128392419D01*
X125301925Y-128392419D02*
X125301925Y-127392419D01*
X122873354Y-128392419D02*
X122873354Y-127392419D01*
X119873354Y-127440038D02*
X120159069Y-127392419D01*
X120159069Y-127392419D02*
X120587640Y-127392419D01*
X120587640Y-127392419D02*
X121016211Y-127440038D01*
X121016211Y-127440038D02*
X121301926Y-127535276D01*
X121301926Y-127535276D02*
X121444783Y-127630514D01*
X121444783Y-127630514D02*
X121587640Y-127820990D01*
X121587640Y-127820990D02*
X121587640Y-127963847D01*
X121587640Y-127963847D02*
X121444783Y-128154323D01*
X121444783Y-128154323D02*
X121301926Y-128249561D01*
X121301926Y-128249561D02*
X121016211Y-128344800D01*
X121016211Y-128344800D02*
X120587640Y-128392419D01*
X120587640Y-128392419D02*
X120301926Y-128392419D01*
X120301926Y-128392419D02*
X119873354Y-128344800D01*
X119873354Y-128344800D02*
X119730497Y-128297180D01*
X119730497Y-128297180D02*
X119730497Y-127963847D01*
X119730497Y-127963847D02*
X120301926Y-127963847D01*
X118444783Y-128392419D02*
X118444783Y-127392419D01*
X118444783Y-127868609D02*
X116730497Y-127868609D01*
X116730497Y-128392419D02*
X116730497Y-127392419D01*
X115730497Y-127392419D02*
X114016212Y-127392419D01*
X114873354Y-128392419D02*
X114873354Y-127392419D01*
X110873355Y-128344800D02*
X110444784Y-128392419D01*
X110444784Y-128392419D02*
X109730498Y-128392419D01*
X109730498Y-128392419D02*
X109444784Y-128344800D01*
X109444784Y-128344800D02*
X109301926Y-128297180D01*
X109301926Y-128297180D02*
X109159069Y-128201942D01*
X109159069Y-128201942D02*
X109159069Y-128106704D01*
X109159069Y-128106704D02*
X109301926Y-128011466D01*
X109301926Y-128011466D02*
X109444784Y-127963847D01*
X109444784Y-127963847D02*
X109730498Y-127916228D01*
X109730498Y-127916228D02*
X110301926Y-127868609D01*
X110301926Y-127868609D02*
X110587641Y-127820990D01*
X110587641Y-127820990D02*
X110730498Y-127773371D01*
X110730498Y-127773371D02*
X110873355Y-127678133D01*
X110873355Y-127678133D02*
X110873355Y-127582895D01*
X110873355Y-127582895D02*
X110730498Y-127487657D01*
X110730498Y-127487657D02*
X110587641Y-127440038D01*
X110587641Y-127440038D02*
X110301926Y-127392419D01*
X110301926Y-127392419D02*
X109587641Y-127392419D01*
X109587641Y-127392419D02*
X109159069Y-127440038D01*
X107873355Y-127868609D02*
X106873355Y-127868609D01*
X106444783Y-128392419D02*
X107873355Y-128392419D01*
X107873355Y-128392419D02*
X107873355Y-127392419D01*
X107873355Y-127392419D02*
X106444783Y-127392419D01*
X105159069Y-128392419D02*
X105159069Y-127392419D01*
X105159069Y-127392419D02*
X103444783Y-128392419D01*
X103444783Y-128392419D02*
X103444783Y-127392419D01*
X102159069Y-128344800D02*
X101730498Y-128392419D01*
X101730498Y-128392419D02*
X101016212Y-128392419D01*
X101016212Y-128392419D02*
X100730498Y-128344800D01*
X100730498Y-128344800D02*
X100587640Y-128297180D01*
X100587640Y-128297180D02*
X100444783Y-128201942D01*
X100444783Y-128201942D02*
X100444783Y-128106704D01*
X100444783Y-128106704D02*
X100587640Y-128011466D01*
X100587640Y-128011466D02*
X100730498Y-127963847D01*
X100730498Y-127963847D02*
X101016212Y-127916228D01*
X101016212Y-127916228D02*
X101587640Y-127868609D01*
X101587640Y-127868609D02*
X101873355Y-127820990D01*
X101873355Y-127820990D02*
X102016212Y-127773371D01*
X102016212Y-127773371D02*
X102159069Y-127678133D01*
X102159069Y-127678133D02*
X102159069Y-127582895D01*
X102159069Y-127582895D02*
X102016212Y-127487657D01*
X102016212Y-127487657D02*
X101873355Y-127440038D01*
X101873355Y-127440038D02*
X101587640Y-127392419D01*
X101587640Y-127392419D02*
X100873355Y-127392419D01*
X100873355Y-127392419D02*
X100444783Y-127440038D01*
X98587640Y-127392419D02*
X98016212Y-127392419D01*
X98016212Y-127392419D02*
X97730497Y-127440038D01*
X97730497Y-127440038D02*
X97444783Y-127535276D01*
X97444783Y-127535276D02*
X97301926Y-127725752D01*
X97301926Y-127725752D02*
X97301926Y-128059085D01*
X97301926Y-128059085D02*
X97444783Y-128249561D01*
X97444783Y-128249561D02*
X97730497Y-128344800D01*
X97730497Y-128344800D02*
X98016212Y-128392419D01*
X98016212Y-128392419D02*
X98587640Y-128392419D01*
X98587640Y-128392419D02*
X98873355Y-128344800D01*
X98873355Y-128344800D02*
X99159069Y-128249561D01*
X99159069Y-128249561D02*
X99301926Y-128059085D01*
X99301926Y-128059085D02*
X99301926Y-127725752D01*
X99301926Y-127725752D02*
X99159069Y-127535276D01*
X99159069Y-127535276D02*
X98873355Y-127440038D01*
X98873355Y-127440038D02*
X98587640Y-127392419D01*
X94301926Y-128392419D02*
X95301926Y-127916228D01*
X96016212Y-128392419D02*
X96016212Y-127392419D01*
X96016212Y-127392419D02*
X94873355Y-127392419D01*
X94873355Y-127392419D02*
X94587640Y-127440038D01*
X94587640Y-127440038D02*
X94444783Y-127487657D01*
X94444783Y-127487657D02*
X94301926Y-127582895D01*
X94301926Y-127582895D02*
X94301926Y-127725752D01*
X94301926Y-127725752D02*
X94444783Y-127820990D01*
X94444783Y-127820990D02*
X94587640Y-127868609D01*
X94587640Y-127868609D02*
X94873355Y-127916228D01*
X94873355Y-127916228D02*
X96016212Y-127916228D01*
D10*
X119590346Y-141020828D02*
X120090346Y-140306542D01*
X120447489Y-141020828D02*
X120447489Y-139520828D01*
X120447489Y-139520828D02*
X119876060Y-139520828D01*
X119876060Y-139520828D02*
X119733203Y-139592257D01*
X119733203Y-139592257D02*
X119661774Y-139663685D01*
X119661774Y-139663685D02*
X119590346Y-139806542D01*
X119590346Y-139806542D02*
X119590346Y-140020828D01*
X119590346Y-140020828D02*
X119661774Y-140163685D01*
X119661774Y-140163685D02*
X119733203Y-140235114D01*
X119733203Y-140235114D02*
X119876060Y-140306542D01*
X119876060Y-140306542D02*
X120447489Y-140306542D01*
X118947489Y-140235114D02*
X118447489Y-140235114D01*
X118233203Y-141020828D02*
X118947489Y-141020828D01*
X118947489Y-141020828D02*
X118947489Y-139520828D01*
X118947489Y-139520828D02*
X118233203Y-139520828D01*
X116876060Y-141020828D02*
X117590346Y-141020828D01*
X117590346Y-141020828D02*
X117590346Y-139520828D01*
X116447488Y-140592257D02*
X115733203Y-140592257D01*
X116590345Y-141020828D02*
X116090345Y-139520828D01*
X116090345Y-139520828D02*
X115590345Y-141020828D01*
X114804631Y-140306542D02*
X114804631Y-141020828D01*
X115304631Y-139520828D02*
X114804631Y-140306542D01*
X114804631Y-140306542D02*
X114304631Y-139520828D01*
X111876060Y-141020828D02*
X112733203Y-141020828D01*
X112304632Y-141020828D02*
X112304632Y-139520828D01*
X112304632Y-139520828D02*
X112447489Y-139735114D01*
X112447489Y-139735114D02*
X112590346Y-139877971D01*
X112590346Y-139877971D02*
X112733203Y-139949400D01*
X171660346Y-141020828D02*
X172160346Y-140306542D01*
X172517489Y-141020828D02*
X172517489Y-139520828D01*
X172517489Y-139520828D02*
X171946060Y-139520828D01*
X171946060Y-139520828D02*
X171803203Y-139592257D01*
X171803203Y-139592257D02*
X171731774Y-139663685D01*
X171731774Y-139663685D02*
X171660346Y-139806542D01*
X171660346Y-139806542D02*
X171660346Y-140020828D01*
X171660346Y-140020828D02*
X171731774Y-140163685D01*
X171731774Y-140163685D02*
X171803203Y-140235114D01*
X171803203Y-140235114D02*
X171946060Y-140306542D01*
X171946060Y-140306542D02*
X172517489Y-140306542D01*
X171017489Y-140235114D02*
X170517489Y-140235114D01*
X170303203Y-141020828D02*
X171017489Y-141020828D01*
X171017489Y-141020828D02*
X171017489Y-139520828D01*
X171017489Y-139520828D02*
X170303203Y-139520828D01*
X168946060Y-141020828D02*
X169660346Y-141020828D01*
X169660346Y-141020828D02*
X169660346Y-139520828D01*
X168517488Y-140592257D02*
X167803203Y-140592257D01*
X168660345Y-141020828D02*
X168160345Y-139520828D01*
X168160345Y-139520828D02*
X167660345Y-141020828D01*
X166874631Y-140306542D02*
X166874631Y-141020828D01*
X167374631Y-139520828D02*
X166874631Y-140306542D01*
X166874631Y-140306542D02*
X166374631Y-139520828D01*
X164874632Y-139520828D02*
X163946060Y-139520828D01*
X163946060Y-139520828D02*
X164446060Y-140092257D01*
X164446060Y-140092257D02*
X164231775Y-140092257D01*
X164231775Y-140092257D02*
X164088918Y-140163685D01*
X164088918Y-140163685D02*
X164017489Y-140235114D01*
X164017489Y-140235114D02*
X163946060Y-140377971D01*
X163946060Y-140377971D02*
X163946060Y-140735114D01*
X163946060Y-140735114D02*
X164017489Y-140877971D01*
X164017489Y-140877971D02*
X164088918Y-140949400D01*
X164088918Y-140949400D02*
X164231775Y-141020828D01*
X164231775Y-141020828D02*
X164660346Y-141020828D01*
X164660346Y-141020828D02*
X164803203Y-140949400D01*
X164803203Y-140949400D02*
X164874632Y-140877971D01*
D11*
X204170609Y-84707217D02*
X204218228Y-84850074D01*
X204218228Y-84850074D02*
X204265847Y-84897693D01*
X204265847Y-84897693D02*
X204361085Y-84945312D01*
X204361085Y-84945312D02*
X204503942Y-84945312D01*
X204503942Y-84945312D02*
X204599180Y-84897693D01*
X204599180Y-84897693D02*
X204646800Y-84850074D01*
X204646800Y-84850074D02*
X204694419Y-84754836D01*
X204694419Y-84754836D02*
X204694419Y-84373884D01*
X204694419Y-84373884D02*
X203694419Y-84373884D01*
X203694419Y-84373884D02*
X203694419Y-84707217D01*
X203694419Y-84707217D02*
X203742038Y-84802455D01*
X203742038Y-84802455D02*
X203789657Y-84850074D01*
X203789657Y-84850074D02*
X203884895Y-84897693D01*
X203884895Y-84897693D02*
X203980133Y-84897693D01*
X203980133Y-84897693D02*
X204075371Y-84850074D01*
X204075371Y-84850074D02*
X204122990Y-84802455D01*
X204122990Y-84802455D02*
X204170609Y-84707217D01*
X204170609Y-84707217D02*
X204170609Y-84373884D01*
X203694419Y-85373884D02*
X204503942Y-85373884D01*
X204503942Y-85373884D02*
X204599180Y-85421503D01*
X204599180Y-85421503D02*
X204646800Y-85469122D01*
X204646800Y-85469122D02*
X204694419Y-85564360D01*
X204694419Y-85564360D02*
X204694419Y-85754836D01*
X204694419Y-85754836D02*
X204646800Y-85850074D01*
X204646800Y-85850074D02*
X204599180Y-85897693D01*
X204599180Y-85897693D02*
X204503942Y-85945312D01*
X204503942Y-85945312D02*
X203694419Y-85945312D01*
X204599180Y-86992931D02*
X204646800Y-86945312D01*
X204646800Y-86945312D02*
X204694419Y-86802455D01*
X204694419Y-86802455D02*
X204694419Y-86707217D01*
X204694419Y-86707217D02*
X204646800Y-86564360D01*
X204646800Y-86564360D02*
X204551561Y-86469122D01*
X204551561Y-86469122D02*
X204456323Y-86421503D01*
X204456323Y-86421503D02*
X204265847Y-86373884D01*
X204265847Y-86373884D02*
X204122990Y-86373884D01*
X204122990Y-86373884D02*
X203932514Y-86421503D01*
X203932514Y-86421503D02*
X203837276Y-86469122D01*
X203837276Y-86469122D02*
X203742038Y-86564360D01*
X203742038Y-86564360D02*
X203694419Y-86707217D01*
X203694419Y-86707217D02*
X203694419Y-86802455D01*
X203694419Y-86802455D02*
X203742038Y-86945312D01*
X203742038Y-86945312D02*
X203789657Y-86992931D01*
X204694419Y-87421503D02*
X203694419Y-87421503D01*
X204694419Y-87992931D02*
X204122990Y-87564360D01*
X203694419Y-87992931D02*
X204265847Y-87421503D01*
X204599180Y-89754836D02*
X204646800Y-89707217D01*
X204646800Y-89707217D02*
X204694419Y-89564360D01*
X204694419Y-89564360D02*
X204694419Y-89469122D01*
X204694419Y-89469122D02*
X204646800Y-89326265D01*
X204646800Y-89326265D02*
X204551561Y-89231027D01*
X204551561Y-89231027D02*
X204456323Y-89183408D01*
X204456323Y-89183408D02*
X204265847Y-89135789D01*
X204265847Y-89135789D02*
X204122990Y-89135789D01*
X204122990Y-89135789D02*
X203932514Y-89183408D01*
X203932514Y-89183408D02*
X203837276Y-89231027D01*
X203837276Y-89231027D02*
X203742038Y-89326265D01*
X203742038Y-89326265D02*
X203694419Y-89469122D01*
X203694419Y-89469122D02*
X203694419Y-89564360D01*
X203694419Y-89564360D02*
X203742038Y-89707217D01*
X203742038Y-89707217D02*
X203789657Y-89754836D01*
X203694419Y-90373884D02*
X203694419Y-90564360D01*
X203694419Y-90564360D02*
X203742038Y-90659598D01*
X203742038Y-90659598D02*
X203837276Y-90754836D01*
X203837276Y-90754836D02*
X204027752Y-90802455D01*
X204027752Y-90802455D02*
X204361085Y-90802455D01*
X204361085Y-90802455D02*
X204551561Y-90754836D01*
X204551561Y-90754836D02*
X204646800Y-90659598D01*
X204646800Y-90659598D02*
X204694419Y-90564360D01*
X204694419Y-90564360D02*
X204694419Y-90373884D01*
X204694419Y-90373884D02*
X204646800Y-90278646D01*
X204646800Y-90278646D02*
X204551561Y-90183408D01*
X204551561Y-90183408D02*
X204361085Y-90135789D01*
X204361085Y-90135789D02*
X204027752Y-90135789D01*
X204027752Y-90135789D02*
X203837276Y-90183408D01*
X203837276Y-90183408D02*
X203742038Y-90278646D01*
X203742038Y-90278646D02*
X203694419Y-90373884D01*
X204694419Y-91231027D02*
X203694419Y-91231027D01*
X203694419Y-91231027D02*
X204694419Y-91802455D01*
X204694419Y-91802455D02*
X203694419Y-91802455D01*
X203694419Y-92135789D02*
X204694419Y-92469122D01*
X204694419Y-92469122D02*
X203694419Y-92802455D01*
X204170609Y-93135789D02*
X204170609Y-93469122D01*
X204694419Y-93611979D02*
X204694419Y-93135789D01*
X204694419Y-93135789D02*
X203694419Y-93135789D01*
X203694419Y-93135789D02*
X203694419Y-93611979D01*
X204694419Y-94611979D02*
X204218228Y-94278646D01*
X204694419Y-94040551D02*
X203694419Y-94040551D01*
X203694419Y-94040551D02*
X203694419Y-94421503D01*
X203694419Y-94421503D02*
X203742038Y-94516741D01*
X203742038Y-94516741D02*
X203789657Y-94564360D01*
X203789657Y-94564360D02*
X203884895Y-94611979D01*
X203884895Y-94611979D02*
X204027752Y-94611979D01*
X204027752Y-94611979D02*
X204122990Y-94564360D01*
X204122990Y-94564360D02*
X204170609Y-94516741D01*
X204170609Y-94516741D02*
X204218228Y-94421503D01*
X204218228Y-94421503D02*
X204218228Y-94040551D01*
X203694419Y-94897694D02*
X203694419Y-95469122D01*
X204694419Y-95183408D02*
X203694419Y-95183408D01*
X204170609Y-95802456D02*
X204170609Y-96135789D01*
X204694419Y-96278646D02*
X204694419Y-95802456D01*
X204694419Y-95802456D02*
X203694419Y-95802456D01*
X203694419Y-95802456D02*
X203694419Y-96278646D01*
X204694419Y-97278646D02*
X204218228Y-96945313D01*
X204694419Y-96707218D02*
X203694419Y-96707218D01*
X203694419Y-96707218D02*
X203694419Y-97088170D01*
X203694419Y-97088170D02*
X203742038Y-97183408D01*
X203742038Y-97183408D02*
X203789657Y-97231027D01*
X203789657Y-97231027D02*
X203884895Y-97278646D01*
X203884895Y-97278646D02*
X204027752Y-97278646D01*
X204027752Y-97278646D02*
X204122990Y-97231027D01*
X204122990Y-97231027D02*
X204170609Y-97183408D01*
X204170609Y-97183408D02*
X204218228Y-97088170D01*
X204218228Y-97088170D02*
X204218228Y-96707218D01*
D12*
X183874857Y-116339580D02*
X183922476Y-116387200D01*
X183922476Y-116387200D02*
X184065333Y-116434819D01*
X184065333Y-116434819D02*
X184160571Y-116434819D01*
X184160571Y-116434819D02*
X184303428Y-116387200D01*
X184303428Y-116387200D02*
X184398666Y-116291961D01*
X184398666Y-116291961D02*
X184446285Y-116196723D01*
X184446285Y-116196723D02*
X184493904Y-116006247D01*
X184493904Y-116006247D02*
X184493904Y-115863390D01*
X184493904Y-115863390D02*
X184446285Y-115672914D01*
X184446285Y-115672914D02*
X184398666Y-115577676D01*
X184398666Y-115577676D02*
X184303428Y-115482438D01*
X184303428Y-115482438D02*
X184160571Y-115434819D01*
X184160571Y-115434819D02*
X184065333Y-115434819D01*
X184065333Y-115434819D02*
X183922476Y-115482438D01*
X183922476Y-115482438D02*
X183874857Y-115530057D01*
X183541523Y-115434819D02*
X182922476Y-115434819D01*
X182922476Y-115434819D02*
X183255809Y-115815771D01*
X183255809Y-115815771D02*
X183112952Y-115815771D01*
X183112952Y-115815771D02*
X183017714Y-115863390D01*
X183017714Y-115863390D02*
X182970095Y-115911009D01*
X182970095Y-115911009D02*
X182922476Y-116006247D01*
X182922476Y-116006247D02*
X182922476Y-116244342D01*
X182922476Y-116244342D02*
X182970095Y-116339580D01*
X182970095Y-116339580D02*
X183017714Y-116387200D01*
X183017714Y-116387200D02*
X183112952Y-116434819D01*
X183112952Y-116434819D02*
X183398666Y-116434819D01*
X183398666Y-116434819D02*
X183493904Y-116387200D01*
X183493904Y-116387200D02*
X183541523Y-116339580D01*
X182017714Y-115434819D02*
X182493904Y-115434819D01*
X182493904Y-115434819D02*
X182541523Y-115911009D01*
X182541523Y-115911009D02*
X182493904Y-115863390D01*
X182493904Y-115863390D02*
X182398666Y-115815771D01*
X182398666Y-115815771D02*
X182160571Y-115815771D01*
X182160571Y-115815771D02*
X182065333Y-115863390D01*
X182065333Y-115863390D02*
X182017714Y-115911009D01*
X182017714Y-115911009D02*
X181970095Y-116006247D01*
X181970095Y-116006247D02*
X181970095Y-116244342D01*
X181970095Y-116244342D02*
X182017714Y-116339580D01*
X182017714Y-116339580D02*
X182065333Y-116387200D01*
X182065333Y-116387200D02*
X182160571Y-116434819D01*
X182160571Y-116434819D02*
X182398666Y-116434819D01*
X182398666Y-116434819D02*
X182493904Y-116387200D01*
X182493904Y-116387200D02*
X182541523Y-116339580D01*
X171148952Y-95102819D02*
X171720380Y-95102819D01*
X171434666Y-95102819D02*
X171434666Y-94102819D01*
X171434666Y-94102819D02*
X171529904Y-94245676D01*
X171529904Y-94245676D02*
X171625142Y-94340914D01*
X171625142Y-94340914D02*
X171720380Y-94388533D01*
X170529904Y-94102819D02*
X170434666Y-94102819D01*
X170434666Y-94102819D02*
X170339428Y-94150438D01*
X170339428Y-94150438D02*
X170291809Y-94198057D01*
X170291809Y-94198057D02*
X170244190Y-94293295D01*
X170244190Y-94293295D02*
X170196571Y-94483771D01*
X170196571Y-94483771D02*
X170196571Y-94721866D01*
X170196571Y-94721866D02*
X170244190Y-94912342D01*
X170244190Y-94912342D02*
X170291809Y-95007580D01*
X170291809Y-95007580D02*
X170339428Y-95055200D01*
X170339428Y-95055200D02*
X170434666Y-95102819D01*
X170434666Y-95102819D02*
X170529904Y-95102819D01*
X170529904Y-95102819D02*
X170625142Y-95055200D01*
X170625142Y-95055200D02*
X170672761Y-95007580D01*
X170672761Y-95007580D02*
X170720380Y-94912342D01*
X170720380Y-94912342D02*
X170767999Y-94721866D01*
X170767999Y-94721866D02*
X170767999Y-94483771D01*
X170767999Y-94483771D02*
X170720380Y-94293295D01*
X170720380Y-94293295D02*
X170672761Y-94198057D01*
X170672761Y-94198057D02*
X170625142Y-94150438D01*
X170625142Y-94150438D02*
X170529904Y-94102819D01*
X169291809Y-94102819D02*
X169767999Y-94102819D01*
X169767999Y-94102819D02*
X169815618Y-94579009D01*
X169815618Y-94579009D02*
X169767999Y-94531390D01*
X169767999Y-94531390D02*
X169672761Y-94483771D01*
X169672761Y-94483771D02*
X169434666Y-94483771D01*
X169434666Y-94483771D02*
X169339428Y-94531390D01*
X169339428Y-94531390D02*
X169291809Y-94579009D01*
X169291809Y-94579009D02*
X169244190Y-94674247D01*
X169244190Y-94674247D02*
X169244190Y-94912342D01*
X169244190Y-94912342D02*
X169291809Y-95007580D01*
X169291809Y-95007580D02*
X169339428Y-95055200D01*
X169339428Y-95055200D02*
X169434666Y-95102819D01*
X169434666Y-95102819D02*
X169672761Y-95102819D01*
X169672761Y-95102819D02*
X169767999Y-95055200D01*
X169767999Y-95055200D02*
X169815618Y-95007580D01*
X168767999Y-95055200D02*
X168767999Y-95102819D01*
X168767999Y-95102819D02*
X168815618Y-95198057D01*
X168815618Y-95198057D02*
X168863237Y-95245676D01*
X167815619Y-95102819D02*
X168387047Y-95102819D01*
X168101333Y-95102819D02*
X168101333Y-94102819D01*
X168101333Y-94102819D02*
X168196571Y-94245676D01*
X168196571Y-94245676D02*
X168291809Y-94340914D01*
X168291809Y-94340914D02*
X168387047Y-94388533D01*
X184369857Y-113799580D02*
X184417476Y-113847200D01*
X184417476Y-113847200D02*
X184560333Y-113894819D01*
X184560333Y-113894819D02*
X184655571Y-113894819D01*
X184655571Y-113894819D02*
X184798428Y-113847200D01*
X184798428Y-113847200D02*
X184893666Y-113751961D01*
X184893666Y-113751961D02*
X184941285Y-113656723D01*
X184941285Y-113656723D02*
X184988904Y-113466247D01*
X184988904Y-113466247D02*
X184988904Y-113323390D01*
X184988904Y-113323390D02*
X184941285Y-113132914D01*
X184941285Y-113132914D02*
X184893666Y-113037676D01*
X184893666Y-113037676D02*
X184798428Y-112942438D01*
X184798428Y-112942438D02*
X184655571Y-112894819D01*
X184655571Y-112894819D02*
X184560333Y-112894819D01*
X184560333Y-112894819D02*
X184417476Y-112942438D01*
X184417476Y-112942438D02*
X184369857Y-112990057D01*
X184036523Y-112894819D02*
X183417476Y-112894819D01*
X183417476Y-112894819D02*
X183750809Y-113275771D01*
X183750809Y-113275771D02*
X183607952Y-113275771D01*
X183607952Y-113275771D02*
X183512714Y-113323390D01*
X183512714Y-113323390D02*
X183465095Y-113371009D01*
X183465095Y-113371009D02*
X183417476Y-113466247D01*
X183417476Y-113466247D02*
X183417476Y-113704342D01*
X183417476Y-113704342D02*
X183465095Y-113799580D01*
X183465095Y-113799580D02*
X183512714Y-113847200D01*
X183512714Y-113847200D02*
X183607952Y-113894819D01*
X183607952Y-113894819D02*
X183893666Y-113894819D01*
X183893666Y-113894819D02*
X183988904Y-113847200D01*
X183988904Y-113847200D02*
X184036523Y-113799580D01*
X182560333Y-113228152D02*
X182560333Y-113894819D01*
X182798428Y-112847200D02*
X183036523Y-113561485D01*
X183036523Y-113561485D02*
X182417476Y-113561485D01*
X170902952Y-89702819D02*
X171236285Y-89226628D01*
X171474380Y-89702819D02*
X171474380Y-88702819D01*
X171474380Y-88702819D02*
X171093428Y-88702819D01*
X171093428Y-88702819D02*
X170998190Y-88750438D01*
X170998190Y-88750438D02*
X170950571Y-88798057D01*
X170950571Y-88798057D02*
X170902952Y-88893295D01*
X170902952Y-88893295D02*
X170902952Y-89036152D01*
X170902952Y-89036152D02*
X170950571Y-89131390D01*
X170950571Y-89131390D02*
X170998190Y-89179009D01*
X170998190Y-89179009D02*
X171093428Y-89226628D01*
X171093428Y-89226628D02*
X171474380Y-89226628D01*
X170569618Y-88702819D02*
X169950571Y-88702819D01*
X169950571Y-88702819D02*
X170283904Y-89083771D01*
X170283904Y-89083771D02*
X170141047Y-89083771D01*
X170141047Y-89083771D02*
X170045809Y-89131390D01*
X170045809Y-89131390D02*
X169998190Y-89179009D01*
X169998190Y-89179009D02*
X169950571Y-89274247D01*
X169950571Y-89274247D02*
X169950571Y-89512342D01*
X169950571Y-89512342D02*
X169998190Y-89607580D01*
X169998190Y-89607580D02*
X170045809Y-89655200D01*
X170045809Y-89655200D02*
X170141047Y-89702819D01*
X170141047Y-89702819D02*
X170426761Y-89702819D01*
X170426761Y-89702819D02*
X170521999Y-89655200D01*
X170521999Y-89655200D02*
X170569618Y-89607580D01*
X169474380Y-89655200D02*
X169474380Y-89702819D01*
X169474380Y-89702819D02*
X169521999Y-89798057D01*
X169521999Y-89798057D02*
X169569618Y-89845676D01*
X169093428Y-88798057D02*
X169045809Y-88750438D01*
X169045809Y-88750438D02*
X168950571Y-88702819D01*
X168950571Y-88702819D02*
X168712476Y-88702819D01*
X168712476Y-88702819D02*
X168617238Y-88750438D01*
X168617238Y-88750438D02*
X168569619Y-88798057D01*
X168569619Y-88798057D02*
X168522000Y-88893295D01*
X168522000Y-88893295D02*
X168522000Y-88988533D01*
X168522000Y-88988533D02*
X168569619Y-89131390D01*
X168569619Y-89131390D02*
X169141047Y-89702819D01*
X169141047Y-89702819D02*
X168522000Y-89702819D01*
X160317190Y-93378628D02*
X160317190Y-93854819D01*
X160650523Y-92854819D02*
X160317190Y-93378628D01*
X160317190Y-93378628D02*
X159983857Y-92854819D01*
X159698142Y-92950057D02*
X159650523Y-92902438D01*
X159650523Y-92902438D02*
X159555285Y-92854819D01*
X159555285Y-92854819D02*
X159317190Y-92854819D01*
X159317190Y-92854819D02*
X159221952Y-92902438D01*
X159221952Y-92902438D02*
X159174333Y-92950057D01*
X159174333Y-92950057D02*
X159126714Y-93045295D01*
X159126714Y-93045295D02*
X159126714Y-93140533D01*
X159126714Y-93140533D02*
X159174333Y-93283390D01*
X159174333Y-93283390D02*
X159745761Y-93854819D01*
X159745761Y-93854819D02*
X159126714Y-93854819D01*
D13*
%TO.C,C35*%
X183372580Y-114040000D02*
X183091420Y-114040000D01*
X183372580Y-115060000D02*
X183091420Y-115060000D01*
%TO.C,104\u002C2*%
X150196420Y-75207400D02*
X150477580Y-75207400D01*
X150196420Y-76227400D02*
X150477580Y-76227400D01*
%TO.C,C9*%
X150069420Y-72134000D02*
X150350580Y-72134000D01*
X150069420Y-73154000D02*
X150350580Y-73154000D01*
%TO.C,C2*%
X150018620Y-69213000D02*
X150299780Y-69213000D01*
X150018620Y-70233000D02*
X150299780Y-70233000D01*
%TO.C,C1*%
X154160580Y-68578000D02*
X153879420Y-68578000D01*
X154160580Y-69598000D02*
X153879420Y-69598000D01*
%TO.C,104\u002C4*%
X146494733Y-70922250D02*
X146787267Y-70922250D01*
X146494733Y-71942250D02*
X146787267Y-71942250D01*
%TO.C,105\u002C1*%
X169908580Y-92708000D02*
X169627420Y-92708000D01*
X169908580Y-93728000D02*
X169627420Y-93728000D01*
%TO.C,C34*%
X183867580Y-111500000D02*
X183586420Y-111500000D01*
X183867580Y-112520000D02*
X183586420Y-112520000D01*
%TO.C,R3\u002C2*%
X169767276Y-90155500D02*
X170276724Y-90155500D01*
X169767276Y-91200500D02*
X170276724Y-91200500D01*
%TO.C,Y2*%
X155641000Y-88400000D02*
X155641000Y-87100000D01*
X155641000Y-90700000D02*
X155641000Y-89400000D01*
X156111000Y-87100000D02*
X155641000Y-87100000D01*
X156111000Y-90700000D02*
X155641000Y-90700000D01*
X157941000Y-87100000D02*
X161741000Y-87100000D01*
X161741000Y-90700000D02*
X157941000Y-90700000D01*
X163571000Y-87100000D02*
X164041000Y-87100000D01*
X164041000Y-87100000D02*
X164041000Y-90700000D01*
X164041000Y-90700000D02*
X163571000Y-90700000D01*
X155641000Y-88400000D02*
G75*
G02*
X155641000Y-89400000I0J-500000D01*
G01*
%TD*%
M02*
