M48
; DRILL file {KiCad 8.0.4} date 2024-09-29T16:25:56+0700
; FORMAT={-:-/ absolute / inch / decimal}
; #@! TF.CreationDate,2024-09-29T16:25:56+07:00
; #@! TF.GenerationSoftware,Kicad,Pcbnew,8.0.4
; #@! TF.FileFunction,Plated,1,2,PTH
FMAT,2
INCH
; #@! TA.AperFunction,Plated,PTH,ComponentDrill
T1C0.0079
; #@! TA.AperFunction,Plated,PTH,ViaDrill
T2C0.0118
; #@! TA.AperFunction,Plated,PTH,ComponentDrill
T3C0.0315
; #@! TA.AperFunction,Plated,PTH,ComponentDrill
T4C0.0394
; #@! TA.AperFunction,Plated,PTH,ComponentDrill
T5C0.0433
; #@! TA.AperFunction,Plated,PTH,ComponentDrill
T6C0.0472
; #@! TA.AperFunction,Plated,PTH,ComponentDrill
T7C0.0512
; #@! TA.AperFunction,Plated,PTH,ComponentDrill
T8C0.0551
; #@! TA.AperFunction,Plated,PTH,ComponentDrill
T9C0.1378
%
G90
G05
T1
X4.55Y-3.7606
X4.55Y-3.8
X4.55Y-3.8394
X4.6012Y-3.7606
X4.6012Y-3.8
X4.6012Y-3.8394
X4.8488Y-4.1213
X4.8488Y-4.1606
X4.8488Y-4.2
X4.9Y-4.1213
X4.9Y-4.1606
X4.9Y-4.2
X6.9Y-5.0449
X6.9Y-5.1
X6.9Y-5.1551
X6.9551Y-5.0449
X6.9551Y-5.1
X6.9551Y-5.1551
X7.052Y-5.4811
X7.052Y-5.5205
X7.052Y-5.5598
X7.1031Y-5.4811
X7.1031Y-5.5205
X7.1031Y-5.5598
T2
X3.3465Y-4.1
X3.3564Y-4.449
X3.4Y-4.1
X3.45Y-3.95
X3.45Y-4.3
X3.45Y-5.15
X3.5Y-4.15
X3.5Y-4.25
X3.5Y-4.5
X3.524Y-3.876
X3.55Y-5.05
X3.6Y-4.05
X3.6Y-4.9
X3.65Y-5.05
X3.6736Y-4.05
X3.7Y-3.9
X3.7Y-4.15
X3.75Y-4.5
X3.7925Y-5.0444
X3.8Y-5.15
X3.85Y-3.95
X3.85Y-5.4
X3.9058Y-4.6558
X3.9189Y-5.3689
X3.9189Y-5.4689
X3.9281Y-3.8724
X3.95Y-4.2
X4.0Y-5.05
X4.05Y-4.45
X4.1Y-4.9
X4.15Y-5.0
X4.2Y-3.95
X4.25Y-3.589
X4.25Y-4.25
X4.3Y-3.5
X4.3Y-3.65
X4.3Y-5.0
X4.3Y-5.45
X4.35Y-3.35
X4.4Y-3.7
X4.4Y-3.871
X4.4736Y-4.5157
X4.5Y-4.4
X4.5141Y-3.5
X4.6Y-4.9
X4.6248Y-4.1988
X4.65Y-4.15
X4.7Y-4.9
X4.7Y-5.15
X4.7031Y-4.0939
X4.75Y-3.95
X4.75Y-5.15
X4.8Y-3.95
X4.8Y-4.75
X4.85Y-4.9
X4.85Y-5.05
X4.85Y-5.2
X4.9Y-4.45
X4.95Y-4.4
X5.1Y-4.0
X5.15Y-3.9
X5.15Y-4.2
X5.235Y-3.8
X5.3Y-4.5
X5.3Y-4.55
X5.3Y-5.35
X5.35Y-3.85
X5.4Y-3.55
X5.4229Y-2.9872
X5.4499Y-3.2202
X5.45Y-4.1
X5.4764Y-4.0
X5.4894Y-2.9025
X5.5Y-4.05
X5.5499Y-3.3302
X5.55Y-4.3
X5.5744Y-3.0712
X5.6Y-2.75
X5.6299Y-2.8902
X5.6354Y-3.0712
X5.6778Y-3.1732
X5.7399Y-3.1732
X5.75Y-5.3
X5.775Y-5.625
X5.7799Y-2.9202
X5.7799Y-3.7202
X5.7859Y-3.0907
X5.8Y-4.6
X5.8023Y-5.0477
X5.8099Y-3.4002
X5.85Y-5.15
X5.8791Y-3.6719
X5.9099Y-3.2202
X6.0Y-5.0
X6.0299Y-3.5882
X6.1099Y-3.5961
X6.1507Y-3.5409
X6.2099Y-3.2102
X6.2199Y-3.3302
X6.2599Y-3.5402
X6.2771Y-3.5873
X6.3074Y-3.8995
X6.31Y-3.9309
X6.3199Y-3.5302
X6.3399Y-3.3402
X6.3499Y-3.6602
X6.3599Y-3.5602
X6.3622Y-3.3179
X6.3749Y-3.1152
X6.3982Y-3.3185
X6.3999Y-3.2083
X6.3999Y-3.5302
X6.4Y-5.2
X6.4299Y-3.5602
X6.4499Y-3.2302
X6.45Y-4.35
X6.4599Y-3.478
X6.4899Y-3.3702
X6.5Y-4.3
X6.5099Y-3.3402
X6.5299Y-3.264
X6.5299Y-3.4402
X6.5999Y-3.4976
X6.65Y-4.0
X6.6682Y-3.5173
X6.6699Y-3.1802
X6.75Y-4.45
X6.75Y-5.05
X6.75Y-5.25
X6.75Y-5.55
X6.7501Y-5.0999
X6.8Y-5.35
X6.824Y-4.25
X6.85Y-5.4
X6.85Y-5.45
X6.85Y-5.5959
X6.9099Y-3.4802
X6.95Y-4.5
X6.95Y-5.3
X6.95Y-5.4
X6.95Y-5.65
X6.9801Y-5.4955
X7.1Y-4.9
X7.1Y-5.0
X7.1Y-5.2
X7.1Y-5.65
X7.1116Y-4.5213
X7.15Y-5.3
X7.1637Y-4.6137
X7.1963Y-4.4363
X7.2Y-5.3
X7.25Y-5.4
X7.25Y-5.5095
X7.2637Y-4.6137
X7.3Y-5.25
X7.35Y-5.35
X7.3963Y-4.6863
X7.4236Y-5.3
X7.45Y-5.1
X7.4516Y-5.45
X7.5463Y-4.7613
X7.6046Y-3.3945
X7.7963Y-4.6761
T3
X3.3461Y-3.698
X3.3461Y-3.7768
X3.3581Y-3.2769
X3.3581Y-3.3557
X3.3581Y-3.4344
X3.6241Y-3.3424
X3.6241Y-3.4424
X3.6241Y-3.5424
X3.6241Y-3.6424
X5.1Y-4.3213
X5.1Y-4.4
X5.25Y-3.25
X5.4899Y-3.5354
X5.4899Y-3.685
X5.7299Y-3.3939
X5.7299Y-3.4727
X5.7299Y-3.5514
X5.7299Y-3.6302
X5.7299Y-3.792
X5.7299Y-3.8708
X5.7299Y-3.9495
X5.7299Y-4.0283
X5.8718Y-3.2902
X5.9018Y-3.8802
X5.9506Y-3.2902
X5.9806Y-3.8802
X6.0Y-4.2
X6.0293Y-3.2902
X6.0593Y-3.8802
X6.0787Y-4.2
X6.108Y-3.2902
X6.138Y-3.8802
X6.1499Y-2.9502
X6.1499Y-3.0702
X6.2524Y-4.0302
X6.2699Y-2.9502
X6.2699Y-3.0702
X6.3312Y-4.0302
X6.3899Y-2.9502
X6.4099Y-4.0302
X6.4887Y-4.0302
X6.5818Y-3.8802
X6.5999Y-3.2902
X6.6606Y-3.8802
X6.6787Y-3.2902
X6.7393Y-3.8802
X6.7574Y-3.2902
X6.818Y-3.8802
X6.8361Y-3.2902
X6.9799Y-3.4039
X6.9799Y-3.4827
X6.9799Y-3.5614
X6.9799Y-3.6402
X6.9799Y-3.8227
X6.9799Y-3.9014
X6.9799Y-3.9802
X6.9799Y-4.0589
X7.0363Y-4.1813
X7.0363Y-4.2813
X7.0363Y-4.3813
X7.1299Y-3.4214
X7.1299Y-3.5002
X7.1299Y-3.5789
X7.1299Y-3.6576
X7.9Y-5.0
X7.9Y-5.0787
T4
X4.0256Y-4.7677
X4.498Y-4.7677
X5.0756Y-4.7677
X5.548Y-4.7677
X6.1Y-4.7421
X6.5724Y-4.7421
T5
X5.85Y-4.35
X6.25Y-4.35
T6
X6.5676Y-2.8232
X6.8727Y-2.8232
T7
X4.0256Y-5.248
X4.2638Y-4.6909
X4.5Y-5.25
X5.0756Y-5.248
X5.3138Y-4.6909
X5.55Y-5.25
X6.1Y-5.2224
X6.3382Y-4.6654
X6.5744Y-5.2244
T8
X6.5735Y-2.9728
X6.8668Y-2.9728
T9
X3.4104Y-2.8447
X3.4234Y-5.4857
X7.7774Y-5.4907
X7.7944Y-2.8417
T4
G00X7.3921Y-3.9316
M15
G01X7.3921Y-3.8528
M16
G05
G00X7.5495Y-3.7072
M15
G01X7.4708Y-3.7072
M16
G05
G00X7.6283Y-3.9316
M15
G01X7.6283Y-3.8528
M16
G05
M30
