M48
; DRILL file {KiCad 8.0.4} date 2024-10-02T08:26:17+0700
; FORMAT={-:-/ absolute / inch / decimal}
; #@! TF.CreationDate,2024-10-02T08:26:17+07:00
; #@! TF.GenerationSoftware,Kicad,Pcbnew,8.0.4
; #@! TF.FileFunction,Plated,1,2,PTH
FMAT,2
INCH
; #@! TA.AperFunction,Plated,PTH,ComponentDrill
T1C0.0079
; #@! TA.AperFunction,Plated,PTH,ViaDrill
T2C0.0118
; #@! TA.AperFunction,Plated,PTH,ComponentDrill
T3C0.0315
; #@! TA.AperFunction,Plated,PTH,ComponentDrill
T4C0.0394
; #@! TA.AperFunction,Plated,PTH,ComponentDrill
T5C0.0433
; #@! TA.AperFunction,Plated,PTH,ComponentDrill
T6C0.0472
; #@! TA.AperFunction,Plated,PTH,ComponentDrill
T7C0.0512
; #@! TA.AperFunction,Plated,PTH,ComponentDrill
T8C0.0551
; #@! TA.AperFunction,Plated,PTH,ComponentDrill
T9C0.1378
%
G90
G05
T1
X4.4194Y-3.9305
X4.4194Y-3.9698
X4.4194Y-4.0092
X4.4706Y-3.9305
X4.4706Y-3.9698
X4.4706Y-4.0092
X4.7183Y-4.2911
X4.7183Y-4.3305
X4.7183Y-4.3698
X4.7694Y-4.2911
X4.7694Y-4.3305
X4.7694Y-4.3698
X6.7694Y-5.2147
X6.7694Y-5.2698
X6.7694Y-5.325
X6.8246Y-5.2147
X6.8246Y-5.2698
X6.8246Y-5.325
X6.9214Y-5.6509
X6.9214Y-5.6903
X6.9214Y-5.7297
X6.9726Y-5.6509
X6.9726Y-5.6903
X6.9726Y-5.7297
T2
X3.2159Y-4.2698
X3.2259Y-4.6188
X3.2694Y-4.2698
X3.3194Y-4.1198
X3.3194Y-4.4698
X3.3194Y-5.3198
X3.3694Y-4.3198
X3.3694Y-4.4198
X3.3694Y-4.6698
X3.3935Y-4.0458
X3.4194Y-5.2198
X3.4694Y-4.2198
X3.4694Y-5.0698
X3.5194Y-5.2198
X3.5431Y-4.2198
X3.5694Y-4.3198
X3.6194Y-4.6698
X3.662Y-5.2143
X3.6674Y-4.2698
X3.6694Y-5.3198
X3.7194Y-4.1198
X3.7194Y-5.5698
X3.7694Y-4.3698
X3.7752Y-4.8256
X3.7883Y-5.5387
X3.7883Y-5.6387
X3.8194Y-4.3698
X3.8694Y-5.2198
X3.9194Y-4.6198
X3.9694Y-5.0698
X4.0194Y-5.1698
X4.0694Y-4.1198
X4.1194Y-3.7588
X4.1194Y-4.4198
X4.1694Y-3.6698
X4.1694Y-3.8198
X4.1694Y-5.1698
X4.1694Y-5.6198
X4.2194Y-3.5198
X4.2694Y-3.8698
X4.2694Y-4.0408
X4.3431Y-4.6856
X4.3694Y-4.5698
X4.3835Y-3.6698
X4.4694Y-5.0698
X4.4943Y-4.3687
X4.5194Y-4.3198
X4.5694Y-5.0698
X4.5694Y-5.3198
X4.5726Y-4.2637
X4.6194Y-4.1198
X4.6194Y-5.3198
X4.6435Y-4.0198
X4.6694Y-4.1198
X4.6694Y-4.9198
X4.6935Y-4.0198
X4.7194Y-5.0698
X4.7194Y-5.2198
X4.7194Y-5.3698
X4.7694Y-4.6198
X4.8194Y-4.5698
X4.9694Y-4.1698
X5.0194Y-4.0698
X5.0194Y-4.3698
X5.1045Y-3.9698
X5.15Y-4.45
X5.1694Y-4.6698
X5.1694Y-4.7198
X5.1694Y-5.5198
X5.2194Y-4.0198
X5.2453Y-3.918
X5.2694Y-3.7198
X5.2923Y-3.1571
X5.2958Y-4.45
X5.3194Y-3.39
X5.3194Y-4.2698
X5.3458Y-4.1698
X5.3589Y-3.0723
X5.3694Y-4.2198
X5.4194Y-3.5
X5.4194Y-4.4698
X5.4439Y-3.241
X5.4446Y-2.9446
X5.4994Y-3.06
X5.5049Y-3.241
X5.5194Y-3.9698
X5.5473Y-3.343
X5.5647Y-3.8653
X5.6093Y-3.343
X5.6194Y-5.4698
X5.6444Y-5.7948
X5.6494Y-3.09
X5.6494Y-3.89
X5.6554Y-3.2606
X5.6694Y-4.7698
X5.6717Y-5.2176
X5.6794Y-3.57
X5.7194Y-5.3198
X5.7485Y-3.8417
X5.7794Y-3.39
X5.8435Y-4.9698
X5.8694Y-5.1698
X5.8994Y-3.758
X5.9794Y-3.7659
X6.0202Y-3.7108
X6.0794Y-3.38
X6.0894Y-3.5
X6.1294Y-3.71
X6.1465Y-3.7572
X6.1769Y-4.0694
X6.1794Y-4.1008
X6.1894Y-3.7
X6.2094Y-3.51
X6.2294Y-3.73
X6.2316Y-3.4877
X6.2677Y-3.4883
X6.2694Y-3.3781
X6.2694Y-3.7
X6.2694Y-5.3698
X6.2743Y-3.315
X6.2994Y-3.73
X6.3194Y-3.4
X6.3194Y-4.5198
X6.3294Y-3.6478
X6.3594Y-3.54
X6.3694Y-4.4698
X6.3794Y-3.51
X6.3994Y-3.4338
X6.3994Y-3.61
X6.4694Y-3.6675
X6.5194Y-4.1698
X6.5377Y-3.6872
X6.5394Y-3.35
X6.6194Y-4.6198
X6.6194Y-5.2198
X6.6194Y-5.4198
X6.6194Y-5.7198
X6.6195Y-5.2698
X6.6694Y-5.5198
X6.6935Y-4.4198
X6.7194Y-5.5698
X6.7194Y-5.6198
X6.7194Y-5.7657
X6.8194Y-4.6698
X6.8194Y-5.4698
X6.8194Y-5.5698
X6.8194Y-5.8198
X6.8496Y-5.6653
X6.9694Y-5.0698
X6.9694Y-5.1698
X6.9694Y-5.3698
X6.9694Y-5.8198
X6.9811Y-4.6911
X7.0194Y-5.4698
X7.0332Y-4.7836
X7.0658Y-4.6061
X7.0694Y-5.4698
X7.1194Y-5.5698
X7.1194Y-5.6794
X7.1332Y-4.7836
X7.1694Y-5.4198
X7.2194Y-5.5198
X7.2658Y-4.8561
X7.2931Y-5.4698
X7.3194Y-5.2698
X7.3211Y-5.6198
X7.4158Y-4.9311
X7.474Y-3.5643
X7.6658Y-4.846
T3
X3.2155Y-3.8679
X3.2155Y-3.9466
X3.2275Y-3.4468
X3.2275Y-3.5255
X3.2275Y-3.6042
X3.4935Y-3.5122
X3.4935Y-3.6122
X3.4935Y-3.7122
X3.4935Y-3.8122
X3.8694Y-4.3198
X4.9694Y-4.4911
X4.9694Y-4.5698
X5.1194Y-3.4198
X5.3594Y-3.7052
X5.3594Y-3.8548
X5.5994Y-3.5638
X5.5994Y-3.6425
X5.5994Y-3.7213
X5.5994Y-3.8
X5.5994Y-3.9619
X5.5994Y-4.0406
X5.5994Y-4.1194
X5.5994Y-4.1981
X5.6Y-4.35
X5.6Y-4.4287
X5.7413Y-3.46
X5.7713Y-4.05
X5.82Y-3.46
X5.85Y-4.05
X5.8694Y-4.3698
X5.8987Y-3.46
X5.9287Y-4.05
X5.9482Y-4.3698
X5.9775Y-3.46
X6.0075Y-4.05
X6.0194Y-3.12
X6.0194Y-3.24
X6.1219Y-4.2
X6.1394Y-3.12
X6.1394Y-3.24
X6.2006Y-4.2
X6.2594Y-3.12
X6.2794Y-4.2
X6.3581Y-4.2
X6.4513Y-4.05
X6.4694Y-3.46
X6.53Y-4.05
X6.5481Y-3.46
X6.6087Y-4.05
X6.6269Y-3.46
X6.6875Y-4.05
X6.7056Y-3.46
X6.8494Y-3.5738
X6.8494Y-3.6525
X6.8494Y-3.7313
X6.8494Y-3.81
X6.8494Y-3.9925
X6.8494Y-4.0713
X6.8494Y-4.15
X6.8494Y-4.2287
X6.9058Y-4.3511
X6.9058Y-4.4511
X6.9058Y-4.5511
X6.9994Y-3.5913
X6.9994Y-3.67
X6.9994Y-3.7487
X6.9994Y-3.8275
X7.7694Y-5.1698
X7.7694Y-5.2486
T4
X3.895Y-4.9376
X4.3675Y-4.9376
X4.945Y-4.9376
X5.3398Y-2.85
X5.35Y-1.65
X5.35Y-2.7
X5.3598Y-1.8
X5.4175Y-4.9376
X5.4398Y-2.85
X5.45Y-1.65
X5.45Y-2.7
X5.4598Y-1.8
X5.5398Y-2.85
X5.55Y-1.65
X5.55Y-2.7
X5.5598Y-1.8
X5.6398Y-2.85
X5.65Y-1.65
X5.65Y-2.7
X5.6598Y-1.8
X5.7398Y-2.85
X5.75Y-1.65
X5.75Y-2.7
X5.7598Y-1.8
X5.8398Y-2.85
X5.85Y-1.65
X5.85Y-2.7
X5.8598Y-1.8
X5.9398Y-2.85
X5.95Y-1.65
X5.95Y-2.7
X5.9598Y-1.8
X5.9694Y-4.912
X6.0398Y-2.85
X6.05Y-1.65
X6.05Y-2.7
X6.0598Y-1.8
X6.1398Y-2.85
X6.15Y-1.65
X6.15Y-2.7
X6.1598Y-1.8
X6.2398Y-2.85
X6.25Y-1.65
X6.25Y-2.7
X6.2598Y-1.8
X6.3398Y-2.85
X6.35Y-1.65
X6.35Y-2.7
X6.3598Y-1.8
X6.4398Y-2.85
X6.4419Y-4.912
X6.45Y-1.65
X6.45Y-2.7
X6.4598Y-1.8
X6.5398Y-2.85
X6.55Y-1.65
X6.55Y-2.7
X6.5598Y-1.8
X6.6398Y-2.85
X6.65Y-1.65
X6.65Y-2.7
X6.6598Y-1.8
X6.7398Y-2.85
X6.75Y-1.65
X6.75Y-2.7
X6.7598Y-1.8
X6.8398Y-2.85
X6.85Y-1.65
X6.85Y-2.7
X6.8598Y-1.8
X6.9398Y-2.85
X6.95Y-1.65
X6.95Y-2.7
X6.9598Y-1.8
X7.0398Y-2.85
X7.05Y-1.65
X7.05Y-2.7
X7.0598Y-1.8
X7.1398Y-2.85
X7.15Y-1.65
X7.15Y-2.7
X7.1598Y-1.8
X7.2398Y-2.85
X7.25Y-1.65
X7.25Y-2.7
X7.2598Y-1.8
X7.3398Y-2.85
X7.35Y-1.65
X7.35Y-2.7
X7.3598Y-1.8
X7.4398Y-2.85
X7.45Y-1.65
X7.45Y-2.7
X7.4598Y-1.8
T5
X5.7194Y-4.5198
X6.1194Y-4.5198
T6
X6.437Y-2.9931
X6.7421Y-2.9931
T7
X3.895Y-5.4179
X4.1332Y-4.8608
X4.3694Y-5.4198
X4.945Y-5.4179
X5.1832Y-4.8608
X5.4194Y-5.4198
X5.9694Y-5.3923
X6.2076Y-4.8352
X6.4439Y-5.3943
T8
X6.4429Y-3.1427
X6.7362Y-3.1427
T9
X3.25Y-1.45
X3.25Y-3.0
X3.25Y-3.0
X3.25Y-5.8
X5.2Y-1.45
X7.75Y-1.45
X7.75Y-3.0
X7.75Y-5.8
T4
G00X7.2615Y-4.1014
M15
G01X7.2615Y-4.0227
M16
G05
G00X7.419Y-3.877
M15
G01X7.3402Y-3.877
M16
G05
G00X7.4977Y-4.1014
M15
G01X7.4977Y-4.0227
M16
G05
M30
