%TF.GenerationSoftware,KiCad,Pcbnew,8.0.4*%
%TF.CreationDate,2024-10-02T08:39:37+07:00*%
%TF.ProjectId,Schematic_editted,53636865-6d61-4746-9963-5f6564697474,rev?*%
%TF.SameCoordinates,Original*%
%TF.FileFunction,Profile,NP*%
%FSLAX46Y46*%
G04 Gerber Fmt 4.6, Leading zero omitted, Abs format (unit mm)*
G04 Created by KiCad (PCBNEW 8.0.4) date 2024-10-02 08:39:37*
%MOMM*%
%LPD*%
G01*
G04 APERTURE LIST*
%TA.AperFunction,Profile*%
%ADD10C,0.050000*%
%TD*%
G04 APERTURE END LIST*
D10*
X77470000Y-35560000D02*
G75*
G02*
X81280000Y-31750000I3810000J0D01*
G01*
X195580000Y-152400000D02*
X198120000Y-152400000D01*
X195580000Y-152400000D02*
X82550000Y-152400000D01*
X198120000Y-31750000D02*
G75*
G02*
X201930000Y-35560000I0J-3810000D01*
G01*
X81280000Y-152400000D02*
G75*
G02*
X77470000Y-148590000I0J3810000D01*
G01*
X201930000Y-148590000D02*
X201930000Y-35560000D01*
X82550000Y-152400000D02*
X81280000Y-152400000D01*
X77470000Y-35560000D02*
X77470000Y-148590000D01*
X195580000Y-31750000D02*
X81280000Y-31750000D01*
X195580000Y-31750000D02*
X198120000Y-31750000D01*
X201930000Y-148590000D02*
G75*
G02*
X198120000Y-152400000I-3810000J0D01*
G01*
X198120001Y-31750000D02*
X198120001Y-31750000D01*
X198120001Y-31750000D01*
X198120001Y-31750000D01*
X198120001Y-31750000D01*
X198120001Y-31750000D01*
X198120001Y-31750001D01*
X198120001Y-31750001D01*
X198120001Y-31750001D01*
X198120001Y-31750001D01*
X198120001Y-31750001D01*
X198120001Y-31750001D01*
X198120001Y-31750001D01*
X198120000Y-31750001D01*
X198120000Y-31750001D01*
X198120000Y-31750001D01*
X198120000Y-31750001D01*
X198120000Y-31750001D01*
X198120000Y-31750001D01*
X198120000Y-31750001D01*
X198120000Y-31750001D01*
X198120000Y-31750001D01*
X198120000Y-31750001D01*
X198120000Y-31750001D01*
X198120000Y-31750001D01*
X198119999Y-31750001D01*
X198119999Y-31750001D01*
X198119999Y-31750001D01*
X198119999Y-31750001D01*
X198119999Y-31750001D01*
X198119999Y-31750001D01*
X198119999Y-31750000D01*
X198119999Y-31750000D01*
X198119999Y-31750000D01*
X198119999Y-31750000D01*
X198119999Y-31750000D01*
X198119999Y-31750000D01*
X198119999Y-31750000D02*
X198119999Y-31750000D01*
X198119999Y-31750000D01*
X198119999Y-31750000D01*
X198119999Y-31750000D01*
X198119999Y-31750000D01*
X198119999Y-31750000D01*
X198119999Y-31749999D01*
X198119999Y-31749999D01*
X198119999Y-31749999D01*
X198119999Y-31749999D01*
X198119999Y-31749999D01*
X198120000Y-31749999D01*
X198120000Y-31749999D01*
X198120000Y-31749999D01*
X198120000Y-31749999D01*
X198120000Y-31749999D01*
X198120000Y-31749999D01*
X198120000Y-31749999D01*
X198120000Y-31749999D01*
X198120000Y-31749999D01*
X198120000Y-31749999D01*
X198120000Y-31749999D01*
X198120000Y-31749999D01*
X198120001Y-31749999D01*
X198120001Y-31749999D01*
X198120001Y-31749999D01*
X198120001Y-31749999D01*
X198120001Y-31749999D01*
X198120001Y-31749999D01*
X198120001Y-31750000D01*
X198120001Y-31750000D01*
X198120001Y-31750000D01*
X198120001Y-31750000D01*
X198120001Y-31750000D01*
X198120001Y-31750000D01*
X198120001Y-31750000D01*
M02*
