%TF.GenerationSoftware,KiCad,Pcbnew,8.0.4*%
%TF.CreationDate,2024-10-02T08:39:37+07:00*%
%TF.ProjectId,Schematic_editted,53636865-6d61-4746-9963-5f6564697474,rev?*%
%TF.SameCoordinates,Original*%
%TF.FileFunction,Soldermask,Top*%
%TF.FilePolarity,Negative*%
%FSLAX46Y46*%
G04 Gerber Fmt 4.6, Leading zero omitted, Abs format (unit mm)*
G04 Created by KiCad (PCBNEW 8.0.4) date 2024-10-02 08:39:37*
%MOMM*%
%LPD*%
G01*
G04 APERTURE LIST*
G04 Aperture macros list*
%AMRoundRect*
0 Rectangle with rounded corners*
0 $1 Rounding radius*
0 $2 $3 $4 $5 $6 $7 $8 $9 X,Y pos of 4 corners*
0 Add a 4 corners polygon primitive as box body*
4,1,4,$2,$3,$4,$5,$6,$7,$8,$9,$2,$3,0*
0 Add four circle primitives for the rounded corners*
1,1,$1+$1,$2,$3*
1,1,$1+$1,$4,$5*
1,1,$1+$1,$6,$7*
1,1,$1+$1,$8,$9*
0 Add four rect primitives between the rounded corners*
20,1,$1+$1,$2,$3,$4,$5,0*
20,1,$1+$1,$4,$5,$6,$7,0*
20,1,$1+$1,$6,$7,$8,$9,0*
20,1,$1+$1,$8,$9,$2,$3,0*%
G04 Aperture macros list end*
%ADD10R,1.350000X1.350000*%
%ADD11O,1.350000X1.350000*%
%ADD12RoundRect,0.237500X-0.250000X-0.237500X0.250000X-0.237500X0.250000X0.237500X-0.250000X0.237500X0*%
%ADD13RoundRect,0.225000X0.250000X-0.225000X0.250000X0.225000X-0.250000X0.225000X-0.250000X-0.225000X0*%
%ADD14RoundRect,0.200000X-0.200000X-0.275000X0.200000X-0.275000X0.200000X0.275000X-0.200000X0.275000X0*%
%ADD15RoundRect,0.150000X-0.150000X0.587500X-0.150000X-0.587500X0.150000X-0.587500X0.150000X0.587500X0*%
%ADD16RoundRect,0.225000X-0.225000X-0.250000X0.225000X-0.250000X0.225000X0.250000X-0.225000X0.250000X0*%
%ADD17RoundRect,0.150000X-0.825000X-0.150000X0.825000X-0.150000X0.825000X0.150000X-0.825000X0.150000X0*%
%ADD18R,2.290000X3.000000*%
%ADD19R,1.500000X1.500000*%
%ADD20C,1.500000*%
%ADD21RoundRect,0.075000X-0.662500X-0.075000X0.662500X-0.075000X0.662500X0.075000X-0.662500X0.075000X0*%
%ADD22RoundRect,0.075000X-0.075000X-0.662500X0.075000X-0.662500X0.075000X0.662500X-0.075000X0.662500X0*%
%ADD23RoundRect,0.225000X-0.250000X0.225000X-0.250000X-0.225000X0.250000X-0.225000X0.250000X0.225000X0*%
%ADD24RoundRect,0.218750X-0.218750X-0.256250X0.218750X-0.256250X0.218750X0.256250X-0.218750X0.256250X0*%
%ADD25C,0.800000*%
%ADD26R,0.450000X1.300000*%
%ADD27C,1.800000*%
%ADD28C,2.000000*%
%ADD29RoundRect,0.237500X0.250000X0.237500X-0.250000X0.237500X-0.250000X-0.237500X0.250000X-0.237500X0*%
%ADD30RoundRect,0.237500X0.237500X-0.250000X0.237500X0.250000X-0.237500X0.250000X-0.237500X-0.250000X0*%
%ADD31RoundRect,0.237500X-0.237500X0.287500X-0.237500X-0.287500X0.237500X-0.287500X0.237500X0.287500X0*%
%ADD32RoundRect,0.237500X-0.237500X0.250000X-0.237500X-0.250000X0.237500X-0.250000X0.237500X0.250000X0*%
%ADD33R,1.700000X1.700000*%
%ADD34O,1.700000X1.700000*%
%ADD35RoundRect,0.218750X0.218750X0.256250X-0.218750X0.256250X-0.218750X-0.256250X0.218750X-0.256250X0*%
%ADD36RoundRect,0.150000X-0.587500X-0.150000X0.587500X-0.150000X0.587500X0.150000X-0.587500X0.150000X0*%
%ADD37R,2.200000X2.200000*%
%ADD38O,2.200000X2.200000*%
%ADD39R,0.900000X2.000000*%
%ADD40RoundRect,0.100000X-0.100000X0.130000X-0.100000X-0.130000X0.100000X-0.130000X0.100000X0.130000X0*%
%ADD41RoundRect,0.250000X1.000000X-1.950000X1.000000X1.950000X-1.000000X1.950000X-1.000000X-1.950000X0*%
%ADD42C,7.000000*%
%ADD43RoundRect,0.237500X0.287500X0.237500X-0.287500X0.237500X-0.287500X-0.237500X0.287500X-0.237500X0*%
%ADD44R,1.200000X1.250000*%
%ADD45C,3.000000*%
%ADD46C,2.500000*%
%ADD47RoundRect,0.225000X0.225000X0.250000X-0.225000X0.250000X-0.225000X-0.250000X0.225000X-0.250000X0*%
%ADD48RoundRect,0.100000X-0.130000X-0.100000X0.130000X-0.100000X0.130000X0.100000X-0.130000X0.100000X0*%
%ADD49RoundRect,0.200000X0.200000X0.275000X-0.200000X0.275000X-0.200000X-0.275000X0.200000X-0.275000X0*%
%ADD50RoundRect,0.250000X-0.250000X-0.475000X0.250000X-0.475000X0.250000X0.475000X-0.250000X0.475000X0*%
%ADD51R,0.850000X2.350000*%
%ADD52RoundRect,0.375000X-0.625000X-0.375000X0.625000X-0.375000X0.625000X0.375000X-0.625000X0.375000X0*%
%ADD53RoundRect,0.500000X-0.500000X-1.400000X0.500000X-1.400000X0.500000X1.400000X-0.500000X1.400000X0*%
%ADD54RoundRect,0.250000X-0.650000X0.325000X-0.650000X-0.325000X0.650000X-0.325000X0.650000X0.325000X0*%
%ADD55RoundRect,0.237500X0.300000X0.237500X-0.300000X0.237500X-0.300000X-0.237500X0.300000X-0.237500X0*%
%ADD56RoundRect,0.125000X0.687500X0.125000X-0.687500X0.125000X-0.687500X-0.125000X0.687500X-0.125000X0*%
%ADD57RoundRect,0.218750X-0.256250X0.218750X-0.256250X-0.218750X0.256250X-0.218750X0.256250X0.218750X0*%
%ADD58RoundRect,0.237500X0.237500X-0.287500X0.237500X0.287500X-0.237500X0.287500X-0.237500X-0.287500X0*%
%ADD59RoundRect,0.150000X-0.150000X-0.200000X0.150000X-0.200000X0.150000X0.200000X-0.150000X0.200000X0*%
%ADD60RoundRect,0.150000X-0.820000X-0.150000X0.820000X-0.150000X0.820000X0.150000X-0.820000X0.150000X0*%
%ADD61R,2.620000X3.510000*%
%ADD62R,2.350000X0.850000*%
%ADD63C,1.440000*%
%ADD64RoundRect,0.150000X0.150000X0.200000X-0.150000X0.200000X-0.150000X-0.200000X0.150000X-0.200000X0*%
%ADD65RoundRect,0.218750X0.256250X-0.218750X0.256250X0.218750X-0.256250X0.218750X-0.256250X-0.218750X0*%
%ADD66RoundRect,0.250000X-2.050000X-0.300000X2.050000X-0.300000X2.050000X0.300000X-2.050000X0.300000X0*%
%ADD67RoundRect,0.250002X-4.449998X-5.149998X4.449998X-5.149998X4.449998X5.149998X-4.449998X5.149998X0*%
%ADD68RoundRect,0.250000X0.300000X-0.300000X0.300000X0.300000X-0.300000X0.300000X-0.300000X-0.300000X0*%
%ADD69R,2.410000X3.810000*%
%ADD70RoundRect,0.250000X-0.300000X-0.300000X0.300000X-0.300000X0.300000X0.300000X-0.300000X0.300000X0*%
%ADD71RoundRect,0.250000X0.475000X-0.337500X0.475000X0.337500X-0.475000X0.337500X-0.475000X-0.337500X0*%
%ADD72R,2.000000X0.900000*%
%ADD73R,3.500000X3.500000*%
%ADD74RoundRect,0.750000X0.750000X1.000000X-0.750000X1.000000X-0.750000X-1.000000X0.750000X-1.000000X0*%
%ADD75RoundRect,0.875000X0.875000X0.875000X-0.875000X0.875000X-0.875000X-0.875000X0.875000X-0.875000X0*%
%ADD76RoundRect,0.250000X1.950000X1.000000X-1.950000X1.000000X-1.950000X-1.000000X1.950000X-1.000000X0*%
G04 APERTURE END LIST*
D10*
%TO.C,J26*%
X155496000Y-106680000D03*
D11*
X157496000Y-106680000D03*
X159496000Y-106680000D03*
X161496000Y-106680000D03*
%TD*%
D12*
%TO.C,R8*%
X167579000Y-140204000D03*
X169404000Y-140204000D03*
%TD*%
D13*
%TO.C,C4-1*%
X147812000Y-95771000D03*
X147812000Y-94221000D03*
%TD*%
D14*
%TO.C,R36*%
X95022900Y-112985400D03*
X96672900Y-112985400D03*
%TD*%
D15*
%TO.C,Q2*%
X121144000Y-140536500D03*
X119244000Y-140536500D03*
X120194000Y-142411500D03*
%TD*%
D16*
%TO.C,C14*%
X183729600Y-146554000D03*
X185279600Y-146554000D03*
%TD*%
D17*
%TO.C,U6*%
X110429000Y-98929000D03*
X110429000Y-100199000D03*
X110429000Y-101469000D03*
X110429000Y-102739000D03*
X115379000Y-102739000D03*
X115379000Y-101469000D03*
X115379000Y-100199000D03*
X115379000Y-98929000D03*
D18*
X112904000Y-100834000D03*
%TD*%
D10*
%TO.C,J24*%
X142224000Y-100632000D03*
D11*
X142224000Y-102632000D03*
X142224000Y-104632000D03*
X142224000Y-106632000D03*
%TD*%
D12*
%TO.C,RV2*%
X87710700Y-113087000D03*
X89535700Y-113087000D03*
%TD*%
D19*
%TO.C,U9*%
X88735900Y-89211000D03*
D20*
X88735900Y-91751000D03*
X88735900Y-94291000D03*
X88735900Y-96831000D03*
%TD*%
D21*
%TO.C,U4*%
X154317500Y-92754000D03*
X154317500Y-93254000D03*
X154317500Y-93754000D03*
X154317500Y-94254000D03*
X154317500Y-94754000D03*
X154317500Y-95254000D03*
X154317500Y-95754000D03*
X154317500Y-96254000D03*
X154317500Y-96754000D03*
X154317500Y-97254000D03*
X154317500Y-97754000D03*
X154317500Y-98254000D03*
D22*
X155730000Y-99666500D03*
X156230000Y-99666500D03*
X156730000Y-99666500D03*
X157230000Y-99666500D03*
X157730000Y-99666500D03*
X158230000Y-99666500D03*
X158730000Y-99666500D03*
X159230000Y-99666500D03*
X159730000Y-99666500D03*
X160230000Y-99666500D03*
X160730000Y-99666500D03*
X161230000Y-99666500D03*
D21*
X162642500Y-98254000D03*
X162642500Y-97754000D03*
X162642500Y-97254000D03*
X162642500Y-96754000D03*
X162642500Y-96254000D03*
X162642500Y-95754000D03*
X162642500Y-95254000D03*
X162642500Y-94754000D03*
X162642500Y-94254000D03*
X162642500Y-93754000D03*
X162642500Y-93254000D03*
X162642500Y-92754000D03*
D22*
X161230000Y-91341500D03*
X160730000Y-91341500D03*
X160230000Y-91341500D03*
X159730000Y-91341500D03*
X159230000Y-91341500D03*
X158730000Y-91341500D03*
X158230000Y-91341500D03*
X157730000Y-91341500D03*
X157230000Y-91341500D03*
X156730000Y-91341500D03*
X156230000Y-91341500D03*
X155730000Y-91341500D03*
%TD*%
D23*
%TO.C,C12*%
X188454000Y-145004000D03*
X188454000Y-146554000D03*
%TD*%
D24*
%TO.C,D7*%
X94036500Y-144664000D03*
X95611500Y-144664000D03*
%TD*%
D25*
%TO.C,J13*%
X169875000Y-78774000D03*
X164875000Y-78774000D03*
D26*
X168675000Y-79874000D03*
X168025000Y-79874000D03*
X167375000Y-79874000D03*
X166725000Y-79874000D03*
X166075000Y-79874000D03*
D27*
X171250000Y-76024000D03*
D28*
X171100000Y-79824000D03*
X163650000Y-79824000D03*
D27*
X163500000Y-76024000D03*
%TD*%
D10*
%TO.C,J23*%
X142224000Y-90520000D03*
D11*
X142224000Y-92520000D03*
X142224000Y-94520000D03*
X142224000Y-96520000D03*
%TD*%
D29*
%TO.C,R26*%
X121699000Y-130548800D03*
X119874000Y-130548800D03*
%TD*%
D30*
%TO.C,R2\u002C2*%
X177784000Y-87122000D03*
X177784000Y-85297000D03*
%TD*%
D23*
%TO.C,C3*%
X165594000Y-145779000D03*
X165594000Y-147329000D03*
%TD*%
D10*
%TO.C,J21*%
X170322000Y-87884000D03*
D11*
X168322000Y-87884000D03*
X166322000Y-87884000D03*
X164322000Y-87884000D03*
%TD*%
D13*
%TO.C,C2-1*%
X139684000Y-99086000D03*
X139684000Y-97536000D03*
%TD*%
D31*
%TO.C,D17*%
X142007000Y-134576000D03*
X142007000Y-136326000D03*
%TD*%
D10*
%TO.C,J31*%
X130034000Y-86864000D03*
%TD*%
D32*
%TO.C,R23*%
X108444000Y-94841500D03*
X108444000Y-96666500D03*
%TD*%
D29*
%TO.C,R3\u002C1*%
X139326500Y-90678000D03*
X137501500Y-90678000D03*
%TD*%
D14*
%TO.C,R27*%
X184933063Y-125249763D03*
X186583063Y-125249763D03*
%TD*%
D33*
%TO.C,J4*%
X189230000Y-41910000D03*
D34*
X186690000Y-41910000D03*
X184150000Y-41910000D03*
X181610000Y-41910000D03*
X179070000Y-41910000D03*
X176530000Y-41910000D03*
X173990000Y-41910000D03*
X171450000Y-41910000D03*
X168910000Y-41910000D03*
X166370000Y-41910000D03*
X163830000Y-41910000D03*
X161290000Y-41910000D03*
X158750000Y-41910000D03*
X156210000Y-41910000D03*
X153670000Y-41910000D03*
X151130000Y-41910000D03*
X148590000Y-41910000D03*
X146050000Y-41910000D03*
X143510000Y-41910000D03*
X140970000Y-41910000D03*
X138430000Y-41910000D03*
X135890000Y-41910000D03*
%TD*%
D10*
%TO.C,J12*%
X155940000Y-79248000D03*
%TD*%
%TO.C,J28*%
X173974000Y-96774000D03*
D11*
X173974000Y-94774000D03*
X173974000Y-92774000D03*
X173974000Y-90774000D03*
%TD*%
D10*
%TO.C,OP_AMP_3*%
X126224000Y-116074000D03*
D11*
X126224000Y-114074000D03*
%TD*%
D14*
%TO.C,R34*%
X95036100Y-106279800D03*
X96686100Y-106279800D03*
%TD*%
D29*
%TO.C,R4\u002C1*%
X136024500Y-84328000D03*
X134199500Y-84328000D03*
%TD*%
D13*
%TO.C,C17*%
X104634000Y-97024000D03*
X104634000Y-95474000D03*
%TD*%
D10*
%TO.C,J14*%
X152892000Y-82296000D03*
%TD*%
D29*
%TO.C,R3*%
X139479000Y-102104000D03*
X137654000Y-102104000D03*
%TD*%
D35*
%TO.C,POWER_LED1*%
X90969000Y-134504000D03*
X89394000Y-134504000D03*
%TD*%
D23*
%TO.C,C33*%
X114794000Y-119604000D03*
X114794000Y-121154000D03*
%TD*%
D13*
%TO.C,C11*%
X174484000Y-126514000D03*
X174484000Y-124964000D03*
%TD*%
D36*
%TO.C,Q5*%
X117999000Y-90044000D03*
X117999000Y-91944000D03*
X119874000Y-90994000D03*
%TD*%
D37*
%TO.C,D18*%
X155434000Y-114804000D03*
D38*
X145274000Y-114804000D03*
%TD*%
D10*
%TO.C,J16*%
X177784000Y-91218000D03*
D11*
X177784000Y-93218000D03*
X177784000Y-95218000D03*
X177784000Y-97218000D03*
%TD*%
D39*
%TO.C,J8*%
X161434000Y-143354000D03*
X159434000Y-146554000D03*
X157434000Y-143354000D03*
X155434000Y-146554000D03*
X153434000Y-143354000D03*
%TD*%
D10*
%TO.C,J39*%
X142240000Y-110490000D03*
D11*
X142240000Y-112490000D03*
%TD*%
D12*
%TO.C,R17*%
X92649000Y-138934000D03*
X94474000Y-138934000D03*
%TD*%
D40*
%TO.C,POWER_LED2*%
X115591726Y-142188526D03*
X115591726Y-142828526D03*
%TD*%
D12*
%TO.C,R21*%
X111341500Y-93214000D03*
X113166500Y-93214000D03*
%TD*%
D10*
%TO.C,J15*%
X152892000Y-79248000D03*
%TD*%
D13*
%TO.C,D2*%
X134604000Y-90437000D03*
X134604000Y-88887000D03*
%TD*%
D41*
%TO.C,C30*%
X189631063Y-137069763D03*
X189631063Y-128669763D03*
%TD*%
D29*
%TO.C,R28*%
X121699000Y-127424600D03*
X119874000Y-127424600D03*
%TD*%
D42*
%TO.C,H3*%
X132080000Y-36830000D03*
%TD*%
D10*
%TO.C,J17*%
X149084000Y-110994000D03*
D11*
X151084000Y-110994000D03*
%TD*%
D43*
%TO.C,D13*%
X121624000Y-137813200D03*
X119874000Y-137813200D03*
%TD*%
D44*
%TO.C,L1*%
X177319063Y-119153763D03*
X175019063Y-119153763D03*
%TD*%
D45*
%TO.C,K3*%
X157674000Y-122814000D03*
D46*
X151624000Y-124764000D03*
D45*
X151624000Y-136964000D03*
X163674000Y-137014000D03*
D46*
X163624000Y-124764000D03*
%TD*%
D31*
%TO.C,D16*%
X142134000Y-123552400D03*
X142134000Y-125302400D03*
%TD*%
D42*
%TO.C,H4*%
X82550000Y-76200000D03*
%TD*%
D30*
%TO.C,R6*%
X188454000Y-143299000D03*
X188454000Y-141474000D03*
%TD*%
D13*
%TO.C,C38*%
X95111300Y-94481800D03*
X95111300Y-92931800D03*
%TD*%
D47*
%TO.C,C22*%
X113029000Y-96754000D03*
X111479000Y-96754000D03*
%TD*%
D48*
%TO.C,104\u002C1*%
X141142000Y-81534000D03*
X141782000Y-81534000D03*
%TD*%
D29*
%TO.C,R38*%
X147413400Y-123386000D03*
X145588400Y-123386000D03*
%TD*%
D49*
%TO.C,R31*%
X131304000Y-100834000D03*
X129654000Y-100834000D03*
%TD*%
D47*
%TO.C,C15*%
X127774000Y-79244000D03*
X126224000Y-79244000D03*
%TD*%
D50*
%TO.C,C29*%
X114794000Y-123694000D03*
X116694000Y-123694000D03*
%TD*%
D29*
%TO.C,R1*%
X105322100Y-116973200D03*
X103497100Y-116973200D03*
%TD*%
D47*
%TO.C,C10*%
X185355800Y-144014000D03*
X183805800Y-144014000D03*
%TD*%
D20*
%TO.C,Y1*%
X136128000Y-94112000D03*
X136128000Y-97912000D03*
%TD*%
D16*
%TO.C,D1*%
X80734600Y-110312200D03*
X82284600Y-110312200D03*
%TD*%
D51*
%TO.C,J6*%
X107904000Y-145284000D03*
X105904000Y-147634000D03*
X103904000Y-145284000D03*
X101904000Y-147634000D03*
%TD*%
D52*
%TO.C,U1*%
X143646000Y-78218000D03*
X143646000Y-80518000D03*
D53*
X149946000Y-80518000D03*
D52*
X143646000Y-82818000D03*
%TD*%
D47*
%TO.C,C13*%
X128103600Y-82940000D03*
X126553600Y-82940000D03*
%TD*%
D10*
%TO.C,J25*%
X146590000Y-102870000D03*
D11*
X148590000Y-102870000D03*
X150590000Y-102870000D03*
X152590000Y-102870000D03*
%TD*%
D15*
%TO.C,Q1*%
X94504000Y-125009000D03*
X92604000Y-125009000D03*
X93554000Y-126884000D03*
%TD*%
D17*
%TO.C,U7*%
X118019000Y-108089000D03*
X118019000Y-109359000D03*
X118019000Y-110629000D03*
X118019000Y-111899000D03*
X122969000Y-111899000D03*
X122969000Y-110629000D03*
X122969000Y-109359000D03*
X122969000Y-108089000D03*
D18*
X120494000Y-109994000D03*
%TD*%
D12*
%TO.C,R19*%
X99911500Y-95754000D03*
X101736500Y-95754000D03*
%TD*%
D23*
%TO.C,C1-1*%
X139684000Y-92964000D03*
X139684000Y-94514000D03*
%TD*%
D47*
%TO.C,C5*%
X135974500Y-80189500D03*
X134424500Y-80189500D03*
%TD*%
D54*
%TO.C,C31*%
X122617600Y-94507600D03*
X122617600Y-97457600D03*
%TD*%
D10*
%TO.C,J1*%
X81674700Y-100244000D03*
D11*
X81674700Y-98244000D03*
%TD*%
D10*
%TO.C,J22*%
X151828000Y-87884000D03*
D11*
X149828000Y-87884000D03*
X147828000Y-87884000D03*
X145828000Y-87884000D03*
%TD*%
D42*
%TO.C,H7*%
X82550000Y-76200000D03*
%TD*%
D33*
%TO.C,J18*%
X189480000Y-45720000D03*
D34*
X186940000Y-45720000D03*
X184400000Y-45720000D03*
X181860000Y-45720000D03*
X179320000Y-45720000D03*
X176780000Y-45720000D03*
X174240000Y-45720000D03*
X171700000Y-45720000D03*
X169160000Y-45720000D03*
X166620000Y-45720000D03*
X164080000Y-45720000D03*
X161540000Y-45720000D03*
X159000000Y-45720000D03*
X156460000Y-45720000D03*
X153920000Y-45720000D03*
X151380000Y-45720000D03*
X148840000Y-45720000D03*
X146300000Y-45720000D03*
X143760000Y-45720000D03*
X141220000Y-45720000D03*
X138680000Y-45720000D03*
X136140000Y-45720000D03*
%TD*%
D10*
%TO.C,J3*%
X81979500Y-91547800D03*
D11*
X81979500Y-89547800D03*
X81979500Y-87547800D03*
%TD*%
D10*
%TO.C,J32*%
X98284000Y-109724000D03*
%TD*%
D16*
%TO.C,C27*%
X106894000Y-114296000D03*
X108444000Y-114296000D03*
%TD*%
D55*
%TO.C,104\u002C3*%
X136217826Y-77907426D03*
X134492826Y-77907426D03*
%TD*%
D56*
%TO.C,U2*%
X92499400Y-105324400D03*
X92499400Y-104674400D03*
X92499400Y-104024400D03*
X92499400Y-103374400D03*
X88274400Y-103374400D03*
X88274400Y-104024400D03*
X88274400Y-104674400D03*
X88274400Y-105324400D03*
%TD*%
D16*
%TO.C,C26*%
X106894000Y-110994000D03*
X108444000Y-110994000D03*
%TD*%
D32*
%TO.C,R16*%
X105904000Y-102036200D03*
X105904000Y-103861200D03*
%TD*%
D42*
%TO.C,H1*%
X82550000Y-36830000D03*
%TD*%
D12*
%TO.C,R30*%
X178662063Y-129821763D03*
X180487063Y-129821763D03*
%TD*%
D30*
%TO.C,R3\u002C4*%
X159242000Y-87630000D03*
X159242000Y-85805000D03*
%TD*%
D57*
%TO.C,D8*%
X89744000Y-142606500D03*
X89744000Y-144181500D03*
%TD*%
D52*
%TO.C,U11*%
X163714000Y-109964000D03*
X163714000Y-112264000D03*
D53*
X170014000Y-112264000D03*
D52*
X163714000Y-114564000D03*
%TD*%
D58*
%TO.C,D15*%
X142108600Y-130574200D03*
X142108600Y-128824200D03*
%TD*%
D32*
%TO.C,R9*%
X182104000Y-141831500D03*
X182104000Y-143656500D03*
%TD*%
D13*
%TO.C,C37*%
X109753600Y-82609800D03*
X109753600Y-81059800D03*
%TD*%
D23*
%TO.C,C16*%
X170150652Y-124939252D03*
X170150652Y-126489252D03*
%TD*%
D10*
%TO.C,J20*%
X173974000Y-107410000D03*
D11*
X173974000Y-105410000D03*
X173974000Y-103410000D03*
X173974000Y-101410000D03*
%TD*%
D16*
%TO.C,C6*%
X87732300Y-108794400D03*
X89282300Y-108794400D03*
%TD*%
D15*
%TO.C,Q3*%
X147234400Y-142156600D03*
X145334400Y-142156600D03*
X146284400Y-144031600D03*
%TD*%
D35*
%TO.C,SW1*%
X142476200Y-84912200D03*
X140901200Y-84912200D03*
%TD*%
D59*
%TO.C,D5*%
X182804000Y-138934000D03*
X181404000Y-138934000D03*
%TD*%
D58*
%TO.C,D10*%
X115794926Y-139189126D03*
X115794926Y-137439126D03*
%TD*%
D42*
%TO.C,H6*%
X196850000Y-147320000D03*
%TD*%
D29*
%TO.C,R12*%
X180476500Y-136394000D03*
X178651500Y-136394000D03*
%TD*%
D12*
%TO.C,R7*%
X80861500Y-103374000D03*
X82686500Y-103374000D03*
%TD*%
D29*
%TO.C,R29*%
X116451526Y-126731726D03*
X114626526Y-126731726D03*
%TD*%
D14*
%TO.C,R32*%
X125044400Y-87041800D03*
X126694400Y-87041800D03*
%TD*%
D29*
%TO.C,R5*%
X171229000Y-147824000D03*
X169404000Y-147824000D03*
%TD*%
D30*
%TO.C,R2\u002C1*%
X168132000Y-93218000D03*
X168132000Y-91393000D03*
%TD*%
D16*
%TO.C,C19*%
X112254000Y-106331500D03*
X113804000Y-106331500D03*
%TD*%
D10*
%TO.C,J30*%
X158988000Y-79248000D03*
%TD*%
D29*
%TO.C,R37*%
X147290200Y-127272200D03*
X145465200Y-127272200D03*
%TD*%
D12*
%TO.C,R20*%
X116421500Y-97024000D03*
X118246500Y-97024000D03*
%TD*%
D60*
%TO.C,U10*%
X128209000Y-104404000D03*
X128209000Y-105674000D03*
X128209000Y-106944000D03*
X128209000Y-108214000D03*
X133169000Y-108214000D03*
X133169000Y-106944000D03*
X133169000Y-105674000D03*
X133169000Y-104404000D03*
D61*
X130689000Y-106309000D03*
%TD*%
D12*
%TO.C,RV3*%
X99911500Y-91944000D03*
X101736500Y-91944000D03*
%TD*%
%TO.C,R15*%
X88481500Y-138314000D03*
X90306500Y-138314000D03*
%TD*%
%TO.C,R2*%
X176469000Y-138934000D03*
X178294000Y-138934000D03*
%TD*%
D15*
%TO.C,Q4*%
X110664000Y-88466500D03*
X108764000Y-88466500D03*
X109714000Y-90341500D03*
%TD*%
D16*
%TO.C,C21*%
X101319000Y-109724000D03*
X102869000Y-109724000D03*
%TD*%
D10*
%TO.C,J11*%
X197344000Y-131314000D03*
D11*
X197344000Y-133314000D03*
%TD*%
D33*
%TO.C,J19*%
X189230000Y-68580000D03*
D34*
X186690000Y-68580000D03*
X184150000Y-68580000D03*
X181610000Y-68580000D03*
X179070000Y-68580000D03*
X176530000Y-68580000D03*
X173990000Y-68580000D03*
X171450000Y-68580000D03*
X168910000Y-68580000D03*
X166370000Y-68580000D03*
X163830000Y-68580000D03*
X161290000Y-68580000D03*
X158750000Y-68580000D03*
X156210000Y-68580000D03*
X153670000Y-68580000D03*
X151130000Y-68580000D03*
X148590000Y-68580000D03*
X146050000Y-68580000D03*
X143510000Y-68580000D03*
X140970000Y-68580000D03*
X138430000Y-68580000D03*
X135890000Y-68580000D03*
%TD*%
D62*
%TO.C,J2*%
X81001100Y-130429600D03*
X83351100Y-132429600D03*
X81001100Y-134429600D03*
X83351100Y-136429600D03*
%TD*%
D63*
%TO.C,RV4*%
X175407063Y-110517763D03*
X175407063Y-113057763D03*
X175407063Y-115597763D03*
%TD*%
D30*
%TO.C,RV1*%
X170674000Y-144569000D03*
X170674000Y-142744000D03*
%TD*%
D40*
%TO.C,POWER_LED3*%
X147814000Y-133214000D03*
X147814000Y-133854000D03*
%TD*%
D16*
%TO.C,C4*%
X119594000Y-119884000D03*
X121144000Y-119884000D03*
%TD*%
D64*
%TO.C,D9*%
X112124000Y-116074000D03*
X113524000Y-116074000D03*
%TD*%
D10*
%TO.C,J27*%
X169862000Y-102870000D03*
D11*
X167862000Y-102870000D03*
X165862000Y-102870000D03*
X163862000Y-102870000D03*
%TD*%
D24*
%TO.C,D4*%
X80582400Y-107184000D03*
X82157400Y-107184000D03*
%TD*%
D16*
%TO.C,C8*%
X94474000Y-133854000D03*
X96024000Y-133854000D03*
%TD*%
%TO.C,C20*%
X101395800Y-105964800D03*
X102945800Y-105964800D03*
%TD*%
D12*
%TO.C,R13*%
X89189000Y-130694000D03*
X91014000Y-130694000D03*
%TD*%
D42*
%TO.C,H2*%
X196850000Y-36830000D03*
%TD*%
%TO.C,H8*%
X196850000Y-76200000D03*
%TD*%
D29*
%TO.C,R22*%
X113166500Y-110994000D03*
X111341500Y-110994000D03*
%TD*%
D30*
%TO.C,R3\u002C3*%
X173671100Y-87122000D03*
X173671100Y-85297000D03*
%TD*%
D16*
%TO.C,C7*%
X171664000Y-138934000D03*
X173214000Y-138934000D03*
%TD*%
D12*
%TO.C,R18*%
X105084800Y-119527900D03*
X106909800Y-119527900D03*
%TD*%
D29*
%TO.C,R33*%
X147262900Y-137813200D03*
X145437900Y-137813200D03*
%TD*%
D17*
%TO.C,Q6*%
X113589000Y-82419000D03*
X113589000Y-83689000D03*
X113589000Y-84959000D03*
X113589000Y-86229000D03*
X118539000Y-86229000D03*
X118539000Y-84959000D03*
X118539000Y-83689000D03*
X118539000Y-82419000D03*
%TD*%
D13*
%TO.C,C32*%
X160514000Y-112264000D03*
X160514000Y-110714000D03*
%TD*%
D23*
%TO.C,C36*%
X119874000Y-123414000D03*
X119874000Y-124964000D03*
%TD*%
D65*
%TO.C,D3*%
X139430000Y-88900000D03*
X139430000Y-87325000D03*
%TD*%
D12*
%TO.C,R4*%
X84443300Y-108032400D03*
X86268300Y-108032400D03*
%TD*%
D66*
%TO.C,U8*%
X182423237Y-111753237D03*
X182423237Y-113453237D03*
X182423237Y-115153237D03*
D67*
X191573237Y-115153237D03*
D66*
X182423237Y-116853237D03*
X182423237Y-118553237D03*
%TD*%
D17*
%TO.C,U3*%
X173979000Y-142629000D03*
X173979000Y-143899000D03*
X173979000Y-145169000D03*
X173979000Y-146439000D03*
X178929000Y-146439000D03*
X178929000Y-145169000D03*
X178929000Y-143899000D03*
X178929000Y-142629000D03*
D18*
X176454000Y-144534000D03*
%TD*%
D68*
%TO.C,D11*%
X194711063Y-125887763D03*
X194711063Y-123087763D03*
%TD*%
D17*
%TO.C,U5*%
X170169000Y-131949000D03*
X170169000Y-133219000D03*
X170169000Y-134489000D03*
X170169000Y-135759000D03*
X175119000Y-135759000D03*
X175119000Y-134489000D03*
X175119000Y-133219000D03*
X175119000Y-131949000D03*
D69*
X172644000Y-133854000D03*
%TD*%
D24*
%TO.C,D19*%
X94882500Y-102673000D03*
X96457500Y-102673000D03*
%TD*%
D70*
%TO.C,D14*%
X179595063Y-124233763D03*
X182395063Y-124233763D03*
%TD*%
D32*
%TO.C,R14*%
X156448000Y-85805000D03*
X156448000Y-87630000D03*
%TD*%
D71*
%TO.C,C28*%
X131304000Y-98061500D03*
X131304000Y-95986500D03*
%TD*%
D29*
%TO.C,R11*%
X95922000Y-118214600D03*
X94097000Y-118214600D03*
%TD*%
D72*
%TO.C,J7*%
X80989100Y-114268600D03*
X84189100Y-116268600D03*
X80989100Y-118268600D03*
X84189100Y-120268600D03*
X80989100Y-122268600D03*
%TD*%
D29*
%TO.C,R10*%
X167776500Y-142744000D03*
X165951500Y-142744000D03*
%TD*%
D58*
%TO.C,D12*%
X116226726Y-133259526D03*
X116226726Y-131509526D03*
%TD*%
D42*
%TO.C,H5*%
X82550000Y-147320000D03*
%TD*%
D33*
%TO.C,J5*%
X188970000Y-72390000D03*
D34*
X186430000Y-72390000D03*
X183890000Y-72390000D03*
X181350000Y-72390000D03*
X178810000Y-72390000D03*
X176270000Y-72390000D03*
X173730000Y-72390000D03*
X171190000Y-72390000D03*
X168650000Y-72390000D03*
X166110000Y-72390000D03*
X163570000Y-72390000D03*
X161030000Y-72390000D03*
X158490000Y-72390000D03*
X155950000Y-72390000D03*
X153410000Y-72390000D03*
X150870000Y-72390000D03*
X148330000Y-72390000D03*
X145790000Y-72390000D03*
X143250000Y-72390000D03*
X140710000Y-72390000D03*
X138170000Y-72390000D03*
X135630000Y-72390000D03*
%TD*%
D29*
%TO.C,R35*%
X147188600Y-130345600D03*
X145363600Y-130345600D03*
%TD*%
D73*
%TO.C,J37*%
X184442237Y-103175737D03*
D74*
X190442237Y-103175737D03*
D75*
X187442237Y-98475737D03*
%TD*%
D45*
%TO.C,K1*%
X104984000Y-123464000D03*
D46*
X98934000Y-125414000D03*
D45*
X98934000Y-137614000D03*
X110984000Y-137664000D03*
D46*
X110934000Y-125414000D03*
%TD*%
D47*
%TO.C,C23*%
X102920400Y-112949800D03*
X101370400Y-112949800D03*
%TD*%
%TO.C,C18*%
X102869000Y-102104000D03*
X101319000Y-102104000D03*
%TD*%
D39*
%TO.C,J9*%
X135304000Y-143684000D03*
X133304000Y-146884000D03*
X131304000Y-143684000D03*
X129304000Y-146884000D03*
X127304000Y-143684000D03*
%TD*%
D29*
%TO.C,R24*%
X119159000Y-116074000D03*
X117334000Y-116074000D03*
%TD*%
D13*
%TO.C,C3-1*%
X149844000Y-95771000D03*
X149844000Y-94221000D03*
%TD*%
D10*
%TO.C,J29*%
X155940000Y-82296000D03*
%TD*%
D76*
%TO.C,C25*%
X194642237Y-90534237D03*
X186242237Y-90534237D03*
%TD*%
D45*
%TO.C,K2*%
X131654000Y-123464000D03*
D46*
X125604000Y-125414000D03*
D45*
X125604000Y-137614000D03*
X137654000Y-137664000D03*
D46*
X137604000Y-125414000D03*
%TD*%
D16*
%TO.C,104\u002C5*%
X151622000Y-85090000D03*
X153172000Y-85090000D03*
%TD*%
D35*
%TO.C,D6*%
X95611500Y-130694000D03*
X94036500Y-130694000D03*
%TD*%
D16*
%TO.C,C24*%
X106894000Y-106214800D03*
X108444000Y-106214800D03*
%TD*%
D29*
%TO.C,R25*%
X121699000Y-134104800D03*
X119874000Y-134104800D03*
%TD*%
M02*
