%TF.GenerationSoftware,KiCad,Pcbnew,8.0.4*%
%TF.CreationDate,2024-10-02T08:39:37+07:00*%
%TF.ProjectId,Schematic_editted,53636865-6d61-4746-9963-5f6564697474,rev?*%
%TF.SameCoordinates,Original*%
%TF.FileFunction,Soldermask,Bot*%
%TF.FilePolarity,Negative*%
%FSLAX46Y46*%
G04 Gerber Fmt 4.6, Leading zero omitted, Abs format (unit mm)*
G04 Created by KiCad (PCBNEW 8.0.4) date 2024-10-02 08:39:37*
%MOMM*%
%LPD*%
G01*
G04 APERTURE LIST*
G04 Aperture macros list*
%AMRoundRect*
0 Rectangle with rounded corners*
0 $1 Rounding radius*
0 $2 $3 $4 $5 $6 $7 $8 $9 X,Y pos of 4 corners*
0 Add a 4 corners polygon primitive as box body*
4,1,4,$2,$3,$4,$5,$6,$7,$8,$9,$2,$3,0*
0 Add four circle primitives for the rounded corners*
1,1,$1+$1,$2,$3*
1,1,$1+$1,$4,$5*
1,1,$1+$1,$6,$7*
1,1,$1+$1,$8,$9*
0 Add four rect primitives between the rounded corners*
20,1,$1+$1,$2,$3,$4,$5,0*
20,1,$1+$1,$4,$5,$6,$7,0*
20,1,$1+$1,$6,$7,$8,$9,0*
20,1,$1+$1,$8,$9,$2,$3,0*%
G04 Aperture macros list end*
%ADD10R,1.350000X1.350000*%
%ADD11O,1.350000X1.350000*%
%ADD12R,1.500000X1.500000*%
%ADD13C,1.500000*%
%ADD14C,0.800000*%
%ADD15C,1.800000*%
%ADD16C,2.000000*%
%ADD17R,1.700000X1.700000*%
%ADD18O,1.700000X1.700000*%
%ADD19R,2.200000X2.200000*%
%ADD20O,2.200000X2.200000*%
%ADD21C,7.000000*%
%ADD22C,3.000000*%
%ADD23C,2.500000*%
%ADD24C,1.440000*%
%ADD25R,3.500000X3.500000*%
%ADD26RoundRect,0.750000X0.750000X1.000000X-0.750000X1.000000X-0.750000X-1.000000X0.750000X-1.000000X0*%
%ADD27RoundRect,0.875000X0.875000X0.875000X-0.875000X0.875000X-0.875000X-0.875000X0.875000X-0.875000X0*%
%ADD28RoundRect,0.225000X-0.225000X-0.250000X0.225000X-0.250000X0.225000X0.250000X-0.225000X0.250000X0*%
%ADD29RoundRect,0.225000X0.225000X0.250000X-0.225000X0.250000X-0.225000X-0.250000X0.225000X-0.250000X0*%
%ADD30RoundRect,0.237500X0.300000X0.237500X-0.300000X0.237500X-0.300000X-0.237500X0.300000X-0.237500X0*%
%ADD31RoundRect,0.237500X0.250000X0.237500X-0.250000X0.237500X-0.250000X-0.237500X0.250000X-0.237500X0*%
%ADD32R,1.430000X2.850000*%
G04 APERTURE END LIST*
D10*
%TO.C,J26*%
X155496000Y-106680000D03*
D11*
X157496000Y-106680000D03*
X159496000Y-106680000D03*
X161496000Y-106680000D03*
%TD*%
D10*
%TO.C,J24*%
X142224000Y-100632000D03*
D11*
X142224000Y-102632000D03*
X142224000Y-104632000D03*
X142224000Y-106632000D03*
%TD*%
D12*
%TO.C,U9*%
X88735900Y-89211000D03*
D13*
X88735900Y-91751000D03*
X88735900Y-94291000D03*
X88735900Y-96831000D03*
%TD*%
D14*
%TO.C,J13*%
X169875000Y-78774000D03*
X164875000Y-78774000D03*
D15*
X171250000Y-76024000D03*
D16*
X171100000Y-79824000D03*
X163650000Y-79824000D03*
D15*
X163500000Y-76024000D03*
%TD*%
D10*
%TO.C,J23*%
X142224000Y-90520000D03*
D11*
X142224000Y-92520000D03*
X142224000Y-94520000D03*
X142224000Y-96520000D03*
%TD*%
D10*
%TO.C,J21*%
X170322000Y-87884000D03*
D11*
X168322000Y-87884000D03*
X166322000Y-87884000D03*
X164322000Y-87884000D03*
%TD*%
D10*
%TO.C,J31*%
X130034000Y-86864000D03*
%TD*%
D17*
%TO.C,J4*%
X189230000Y-41910000D03*
D18*
X186690000Y-41910000D03*
X184150000Y-41910000D03*
X181610000Y-41910000D03*
X179070000Y-41910000D03*
X176530000Y-41910000D03*
X173990000Y-41910000D03*
X171450000Y-41910000D03*
X168910000Y-41910000D03*
X166370000Y-41910000D03*
X163830000Y-41910000D03*
X161290000Y-41910000D03*
X158750000Y-41910000D03*
X156210000Y-41910000D03*
X153670000Y-41910000D03*
X151130000Y-41910000D03*
X148590000Y-41910000D03*
X146050000Y-41910000D03*
X143510000Y-41910000D03*
X140970000Y-41910000D03*
X138430000Y-41910000D03*
X135890000Y-41910000D03*
%TD*%
D10*
%TO.C,J12*%
X155940000Y-79248000D03*
%TD*%
%TO.C,J28*%
X173974000Y-96774000D03*
D11*
X173974000Y-94774000D03*
X173974000Y-92774000D03*
X173974000Y-90774000D03*
%TD*%
D10*
%TO.C,OP_AMP_3*%
X126224000Y-116074000D03*
D11*
X126224000Y-114074000D03*
%TD*%
D10*
%TO.C,J14*%
X152892000Y-82296000D03*
%TD*%
D19*
%TO.C,D18*%
X155434000Y-114804000D03*
D20*
X145274000Y-114804000D03*
%TD*%
D10*
%TO.C,J16*%
X177784000Y-91218000D03*
D11*
X177784000Y-93218000D03*
X177784000Y-95218000D03*
X177784000Y-97218000D03*
%TD*%
D10*
%TO.C,J39*%
X142240000Y-110490000D03*
D11*
X142240000Y-112490000D03*
%TD*%
D10*
%TO.C,J15*%
X152892000Y-79248000D03*
%TD*%
D21*
%TO.C,H3*%
X132080000Y-36830000D03*
%TD*%
D10*
%TO.C,J17*%
X149084000Y-110994000D03*
D11*
X151084000Y-110994000D03*
%TD*%
D22*
%TO.C,K3*%
X157674000Y-122814000D03*
D23*
X151624000Y-124764000D03*
D22*
X151624000Y-136964000D03*
X163674000Y-137014000D03*
D23*
X163624000Y-124764000D03*
%TD*%
D21*
%TO.C,H4*%
X82550000Y-76200000D03*
%TD*%
D13*
%TO.C,Y1*%
X136128000Y-94112000D03*
X136128000Y-97912000D03*
%TD*%
D10*
%TO.C,J25*%
X146590000Y-102870000D03*
D11*
X148590000Y-102870000D03*
X150590000Y-102870000D03*
X152590000Y-102870000D03*
%TD*%
D10*
%TO.C,J1*%
X81674700Y-100244000D03*
D11*
X81674700Y-98244000D03*
%TD*%
D10*
%TO.C,J22*%
X151828000Y-87884000D03*
D11*
X149828000Y-87884000D03*
X147828000Y-87884000D03*
X145828000Y-87884000D03*
%TD*%
D21*
%TO.C,H7*%
X82550000Y-76200000D03*
%TD*%
D17*
%TO.C,J18*%
X189480000Y-45720000D03*
D18*
X186940000Y-45720000D03*
X184400000Y-45720000D03*
X181860000Y-45720000D03*
X179320000Y-45720000D03*
X176780000Y-45720000D03*
X174240000Y-45720000D03*
X171700000Y-45720000D03*
X169160000Y-45720000D03*
X166620000Y-45720000D03*
X164080000Y-45720000D03*
X161540000Y-45720000D03*
X159000000Y-45720000D03*
X156460000Y-45720000D03*
X153920000Y-45720000D03*
X151380000Y-45720000D03*
X148840000Y-45720000D03*
X146300000Y-45720000D03*
X143760000Y-45720000D03*
X141220000Y-45720000D03*
X138680000Y-45720000D03*
X136140000Y-45720000D03*
%TD*%
D10*
%TO.C,J3*%
X81979500Y-91547800D03*
D11*
X81979500Y-89547800D03*
X81979500Y-87547800D03*
%TD*%
D10*
%TO.C,J32*%
X98284000Y-109724000D03*
%TD*%
D21*
%TO.C,H1*%
X82550000Y-36830000D03*
%TD*%
D10*
%TO.C,J20*%
X173974000Y-107410000D03*
D11*
X173974000Y-105410000D03*
X173974000Y-103410000D03*
X173974000Y-101410000D03*
%TD*%
D21*
%TO.C,H6*%
X196850000Y-147320000D03*
%TD*%
D10*
%TO.C,J30*%
X158988000Y-79248000D03*
%TD*%
%TO.C,J11*%
X197344000Y-131314000D03*
D11*
X197344000Y-133314000D03*
%TD*%
D17*
%TO.C,J19*%
X189230000Y-68580000D03*
D18*
X186690000Y-68580000D03*
X184150000Y-68580000D03*
X181610000Y-68580000D03*
X179070000Y-68580000D03*
X176530000Y-68580000D03*
X173990000Y-68580000D03*
X171450000Y-68580000D03*
X168910000Y-68580000D03*
X166370000Y-68580000D03*
X163830000Y-68580000D03*
X161290000Y-68580000D03*
X158750000Y-68580000D03*
X156210000Y-68580000D03*
X153670000Y-68580000D03*
X151130000Y-68580000D03*
X148590000Y-68580000D03*
X146050000Y-68580000D03*
X143510000Y-68580000D03*
X140970000Y-68580000D03*
X138430000Y-68580000D03*
X135890000Y-68580000D03*
%TD*%
D24*
%TO.C,RV4*%
X175407063Y-110517763D03*
X175407063Y-113057763D03*
X175407063Y-115597763D03*
%TD*%
D10*
%TO.C,J27*%
X169862000Y-102870000D03*
D11*
X167862000Y-102870000D03*
X165862000Y-102870000D03*
X163862000Y-102870000D03*
%TD*%
D21*
%TO.C,H2*%
X196850000Y-36830000D03*
%TD*%
%TO.C,H8*%
X196850000Y-76200000D03*
%TD*%
%TO.C,H5*%
X82550000Y-147320000D03*
%TD*%
D17*
%TO.C,J5*%
X188970000Y-72390000D03*
D18*
X186430000Y-72390000D03*
X183890000Y-72390000D03*
X181350000Y-72390000D03*
X178810000Y-72390000D03*
X176270000Y-72390000D03*
X173730000Y-72390000D03*
X171190000Y-72390000D03*
X168650000Y-72390000D03*
X166110000Y-72390000D03*
X163570000Y-72390000D03*
X161030000Y-72390000D03*
X158490000Y-72390000D03*
X155950000Y-72390000D03*
X153410000Y-72390000D03*
X150870000Y-72390000D03*
X148330000Y-72390000D03*
X145790000Y-72390000D03*
X143250000Y-72390000D03*
X140710000Y-72390000D03*
X138170000Y-72390000D03*
X135630000Y-72390000D03*
%TD*%
D25*
%TO.C,J37*%
X184442237Y-103175737D03*
D26*
X190442237Y-103175737D03*
D27*
X187442237Y-98475737D03*
%TD*%
D22*
%TO.C,K1*%
X104984000Y-123464000D03*
D23*
X98934000Y-125414000D03*
D22*
X98934000Y-137614000D03*
X110984000Y-137664000D03*
D23*
X110934000Y-125414000D03*
%TD*%
D10*
%TO.C,J29*%
X155940000Y-82296000D03*
%TD*%
D22*
%TO.C,K2*%
X131654000Y-123464000D03*
D23*
X125604000Y-125414000D03*
D22*
X125604000Y-137614000D03*
X137654000Y-137664000D03*
D23*
X137604000Y-125414000D03*
%TD*%
D28*
%TO.C,C35*%
X171169000Y-121154000D03*
X172719000Y-121154000D03*
%TD*%
D29*
%TO.C,104\u002C2*%
X139824000Y-82321400D03*
X138274000Y-82321400D03*
%TD*%
%TO.C,C9*%
X139697000Y-79248000D03*
X138147000Y-79248000D03*
%TD*%
%TO.C,C2*%
X139646200Y-76327000D03*
X138096200Y-76327000D03*
%TD*%
D28*
%TO.C,C1*%
X141957000Y-75692000D03*
X143507000Y-75692000D03*
%TD*%
D30*
%TO.C,104\u002C4*%
X136215500Y-78036250D03*
X134490500Y-78036250D03*
%TD*%
D28*
%TO.C,105\u002C1*%
X157705000Y-99822000D03*
X159255000Y-99822000D03*
%TD*%
%TO.C,C34*%
X171664000Y-118614000D03*
X173214000Y-118614000D03*
%TD*%
D31*
%TO.C,R3\u002C2*%
X159646500Y-97282000D03*
X157821500Y-97282000D03*
%TD*%
D32*
%TO.C,Y2*%
X145738000Y-93429000D03*
X151368000Y-93429000D03*
X151368000Y-97579000D03*
X145738000Y-97579000D03*
%TD*%
M02*
